{
 "cells": [
  {
   "cell_type": "code",
   "execution_count": 31,
   "metadata": {},
   "outputs": [],
   "source": [
    "# Import necessary libraries\n",
    "import numpy as np\n",
    "import pandas as pd\n",
    "import tensorflow as tf\n",
    "import music21 as m21\n",
    "import mido as md # Used for MIDI file visualization and manipulation\n",
    "import pretty_midi as pm \n",
    "import librosa as lb\n",
    "import glob\n",
    "import os\n",
    "import fluidsynth as fs # For MIDI playback as MP3/WAV files\n",
    "\n",
    "from matplotlib import pyplot as plt"
   ]
  },
  {
   "cell_type": "code",
   "execution_count": 32,
   "metadata": {},
   "outputs": [],
   "source": [
    "# Find file paths to MIDI files\n",
    "DataPath = \"Data\\\\Archive\" # Change path as needed: / or \\\\ depending on OS\n",
    "FilePaths = []\n",
    "\n",
    "\n",
    "subdirectories = [os.path.join(DataPath, d) for d in os.listdir(DataPath) if os.path.isdir(os.path.join(DataPath, d))]\n",
    "\n",
    "for subdir in subdirectories:\n",
    "    files = [f for f in os.listdir(subdir) if os.path.isfile(os.path.join(subdir, f))]\n",
    "    \n",
    "    for file in files:\n",
    "        file_path = os.path.join(subdir, file)\n",
    "        # print(file_path) # Uncomment to see file paths\n",
    "        FilePaths.append(file_path)\n",
    "\n",
    "df = pd.DataFrame()\n",
    "df[\"file_paths\"] = FilePaths        "
   ]
  },
  {
   "cell_type": "code",
   "execution_count": 33,
   "metadata": {},
   "outputs": [],
   "source": [
    "df.to_csv(\"Data\\\\Preprocessed\\\\FilePaths.csv\", index=False)\n",
    "\n",
    "# Uncomment to view\n",
    "# df.head(20)\n",
    "# df.tail(20)"
   ]
  },
  {
   "cell_type": "code",
   "execution_count": 34,
   "metadata": {},
   "outputs": [
    {
     "name": "stdout",
     "output_type": "stream",
     "text": [
      "MidiFile(type=1, ticks_per_beat=240, tracks=[\n",
      "  MidiTrack([\n",
      "    MetaMessage('time_signature', numerator=4, denominator=4, clocks_per_click=24, notated_32nd_notes_per_beat=8, time=0),\n",
      "    MetaMessage('key_signature', key='C', time=0),\n",
      "    MetaMessage('set_tempo', tempo=500000, time=0),\n",
      "    MetaMessage('marker', text='Caught Up In You', time=0),\n",
      "    MetaMessage('end_of_track', time=0)]),\n",
      "  MidiTrack([\n",
      "    MetaMessage('midi_port', port=0, time=0),\n",
      "    MetaMessage('track_name', name='Vocal', time=0),\n",
      "    Message('program_change', channel=1, program=62, time=0),\n",
      "    Message('control_change', channel=1, control=7, value=115, time=0),\n",
      "    Message('control_change', channel=1, control=0, value=0, time=480),\n",
      "    Message('control_change', channel=1, control=32, value=0, time=5),\n",
      "    Message('control_change', channel=1, control=1, value=0, time=10),\n",
      "    Message('control_change', channel=1, control=10, value=90, time=10),\n",
      "    Message('control_change', channel=1, control=11, value=127, time=5),\n",
      "    Message('control_change', channel=1, control=64, value=0, time=5),\n",
      "    Message('control_change', channel=1, control=91, value=90, time=5),\n",
      "    Message('control_change', channel=1, control=93, value=127, time=5),\n",
      "    Message('pitchwheel', channel=1, pitch=0, time=5),\n",
      "    Message('control_change', channel=1, control=7, value=115, time=550),\n",
      "    Message('control_change', channel=1, control=93, value=127, time=120),\n",
      "    Message('control_change', channel=1, control=91, value=90, time=0),\n",
      "    Message('note_on', channel=1, note=68, velocity=79, time=3840),\n",
      "    Message('note_on', channel=1, note=68, velocity=0, time=80),\n",
      "    Message('note_on', channel=1, note=66, velocity=79, time=40),\n",
      "    Message('note_on', channel=1, note=66, velocity=0, time=200),\n",
      "    Message('note_on', channel=1, note=68, velocity=79, time=40),\n",
      "    Message('note_on', channel=1, note=68, velocity=0, time=200),\n",
      "    Message('note_on', channel=1, note=64, velocity=79, time=40),\n",
      "    Message('note_on', channel=1, note=64, velocity=0, time=200),\n",
      "    Message('note_on', channel=1, note=64, velocity=79, time=40),\n",
      "    Message('note_on', channel=1, note=64, velocity=0, time=200),\n",
      "    Message('note_on', channel=1, note=63, velocity=79, time=40),\n",
      "    Message('note_on', channel=1, note=63, velocity=0, time=280),\n",
      "    Message('note_on', channel=1, note=64, velocity=79, time=80),\n",
      "    Message('note_on', channel=1, note=64, velocity=0, time=80),\n",
      "    Message('note_on', channel=1, note=61, velocity=79, time=40),\n",
      "    Message('note_on', channel=1, note=61, velocity=0, time=280),\n",
      "    Message('note_on', channel=1, note=63, velocity=79, time=920),\n",
      "    Message('note_on', channel=1, note=63, velocity=0, time=80),\n",
      "    Message('note_on', channel=1, note=63, velocity=79, time=40),\n",
      "    Message('note_on', channel=1, note=63, velocity=0, time=80),\n",
      "    Message('note_on', channel=1, note=63, velocity=79, time=40),\n",
      "    Message('note_on', channel=1, note=63, velocity=0, time=80),\n",
      "    Message('note_on', channel=1, note=63, velocity=79, time=40),\n",
      "    Message('note_on', channel=1, note=63, velocity=0, time=80),\n",
      "    Message('note_on', channel=1, note=64, velocity=79, time=40),\n",
      "    Message('note_on', channel=1, note=64, velocity=0, time=80),\n",
      "    Message('note_on', channel=1, note=66, velocity=79, time=40),\n",
      "    Message('note_on', channel=1, note=66, velocity=0, time=80),\n",
      "    Message('note_on', channel=1, note=64, velocity=79, time=40),\n",
      "    Message('note_on', channel=1, note=64, velocity=0, time=80),\n",
      "    Message('note_on', channel=1, note=68, velocity=79, time=280),\n",
      "    Message('note_on', channel=1, note=68, velocity=0, time=80),\n",
      "    Message('note_on', channel=1, note=66, velocity=79, time=40),\n",
      "    Message('note_on', channel=1, note=66, velocity=0, time=80),\n",
      "    Message('note_on', channel=1, note=66, velocity=79, time=160),\n",
      "    Message('note_on', channel=1, note=66, velocity=0, time=80),\n",
      "    Message('note_on', channel=1, note=64, velocity=79, time=160),\n",
      "    Message('note_on', channel=1, note=64, velocity=0, time=200),\n",
      "    Message('note_on', channel=1, note=64, velocity=79, time=40),\n",
      "    Message('note_on', channel=1, note=64, velocity=0, time=200),\n",
      "    Message('note_on', channel=1, note=63, velocity=79, time=40),\n",
      "    Message('note_on', channel=1, note=63, velocity=0, time=280),\n",
      "    Message('note_on', channel=1, note=64, velocity=79, time=80),\n",
      "    Message('note_on', channel=1, note=64, velocity=0, time=80),\n",
      "    Message('note_on', channel=1, note=61, velocity=79, time=40),\n",
      "    Message('note_on', channel=1, note=61, velocity=0, time=280),\n",
      "    Message('note_on', channel=1, note=63, velocity=79, time=920),\n",
      "    Message('note_on', channel=1, note=63, velocity=0, time=80),\n",
      "    Message('note_on', channel=1, note=63, velocity=79, time=40),\n",
      "    Message('note_on', channel=1, note=63, velocity=0, time=80),\n",
      "    Message('note_on', channel=1, note=63, velocity=79, time=40),\n",
      "    Message('note_on', channel=1, note=63, velocity=0, time=80),\n",
      "    Message('note_on', channel=1, note=63, velocity=79, time=40),\n",
      "    Message('note_on', channel=1, note=63, velocity=0, time=80),\n",
      "    Message('note_on', channel=1, note=64, velocity=79, time=40),\n",
      "    Message('note_on', channel=1, note=64, velocity=0, time=80),\n",
      "    Message('note_on', channel=1, note=66, velocity=79, time=40),\n",
      "    Message('note_on', channel=1, note=66, velocity=0, time=80),\n",
      "    Message('note_on', channel=1, note=64, velocity=79, time=40),\n",
      "    Message('note_on', channel=1, note=64, velocity=0, time=80),\n",
      "    Message('note_on', channel=1, note=64, velocity=79, time=280),\n",
      "    Message('note_on', channel=1, note=64, velocity=0, time=80),\n",
      "    Message('note_on', channel=1, note=64, velocity=79, time=280),\n",
      "    Message('note_on', channel=1, note=64, velocity=0, time=80),\n",
      "    Message('note_on', channel=1, note=64, velocity=79, time=40),\n",
      "    Message('note_on', channel=1, note=64, velocity=0, time=80),\n",
      "    Message('note_on', channel=1, note=64, velocity=79, time=40),\n",
      "    Message('note_on', channel=1, note=64, velocity=0, time=200),\n",
      "    Message('note_on', channel=1, note=63, velocity=79, time=40),\n",
      "    Message('note_on', channel=1, note=63, velocity=0, time=80),\n",
      "    Message('note_on', channel=1, note=63, velocity=79, time=40),\n",
      "    Message('note_on', channel=1, note=63, velocity=0, time=80),\n",
      "    Message('note_on', channel=1, note=61, velocity=79, time=40),\n",
      "    Message('note_on', channel=1, note=61, velocity=0, time=80),\n",
      "    Message('note_on', channel=1, note=61, velocity=79, time=40),\n",
      "    Message('note_on', channel=1, note=61, velocity=0, time=80),\n",
      "    Message('note_on', channel=1, note=63, velocity=79, time=40),\n",
      "    Message('note_on', channel=1, note=63, velocity=0, time=120),\n",
      "    Message('note_on', channel=1, note=64, velocity=79, time=0),\n",
      "    Message('note_on', channel=1, note=64, velocity=0, time=80),\n",
      "    Message('note_on', channel=1, note=64, velocity=79, time=40),\n",
      "    Message('note_on', channel=1, note=64, velocity=0, time=200),\n",
      "    Message('note_on', channel=1, note=64, velocity=79, time=160),\n",
      "    Message('note_on', channel=1, note=64, velocity=0, time=80),\n",
      "    Message('note_on', channel=1, note=64, velocity=79, time=280),\n",
      "    Message('note_on', channel=1, note=64, velocity=0, time=80),\n",
      "    Message('note_on', channel=1, note=64, velocity=79, time=40),\n",
      "    Message('note_on', channel=1, note=64, velocity=0, time=80),\n",
      "    Message('note_on', channel=1, note=64, velocity=79, time=40),\n",
      "    Message('note_on', channel=1, note=64, velocity=0, time=200),\n",
      "    Message('note_on', channel=1, note=63, velocity=79, time=40),\n",
      "    Message('note_on', channel=1, note=63, velocity=0, time=80),\n",
      "    Message('note_on', channel=1, note=63, velocity=79, time=40),\n",
      "    Message('note_on', channel=1, note=63, velocity=0, time=80),\n",
      "    Message('note_on', channel=1, note=61, velocity=79, time=40),\n",
      "    Message('note_on', channel=1, note=61, velocity=0, time=80),\n",
      "    Message('note_on', channel=1, note=61, velocity=79, time=40),\n",
      "    Message('note_on', channel=1, note=61, velocity=0, time=80),\n",
      "    Message('note_on', channel=1, note=63, velocity=79, time=40),\n",
      "    Message('note_on', channel=1, note=63, velocity=0, time=120),\n",
      "    Message('note_on', channel=1, note=64, velocity=79, time=0),\n",
      "    Message('note_on', channel=1, note=64, velocity=0, time=80),\n",
      "    Message('note_on', channel=1, note=64, velocity=79, time=40),\n",
      "    Message('note_on', channel=1, note=64, velocity=0, time=80),\n",
      "    Message('note_on', channel=1, note=61, velocity=79, time=160),\n",
      "    Message('note_on', channel=1, note=61, velocity=0, time=80),\n",
      "    Message('note_on', channel=1, note=63, velocity=79, time=40),\n",
      "    Message('note_on', channel=1, note=63, velocity=0, time=80),\n",
      "    Message('note_on', channel=1, note=64, velocity=79, time=40),\n",
      "    Message('note_on', channel=1, note=64, velocity=0, time=80),\n",
      "    Message('note_on', channel=1, note=61, velocity=79, time=160),\n",
      "    Message('note_on', channel=1, note=61, velocity=0, time=80),\n",
      "    Message('note_on', channel=1, note=63, velocity=79, time=40),\n",
      "    Message('note_on', channel=1, note=63, velocity=0, time=80),\n",
      "    Message('note_on', channel=1, note=64, velocity=79, time=40),\n",
      "    Message('note_on', channel=1, note=64, velocity=0, time=200),\n",
      "    Message('note_on', channel=1, note=64, velocity=79, time=40),\n",
      "    Message('note_on', channel=1, note=64, velocity=0, time=200),\n",
      "    Message('note_on', channel=1, note=64, velocity=79, time=40),\n",
      "    Message('note_on', channel=1, note=64, velocity=0, time=200),\n",
      "    Message('note_on', channel=1, note=66, velocity=79, time=40),\n",
      "    Message('note_on', channel=1, note=66, velocity=0, time=80),\n",
      "    Message('note_on', channel=1, note=68, velocity=79, time=40),\n",
      "    Message('note_on', channel=1, note=68, velocity=0, time=80),\n",
      "    Message('note_on', channel=1, note=66, velocity=79, time=40),\n",
      "    Message('note_on', channel=1, note=66, velocity=0, time=480),\n",
      "    Message('note_on', channel=1, note=63, velocity=79, time=0),\n",
      "    Message('note_on', channel=1, note=63, velocity=0, time=60),\n",
      "    Message('note_on', channel=1, note=61, velocity=79, time=0),\n",
      "    Message('note_on', channel=1, note=61, velocity=0, time=60),\n",
      "    Message('note_on', channel=1, note=59, velocity=79, time=0),\n",
      "    Message('note_on', channel=1, note=59, velocity=0, time=160),\n",
      "    Message('note_on', channel=1, note=59, velocity=79, time=440),\n",
      "    Message('note_on', channel=1, note=59, velocity=0, time=80),\n",
      "    Message('note_on', channel=1, note=68, velocity=79, time=40),\n",
      "    Message('note_on', channel=1, note=68, velocity=0, time=160),\n",
      "    Message('note_on', channel=1, note=68, velocity=79, time=80),\n",
      "    Message('note_on', channel=1, note=68, velocity=0, time=80),\n",
      "    Message('note_on', channel=1, note=68, velocity=79, time=40),\n",
      "    Message('note_on', channel=1, note=68, velocity=0, time=80),\n",
      "    Message('note_on', channel=1, note=66, velocity=79, time=40),\n",
      "    Message('note_on', channel=1, note=66, velocity=0, time=80),\n",
      "    Message('note_on', channel=1, note=64, velocity=79, time=40),\n",
      "    Message('note_on', channel=1, note=64, velocity=0, time=280),\n",
      "    Message('note_on', channel=1, note=68, velocity=79, time=440),\n",
      "    Message('note_on', channel=1, note=68, velocity=0, time=80),\n",
      "    Message('note_on', channel=1, note=66, velocity=79, time=40),\n",
      "    Message('note_on', channel=1, note=66, velocity=0, time=80),\n",
      "    Message('note_on', channel=1, note=64, velocity=79, time=40),\n",
      "    Message('note_on', channel=1, note=64, velocity=0, time=280),\n",
      "    Message('note_on', channel=1, note=66, velocity=79, time=440),\n",
      "    Message('note_on', channel=1, note=66, velocity=0, time=80),\n",
      "    Message('note_on', channel=1, note=68, velocity=79, time=40),\n",
      "    Message('note_on', channel=1, note=68, velocity=0, time=80),\n",
      "    Message('note_on', channel=1, note=69, velocity=79, time=40),\n",
      "    Message('note_on', channel=1, note=69, velocity=0, time=200),\n",
      "    Message('note_on', channel=1, note=68, velocity=79, time=40),\n",
      "    Message('note_on', channel=1, note=68, velocity=0, time=80),\n",
      "    Message('note_on', channel=1, note=66, velocity=79, time=40),\n",
      "    Message('note_on', channel=1, note=66, velocity=0, time=80),\n",
      "    Message('note_on', channel=1, note=64, velocity=79, time=40),\n",
      "    Message('note_on', channel=1, note=64, velocity=0, time=80),\n",
      "    Message('note_on', channel=1, note=64, velocity=79, time=40),\n",
      "    Message('note_on', channel=1, note=64, velocity=0, time=80),\n",
      "    Message('note_on', channel=1, note=66, velocity=79, time=40),\n",
      "    Message('note_on', channel=1, note=66, velocity=0, time=120),\n",
      "    Message('note_on', channel=1, note=68, velocity=79, time=0),\n",
      "    Message('note_on', channel=1, note=68, velocity=0, time=80),\n",
      "    Message('note_on', channel=1, note=68, velocity=79, time=40),\n",
      "    Message('note_on', channel=1, note=68, velocity=0, time=200),\n",
      "    Message('note_on', channel=1, note=68, velocity=79, time=160),\n",
      "    Message('note_on', channel=1, note=68, velocity=0, time=80),\n",
      "    Message('note_on', channel=1, note=71, velocity=79, time=160),\n",
      "    Message('note_on', channel=1, note=71, velocity=0, time=80),\n",
      "    Message('note_on', channel=1, note=68, velocity=79, time=40),\n",
      "    Message('note_on', channel=1, note=68, velocity=0, time=80),\n",
      "    Message('note_on', channel=1, note=66, velocity=79, time=40),\n",
      "    Message('note_on', channel=1, note=66, velocity=0, time=80),\n",
      "    Message('note_on', channel=1, note=64, velocity=79, time=40),\n",
      "    Message('note_on', channel=1, note=64, velocity=0, time=280),\n",
      "    Message('note_on', channel=1, note=68, velocity=79, time=440),\n",
      "    Message('note_on', channel=1, note=68, velocity=0, time=120),\n",
      "    Message('note_on', channel=1, note=66, velocity=79, time=0),\n",
      "    Message('note_on', channel=1, note=66, velocity=0, time=120),\n",
      "    Message('note_on', channel=1, note=66, velocity=79, time=0),\n",
      "    Message('note_on', channel=1, note=66, velocity=0, time=240),\n",
      "    Message('note_on', channel=1, note=68, velocity=79, time=0),\n",
      "    Message('note_on', channel=1, note=68, velocity=0, time=200),\n",
      "    Message('note_on', channel=1, note=66, velocity=79, time=280),\n",
      "    Message('note_on', channel=1, note=66, velocity=0, time=80),\n",
      "    Message('note_on', channel=1, note=68, velocity=79, time=40),\n",
      "    Message('note_on', channel=1, note=68, velocity=0, time=80),\n",
      "    Message('note_on', channel=1, note=69, velocity=79, time=40),\n",
      "    Message('note_on', channel=1, note=69, velocity=0, time=200),\n",
      "    Message('note_on', channel=1, note=68, velocity=79, time=40),\n",
      "    Message('note_on', channel=1, note=68, velocity=0, time=80),\n",
      "    Message('note_on', channel=1, note=66, velocity=79, time=40),\n",
      "    Message('note_on', channel=1, note=66, velocity=0, time=80),\n",
      "    Message('note_on', channel=1, note=64, velocity=79, time=40),\n",
      "    Message('note_on', channel=1, note=64, velocity=0, time=80),\n",
      "    Message('note_on', channel=1, note=64, velocity=79, time=40),\n",
      "    Message('note_on', channel=1, note=64, velocity=0, time=80),\n",
      "    Message('note_on', channel=1, note=66, velocity=79, time=40),\n",
      "    Message('note_on', channel=1, note=66, velocity=0, time=80),\n",
      "    Message('note_on', channel=1, note=68, velocity=79, time=40),\n",
      "    Message('note_on', channel=1, note=68, velocity=0, time=80),\n",
      "    Message('note_on', channel=1, note=64, velocity=79, time=40),\n",
      "    Message('note_on', channel=1, note=64, velocity=0, time=280),\n",
      "    Message('note_on', channel=1, note=68, velocity=79, time=80),\n",
      "    Message('note_on', channel=1, note=68, velocity=0, time=80),\n",
      "    Message('note_on', channel=1, note=71, velocity=79, time=160),\n",
      "    Message('note_on', channel=1, note=71, velocity=0, time=80),\n",
      "    Message('note_on', channel=1, note=71, velocity=79, time=40),\n",
      "    Message('note_on', channel=1, note=71, velocity=0, time=80),\n",
      "    Message('note_on', channel=1, note=68, velocity=79, time=40),\n",
      "    Message('note_on', channel=1, note=68, velocity=0, time=80),\n",
      "    Message('note_on', channel=1, note=64, velocity=79, time=40),\n",
      "    Message('note_on', channel=1, note=64, velocity=0, time=280),\n",
      "    Message('note_on', channel=1, note=68, velocity=79, time=440),\n",
      "    Message('note_on', channel=1, note=68, velocity=0, time=80),\n",
      "    Message('note_on', channel=1, note=66, velocity=79, time=40),\n",
      "    Message('note_on', channel=1, note=66, velocity=0, time=80),\n",
      "    Message('note_on', channel=1, note=64, velocity=79, time=40),\n",
      "    Message('note_on', channel=1, note=64, velocity=0, time=240),\n",
      "    Message('note_on', channel=1, note=61, velocity=79, time=0),\n",
      "    Message('note_on', channel=1, note=61, velocity=0, time=120),\n",
      "    Message('note_on', channel=1, note=59, velocity=79, time=0),\n",
      "    Message('note_on', channel=1, note=59, velocity=0, time=160),\n",
      "    Message('note_on', channel=1, note=64, velocity=79, time=200),\n",
      "    Message('note_on', channel=1, note=64, velocity=0, time=80),\n",
      "    Message('note_on', channel=1, note=64, velocity=79, time=160),\n",
      "    Message('note_on', channel=1, note=64, velocity=0, time=200),\n",
      "    Message('note_on', channel=1, note=61, velocity=79, time=40),\n",
      "    Message('note_on', channel=1, note=61, velocity=0, time=80),\n",
      "    Message('note_on', channel=1, note=64, velocity=79, time=160),\n",
      "    Message('note_on', channel=1, note=64, velocity=0, time=200),\n",
      "    Message('note_on', channel=1, note=64, velocity=79, time=40),\n",
      "    Message('note_on', channel=1, note=64, velocity=0, time=80),\n",
      "    Message('note_on', channel=1, note=61, velocity=79, time=40),\n",
      "    Message('note_on', channel=1, note=61, velocity=0, time=80),\n",
      "    Message('note_on', channel=1, note=64, velocity=79, time=40),\n",
      "    Message('note_on', channel=1, note=64, velocity=0, time=200),\n",
      "    Message('note_on', channel=1, note=64, velocity=79, time=40),\n",
      "    Message('note_on', channel=1, note=64, velocity=0, time=80),\n",
      "    Message('note_on', channel=1, note=64, velocity=79, time=160),\n",
      "    Message('note_on', channel=1, note=64, velocity=0, time=80),\n",
      "    Message('note_on', channel=1, note=68, velocity=79, time=40),\n",
      "    Message('note_on', channel=1, note=68, velocity=0, time=80),\n",
      "    Message('note_on', channel=1, note=66, velocity=79, time=40),\n",
      "    Message('note_on', channel=1, note=66, velocity=0, time=80),\n",
      "    Message('note_on', channel=1, note=64, velocity=79, time=40),\n",
      "    Message('note_on', channel=1, note=64, velocity=0, time=80),\n",
      "    Message('note_on', channel=1, note=66, velocity=79, time=40),\n",
      "    Message('note_on', channel=1, note=66, velocity=0, time=480),\n",
      "    Message('note_on', channel=1, note=63, velocity=79, time=0),\n",
      "    Message('note_on', channel=1, note=63, velocity=0, time=60),\n",
      "    Message('note_on', channel=1, note=61, velocity=79, time=0),\n",
      "    Message('note_on', channel=1, note=61, velocity=0, time=60),\n",
      "    Message('note_on', channel=1, note=59, velocity=79, time=0),\n",
      "    Message('note_on', channel=1, note=59, velocity=0, time=80),\n",
      "    Message('note_on', channel=1, note=68, velocity=79, time=1600),\n",
      "    Message('note_on', channel=1, note=68, velocity=0, time=80),\n",
      "    Message('note_on', channel=1, note=66, velocity=79, time=40),\n",
      "    Message('note_on', channel=1, note=66, velocity=0, time=200),\n",
      "    Message('note_on', channel=1, note=68, velocity=79, time=40),\n",
      "    Message('note_on', channel=1, note=68, velocity=0, time=200),\n",
      "    Message('note_on', channel=1, note=64, velocity=79, time=40),\n",
      "    Message('note_on', channel=1, note=64, velocity=0, time=200),\n",
      "    Message('note_on', channel=1, note=64, velocity=79, time=40),\n",
      "    Message('note_on', channel=1, note=64, velocity=0, time=200),\n",
      "    Message('note_on', channel=1, note=63, velocity=79, time=40),\n",
      "    Message('note_on', channel=1, note=63, velocity=0, time=280),\n",
      "    Message('note_on', channel=1, note=64, velocity=79, time=80),\n",
      "    Message('note_on', channel=1, note=64, velocity=0, time=80),\n",
      "    Message('note_on', channel=1, note=61, velocity=79, time=40),\n",
      "    Message('note_on', channel=1, note=61, velocity=0, time=280),\n",
      "    Message('note_on', channel=1, note=63, velocity=79, time=920),\n",
      "    Message('note_on', channel=1, note=63, velocity=0, time=80),\n",
      "    Message('note_on', channel=1, note=63, velocity=79, time=40),\n",
      "    Message('note_on', channel=1, note=63, velocity=0, time=80),\n",
      "    Message('note_on', channel=1, note=63, velocity=79, time=40),\n",
      "    Message('note_on', channel=1, note=63, velocity=0, time=80),\n",
      "    Message('note_on', channel=1, note=63, velocity=79, time=40),\n",
      "    Message('note_on', channel=1, note=63, velocity=0, time=80),\n",
      "    Message('note_on', channel=1, note=64, velocity=79, time=40),\n",
      "    Message('note_on', channel=1, note=64, velocity=0, time=80),\n",
      "    Message('note_on', channel=1, note=66, velocity=79, time=40),\n",
      "    Message('note_on', channel=1, note=66, velocity=0, time=80),\n",
      "    Message('note_on', channel=1, note=64, velocity=79, time=40),\n",
      "    Message('note_on', channel=1, note=64, velocity=0, time=80),\n",
      "    Message('note_on', channel=1, note=68, velocity=79, time=280),\n",
      "    Message('note_on', channel=1, note=68, velocity=0, time=80),\n",
      "    Message('note_on', channel=1, note=66, velocity=79, time=40),\n",
      "    Message('note_on', channel=1, note=66, velocity=0, time=80),\n",
      "    Message('note_on', channel=1, note=66, velocity=79, time=160),\n",
      "    Message('note_on', channel=1, note=66, velocity=0, time=80),\n",
      "    Message('note_on', channel=1, note=64, velocity=79, time=160),\n",
      "    Message('note_on', channel=1, note=64, velocity=0, time=200),\n",
      "    Message('note_on', channel=1, note=64, velocity=79, time=40),\n",
      "    Message('note_on', channel=1, note=64, velocity=0, time=200),\n",
      "    Message('note_on', channel=1, note=63, velocity=79, time=40),\n",
      "    Message('note_on', channel=1, note=63, velocity=0, time=280),\n",
      "    Message('note_on', channel=1, note=64, velocity=79, time=80),\n",
      "    Message('note_on', channel=1, note=64, velocity=0, time=80),\n",
      "    Message('note_on', channel=1, note=61, velocity=79, time=40),\n",
      "    Message('note_on', channel=1, note=61, velocity=0, time=280),\n",
      "    Message('note_on', channel=1, note=63, velocity=79, time=920),\n",
      "    Message('note_on', channel=1, note=63, velocity=0, time=80),\n",
      "    Message('note_on', channel=1, note=63, velocity=79, time=40),\n",
      "    Message('note_on', channel=1, note=63, velocity=0, time=80),\n",
      "    Message('note_on', channel=1, note=63, velocity=79, time=40),\n",
      "    Message('note_on', channel=1, note=63, velocity=0, time=80),\n",
      "    Message('note_on', channel=1, note=63, velocity=79, time=40),\n",
      "    Message('note_on', channel=1, note=63, velocity=0, time=80),\n",
      "    Message('note_on', channel=1, note=64, velocity=79, time=40),\n",
      "    Message('note_on', channel=1, note=64, velocity=0, time=80),\n",
      "    Message('note_on', channel=1, note=66, velocity=79, time=40),\n",
      "    Message('note_on', channel=1, note=66, velocity=0, time=80),\n",
      "    Message('note_on', channel=1, note=64, velocity=79, time=40),\n",
      "    Message('note_on', channel=1, note=64, velocity=0, time=80),\n",
      "    Message('note_on', channel=1, note=64, velocity=79, time=280),\n",
      "    Message('note_on', channel=1, note=64, velocity=0, time=80),\n",
      "    Message('note_on', channel=1, note=64, velocity=79, time=280),\n",
      "    Message('note_on', channel=1, note=64, velocity=0, time=80),\n",
      "    Message('note_on', channel=1, note=64, velocity=79, time=40),\n",
      "    Message('note_on', channel=1, note=64, velocity=0, time=80),\n",
      "    Message('note_on', channel=1, note=64, velocity=79, time=40),\n",
      "    Message('note_on', channel=1, note=64, velocity=0, time=200),\n",
      "    Message('note_on', channel=1, note=63, velocity=79, time=40),\n",
      "    Message('note_on', channel=1, note=63, velocity=0, time=80),\n",
      "    Message('note_on', channel=1, note=63, velocity=79, time=40),\n",
      "    Message('note_on', channel=1, note=63, velocity=0, time=80),\n",
      "    Message('note_on', channel=1, note=61, velocity=79, time=40),\n",
      "    Message('note_on', channel=1, note=61, velocity=0, time=80),\n",
      "    Message('note_on', channel=1, note=61, velocity=79, time=40),\n",
      "    Message('note_on', channel=1, note=61, velocity=0, time=80),\n",
      "    Message('note_on', channel=1, note=63, velocity=79, time=40),\n",
      "    Message('note_on', channel=1, note=63, velocity=0, time=120),\n",
      "    Message('note_on', channel=1, note=64, velocity=79, time=0),\n",
      "    Message('note_on', channel=1, note=64, velocity=0, time=80),\n",
      "    Message('note_on', channel=1, note=64, velocity=79, time=40),\n",
      "    Message('note_on', channel=1, note=64, velocity=0, time=200),\n",
      "    Message('note_on', channel=1, note=64, velocity=79, time=160),\n",
      "    Message('note_on', channel=1, note=64, velocity=0, time=80),\n",
      "    Message('note_on', channel=1, note=64, velocity=79, time=280),\n",
      "    Message('note_on', channel=1, note=64, velocity=0, time=200),\n",
      "    Message('note_on', channel=1, note=64, velocity=79, time=40),\n",
      "    Message('note_on', channel=1, note=64, velocity=0, time=200),\n",
      "    Message('note_on', channel=1, note=63, velocity=79, time=40),\n",
      "    Message('note_on', channel=1, note=63, velocity=0, time=80),\n",
      "    Message('note_on', channel=1, note=63, velocity=79, time=40),\n",
      "    Message('note_on', channel=1, note=63, velocity=0, time=80),\n",
      "    Message('note_on', channel=1, note=61, velocity=79, time=40),\n",
      "    Message('note_on', channel=1, note=61, velocity=0, time=80),\n",
      "    Message('note_on', channel=1, note=61, velocity=79, time=40),\n",
      "    Message('note_on', channel=1, note=61, velocity=0, time=80),\n",
      "    Message('note_on', channel=1, note=63, velocity=79, time=40),\n",
      "    Message('note_on', channel=1, note=63, velocity=0, time=120),\n",
      "    Message('note_on', channel=1, note=64, velocity=79, time=0),\n",
      "    Message('note_on', channel=1, note=64, velocity=0, time=80),\n",
      "    Message('note_on', channel=1, note=64, velocity=79, time=40),\n",
      "    Message('note_on', channel=1, note=64, velocity=0, time=80),\n",
      "    Message('note_on', channel=1, note=61, velocity=79, time=160),\n",
      "    Message('note_on', channel=1, note=61, velocity=0, time=80),\n",
      "    Message('note_on', channel=1, note=63, velocity=79, time=40),\n",
      "    Message('note_on', channel=1, note=63, velocity=0, time=80),\n",
      "    Message('note_on', channel=1, note=64, velocity=79, time=40),\n",
      "    Message('note_on', channel=1, note=64, velocity=0, time=80),\n",
      "    Message('note_on', channel=1, note=63, velocity=79, time=280),\n",
      "    Message('note_on', channel=1, note=63, velocity=0, time=80),\n",
      "    Message('note_on', channel=1, note=64, velocity=79, time=40),\n",
      "    Message('note_on', channel=1, note=64, velocity=0, time=200),\n",
      "    Message('note_on', channel=1, note=64, velocity=79, time=40),\n",
      "    Message('note_on', channel=1, note=64, velocity=0, time=200),\n",
      "    Message('note_on', channel=1, note=64, velocity=79, time=40),\n",
      "    Message('note_on', channel=1, note=64, velocity=0, time=200),\n",
      "    Message('note_on', channel=1, note=66, velocity=79, time=40),\n",
      "    Message('note_on', channel=1, note=66, velocity=0, time=80),\n",
      "    Message('note_on', channel=1, note=68, velocity=79, time=40),\n",
      "    Message('note_on', channel=1, note=68, velocity=0, time=80),\n",
      "    Message('note_on', channel=1, note=66, velocity=79, time=40),\n",
      "    Message('note_on', channel=1, note=66, velocity=0, time=480),\n",
      "    Message('note_on', channel=1, note=63, velocity=79, time=0),\n",
      "    Message('note_on', channel=1, note=63, velocity=0, time=60),\n",
      "    Message('note_on', channel=1, note=61, velocity=79, time=0),\n",
      "    Message('note_on', channel=1, note=61, velocity=0, time=60),\n",
      "    Message('note_on', channel=1, note=59, velocity=79, time=0),\n",
      "    Message('note_on', channel=1, note=59, velocity=0, time=160),\n",
      "    Message('note_on', channel=1, note=59, velocity=79, time=440),\n",
      "    Message('note_on', channel=1, note=59, velocity=0, time=80),\n",
      "    Message('note_on', channel=1, note=68, velocity=79, time=40),\n",
      "    Message('note_on', channel=1, note=68, velocity=0, time=160),\n",
      "    Message('note_on', channel=1, note=68, velocity=79, time=80),\n",
      "    Message('note_on', channel=1, note=68, velocity=0, time=80),\n",
      "    Message('note_on', channel=1, note=68, velocity=79, time=40),\n",
      "    Message('note_on', channel=1, note=68, velocity=0, time=80),\n",
      "    Message('note_on', channel=1, note=66, velocity=79, time=40),\n",
      "    Message('note_on', channel=1, note=66, velocity=0, time=80),\n",
      "    Message('note_on', channel=1, note=64, velocity=79, time=40),\n",
      "    Message('note_on', channel=1, note=64, velocity=0, time=280),\n",
      "    Message('note_on', channel=1, note=68, velocity=79, time=440),\n",
      "    Message('note_on', channel=1, note=68, velocity=0, time=80),\n",
      "    Message('note_on', channel=1, note=66, velocity=79, time=40),\n",
      "    Message('note_on', channel=1, note=66, velocity=0, time=80),\n",
      "    Message('note_on', channel=1, note=64, velocity=79, time=40),\n",
      "    Message('note_on', channel=1, note=64, velocity=0, time=280),\n",
      "    Message('note_on', channel=1, note=66, velocity=79, time=440),\n",
      "    Message('note_on', channel=1, note=66, velocity=0, time=80),\n",
      "    Message('note_on', channel=1, note=68, velocity=79, time=40),\n",
      "    Message('note_on', channel=1, note=68, velocity=0, time=80),\n",
      "    Message('note_on', channel=1, note=69, velocity=79, time=40),\n",
      "    Message('note_on', channel=1, note=69, velocity=0, time=200),\n",
      "    Message('note_on', channel=1, note=68, velocity=79, time=40),\n",
      "    Message('note_on', channel=1, note=68, velocity=0, time=80),\n",
      "    Message('note_on', channel=1, note=66, velocity=79, time=40),\n",
      "    Message('note_on', channel=1, note=66, velocity=0, time=80),\n",
      "    Message('note_on', channel=1, note=64, velocity=79, time=40),\n",
      "    Message('note_on', channel=1, note=64, velocity=0, time=80),\n",
      "    Message('note_on', channel=1, note=64, velocity=79, time=40),\n",
      "    Message('note_on', channel=1, note=64, velocity=0, time=80),\n",
      "    Message('note_on', channel=1, note=66, velocity=79, time=40),\n",
      "    Message('note_on', channel=1, note=66, velocity=0, time=80),\n",
      "    Message('note_on', channel=1, note=68, velocity=79, time=40),\n",
      "    Message('note_on', channel=1, note=68, velocity=0, time=80),\n",
      "    Message('note_on', channel=1, note=68, velocity=79, time=40),\n",
      "    Message('note_on', channel=1, note=68, velocity=0, time=200),\n",
      "    Message('note_on', channel=1, note=68, velocity=79, time=160),\n",
      "    Message('note_on', channel=1, note=68, velocity=0, time=80),\n",
      "    Message('note_on', channel=1, note=71, velocity=79, time=160),\n",
      "    Message('note_on', channel=1, note=71, velocity=0, time=80),\n",
      "    Message('note_on', channel=1, note=68, velocity=79, time=40),\n",
      "    Message('note_on', channel=1, note=68, velocity=0, time=80),\n",
      "    Message('note_on', channel=1, note=66, velocity=79, time=40),\n",
      "    Message('note_on', channel=1, note=66, velocity=0, time=80),\n",
      "    Message('note_on', channel=1, note=64, velocity=79, time=40),\n",
      "    Message('note_on', channel=1, note=64, velocity=0, time=280),\n",
      "    Message('note_on', channel=1, note=68, velocity=79, time=440),\n",
      "    Message('note_on', channel=1, note=68, velocity=0, time=120),\n",
      "    Message('note_on', channel=1, note=66, velocity=79, time=0),\n",
      "    Message('note_on', channel=1, note=66, velocity=0, time=120),\n",
      "    Message('note_on', channel=1, note=66, velocity=79, time=0),\n",
      "    Message('note_on', channel=1, note=66, velocity=0, time=240),\n",
      "    Message('note_on', channel=1, note=68, velocity=79, time=0),\n",
      "    Message('note_on', channel=1, note=68, velocity=0, time=200),\n",
      "    Message('note_on', channel=1, note=66, velocity=79, time=280),\n",
      "    Message('note_on', channel=1, note=66, velocity=0, time=80),\n",
      "    Message('note_on', channel=1, note=68, velocity=79, time=40),\n",
      "    Message('note_on', channel=1, note=68, velocity=0, time=80),\n",
      "    Message('note_on', channel=1, note=69, velocity=79, time=40),\n",
      "    Message('note_on', channel=1, note=69, velocity=0, time=200),\n",
      "    Message('note_on', channel=1, note=68, velocity=79, time=40),\n",
      "    Message('note_on', channel=1, note=68, velocity=0, time=80),\n",
      "    Message('note_on', channel=1, note=66, velocity=79, time=40),\n",
      "    Message('note_on', channel=1, note=66, velocity=0, time=80),\n",
      "    Message('note_on', channel=1, note=64, velocity=79, time=40),\n",
      "    Message('note_on', channel=1, note=64, velocity=0, time=80),\n",
      "    Message('note_on', channel=1, note=64, velocity=79, time=40),\n",
      "    Message('note_on', channel=1, note=64, velocity=0, time=80),\n",
      "    Message('note_on', channel=1, note=66, velocity=79, time=40),\n",
      "    Message('note_on', channel=1, note=66, velocity=0, time=80),\n",
      "    Message('note_on', channel=1, note=68, velocity=79, time=40),\n",
      "    Message('note_on', channel=1, note=68, velocity=0, time=80),\n",
      "    Message('note_on', channel=1, note=64, velocity=79, time=40),\n",
      "    Message('note_on', channel=1, note=64, velocity=0, time=280),\n",
      "    Message('note_on', channel=1, note=68, velocity=79, time=80),\n",
      "    Message('note_on', channel=1, note=68, velocity=0, time=80),\n",
      "    Message('note_on', channel=1, note=71, velocity=79, time=160),\n",
      "    Message('note_on', channel=1, note=71, velocity=0, time=80),\n",
      "    Message('note_on', channel=1, note=71, velocity=79, time=40),\n",
      "    Message('note_on', channel=1, note=71, velocity=0, time=80),\n",
      "    Message('note_on', channel=1, note=68, velocity=79, time=40),\n",
      "    Message('note_on', channel=1, note=68, velocity=0, time=80),\n",
      "    Message('note_on', channel=1, note=64, velocity=79, time=40),\n",
      "    Message('note_on', channel=1, note=64, velocity=0, time=280),\n",
      "    Message('note_on', channel=1, note=68, velocity=79, time=440),\n",
      "    Message('note_on', channel=1, note=68, velocity=0, time=80),\n",
      "    Message('note_on', channel=1, note=66, velocity=79, time=40),\n",
      "    Message('note_on', channel=1, note=66, velocity=0, time=80),\n",
      "    Message('note_on', channel=1, note=64, velocity=79, time=40),\n",
      "    Message('note_on', channel=1, note=64, velocity=0, time=240),\n",
      "    Message('note_on', channel=1, note=61, velocity=79, time=0),\n",
      "    Message('note_on', channel=1, note=61, velocity=0, time=120),\n",
      "    Message('note_on', channel=1, note=59, velocity=79, time=0),\n",
      "    Message('note_on', channel=1, note=59, velocity=0, time=160),\n",
      "    Message('note_on', channel=1, note=64, velocity=79, time=200),\n",
      "    Message('note_on', channel=1, note=64, velocity=0, time=80),\n",
      "    Message('note_on', channel=1, note=64, velocity=79, time=160),\n",
      "    Message('note_on', channel=1, note=64, velocity=0, time=200),\n",
      "    Message('note_on', channel=1, note=61, velocity=79, time=40),\n",
      "    Message('note_on', channel=1, note=61, velocity=0, time=80),\n",
      "    Message('note_on', channel=1, note=64, velocity=79, time=160),\n",
      "    Message('note_on', channel=1, note=64, velocity=0, time=200),\n",
      "    Message('note_on', channel=1, note=64, velocity=79, time=40),\n",
      "    Message('note_on', channel=1, note=64, velocity=0, time=80),\n",
      "    Message('note_on', channel=1, note=61, velocity=79, time=40),\n",
      "    Message('note_on', channel=1, note=61, velocity=0, time=80),\n",
      "    Message('note_on', channel=1, note=64, velocity=79, time=40),\n",
      "    Message('note_on', channel=1, note=64, velocity=0, time=200),\n",
      "    Message('note_on', channel=1, note=64, velocity=79, time=40),\n",
      "    Message('note_on', channel=1, note=64, velocity=0, time=80),\n",
      "    Message('note_on', channel=1, note=64, velocity=79, time=160),\n",
      "    Message('note_on', channel=1, note=64, velocity=0, time=80),\n",
      "    Message('note_on', channel=1, note=68, velocity=79, time=40),\n",
      "    Message('note_on', channel=1, note=68, velocity=0, time=80),\n",
      "    Message('note_on', channel=1, note=66, velocity=79, time=40),\n",
      "    Message('note_on', channel=1, note=66, velocity=0, time=80),\n",
      "    Message('note_on', channel=1, note=64, velocity=79, time=40),\n",
      "    Message('note_on', channel=1, note=64, velocity=0, time=80),\n",
      "    Message('note_on', channel=1, note=66, velocity=79, time=40),\n",
      "    Message('note_on', channel=1, note=66, velocity=0, time=480),\n",
      "    Message('note_on', channel=1, note=63, velocity=79, time=0),\n",
      "    Message('note_on', channel=1, note=63, velocity=0, time=60),\n",
      "    Message('note_on', channel=1, note=61, velocity=79, time=0),\n",
      "    Message('note_on', channel=1, note=61, velocity=0, time=60),\n",
      "    Message('note_on', channel=1, note=59, velocity=79, time=0),\n",
      "    Message('note_on', channel=1, note=59, velocity=0, time=80),\n",
      "    Message('note_on', channel=1, note=61, velocity=79, time=1000),\n",
      "    Message('note_on', channel=1, note=61, velocity=0, time=80),\n",
      "    Message('note_on', channel=1, note=63, velocity=79, time=40),\n",
      "    Message('note_on', channel=1, note=63, velocity=0, time=80),\n",
      "    Message('note_on', channel=1, note=64, velocity=79, time=40),\n",
      "    Message('note_on', channel=1, note=64, velocity=0, time=280),\n",
      "    Message('note_on', channel=1, note=63, velocity=79, time=440),\n",
      "    Message('note_on', channel=1, note=63, velocity=0, time=80),\n",
      "    Message('note_on', channel=1, note=61, velocity=79, time=40),\n",
      "    Message('note_on', channel=1, note=61, velocity=0, time=80),\n",
      "    Message('note_on', channel=1, note=64, velocity=79, time=40),\n",
      "    Message('note_on', channel=1, note=64, velocity=0, time=200),\n",
      "    Message('note_on', channel=1, note=64, velocity=79, time=520),\n",
      "    Message('note_on', channel=1, note=64, velocity=0, time=80),\n",
      "    Message('note_on', channel=1, note=63, velocity=79, time=40),\n",
      "    Message('note_on', channel=1, note=63, velocity=0, time=80),\n",
      "    Message('note_on', channel=1, note=61, velocity=79, time=40),\n",
      "    Message('note_on', channel=1, note=61, velocity=0, time=80),\n",
      "    Message('note_on', channel=1, note=63, velocity=79, time=40),\n",
      "    Message('note_on', channel=1, note=63, velocity=0, time=160),\n",
      "    Message('note_on', channel=1, note=63, velocity=79, time=80),\n",
      "    Message('note_on', channel=1, note=63, velocity=0, time=80),\n",
      "    Message('note_on', channel=1, note=63, velocity=79, time=40),\n",
      "    Message('note_on', channel=1, note=63, velocity=0, time=200),\n",
      "    Message('note_on', channel=1, note=61, velocity=79, time=40),\n",
      "    Message('note_on', channel=1, note=61, velocity=0, time=200),\n",
      "    Message('note_on', channel=1, note=59, velocity=79, time=40),\n",
      "    Message('note_on', channel=1, note=59, velocity=0, time=200),\n",
      "    Message('note_on', channel=1, note=63, velocity=79, time=400),\n",
      "    Message('note_on', channel=1, note=63, velocity=0, time=315),\n",
      "    Message('note_on', channel=1, note=61, velocity=79, time=165),\n",
      "    Message('note_on', channel=1, note=61, velocity=0, time=315),\n",
      "    Message('note_on', channel=1, note=54, velocity=79, time=1005),\n",
      "    Message('note_on', channel=1, note=54, velocity=0, time=80),\n",
      "    Message('note_on', channel=1, note=61, velocity=79, time=40),\n",
      "    Message('note_on', channel=1, note=61, velocity=0, time=80),\n",
      "    Message('note_on', channel=1, note=63, velocity=79, time=40),\n",
      "    Message('note_on', channel=1, note=63, velocity=0, time=80),\n",
      "    Message('note_on', channel=1, note=64, velocity=79, time=40),\n",
      "    Message('note_on', channel=1, note=64, velocity=0, time=80),\n",
      "    Message('note_on', channel=1, note=63, velocity=79, time=40),\n",
      "    Message('note_on', channel=1, note=63, velocity=0, time=200),\n",
      "    Message('note_on', channel=1, note=63, velocity=79, time=40),\n",
      "    Message('note_on', channel=1, note=63, velocity=0, time=200),\n",
      "    Message('note_on', channel=1, note=61, velocity=79, time=1240),\n",
      "    Message('note_on', channel=1, note=61, velocity=0, time=80),\n",
      "    Message('note_on', channel=1, note=63, velocity=79, time=40),\n",
      "    Message('note_on', channel=1, note=63, velocity=0, time=80),\n",
      "    Message('note_on', channel=1, note=64, velocity=79, time=40),\n",
      "    Message('note_on', channel=1, note=64, velocity=0, time=80),\n",
      "    Message('note_on', channel=1, note=64, velocity=79, time=40),\n",
      "    Message('note_on', channel=1, note=64, velocity=0, time=80),\n",
      "    Message('note_on', channel=1, note=61, velocity=79, time=520),\n",
      "    Message('note_on', channel=1, note=61, velocity=0, time=80),\n",
      "    Message('note_on', channel=1, note=63, velocity=79, time=40),\n",
      "    Message('note_on', channel=1, note=63, velocity=0, time=80),\n",
      "    Message('note_on', channel=1, note=64, velocity=79, time=40),\n",
      "    Message('note_on', channel=1, note=64, velocity=0, time=200),\n",
      "    Message('note_on', channel=1, note=64, velocity=79, time=520),\n",
      "    Message('note_on', channel=1, note=64, velocity=0, time=80),\n",
      "    Message('note_on', channel=1, note=63, velocity=79, time=40),\n",
      "    Message('note_on', channel=1, note=63, velocity=0, time=80),\n",
      "    Message('note_on', channel=1, note=61, velocity=79, time=40),\n",
      "    Message('note_on', channel=1, note=61, velocity=0, time=80),\n",
      "    Message('note_on', channel=1, note=63, velocity=79, time=40),\n",
      "    Message('note_on', channel=1, note=63, velocity=0, time=160),\n",
      "    Message('note_on', channel=1, note=63, velocity=79, time=80),\n",
      "    Message('note_on', channel=1, note=63, velocity=0, time=80),\n",
      "    Message('note_on', channel=1, note=61, velocity=79, time=40),\n",
      "    Message('note_on', channel=1, note=61, velocity=0, time=200),\n",
      "    Message('note_on', channel=1, note=63, velocity=79, time=40),\n",
      "    Message('note_on', channel=1, note=63, velocity=0, time=200),\n",
      "    Message('note_on', channel=1, note=64, velocity=79, time=40),\n",
      "    Message('note_on', channel=1, note=64, velocity=0, time=435),\n",
      "    Message('note_on', channel=1, note=63, velocity=79, time=165),\n",
      "    Message('note_on', channel=1, note=63, velocity=0, time=310),\n",
      "    Message('note_on', channel=1, note=64, velocity=79, time=170),\n",
      "    Message('note_on', channel=1, note=64, velocity=0, time=80),\n",
      "    Message('note_on', channel=1, note=63, velocity=79, time=0),\n",
      "    Message('note_on', channel=1, note=63, velocity=0, time=80),\n",
      "    Message('note_on', channel=1, note=61, velocity=79, time=0),\n",
      "    Message('note_on', channel=1, note=61, velocity=0, time=55),\n",
      "    Message('note_on', channel=1, note=54, velocity=79, time=1105),\n",
      "    Message('note_on', channel=1, note=54, velocity=0, time=80),\n",
      "    Message('note_on', channel=1, note=61, velocity=79, time=40),\n",
      "    Message('note_on', channel=1, note=61, velocity=0, time=80),\n",
      "    Message('note_on', channel=1, note=63, velocity=79, time=40),\n",
      "    Message('note_on', channel=1, note=63, velocity=0, time=80),\n",
      "    Message('note_on', channel=1, note=64, velocity=79, time=40),\n",
      "    Message('note_on', channel=1, note=64, velocity=0, time=80),\n",
      "    Message('note_on', channel=1, note=64, velocity=79, time=40),\n",
      "    Message('note_on', channel=1, note=64, velocity=0, time=200),\n",
      "    Message('note_on', channel=1, note=63, velocity=79, time=40),\n",
      "    Message('note_on', channel=1, note=63, velocity=0, time=675),\n",
      "    Message('note_on', channel=1, note=59, velocity=79, time=285),\n",
      "    Message('note_on', channel=1, note=59, velocity=0, time=80),\n",
      "    Message('note_on', channel=1, note=68, velocity=79, time=40),\n",
      "    Message('note_on', channel=1, note=68, velocity=0, time=155),\n",
      "    Message('note_on', channel=1, note=68, velocity=79, time=85),\n",
      "    Message('note_on', channel=1, note=68, velocity=0, time=80),\n",
      "    Message('note_on', channel=1, note=68, velocity=79, time=40),\n",
      "    Message('note_on', channel=1, note=68, velocity=0, time=80),\n",
      "    Message('note_on', channel=1, note=66, velocity=79, time=40),\n",
      "    Message('note_on', channel=1, note=66, velocity=0, time=80),\n",
      "    Message('note_on', channel=1, note=64, velocity=79, time=40),\n",
      "    Message('note_on', channel=1, note=64, velocity=0, time=280),\n",
      "    Message('note_on', channel=1, note=68, velocity=79, time=440),\n",
      "    Message('note_on', channel=1, note=68, velocity=0, time=80),\n",
      "    Message('note_on', channel=1, note=66, velocity=79, time=40),\n",
      "    Message('note_on', channel=1, note=66, velocity=0, time=80),\n",
      "    Message('note_on', channel=1, note=64, velocity=79, time=40),\n",
      "    Message('note_on', channel=1, note=64, velocity=0, time=280),\n",
      "    Message('note_on', channel=1, note=66, velocity=79, time=440),\n",
      "    Message('note_on', channel=1, note=66, velocity=0, time=80),\n",
      "    Message('note_on', channel=1, note=68, velocity=79, time=40),\n",
      "    Message('note_on', channel=1, note=68, velocity=0, time=80),\n",
      "    Message('note_on', channel=1, note=69, velocity=79, time=40),\n",
      "    Message('note_on', channel=1, note=69, velocity=0, time=200),\n",
      "    Message('note_on', channel=1, note=68, velocity=79, time=40),\n",
      "    Message('note_on', channel=1, note=68, velocity=0, time=80),\n",
      "    Message('note_on', channel=1, note=66, velocity=79, time=40),\n",
      "    Message('note_on', channel=1, note=66, velocity=0, time=80),\n",
      "    Message('note_on', channel=1, note=64, velocity=79, time=40),\n",
      "    Message('note_on', channel=1, note=64, velocity=0, time=80),\n",
      "    Message('note_on', channel=1, note=64, velocity=79, time=40),\n",
      "    Message('note_on', channel=1, note=64, velocity=0, time=80),\n",
      "    Message('note_on', channel=1, note=66, velocity=79, time=40),\n",
      "    Message('note_on', channel=1, note=66, velocity=0, time=80),\n",
      "    Message('note_on', channel=1, note=68, velocity=79, time=40),\n",
      "    Message('note_on', channel=1, note=68, velocity=0, time=80),\n",
      "    Message('note_on', channel=1, note=68, velocity=79, time=40),\n",
      "    Message('control_change', channel=1, control=7, value=115, time=120),\n",
      "    Message('note_on', channel=1, note=68, velocity=0, time=80),\n",
      "    Message('control_change', channel=1, control=7, value=114, time=10),\n",
      "    Message('control_change', channel=1, control=7, value=113, time=90),\n",
      "    Message('note_on', channel=1, note=68, velocity=79, time=60),\n",
      "    Message('control_change', channel=1, control=7, value=112, time=30),\n",
      "    Message('note_on', channel=1, note=68, velocity=0, time=50),\n",
      "    Message('control_change', channel=1, control=7, value=111, time=40),\n",
      "    Message('control_change', channel=1, control=7, value=110, time=60),\n",
      "    Message('note_on', channel=1, note=71, velocity=79, time=60),\n",
      "    Message('control_change', channel=1, control=7, value=109, time=30),\n",
      "    Message('note_on', channel=1, note=71, velocity=0, time=50),\n",
      "    Message('control_change', channel=1, control=7, value=108, time=40),\n",
      "    Message('note_on', channel=1, note=68, velocity=79, time=0),\n",
      "    Message('note_on', channel=1, note=68, velocity=0, time=80),\n",
      "    Message('control_change', channel=1, control=7, value=107, time=10),\n",
      "    Message('note_on', channel=1, note=66, velocity=79, time=30),\n",
      "    Message('control_change', channel=1, control=7, value=106, time=60),\n",
      "    Message('note_on', channel=1, note=66, velocity=0, time=20),\n",
      "    Message('note_on', channel=1, note=64, velocity=79, time=40),\n",
      "    Message('control_change', channel=1, control=7, value=105, time=0),\n",
      "    Message('control_change', channel=1, control=7, value=104, time=90),\n",
      "    Message('control_change', channel=1, control=7, value=103, time=90),\n",
      "    Message('control_change', channel=1, control=7, value=102, time=90),\n",
      "    Message('note_on', channel=1, note=64, velocity=0, time=10),\n",
      "    Message('control_change', channel=1, control=7, value=101, time=50),\n",
      "    Message('control_change', channel=1, control=7, value=100, time=90),\n",
      "    Message('control_change', channel=1, control=7, value=99, time=90),\n",
      "    Message('control_change', channel=1, control=7, value=98, time=90),\n",
      "    Message('control_change', channel=1, control=7, value=97, time=90),\n",
      "    Message('note_on', channel=1, note=68, velocity=79, time=30),\n",
      "    Message('control_change', channel=1, control=7, value=96, time=30),\n",
      "    Message('note_on', channel=1, note=68, velocity=0, time=90),\n",
      "    Message('control_change', channel=1, control=7, value=95, time=0),\n",
      "    Message('note_on', channel=1, note=66, velocity=79, time=0),\n",
      "    Message('control_change', channel=1, control=7, value=94, time=90),\n",
      "    Message('note_on', channel=1, note=66, velocity=0, time=30),\n",
      "    Message('note_on', channel=1, note=66, velocity=79, time=0),\n",
      "    Message('control_change', channel=1, control=7, value=93, time=60),\n",
      "    Message('control_change', channel=1, control=7, value=92, time=60),\n",
      "    Message('control_change', channel=1, control=7, value=91, time=90),\n",
      "    Message('note_on', channel=1, note=66, velocity=0, time=30),\n",
      "    Message('note_on', channel=1, note=68, velocity=79, time=0),\n",
      "    Message('control_change', channel=1, control=7, value=90, time=60),\n",
      "    Message('control_change', channel=1, control=7, value=89, time=90),\n",
      "    Message('note_on', channel=1, note=68, velocity=0, time=50),\n",
      "    Message('control_change', channel=1, control=7, value=88, time=40),\n",
      "    Message('control_change', channel=1, control=7, value=87, time=60),\n",
      "    Message('control_change', channel=1, control=7, value=86, time=90),\n",
      "    Message('control_change', channel=1, control=7, value=85, time=90),\n",
      "    Message('note_on', channel=1, note=66, velocity=79, time=0),\n",
      "    Message('note_on', channel=1, note=66, velocity=0, time=80),\n",
      "    Message('control_change', channel=1, control=7, value=84, time=10),\n",
      "    Message('note_on', channel=1, note=68, velocity=79, time=30),\n",
      "    Message('control_change', channel=1, control=7, value=83, time=60),\n",
      "    Message('note_on', channel=1, note=68, velocity=0, time=20),\n",
      "    Message('note_on', channel=1, note=69, velocity=79, time=40),\n",
      "    Message('control_change', channel=1, control=7, value=82, time=0),\n",
      "    Message('control_change', channel=1, control=7, value=81, time=90),\n",
      "    Message('control_change', channel=1, control=7, value=80, time=90),\n",
      "    Message('note_on', channel=1, note=69, velocity=0, time=20),\n",
      "    Message('note_on', channel=1, note=68, velocity=79, time=40),\n",
      "    Message('control_change', channel=1, control=7, value=79, time=30),\n",
      "    Message('note_on', channel=1, note=68, velocity=0, time=50),\n",
      "    Message('control_change', channel=1, control=7, value=78, time=10),\n",
      "    Message('note_on', channel=1, note=66, velocity=79, time=30),\n",
      "    Message('control_change', channel=1, control=7, value=77, time=60),\n",
      "    Message('note_on', channel=1, note=66, velocity=0, time=20),\n",
      "    Message('note_on', channel=1, note=64, velocity=79, time=40),\n",
      "    Message('control_change', channel=1, control=7, value=76, time=30),\n",
      "    Message('note_on', channel=1, note=64, velocity=0, time=50),\n",
      "    Message('control_change', channel=1, control=7, value=75, time=40),\n",
      "    Message('note_on', channel=1, note=64, velocity=79, time=0),\n",
      "    Message('note_on', channel=1, note=64, velocity=0, time=80),\n",
      "    Message('control_change', channel=1, control=7, value=74, time=10),\n",
      "    Message('note_on', channel=1, note=66, velocity=79, time=30),\n",
      "    Message('control_change', channel=1, control=7, value=73, time=30),\n",
      "    Message('note_on', channel=1, note=66, velocity=0, time=50),\n",
      "    Message('control_change', channel=1, control=7, value=72, time=40),\n",
      "    Message('note_on', channel=1, note=68, velocity=79, time=0),\n",
      "    Message('note_on', channel=1, note=68, velocity=0, time=80),\n",
      "    Message('control_change', channel=1, control=7, value=71, time=10),\n",
      "    Message('note_on', channel=1, note=64, velocity=79, time=30),\n",
      "    Message('control_change', channel=1, control=7, value=70, time=60),\n",
      "    Message('control_change', channel=1, control=7, value=69, time=60),\n",
      "    Message('control_change', channel=1, control=7, value=68, time=90),\n",
      "    Message('note_on', channel=1, note=64, velocity=0, time=70),\n",
      "    Message('control_change', channel=1, control=7, value=67, time=20),\n",
      "    Message('note_on', channel=1, note=68, velocity=79, time=60),\n",
      "    Message('control_change', channel=1, control=7, value=66, time=30),\n",
      "    Message('note_on', channel=1, note=68, velocity=0, time=50),\n",
      "    Message('control_change', channel=1, control=7, value=65, time=40),\n",
      "    Message('control_change', channel=1, control=7, value=64, time=60),\n",
      "    Message('note_on', channel=1, note=71, velocity=79, time=60),\n",
      "    Message('control_change', channel=1, control=7, value=63, time=30),\n",
      "    Message('note_on', channel=1, note=71, velocity=0, time=50),\n",
      "    Message('control_change', channel=1, control=7, value=62, time=40),\n",
      "    Message('note_on', channel=1, note=71, velocity=79, time=0),\n",
      "    Message('note_on', channel=1, note=71, velocity=0, time=80),\n",
      "    Message('control_change', channel=1, control=7, value=61, time=10),\n",
      "    Message('note_on', channel=1, note=68, velocity=79, time=30),\n",
      "    Message('control_change', channel=1, control=7, value=60, time=60),\n",
      "    Message('note_on', channel=1, note=68, velocity=0, time=20),\n",
      "    Message('note_on', channel=1, note=64, velocity=79, time=40),\n",
      "    Message('control_change', channel=1, control=7, value=59, time=0),\n",
      "    Message('control_change', channel=1, control=7, value=58, time=90),\n",
      "    Message('control_change', channel=1, control=7, value=57, time=90),\n",
      "    Message('control_change', channel=1, control=7, value=56, time=90),\n",
      "    Message('note_on', channel=1, note=64, velocity=0, time=10),\n",
      "    Message('control_change', channel=1, control=7, value=55, time=50),\n",
      "    Message('control_change', channel=1, control=7, value=54, time=90),\n",
      "    Message('control_change', channel=1, control=7, value=53, time=90),\n",
      "    Message('control_change', channel=1, control=7, value=52, time=90),\n",
      "    Message('control_change', channel=1, control=7, value=51, time=90),\n",
      "    Message('note_on', channel=1, note=68, velocity=79, time=30),\n",
      "    Message('control_change', channel=1, control=7, value=50, time=30),\n",
      "    Message('note_on', channel=1, note=68, velocity=0, time=50),\n",
      "    Message('control_change', channel=1, control=7, value=49, time=40),\n",
      "    Message('note_on', channel=1, note=66, velocity=79, time=0),\n",
      "    Message('note_on', channel=1, note=66, velocity=0, time=80),\n",
      "    Message('control_change', channel=1, control=7, value=48, time=10),\n",
      "    Message('note_on', channel=1, note=64, velocity=79, time=30),\n",
      "    Message('control_change', channel=1, control=7, value=47, time=60),\n",
      "    Message('control_change', channel=1, control=7, value=46, time=60),\n",
      "    Message('control_change', channel=1, control=7, value=45, time=90),\n",
      "    Message('note_on', channel=1, note=64, velocity=0, time=30),\n",
      "    Message('note_on', channel=1, note=61, velocity=79, time=0),\n",
      "    Message('control_change', channel=1, control=7, value=44, time=60),\n",
      "    Message('note_on', channel=1, note=61, velocity=0, time=60),\n",
      "    Message('note_on', channel=1, note=59, velocity=79, time=0),\n",
      "    Message('control_change', channel=1, control=7, value=43, time=30),\n",
      "    Message('control_change', channel=1, control=7, value=42, time=90),\n",
      "    Message('note_on', channel=1, note=59, velocity=0, time=40),\n",
      "    Message('control_change', channel=1, control=7, value=41, time=20),\n",
      "    Message('control_change', channel=1, control=7, value=40, time=90),\n",
      "    Message('control_change', channel=1, control=7, value=39, time=90),\n",
      "    Message('note_on', channel=1, note=64, velocity=79, time=0),\n",
      "    Message('note_on', channel=1, note=64, velocity=0, time=80),\n",
      "    Message('control_change', channel=1, control=7, value=38, time=10),\n",
      "    Message('control_change', channel=1, control=7, value=37, time=90),\n",
      "    Message('note_on', channel=1, note=64, velocity=79, time=60),\n",
      "    Message('control_change', channel=1, control=7, value=36, time=0),\n",
      "    Message('control_change', channel=1, control=7, value=35, time=90),\n",
      "    Message('control_change', channel=1, control=7, value=34, time=90),\n",
      "    Message('note_on', channel=1, note=64, velocity=0, time=20),\n",
      "    Message('note_on', channel=1, note=61, velocity=79, time=40),\n",
      "    Message('control_change', channel=1, control=7, value=33, time=30),\n",
      "    Message('note_on', channel=1, note=61, velocity=0, time=50),\n",
      "    Message('control_change', channel=1, control=7, value=32, time=10),\n",
      "    Message('control_change', channel=1, control=7, value=31, time=90),\n",
      "    Message('note_on', channel=1, note=64, velocity=79, time=60),\n",
      "    Message('control_change', channel=1, control=7, value=30, time=30),\n",
      "    Message('control_change', channel=1, control=7, value=29, time=90),\n",
      "    Message('note_on', channel=1, note=64, velocity=0, time=80),\n",
      "    Message('control_change', channel=1, control=7, value=28, time=10),\n",
      "    Message('note_on', channel=1, note=64, velocity=79, time=30),\n",
      "    Message('control_change', channel=1, control=7, value=27, time=30),\n",
      "    Message('note_on', channel=1, note=64, velocity=0, time=50),\n",
      "    Message('control_change', channel=1, control=7, value=26, time=40),\n",
      "    Message('note_on', channel=1, note=61, velocity=79, time=0),\n",
      "    Message('note_on', channel=1, note=61, velocity=0, time=80),\n",
      "    Message('control_change', channel=1, control=7, value=25, time=10),\n",
      "    Message('note_on', channel=1, note=64, velocity=79, time=30),\n",
      "    Message('control_change', channel=1, control=7, value=24, time=60),\n",
      "    Message('control_change', channel=1, control=7, value=23, time=60),\n",
      "    Message('note_on', channel=1, note=64, velocity=0, time=80),\n",
      "    Message('control_change', channel=1, control=7, value=22, time=10),\n",
      "    Message('note_on', channel=1, note=64, velocity=79, time=30),\n",
      "    Message('control_change', channel=1, control=7, value=21, time=60),\n",
      "    Message('note_on', channel=1, note=64, velocity=0, time=20),\n",
      "    Message('control_change', channel=1, control=7, value=20, time=70),\n",
      "    Message('control_change', channel=1, control=7, value=19, time=90),\n",
      "    Message('note_on', channel=1, note=64, velocity=79, time=0),\n",
      "    Message('control_change', channel=1, control=7, value=18, time=60),\n",
      "    Message('note_on', channel=1, note=64, velocity=0, time=20),\n",
      "    Message('note_on', channel=1, note=68, velocity=79, time=40),\n",
      "    Message('control_change', channel=1, control=7, value=17, time=30),\n",
      "    Message('note_on', channel=1, note=68, velocity=0, time=50),\n",
      "    Message('control_change', channel=1, control=7, value=16, time=40),\n",
      "    Message('note_on', channel=1, note=66, velocity=79, time=0),\n",
      "    Message('note_on', channel=1, note=66, velocity=0, time=80),\n",
      "    Message('control_change', channel=1, control=7, value=15, time=10),\n",
      "    Message('note_on', channel=1, note=64, velocity=79, time=30),\n",
      "    Message('control_change', channel=1, control=7, value=14, time=60),\n",
      "    Message('note_on', channel=1, note=64, velocity=0, time=20),\n",
      "    Message('note_on', channel=1, note=66, velocity=79, time=40),\n",
      "    Message('control_change', channel=1, control=7, value=13, time=0),\n",
      "    Message('control_change', channel=1, control=7, value=12, time=90),\n",
      "    Message('control_change', channel=1, control=7, value=11, time=90),\n",
      "    Message('control_change', channel=1, control=7, value=10, time=90),\n",
      "    Message('control_change', channel=1, control=7, value=9, time=60),\n",
      "    Message('control_change', channel=1, control=7, value=8, time=90),\n",
      "    Message('note_on', channel=1, note=66, velocity=0, time=60),\n",
      "    Message('note_on', channel=1, note=63, velocity=79, time=0),\n",
      "    Message('control_change', channel=1, control=7, value=7, time=30),\n",
      "    Message('note_on', channel=1, note=63, velocity=0, time=30),\n",
      "    Message('note_on', channel=1, note=61, velocity=79, time=0),\n",
      "    Message('note_on', channel=1, note=61, velocity=0, time=60),\n",
      "    Message('control_change', channel=1, control=7, value=6, time=0),\n",
      "    Message('note_on', channel=1, note=59, velocity=79, time=0),\n",
      "    Message('note_on', channel=1, note=59, velocity=0, time=80),\n",
      "    Message('control_change', channel=1, control=7, value=5, time=10),\n",
      "    Message('control_change', channel=1, control=7, value=4, time=60),\n",
      "    Message('control_change', channel=1, control=7, value=3, time=90),\n",
      "    Message('control_change', channel=1, control=7, value=2, time=90),\n",
      "    Message('control_change', channel=1, control=7, value=1, time=90),\n",
      "    Message('control_change', channel=1, control=7, value=0, time=30),\n",
      "    MetaMessage('end_of_track', time=0)]),\n",
      "  MidiTrack([\n",
      "    MetaMessage('midi_port', port=0, time=0),\n",
      "    MetaMessage('track_name', name='ElecGtr', time=0),\n",
      "    Message('program_change', channel=2, program=87, time=0),\n",
      "    Message('control_change', channel=2, control=7, value=96, time=0),\n",
      "    Message('control_change', channel=2, control=0, value=0, time=480),\n",
      "    Message('control_change', channel=2, control=32, value=0, time=5),\n",
      "    Message('control_change', channel=2, control=1, value=0, time=10),\n",
      "    Message('control_change', channel=2, control=10, value=63, time=10),\n",
      "    Message('control_change', channel=2, control=11, value=127, time=5),\n",
      "    Message('control_change', channel=2, control=64, value=0, time=5),\n",
      "    Message('control_change', channel=2, control=91, value=64, time=5),\n",
      "    Message('control_change', channel=2, control=93, value=0, time=5),\n",
      "    Message('pitchwheel', channel=2, pitch=0, time=5),\n",
      "    Message('note_on', channel=2, note=59, velocity=79, time=430),\n",
      "    Message('note_on', channel=2, note=64, velocity=79, time=0),\n",
      "    Message('control_change', channel=2, control=7, value=96, time=60),\n",
      "    Message('note_on', channel=2, note=64, velocity=0, time=20),\n",
      "    Message('note_on', channel=2, note=59, velocity=0, time=0),\n",
      "    Message('note_on', channel=2, note=59, velocity=79, time=40),\n",
      "    Message('note_on', channel=2, note=64, velocity=79, time=0),\n",
      "    Message('note_on', channel=2, note=64, velocity=0, time=80),\n",
      "    Message('note_on', channel=2, note=59, velocity=0, time=0),\n",
      "    Message('control_change', channel=2, control=91, value=64, time=40),\n",
      "    Message('note_on', channel=2, note=59, velocity=79, time=0),\n",
      "    Message('note_on', channel=2, note=64, velocity=79, time=0),\n",
      "    Message('note_on', channel=2, note=64, velocity=0, time=80),\n",
      "    Message('note_on', channel=2, note=59, velocity=0, time=0),\n",
      "    Message('note_on', channel=2, note=59, velocity=79, time=40),\n",
      "    Message('note_on', channel=2, note=63, velocity=79, time=0),\n",
      "    Message('note_on', channel=2, note=63, velocity=0, time=80),\n",
      "    Message('note_on', channel=2, note=59, velocity=0, time=0),\n",
      "    Message('note_on', channel=2, note=59, velocity=79, time=40),\n",
      "    Message('note_on', channel=2, note=63, velocity=79, time=0),\n",
      "    Message('note_on', channel=2, note=63, velocity=0, time=80),\n",
      "    Message('note_on', channel=2, note=59, velocity=0, time=0),\n",
      "    Message('note_on', channel=2, note=59, velocity=79, time=40),\n",
      "    Message('note_on', channel=2, note=63, velocity=79, time=0),\n",
      "    Message('note_on', channel=2, note=63, velocity=0, time=80),\n",
      "    Message('note_on', channel=2, note=59, velocity=0, time=0),\n",
      "    Message('note_on', channel=2, note=59, velocity=79, time=40),\n",
      "    Message('note_on', channel=2, note=63, velocity=79, time=0),\n",
      "    Message('note_on', channel=2, note=63, velocity=0, time=80),\n",
      "    Message('note_on', channel=2, note=59, velocity=0, time=0),\n",
      "    Message('note_on', channel=2, note=59, velocity=79, time=40),\n",
      "    Message('note_on', channel=2, note=63, velocity=79, time=0),\n",
      "    Message('note_on', channel=2, note=63, velocity=0, time=80),\n",
      "    Message('note_on', channel=2, note=59, velocity=0, time=0),\n",
      "    Message('note_on', channel=2, note=59, velocity=79, time=40),\n",
      "    Message('note_on', channel=2, note=64, velocity=79, time=0),\n",
      "    Message('note_on', channel=2, note=64, velocity=0, time=80),\n",
      "    Message('note_on', channel=2, note=59, velocity=0, time=0),\n",
      "    Message('note_on', channel=2, note=59, velocity=79, time=40),\n",
      "    Message('note_on', channel=2, note=64, velocity=79, time=0),\n",
      "    Message('note_on', channel=2, note=64, velocity=0, time=80),\n",
      "    Message('note_on', channel=2, note=59, velocity=0, time=0),\n",
      "    Message('note_on', channel=2, note=59, velocity=79, time=40),\n",
      "    Message('note_on', channel=2, note=64, velocity=79, time=0),\n",
      "    Message('note_on', channel=2, note=64, velocity=0, time=80),\n",
      "    Message('note_on', channel=2, note=59, velocity=0, time=0),\n",
      "    Message('note_on', channel=2, note=59, velocity=79, time=40),\n",
      "    Message('note_on', channel=2, note=63, velocity=79, time=0),\n",
      "    Message('note_on', channel=2, note=63, velocity=0, time=80),\n",
      "    Message('note_on', channel=2, note=59, velocity=0, time=0),\n",
      "    Message('note_on', channel=2, note=59, velocity=79, time=40),\n",
      "    Message('note_on', channel=2, note=63, velocity=79, time=0),\n",
      "    Message('note_on', channel=2, note=63, velocity=0, time=80),\n",
      "    Message('note_on', channel=2, note=59, velocity=0, time=0),\n",
      "    Message('note_on', channel=2, note=59, velocity=79, time=40),\n",
      "    Message('note_on', channel=2, note=63, velocity=79, time=0),\n",
      "    Message('note_on', channel=2, note=63, velocity=0, time=80),\n",
      "    Message('note_on', channel=2, note=59, velocity=0, time=0),\n",
      "    Message('note_on', channel=2, note=59, velocity=79, time=40),\n",
      "    Message('note_on', channel=2, note=63, velocity=79, time=0),\n",
      "    Message('note_on', channel=2, note=63, velocity=0, time=80),\n",
      "    Message('note_on', channel=2, note=59, velocity=0, time=0),\n",
      "    Message('note_on', channel=2, note=59, velocity=79, time=40),\n",
      "    Message('note_on', channel=2, note=63, velocity=79, time=0),\n",
      "    Message('note_on', channel=2, note=63, velocity=0, time=80),\n",
      "    Message('note_on', channel=2, note=59, velocity=0, time=0),\n",
      "    Message('note_on', channel=2, note=59, velocity=79, time=40),\n",
      "    Message('note_on', channel=2, note=64, velocity=79, time=0),\n",
      "    Message('note_on', channel=2, note=64, velocity=0, time=80),\n",
      "    Message('note_on', channel=2, note=59, velocity=0, time=0),\n",
      "    Message('note_on', channel=2, note=59, velocity=79, time=40),\n",
      "    Message('note_on', channel=2, note=64, velocity=79, time=0),\n",
      "    Message('note_on', channel=2, note=64, velocity=0, time=80),\n",
      "    Message('note_on', channel=2, note=59, velocity=0, time=0),\n",
      "    Message('note_on', channel=2, note=59, velocity=79, time=40),\n",
      "    Message('note_on', channel=2, note=64, velocity=79, time=0),\n",
      "    Message('note_on', channel=2, note=64, velocity=0, time=80),\n",
      "    Message('note_on', channel=2, note=59, velocity=0, time=0),\n",
      "    Message('note_on', channel=2, note=59, velocity=79, time=40),\n",
      "    Message('note_on', channel=2, note=63, velocity=79, time=0),\n",
      "    Message('note_on', channel=2, note=63, velocity=0, time=80),\n",
      "    Message('note_on', channel=2, note=59, velocity=0, time=0),\n",
      "    Message('note_on', channel=2, note=59, velocity=79, time=40),\n",
      "    Message('note_on', channel=2, note=63, velocity=79, time=0),\n",
      "    Message('note_on', channel=2, note=63, velocity=0, time=80),\n",
      "    Message('note_on', channel=2, note=59, velocity=0, time=0),\n",
      "    Message('note_on', channel=2, note=59, velocity=79, time=40),\n",
      "    Message('note_on', channel=2, note=63, velocity=79, time=0),\n",
      "    Message('note_on', channel=2, note=63, velocity=0, time=80),\n",
      "    Message('note_on', channel=2, note=59, velocity=0, time=0),\n",
      "    Message('note_on', channel=2, note=59, velocity=79, time=40),\n",
      "    Message('note_on', channel=2, note=63, velocity=79, time=0),\n",
      "    Message('note_on', channel=2, note=63, velocity=0, time=80),\n",
      "    Message('note_on', channel=2, note=59, velocity=0, time=0),\n",
      "    Message('note_on', channel=2, note=59, velocity=79, time=40),\n",
      "    Message('note_on', channel=2, note=63, velocity=79, time=0),\n",
      "    Message('note_on', channel=2, note=63, velocity=0, time=80),\n",
      "    Message('note_on', channel=2, note=59, velocity=0, time=0),\n",
      "    Message('note_on', channel=2, note=59, velocity=79, time=40),\n",
      "    Message('note_on', channel=2, note=64, velocity=79, time=0),\n",
      "    Message('note_on', channel=2, note=64, velocity=0, time=80),\n",
      "    Message('note_on', channel=2, note=59, velocity=0, time=0),\n",
      "    Message('note_on', channel=2, note=59, velocity=79, time=40),\n",
      "    Message('note_on', channel=2, note=64, velocity=79, time=0),\n",
      "    Message('note_on', channel=2, note=64, velocity=0, time=80),\n",
      "    Message('note_on', channel=2, note=59, velocity=0, time=0),\n",
      "    Message('note_on', channel=2, note=59, velocity=79, time=40),\n",
      "    Message('note_on', channel=2, note=64, velocity=79, time=0),\n",
      "    Message('note_on', channel=2, note=64, velocity=0, time=80),\n",
      "    Message('note_on', channel=2, note=59, velocity=0, time=0),\n",
      "    Message('note_on', channel=2, note=59, velocity=79, time=40),\n",
      "    Message('note_on', channel=2, note=63, velocity=79, time=0),\n",
      "    Message('note_on', channel=2, note=63, velocity=0, time=80),\n",
      "    Message('note_on', channel=2, note=59, velocity=0, time=0),\n",
      "    Message('note_on', channel=2, note=59, velocity=79, time=40),\n",
      "    Message('note_on', channel=2, note=63, velocity=79, time=0),\n",
      "    Message('note_on', channel=2, note=63, velocity=0, time=80),\n",
      "    Message('note_on', channel=2, note=59, velocity=0, time=0),\n",
      "    Message('note_on', channel=2, note=59, velocity=79, time=40),\n",
      "    Message('note_on', channel=2, note=63, velocity=79, time=0),\n",
      "    Message('note_on', channel=2, note=63, velocity=0, time=80),\n",
      "    Message('note_on', channel=2, note=59, velocity=0, time=0),\n",
      "    Message('note_on', channel=2, note=59, velocity=79, time=40),\n",
      "    Message('note_on', channel=2, note=63, velocity=79, time=0),\n",
      "    Message('note_on', channel=2, note=63, velocity=0, time=80),\n",
      "    Message('note_on', channel=2, note=59, velocity=0, time=0),\n",
      "    Message('note_on', channel=2, note=59, velocity=79, time=40),\n",
      "    Message('note_on', channel=2, note=63, velocity=79, time=0),\n",
      "    Message('note_on', channel=2, note=63, velocity=0, time=80),\n",
      "    Message('note_on', channel=2, note=59, velocity=0, time=0),\n",
      "    Message('control_change', channel=2, control=10, value=36, time=40),\n",
      "    Message('note_on', channel=2, note=68, velocity=79, time=0),\n",
      "    Message('note_on', channel=2, note=64, velocity=79, time=0),\n",
      "    Message('note_on', channel=2, note=71, velocity=79, time=0),\n",
      "    Message('note_on', channel=2, note=64, velocity=0, time=360),\n",
      "    Message('note_on', channel=2, note=68, velocity=0, time=0),\n",
      "    Message('note_on', channel=2, note=66, velocity=79, time=0),\n",
      "    Message('note_on', channel=2, note=63, velocity=79, time=0),\n",
      "    Message('note_on', channel=2, note=63, velocity=0, time=360),\n",
      "    Message('note_on', channel=2, note=66, velocity=0, time=0),\n",
      "    Message('note_on', channel=2, note=71, velocity=0, time=0),\n",
      "    Message('note_on', channel=2, note=68, velocity=79, time=120),\n",
      "    Message('note_on', channel=2, note=64, velocity=79, time=0),\n",
      "    Message('note_on', channel=2, note=61, velocity=79, time=0),\n",
      "    Message('note_on', channel=2, note=61, velocity=0, time=440),\n",
      "    Message('note_on', channel=2, note=64, velocity=0, time=0),\n",
      "    Message('note_on', channel=2, note=68, velocity=0, time=0),\n",
      "    Message('note_on', channel=2, note=66, velocity=79, time=40),\n",
      "    Message('note_on', channel=2, note=63, velocity=79, time=0),\n",
      "    Message('note_on', channel=2, note=71, velocity=79, time=0),\n",
      "    Message('note_on', channel=2, note=71, velocity=0, time=440),\n",
      "    Message('note_on', channel=2, note=63, velocity=0, time=0),\n",
      "    Message('note_on', channel=2, note=66, velocity=0, time=0),\n",
      "    Message('note_on', channel=2, note=69, velocity=79, time=40),\n",
      "    Message('note_on', channel=2, note=61, velocity=79, time=0),\n",
      "    Message('note_on', channel=2, note=64, velocity=79, time=0),\n",
      "    Message('note_on', channel=2, note=64, velocity=0, time=520),\n",
      "    Message('note_on', channel=2, note=61, velocity=0, time=0),\n",
      "    Message('note_on', channel=2, note=69, velocity=0, time=0),\n",
      "    Message('note_on', channel=2, note=64, velocity=79, time=80),\n",
      "    Message('note_on', channel=2, note=61, velocity=79, time=0),\n",
      "    Message('note_on', channel=2, note=68, velocity=79, time=0),\n",
      "    Message('note_on', channel=2, note=68, velocity=0, time=160),\n",
      "    Message('note_on', channel=2, note=61, velocity=0, time=0),\n",
      "    Message('note_on', channel=2, note=64, velocity=0, time=0),\n",
      "    Message('note_on', channel=2, note=71, velocity=79, time=80),\n",
      "    Message('note_on', channel=2, note=63, velocity=79, time=0),\n",
      "    Message('note_on', channel=2, note=66, velocity=79, time=0),\n",
      "    Message('note_on', channel=2, note=66, velocity=0, time=875),\n",
      "    Message('note_on', channel=2, note=63, velocity=0, time=0),\n",
      "    Message('note_on', channel=2, note=71, velocity=0, time=0),\n",
      "    Message('note_on', channel=2, note=64, velocity=79, time=205),\n",
      "    Message('note_on', channel=2, note=64, velocity=0, time=60),\n",
      "    Message('note_on', channel=2, note=68, velocity=79, time=0),\n",
      "    Message('note_on', channel=2, note=68, velocity=0, time=60),\n",
      "    Message('note_on', channel=2, note=68, velocity=79, time=0),\n",
      "    Message('note_on', channel=2, note=64, velocity=79, time=0),\n",
      "    Message('note_on', channel=2, note=71, velocity=79, time=0),\n",
      "    Message('note_on', channel=2, note=64, velocity=0, time=360),\n",
      "    Message('note_on', channel=2, note=68, velocity=0, time=0),\n",
      "    Message('note_on', channel=2, note=66, velocity=79, time=0),\n",
      "    Message('note_on', channel=2, note=63, velocity=79, time=0),\n",
      "    Message('note_on', channel=2, note=63, velocity=0, time=360),\n",
      "    Message('note_on', channel=2, note=66, velocity=0, time=0),\n",
      "    Message('note_on', channel=2, note=71, velocity=0, time=0),\n",
      "    Message('note_on', channel=2, note=68, velocity=79, time=120),\n",
      "    Message('note_on', channel=2, note=64, velocity=79, time=0),\n",
      "    Message('note_on', channel=2, note=61, velocity=79, time=0),\n",
      "    Message('note_on', channel=2, note=61, velocity=0, time=480),\n",
      "    Message('note_on', channel=2, note=64, velocity=0, time=0),\n",
      "    Message('note_on', channel=2, note=68, velocity=0, time=0),\n",
      "    Message('note_on', channel=2, note=66, velocity=79, time=0),\n",
      "    Message('note_on', channel=2, note=63, velocity=79, time=0),\n",
      "    Message('note_on', channel=2, note=71, velocity=79, time=0),\n",
      "    Message('note_on', channel=2, note=71, velocity=0, time=480),\n",
      "    Message('note_on', channel=2, note=63, velocity=0, time=0),\n",
      "    Message('note_on', channel=2, note=66, velocity=0, time=0),\n",
      "    Message('note_on', channel=2, note=69, velocity=79, time=0),\n",
      "    Message('note_on', channel=2, note=61, velocity=79, time=0),\n",
      "    Message('note_on', channel=2, note=64, velocity=79, time=0),\n",
      "    Message('note_on', channel=2, note=64, velocity=0, time=360),\n",
      "    Message('note_on', channel=2, note=61, velocity=0, time=0),\n",
      "    Message('note_on', channel=2, note=64, velocity=79, time=0),\n",
      "    Message('note_on', channel=2, note=61, velocity=79, time=0),\n",
      "    Message('note_on', channel=2, note=61, velocity=0, time=160),\n",
      "    Message('note_on', channel=2, note=64, velocity=0, time=0),\n",
      "    Message('note_on', channel=2, note=69, velocity=0, time=0),\n",
      "    Message('note_on', channel=2, note=64, velocity=79, time=80),\n",
      "    Message('note_on', channel=2, note=61, velocity=79, time=0),\n",
      "    Message('note_on', channel=2, note=68, velocity=79, time=0),\n",
      "    Message('note_on', channel=2, note=68, velocity=0, time=160),\n",
      "    Message('note_on', channel=2, note=61, velocity=0, time=0),\n",
      "    Message('note_on', channel=2, note=64, velocity=0, time=0),\n",
      "    Message('note_on', channel=2, note=71, velocity=79, time=80),\n",
      "    Message('note_on', channel=2, note=63, velocity=79, time=0),\n",
      "    Message('note_on', channel=2, note=66, velocity=79, time=0),\n",
      "    Message('note_on', channel=2, note=69, velocity=79, time=1080),\n",
      "    Message('note_on', channel=2, note=61, velocity=79, time=0),\n",
      "    Message('note_on', channel=2, note=64, velocity=79, time=0),\n",
      "    Message('note_on', channel=2, note=66, velocity=0, time=120),\n",
      "    Message('note_on', channel=2, note=71, velocity=0, time=0),\n",
      "    Message('note_on', channel=2, note=63, velocity=0, time=0),\n",
      "    Message('note_on', channel=2, note=69, velocity=0, time=315),\n",
      "    Message('note_on', channel=2, note=61, velocity=0, time=0),\n",
      "    Message('note_on', channel=2, note=64, velocity=0, time=0),\n",
      "    Message('note_on', channel=2, note=64, velocity=79, time=165),\n",
      "    Message('note_on', channel=2, note=61, velocity=79, time=0),\n",
      "    Message('note_on', channel=2, note=68, velocity=79, time=0),\n",
      "    Message('note_on', channel=2, note=68, velocity=0, time=320),\n",
      "    Message('note_on', channel=2, note=61, velocity=0, time=0),\n",
      "    Message('note_on', channel=2, note=64, velocity=0, time=0),\n",
      "    Message('note_on', channel=2, note=71, velocity=79, time=40),\n",
      "    Message('note_on', channel=2, note=63, velocity=79, time=0),\n",
      "    Message('note_on', channel=2, note=66, velocity=79, time=0),\n",
      "    Message('note_on', channel=2, note=66, velocity=0, time=755),\n",
      "    Message('note_on', channel=2, note=63, velocity=0, time=0),\n",
      "    Message('note_on', channel=2, note=71, velocity=0, time=0),\n",
      "    Message('note_on', channel=2, note=64, velocity=79, time=325),\n",
      "    Message('note_on', channel=2, note=61, velocity=79, time=0),\n",
      "    Message('note_on', channel=2, note=69, velocity=79, time=0),\n",
      "    Message('note_on', channel=2, note=69, velocity=0, time=315),\n",
      "    Message('note_on', channel=2, note=61, velocity=0, time=0),\n",
      "    Message('note_on', channel=2, note=64, velocity=0, time=0),\n",
      "    Message('note_on', channel=2, note=64, velocity=79, time=165),\n",
      "    Message('note_on', channel=2, note=61, velocity=79, time=0),\n",
      "    Message('note_on', channel=2, note=68, velocity=79, time=0),\n",
      "    Message('note_on', channel=2, note=68, velocity=0, time=320),\n",
      "    Message('note_on', channel=2, note=61, velocity=0, time=0),\n",
      "    Message('note_on', channel=2, note=64, velocity=0, time=0),\n",
      "    Message('note_on', channel=2, note=71, velocity=79, time=40),\n",
      "    Message('note_on', channel=2, note=63, velocity=79, time=0),\n",
      "    Message('note_on', channel=2, note=66, velocity=79, time=0),\n",
      "    Message('note_on', channel=2, note=66, velocity=0, time=755),\n",
      "    Message('note_on', channel=2, note=63, velocity=0, time=0),\n",
      "    Message('note_on', channel=2, note=71, velocity=0, time=0),\n",
      "    Message('note_on', channel=2, note=73, velocity=79, time=205),\n",
      "    Message('note_on', channel=2, note=66, velocity=79, time=0),\n",
      "    Message('note_on', channel=2, note=69, velocity=79, time=0),\n",
      "    Message('note_on', channel=2, note=69, velocity=0, time=360),\n",
      "    Message('note_on', channel=2, note=66, velocity=0, time=0),\n",
      "    Message('note_on', channel=2, note=73, velocity=0, time=0),\n",
      "    Message('note_on', channel=2, note=68, velocity=79, time=120),\n",
      "    Message('note_on', channel=2, note=64, velocity=79, time=0),\n",
      "    Message('note_on', channel=2, note=71, velocity=79, time=0),\n",
      "    Message('note_on', channel=2, note=71, velocity=0, time=440),\n",
      "    Message('note_on', channel=2, note=64, velocity=0, time=0),\n",
      "    Message('note_on', channel=2, note=68, velocity=0, time=0),\n",
      "    Message('note_on', channel=2, note=69, velocity=79, time=40),\n",
      "    Message('note_on', channel=2, note=61, velocity=79, time=0),\n",
      "    Message('note_on', channel=2, note=64, velocity=79, time=0),\n",
      "    Message('note_on', channel=2, note=64, velocity=0, time=360),\n",
      "    Message('note_on', channel=2, note=61, velocity=0, time=0),\n",
      "    Message('note_on', channel=2, note=69, velocity=0, time=0),\n",
      "    Message('note_on', channel=2, note=69, velocity=79, time=120),\n",
      "    Message('note_on', channel=2, note=66, velocity=79, time=0),\n",
      "    Message('note_on', channel=2, note=73, velocity=79, time=0),\n",
      "    Message('note_on', channel=2, note=73, velocity=0, time=520),\n",
      "    Message('note_on', channel=2, note=66, velocity=0, time=0),\n",
      "    Message('note_on', channel=2, note=69, velocity=0, time=0),\n",
      "    Message('note_on', channel=2, note=66, velocity=79, time=80),\n",
      "    Message('note_on', channel=2, note=63, velocity=79, time=0),\n",
      "    Message('note_on', channel=2, note=71, velocity=79, time=0),\n",
      "    Message('note_on', channel=2, note=71, velocity=0, time=635),\n",
      "    Message('note_on', channel=2, note=63, velocity=0, time=0),\n",
      "    Message('note_on', channel=2, note=66, velocity=0, time=0),\n",
      "    Message('note_on', channel=2, note=66, velocity=79, time=325),\n",
      "    Message('note_on', channel=2, note=63, velocity=79, time=0),\n",
      "    Message('note_on', channel=2, note=71, velocity=79, time=0),\n",
      "    Message('note_on', channel=2, note=71, velocity=0, time=800),\n",
      "    Message('note_on', channel=2, note=63, velocity=0, time=0),\n",
      "    Message('note_on', channel=2, note=66, velocity=0, time=0),\n",
      "    Message('note_on', channel=2, note=69, velocity=79, time=40),\n",
      "    Message('note_on', channel=2, note=61, velocity=79, time=0),\n",
      "    Message('note_on', channel=2, note=64, velocity=79, time=0),\n",
      "    Message('note_on', channel=2, note=64, velocity=0, time=920),\n",
      "    Message('note_on', channel=2, note=61, velocity=0, time=0),\n",
      "    Message('note_on', channel=2, note=69, velocity=0, time=0),\n",
      "    Message('note_on', channel=2, note=64, velocity=79, time=40),\n",
      "    Message('note_on', channel=2, note=59, velocity=79, time=0),\n",
      "    Message('note_on', channel=2, note=68, velocity=79, time=0),\n",
      "    Message('note_on', channel=2, note=68, velocity=0, time=680),\n",
      "    Message('note_on', channel=2, note=59, velocity=0, time=0),\n",
      "    Message('note_on', channel=2, note=64, velocity=0, time=0),\n",
      "    Message('note_on', channel=2, note=64, velocity=79, time=40),\n",
      "    Message('note_on', channel=2, note=59, velocity=79, time=0),\n",
      "    Message('note_on', channel=2, note=66, velocity=79, time=0),\n",
      "    Message('note_on', channel=2, note=66, velocity=0, time=200),\n",
      "    Message('note_on', channel=2, note=59, velocity=0, time=0),\n",
      "    Message('note_on', channel=2, note=64, velocity=0, time=0),\n",
      "    Message('note_on', channel=2, note=73, velocity=79, time=40),\n",
      "    Message('note_on', channel=2, note=66, velocity=79, time=0),\n",
      "    Message('note_on', channel=2, note=69, velocity=79, time=0),\n",
      "    Message('note_on', channel=2, note=69, velocity=0, time=920),\n",
      "    Message('note_on', channel=2, note=66, velocity=0, time=0),\n",
      "    Message('note_on', channel=2, note=73, velocity=0, time=0),\n",
      "    Message('note_on', channel=2, note=68, velocity=79, time=40),\n",
      "    Message('note_on', channel=2, note=61, velocity=79, time=0),\n",
      "    Message('note_on', channel=2, note=64, velocity=79, time=0),\n",
      "    Message('note_on', channel=2, note=64, velocity=0, time=280),\n",
      "    Message('note_on', channel=2, note=61, velocity=0, time=0),\n",
      "    Message('note_on', channel=2, note=68, velocity=0, time=0),\n",
      "    Message('note_on', channel=2, note=64, velocity=79, time=80),\n",
      "    Message('note_on', channel=2, note=61, velocity=79, time=0),\n",
      "    Message('note_on', channel=2, note=68, velocity=79, time=0),\n",
      "    Message('note_on', channel=2, note=68, velocity=0, time=200),\n",
      "    Message('note_on', channel=2, note=61, velocity=0, time=0),\n",
      "    Message('note_on', channel=2, note=64, velocity=0, time=0),\n",
      "    Message('note_on', channel=2, note=64, velocity=79, time=40),\n",
      "    Message('note_on', channel=2, note=59, velocity=79, time=0),\n",
      "    Message('note_on', channel=2, note=71, velocity=79, time=0),\n",
      "    Message('note_on', channel=2, note=71, velocity=0, time=240),\n",
      "    Message('note_on', channel=2, note=59, velocity=0, time=0),\n",
      "    Message('note_on', channel=2, note=64, velocity=0, time=0),\n",
      "    Message('note_on', channel=2, note=69, velocity=79, time=120),\n",
      "    Message('note_on', channel=2, note=61, velocity=79, time=0),\n",
      "    Message('note_on', channel=2, note=64, velocity=79, time=0),\n",
      "    Message('note_on', channel=2, note=64, velocity=0, time=920),\n",
      "    Message('note_on', channel=2, note=61, velocity=0, time=0),\n",
      "    Message('note_on', channel=2, note=69, velocity=0, time=0),\n",
      "    Message('note_on', channel=2, note=66, velocity=79, time=40),\n",
      "    Message('note_on', channel=2, note=59, velocity=79, time=0),\n",
      "    Message('note_on', channel=2, note=64, velocity=79, time=0),\n",
      "    Message('note_on', channel=2, note=64, velocity=0, time=200),\n",
      "    Message('note_on', channel=2, note=59, velocity=0, time=0),\n",
      "    Message('note_on', channel=2, note=66, velocity=0, time=0),\n",
      "    Message('note_on', channel=2, note=64, velocity=79, time=40),\n",
      "    Message('note_on', channel=2, note=59, velocity=79, time=0),\n",
      "    Message('note_on', channel=2, note=68, velocity=79, time=0),\n",
      "    Message('note_on', channel=2, note=68, velocity=0, time=600),\n",
      "    Message('note_on', channel=2, note=59, velocity=0, time=0),\n",
      "    Message('note_on', channel=2, note=64, velocity=0, time=0),\n",
      "    Message('note_on', channel=2, note=69, velocity=79, time=120),\n",
      "    Message('note_on', channel=2, note=57, velocity=79, time=0),\n",
      "    Message('note_on', channel=2, note=64, velocity=79, time=0),\n",
      "    Message('note_on', channel=2, note=64, velocity=0, time=920),\n",
      "    Message('note_on', channel=2, note=57, velocity=0, time=0),\n",
      "    Message('note_on', channel=2, note=69, velocity=0, time=0),\n",
      "    Message('note_on', channel=2, note=64, velocity=79, time=40),\n",
      "    Message('note_on', channel=2, note=56, velocity=79, time=0),\n",
      "    Message('note_on', channel=2, note=61, velocity=79, time=0),\n",
      "    Message('note_on', channel=2, note=61, velocity=0, time=280),\n",
      "    Message('note_on', channel=2, note=56, velocity=0, time=0),\n",
      "    Message('note_on', channel=2, note=64, velocity=0, time=0),\n",
      "    Message('note_on', channel=2, note=64, velocity=79, time=80),\n",
      "    Message('note_on', channel=2, note=61, velocity=79, time=0),\n",
      "    Message('note_on', channel=2, note=68, velocity=79, time=0),\n",
      "    Message('note_on', channel=2, note=68, velocity=0, time=160),\n",
      "    Message('note_on', channel=2, note=61, velocity=0, time=0),\n",
      "    Message('note_on', channel=2, note=64, velocity=0, time=0),\n",
      "    Message('note_on', channel=2, note=64, velocity=79, time=80),\n",
      "    Message('note_on', channel=2, note=59, velocity=79, time=0),\n",
      "    Message('note_on', channel=2, note=71, velocity=79, time=0),\n",
      "    Message('note_on', channel=2, note=71, velocity=0, time=320),\n",
      "    Message('note_on', channel=2, note=59, velocity=0, time=0),\n",
      "    Message('note_on', channel=2, note=64, velocity=0, time=0),\n",
      "    Message('note_on', channel=2, note=64, velocity=79, time=40),\n",
      "    Message('note_on', channel=2, note=57, velocity=79, time=0),\n",
      "    Message('note_on', channel=2, note=61, velocity=79, time=0),\n",
      "    Message('note_on', channel=2, note=61, velocity=0, time=920),\n",
      "    Message('note_on', channel=2, note=57, velocity=0, time=0),\n",
      "    Message('note_on', channel=2, note=64, velocity=0, time=0),\n",
      "    Message('note_on', channel=2, note=68, velocity=79, time=40),\n",
      "    Message('note_on', channel=2, note=64, velocity=79, time=0),\n",
      "    Message('note_on', channel=2, note=59, velocity=79, time=0),\n",
      "    Message('note_on', channel=2, note=59, velocity=0, time=920),\n",
      "    Message('note_on', channel=2, note=64, velocity=0, time=0),\n",
      "    Message('note_on', channel=2, note=68, velocity=0, time=0),\n",
      "    Message('note_on', channel=2, note=64, velocity=79, time=40),\n",
      "    Message('note_on', channel=2, note=57, velocity=79, time=0),\n",
      "    Message('note_on', channel=2, note=61, velocity=79, time=0),\n",
      "    Message('note_on', channel=2, note=61, velocity=0, time=200),\n",
      "    Message('note_on', channel=2, note=57, velocity=0, time=0),\n",
      "    Message('note_on', channel=2, note=64, velocity=0, time=0),\n",
      "    Message('note_on', channel=2, note=57, velocity=79, time=40),\n",
      "    Message('note_on', channel=2, note=52, velocity=79, time=0),\n",
      "    Message('note_on', channel=2, note=61, velocity=79, time=0),\n",
      "    Message('note_on', channel=2, note=61, velocity=0, time=200),\n",
      "    Message('note_on', channel=2, note=52, velocity=0, time=0),\n",
      "    Message('note_on', channel=2, note=57, velocity=0, time=0),\n",
      "    Message('note_on', channel=2, note=59, velocity=79, time=40),\n",
      "    Message('note_on', channel=2, note=52, velocity=79, time=0),\n",
      "    Message('note_on', channel=2, note=64, velocity=79, time=0),\n",
      "    Message('note_on', channel=2, note=64, velocity=0, time=440),\n",
      "    Message('note_on', channel=2, note=52, velocity=0, time=0),\n",
      "    Message('note_on', channel=2, note=59, velocity=0, time=0),\n",
      "    Message('note_on', channel=2, note=64, velocity=79, time=40),\n",
      "    Message('note_on', channel=2, note=57, velocity=79, time=0),\n",
      "    Message('note_on', channel=2, note=61, velocity=79, time=0),\n",
      "    Message('note_on', channel=2, note=57, velocity=0, time=480),\n",
      "    Message('note_on', channel=2, note=54, velocity=79, time=0),\n",
      "    Message('note_on', channel=2, note=64, velocity=0, time=120),\n",
      "    Message('note_on', channel=2, note=68, velocity=79, time=0),\n",
      "    Message('note_on', channel=2, note=68, velocity=0, time=320),\n",
      "    Message('note_on', channel=2, note=54, velocity=0, time=0),\n",
      "    Message('note_on', channel=2, note=61, velocity=0, time=0),\n",
      "    Message('note_on', channel=2, note=59, velocity=79, time=40),\n",
      "    Message('note_on', channel=2, note=66, velocity=79, time=0),\n",
      "    Message('note_on', channel=2, note=63, velocity=79, time=0),\n",
      "    Message('note_on', channel=2, note=63, velocity=0, time=480),\n",
      "    Message('note_on', channel=2, note=66, velocity=0, time=0),\n",
      "    Message('note_on', channel=2, note=51, velocity=79, time=120),\n",
      "    Message('note_on', channel=2, note=54, velocity=79, time=0),\n",
      "    Message('note_on', channel=2, note=54, velocity=0, time=560),\n",
      "    Message('note_on', channel=2, note=51, velocity=0, time=0),\n",
      "    Message('note_on', channel=2, note=59, velocity=0, time=0),\n",
      "    Message('control_change', channel=2, control=10, value=36, time=880),\n",
      "    Message('note_on', channel=2, note=68, velocity=79, time=0),\n",
      "    Message('note_on', channel=2, note=64, velocity=79, time=0),\n",
      "    Message('note_on', channel=2, note=71, velocity=79, time=0),\n",
      "    Message('note_on', channel=2, note=64, velocity=0, time=360),\n",
      "    Message('note_on', channel=2, note=68, velocity=0, time=0),\n",
      "    Message('note_on', channel=2, note=66, velocity=79, time=0),\n",
      "    Message('note_on', channel=2, note=63, velocity=79, time=0),\n",
      "    Message('note_on', channel=2, note=63, velocity=0, time=360),\n",
      "    Message('note_on', channel=2, note=66, velocity=0, time=0),\n",
      "    Message('note_on', channel=2, note=71, velocity=0, time=0),\n",
      "    Message('note_on', channel=2, note=68, velocity=79, time=120),\n",
      "    Message('note_on', channel=2, note=64, velocity=79, time=0),\n",
      "    Message('note_on', channel=2, note=61, velocity=79, time=0),\n",
      "    Message('note_on', channel=2, note=61, velocity=0, time=440),\n",
      "    Message('note_on', channel=2, note=64, velocity=0, time=0),\n",
      "    Message('note_on', channel=2, note=68, velocity=0, time=0),\n",
      "    Message('note_on', channel=2, note=66, velocity=79, time=40),\n",
      "    Message('note_on', channel=2, note=63, velocity=79, time=0),\n",
      "    Message('note_on', channel=2, note=71, velocity=79, time=0),\n",
      "    Message('note_on', channel=2, note=71, velocity=0, time=440),\n",
      "    Message('note_on', channel=2, note=63, velocity=0, time=0),\n",
      "    Message('note_on', channel=2, note=66, velocity=0, time=0),\n",
      "    Message('note_on', channel=2, note=69, velocity=79, time=40),\n",
      "    Message('note_on', channel=2, note=61, velocity=79, time=0),\n",
      "    Message('note_on', channel=2, note=64, velocity=79, time=0),\n",
      "    Message('note_on', channel=2, note=64, velocity=0, time=520),\n",
      "    Message('note_on', channel=2, note=61, velocity=0, time=0),\n",
      "    Message('note_on', channel=2, note=69, velocity=0, time=0),\n",
      "    Message('note_on', channel=2, note=64, velocity=79, time=80),\n",
      "    Message('note_on', channel=2, note=61, velocity=79, time=0),\n",
      "    Message('note_on', channel=2, note=68, velocity=79, time=0),\n",
      "    Message('note_on', channel=2, note=68, velocity=0, time=160),\n",
      "    Message('note_on', channel=2, note=61, velocity=0, time=0),\n",
      "    Message('note_on', channel=2, note=64, velocity=0, time=0),\n",
      "    Message('note_on', channel=2, note=71, velocity=79, time=80),\n",
      "    Message('note_on', channel=2, note=63, velocity=79, time=0),\n",
      "    Message('note_on', channel=2, note=66, velocity=79, time=0),\n",
      "    Message('note_on', channel=2, note=66, velocity=0, time=875),\n",
      "    Message('note_on', channel=2, note=63, velocity=0, time=0),\n",
      "    Message('note_on', channel=2, note=71, velocity=0, time=0),\n",
      "    Message('note_on', channel=2, note=68, velocity=79, time=325),\n",
      "    Message('note_on', channel=2, note=64, velocity=79, time=0),\n",
      "    Message('note_on', channel=2, note=71, velocity=79, time=0),\n",
      "    Message('note_on', channel=2, note=64, velocity=0, time=360),\n",
      "    Message('note_on', channel=2, note=68, velocity=0, time=0),\n",
      "    Message('note_on', channel=2, note=66, velocity=79, time=0),\n",
      "    Message('note_on', channel=2, note=63, velocity=79, time=0),\n",
      "    Message('note_on', channel=2, note=63, velocity=0, time=360),\n",
      "    Message('note_on', channel=2, note=66, velocity=0, time=0),\n",
      "    Message('note_on', channel=2, note=71, velocity=0, time=0),\n",
      "    Message('note_on', channel=2, note=68, velocity=79, time=120),\n",
      "    Message('note_on', channel=2, note=64, velocity=79, time=0),\n",
      "    Message('note_on', channel=2, note=61, velocity=79, time=0),\n",
      "    Message('note_on', channel=2, note=61, velocity=0, time=480),\n",
      "    Message('note_on', channel=2, note=64, velocity=0, time=0),\n",
      "    Message('note_on', channel=2, note=68, velocity=0, time=0),\n",
      "    Message('note_on', channel=2, note=66, velocity=79, time=0),\n",
      "    Message('note_on', channel=2, note=63, velocity=79, time=0),\n",
      "    Message('note_on', channel=2, note=71, velocity=79, time=0),\n",
      "    Message('note_on', channel=2, note=71, velocity=0, time=480),\n",
      "    Message('note_on', channel=2, note=63, velocity=0, time=0),\n",
      "    Message('note_on', channel=2, note=66, velocity=0, time=0),\n",
      "    Message('note_on', channel=2, note=69, velocity=79, time=0),\n",
      "    Message('note_on', channel=2, note=61, velocity=79, time=0),\n",
      "    Message('note_on', channel=2, note=64, velocity=79, time=0),\n",
      "    Message('note_on', channel=2, note=64, velocity=0, time=360),\n",
      "    Message('note_on', channel=2, note=61, velocity=0, time=0),\n",
      "    Message('note_on', channel=2, note=64, velocity=79, time=0),\n",
      "    Message('note_on', channel=2, note=61, velocity=79, time=0),\n",
      "    Message('note_on', channel=2, note=61, velocity=0, time=160),\n",
      "    Message('note_on', channel=2, note=64, velocity=0, time=0),\n",
      "    Message('note_on', channel=2, note=69, velocity=0, time=0),\n",
      "    Message('note_on', channel=2, note=64, velocity=79, time=80),\n",
      "    Message('note_on', channel=2, note=61, velocity=79, time=0),\n",
      "    Message('note_on', channel=2, note=68, velocity=79, time=0),\n",
      "    Message('note_on', channel=2, note=68, velocity=0, time=160),\n",
      "    Message('note_on', channel=2, note=61, velocity=0, time=0),\n",
      "    Message('note_on', channel=2, note=64, velocity=0, time=0),\n",
      "    Message('note_on', channel=2, note=71, velocity=79, time=80),\n",
      "    Message('note_on', channel=2, note=63, velocity=79, time=0),\n",
      "    Message('note_on', channel=2, note=66, velocity=79, time=0),\n",
      "    Message('note_on', channel=2, note=69, velocity=79, time=1080),\n",
      "    Message('note_on', channel=2, note=61, velocity=79, time=0),\n",
      "    Message('note_on', channel=2, note=64, velocity=79, time=0),\n",
      "    Message('note_on', channel=2, note=66, velocity=0, time=120),\n",
      "    Message('note_on', channel=2, note=71, velocity=0, time=0),\n",
      "    Message('note_on', channel=2, note=63, velocity=0, time=0),\n",
      "    Message('note_on', channel=2, note=69, velocity=0, time=315),\n",
      "    Message('note_on', channel=2, note=61, velocity=0, time=0),\n",
      "    Message('note_on', channel=2, note=64, velocity=0, time=0),\n",
      "    Message('note_on', channel=2, note=64, velocity=79, time=165),\n",
      "    Message('note_on', channel=2, note=61, velocity=79, time=0),\n",
      "    Message('note_on', channel=2, note=68, velocity=79, time=0),\n",
      "    Message('note_on', channel=2, note=68, velocity=0, time=320),\n",
      "    Message('note_on', channel=2, note=61, velocity=0, time=0),\n",
      "    Message('note_on', channel=2, note=64, velocity=0, time=0),\n",
      "    Message('note_on', channel=2, note=71, velocity=79, time=40),\n",
      "    Message('note_on', channel=2, note=63, velocity=79, time=0),\n",
      "    Message('note_on', channel=2, note=66, velocity=79, time=0),\n",
      "    Message('note_on', channel=2, note=66, velocity=0, time=755),\n",
      "    Message('note_on', channel=2, note=63, velocity=0, time=0),\n",
      "    Message('note_on', channel=2, note=71, velocity=0, time=0),\n",
      "    Message('note_on', channel=2, note=69, velocity=79, time=205),\n",
      "    Message('note_on', channel=2, note=61, velocity=79, time=0),\n",
      "    Message('note_on', channel=2, note=64, velocity=79, time=0),\n",
      "    Message('note_on', channel=2, note=64, velocity=0, time=435),\n",
      "    Message('note_on', channel=2, note=61, velocity=0, time=0),\n",
      "    Message('note_on', channel=2, note=69, velocity=0, time=0),\n",
      "    Message('note_on', channel=2, note=64, velocity=79, time=165),\n",
      "    Message('note_on', channel=2, note=61, velocity=79, time=0),\n",
      "    Message('note_on', channel=2, note=68, velocity=79, time=0),\n",
      "    Message('note_on', channel=2, note=68, velocity=0, time=320),\n",
      "    Message('note_on', channel=2, note=61, velocity=0, time=0),\n",
      "    Message('note_on', channel=2, note=64, velocity=0, time=0),\n",
      "    Message('note_on', channel=2, note=71, velocity=79, time=40),\n",
      "    Message('note_on', channel=2, note=63, velocity=79, time=0),\n",
      "    Message('note_on', channel=2, note=66, velocity=79, time=0),\n",
      "    Message('note_on', channel=2, note=66, velocity=0, time=755),\n",
      "    Message('note_on', channel=2, note=63, velocity=0, time=0),\n",
      "    Message('note_on', channel=2, note=71, velocity=0, time=0),\n",
      "    Message('note_on', channel=2, note=73, velocity=79, time=205),\n",
      "    Message('note_on', channel=2, note=66, velocity=79, time=0),\n",
      "    Message('note_on', channel=2, note=69, velocity=79, time=0),\n",
      "    Message('note_on', channel=2, note=69, velocity=0, time=360),\n",
      "    Message('note_on', channel=2, note=66, velocity=0, time=0),\n",
      "    Message('note_on', channel=2, note=73, velocity=0, time=0),\n",
      "    Message('note_on', channel=2, note=68, velocity=79, time=120),\n",
      "    Message('note_on', channel=2, note=64, velocity=79, time=0),\n",
      "    Message('note_on', channel=2, note=71, velocity=79, time=0),\n",
      "    Message('note_on', channel=2, note=71, velocity=0, time=440),\n",
      "    Message('note_on', channel=2, note=64, velocity=0, time=0),\n",
      "    Message('note_on', channel=2, note=68, velocity=0, time=0),\n",
      "    Message('note_on', channel=2, note=69, velocity=79, time=40),\n",
      "    Message('note_on', channel=2, note=61, velocity=79, time=0),\n",
      "    Message('note_on', channel=2, note=64, velocity=79, time=0),\n",
      "    Message('note_on', channel=2, note=64, velocity=0, time=360),\n",
      "    Message('note_on', channel=2, note=61, velocity=0, time=0),\n",
      "    Message('note_on', channel=2, note=69, velocity=0, time=0),\n",
      "    Message('note_on', channel=2, note=69, velocity=79, time=120),\n",
      "    Message('note_on', channel=2, note=66, velocity=79, time=0),\n",
      "    Message('note_on', channel=2, note=73, velocity=79, time=0),\n",
      "    Message('note_on', channel=2, note=73, velocity=0, time=520),\n",
      "    Message('note_on', channel=2, note=66, velocity=0, time=0),\n",
      "    Message('note_on', channel=2, note=69, velocity=0, time=0),\n",
      "    Message('note_on', channel=2, note=66, velocity=79, time=80),\n",
      "    Message('note_on', channel=2, note=63, velocity=79, time=0),\n",
      "    Message('note_on', channel=2, note=71, velocity=79, time=0),\n",
      "    Message('note_on', channel=2, note=71, velocity=0, time=635),\n",
      "    Message('note_on', channel=2, note=63, velocity=0, time=0),\n",
      "    Message('note_on', channel=2, note=66, velocity=0, time=0),\n",
      "    Message('note_on', channel=2, note=66, velocity=79, time=325),\n",
      "    Message('note_on', channel=2, note=63, velocity=79, time=0),\n",
      "    Message('note_on', channel=2, note=71, velocity=79, time=0),\n",
      "    Message('note_on', channel=2, note=71, velocity=0, time=800),\n",
      "    Message('note_on', channel=2, note=63, velocity=0, time=0),\n",
      "    Message('note_on', channel=2, note=66, velocity=0, time=0),\n",
      "    Message('note_on', channel=2, note=69, velocity=79, time=40),\n",
      "    Message('note_on', channel=2, note=61, velocity=79, time=0),\n",
      "    Message('note_on', channel=2, note=64, velocity=79, time=0),\n",
      "    Message('note_on', channel=2, note=64, velocity=0, time=920),\n",
      "    Message('note_on', channel=2, note=61, velocity=0, time=0),\n",
      "    Message('note_on', channel=2, note=69, velocity=0, time=0),\n",
      "    Message('note_on', channel=2, note=64, velocity=79, time=40),\n",
      "    Message('note_on', channel=2, note=59, velocity=79, time=0),\n",
      "    Message('note_on', channel=2, note=68, velocity=79, time=0),\n",
      "    Message('note_on', channel=2, note=68, velocity=0, time=680),\n",
      "    Message('note_on', channel=2, note=59, velocity=0, time=0),\n",
      "    Message('note_on', channel=2, note=64, velocity=0, time=0),\n",
      "    Message('note_on', channel=2, note=64, velocity=79, time=40),\n",
      "    Message('note_on', channel=2, note=59, velocity=79, time=0),\n",
      "    Message('note_on', channel=2, note=66, velocity=79, time=0),\n",
      "    Message('note_on', channel=2, note=66, velocity=0, time=200),\n",
      "    Message('note_on', channel=2, note=59, velocity=0, time=0),\n",
      "    Message('note_on', channel=2, note=64, velocity=0, time=0),\n",
      "    Message('note_on', channel=2, note=73, velocity=79, time=40),\n",
      "    Message('note_on', channel=2, note=66, velocity=79, time=0),\n",
      "    Message('note_on', channel=2, note=69, velocity=79, time=0),\n",
      "    Message('note_on', channel=2, note=69, velocity=0, time=920),\n",
      "    Message('note_on', channel=2, note=66, velocity=0, time=0),\n",
      "    Message('note_on', channel=2, note=73, velocity=0, time=0),\n",
      "    Message('note_on', channel=2, note=68, velocity=79, time=40),\n",
      "    Message('note_on', channel=2, note=61, velocity=79, time=0),\n",
      "    Message('note_on', channel=2, note=64, velocity=79, time=0),\n",
      "    Message('note_on', channel=2, note=64, velocity=0, time=280),\n",
      "    Message('note_on', channel=2, note=61, velocity=0, time=0),\n",
      "    Message('note_on', channel=2, note=68, velocity=0, time=0),\n",
      "    Message('note_on', channel=2, note=64, velocity=79, time=80),\n",
      "    Message('note_on', channel=2, note=61, velocity=79, time=0),\n",
      "    Message('note_on', channel=2, note=68, velocity=79, time=0),\n",
      "    Message('note_on', channel=2, note=68, velocity=0, time=200),\n",
      "    Message('note_on', channel=2, note=61, velocity=0, time=0),\n",
      "    Message('note_on', channel=2, note=64, velocity=0, time=0),\n",
      "    Message('note_on', channel=2, note=64, velocity=79, time=40),\n",
      "    Message('note_on', channel=2, note=59, velocity=79, time=0),\n",
      "    Message('note_on', channel=2, note=71, velocity=79, time=0),\n",
      "    Message('note_on', channel=2, note=71, velocity=0, time=240),\n",
      "    Message('note_on', channel=2, note=59, velocity=0, time=0),\n",
      "    Message('note_on', channel=2, note=64, velocity=0, time=0),\n",
      "    Message('note_on', channel=2, note=69, velocity=79, time=120),\n",
      "    Message('note_on', channel=2, note=61, velocity=79, time=0),\n",
      "    Message('note_on', channel=2, note=64, velocity=79, time=0),\n",
      "    Message('note_on', channel=2, note=64, velocity=0, time=920),\n",
      "    Message('note_on', channel=2, note=61, velocity=0, time=0),\n",
      "    Message('note_on', channel=2, note=69, velocity=0, time=0),\n",
      "    Message('note_on', channel=2, note=66, velocity=79, time=40),\n",
      "    Message('note_on', channel=2, note=59, velocity=79, time=0),\n",
      "    Message('note_on', channel=2, note=64, velocity=79, time=0),\n",
      "    Message('note_on', channel=2, note=64, velocity=0, time=200),\n",
      "    Message('note_on', channel=2, note=59, velocity=0, time=0),\n",
      "    Message('note_on', channel=2, note=66, velocity=0, time=0),\n",
      "    Message('note_on', channel=2, note=64, velocity=79, time=40),\n",
      "    Message('note_on', channel=2, note=59, velocity=79, time=0),\n",
      "    Message('note_on', channel=2, note=68, velocity=79, time=0),\n",
      "    Message('note_on', channel=2, note=68, velocity=0, time=720),\n",
      "    Message('note_on', channel=2, note=59, velocity=0, time=0),\n",
      "    Message('note_on', channel=2, note=64, velocity=0, time=0),\n",
      "    Message('note_on', channel=2, note=69, velocity=79, time=0),\n",
      "    Message('note_on', channel=2, note=57, velocity=79, time=0),\n",
      "    Message('note_on', channel=2, note=64, velocity=79, time=0),\n",
      "    Message('note_on', channel=2, note=64, velocity=0, time=920),\n",
      "    Message('note_on', channel=2, note=57, velocity=0, time=0),\n",
      "    Message('note_on', channel=2, note=69, velocity=0, time=0),\n",
      "    Message('note_on', channel=2, note=64, velocity=79, time=40),\n",
      "    Message('note_on', channel=2, note=56, velocity=79, time=0),\n",
      "    Message('note_on', channel=2, note=61, velocity=79, time=0),\n",
      "    Message('note_on', channel=2, note=61, velocity=0, time=280),\n",
      "    Message('note_on', channel=2, note=56, velocity=0, time=0),\n",
      "    Message('note_on', channel=2, note=64, velocity=0, time=0),\n",
      "    Message('note_on', channel=2, note=64, velocity=79, time=80),\n",
      "    Message('note_on', channel=2, note=61, velocity=79, time=0),\n",
      "    Message('note_on', channel=2, note=68, velocity=79, time=0),\n",
      "    Message('note_on', channel=2, note=68, velocity=0, time=160),\n",
      "    Message('note_on', channel=2, note=61, velocity=0, time=0),\n",
      "    Message('note_on', channel=2, note=64, velocity=0, time=0),\n",
      "    Message('note_on', channel=2, note=64, velocity=79, time=80),\n",
      "    Message('note_on', channel=2, note=59, velocity=79, time=0),\n",
      "    Message('note_on', channel=2, note=71, velocity=79, time=0),\n",
      "    Message('note_on', channel=2, note=71, velocity=0, time=320),\n",
      "    Message('note_on', channel=2, note=59, velocity=0, time=0),\n",
      "    Message('note_on', channel=2, note=64, velocity=0, time=0),\n",
      "    Message('note_on', channel=2, note=64, velocity=79, time=40),\n",
      "    Message('note_on', channel=2, note=57, velocity=79, time=0),\n",
      "    Message('note_on', channel=2, note=61, velocity=79, time=0),\n",
      "    Message('note_on', channel=2, note=61, velocity=0, time=920),\n",
      "    Message('note_on', channel=2, note=57, velocity=0, time=0),\n",
      "    Message('note_on', channel=2, note=64, velocity=0, time=0),\n",
      "    Message('note_on', channel=2, note=68, velocity=79, time=40),\n",
      "    Message('note_on', channel=2, note=64, velocity=79, time=0),\n",
      "    Message('note_on', channel=2, note=59, velocity=79, time=0),\n",
      "    Message('note_on', channel=2, note=59, velocity=0, time=920),\n",
      "    Message('note_on', channel=2, note=64, velocity=0, time=0),\n",
      "    Message('note_on', channel=2, note=68, velocity=0, time=0),\n",
      "    Message('note_on', channel=2, note=64, velocity=79, time=40),\n",
      "    Message('note_on', channel=2, note=57, velocity=79, time=0),\n",
      "    Message('note_on', channel=2, note=61, velocity=79, time=0),\n",
      "    Message('note_on', channel=2, note=61, velocity=0, time=200),\n",
      "    Message('note_on', channel=2, note=57, velocity=0, time=0),\n",
      "    Message('note_on', channel=2, note=64, velocity=0, time=0),\n",
      "    Message('note_on', channel=2, note=57, velocity=79, time=40),\n",
      "    Message('note_on', channel=2, note=52, velocity=79, time=0),\n",
      "    Message('note_on', channel=2, note=61, velocity=79, time=0),\n",
      "    Message('note_on', channel=2, note=61, velocity=0, time=200),\n",
      "    Message('note_on', channel=2, note=52, velocity=0, time=0),\n",
      "    Message('note_on', channel=2, note=57, velocity=0, time=0),\n",
      "    Message('note_on', channel=2, note=59, velocity=79, time=40),\n",
      "    Message('note_on', channel=2, note=52, velocity=79, time=0),\n",
      "    Message('note_on', channel=2, note=64, velocity=79, time=0),\n",
      "    Message('note_on', channel=2, note=64, velocity=0, time=440),\n",
      "    Message('note_on', channel=2, note=52, velocity=0, time=0),\n",
      "    Message('note_on', channel=2, note=59, velocity=0, time=0),\n",
      "    Message('note_on', channel=2, note=64, velocity=79, time=40),\n",
      "    Message('note_on', channel=2, note=57, velocity=79, time=0),\n",
      "    Message('note_on', channel=2, note=61, velocity=79, time=0),\n",
      "    Message('note_on', channel=2, note=57, velocity=0, time=480),\n",
      "    Message('note_on', channel=2, note=54, velocity=79, time=0),\n",
      "    Message('note_on', channel=2, note=64, velocity=0, time=120),\n",
      "    Message('note_on', channel=2, note=68, velocity=79, time=0),\n",
      "    Message('note_on', channel=2, note=68, velocity=0, time=320),\n",
      "    Message('note_on', channel=2, note=54, velocity=0, time=0),\n",
      "    Message('note_on', channel=2, note=61, velocity=0, time=0),\n",
      "    Message('note_on', channel=2, note=59, velocity=79, time=40),\n",
      "    Message('note_on', channel=2, note=66, velocity=79, time=0),\n",
      "    Message('note_on', channel=2, note=63, velocity=79, time=0),\n",
      "    Message('note_on', channel=2, note=63, velocity=0, time=480),\n",
      "    Message('note_on', channel=2, note=66, velocity=0, time=0),\n",
      "    Message('note_on', channel=2, note=51, velocity=79, time=120),\n",
      "    Message('note_on', channel=2, note=54, velocity=79, time=0),\n",
      "    Message('note_on', channel=2, note=54, velocity=0, time=560),\n",
      "    Message('note_on', channel=2, note=51, velocity=0, time=0),\n",
      "    Message('note_on', channel=2, note=59, velocity=0, time=0),\n",
      "    Message('note_on', channel=2, note=64, velocity=79, time=760),\n",
      "    Message('note_on', channel=2, note=59, velocity=79, time=0),\n",
      "    Message('note_on', channel=2, note=61, velocity=79, time=0),\n",
      "    Message('note_on', channel=2, note=61, velocity=0, time=920),\n",
      "    Message('note_on', channel=2, note=59, velocity=0, time=0),\n",
      "    Message('note_on', channel=2, note=64, velocity=0, time=0),\n",
      "    Message('note_on', channel=2, note=64, velocity=79, time=40),\n",
      "    Message('note_on', channel=2, note=57, velocity=79, time=0),\n",
      "    Message('note_on', channel=2, note=61, velocity=79, time=0),\n",
      "    Message('note_on', channel=2, note=61, velocity=0, time=680),\n",
      "    Message('note_on', channel=2, note=57, velocity=0, time=0),\n",
      "    Message('note_on', channel=2, note=64, velocity=0, time=0),\n",
      "    Message('note_on', channel=2, note=64, velocity=79, time=40),\n",
      "    Message('note_on', channel=2, note=57, velocity=79, time=0),\n",
      "    Message('note_on', channel=2, note=61, velocity=79, time=0),\n",
      "    Message('note_on', channel=2, note=61, velocity=0, time=120),\n",
      "    Message('note_on', channel=2, note=63, velocity=79, time=0),\n",
      "    Message('note_on', channel=2, note=63, velocity=0, time=120),\n",
      "    Message('note_on', channel=2, note=61, velocity=79, time=0),\n",
      "    Message('note_on', channel=2, note=61, velocity=0, time=120),\n",
      "    Message('note_on', channel=2, note=57, velocity=0, time=0),\n",
      "    Message('note_on', channel=2, note=64, velocity=0, time=0),\n",
      "    Message('note_on', channel=2, note=59, velocity=79, time=0),\n",
      "    Message('note_on', channel=2, note=54, velocity=79, time=0),\n",
      "    Message('note_on', channel=2, note=63, velocity=79, time=0),\n",
      "    Message('note_on', channel=2, note=63, velocity=0, time=320),\n",
      "    Message('note_on', channel=2, note=54, velocity=0, time=0),\n",
      "    Message('note_on', channel=2, note=59, velocity=0, time=0),\n",
      "    Message('note_on', channel=2, note=59, velocity=79, time=40),\n",
      "    Message('note_on', channel=2, note=54, velocity=79, time=0),\n",
      "    Message('note_on', channel=2, note=63, velocity=79, time=0),\n",
      "    Message('note_on', channel=2, note=63, velocity=0, time=440),\n",
      "    Message('note_on', channel=2, note=54, velocity=0, time=0),\n",
      "    Message('note_on', channel=2, note=59, velocity=0, time=0),\n",
      "    Message('note_on', channel=2, note=59, velocity=79, time=40),\n",
      "    Message('note_on', channel=2, note=52, velocity=79, time=0),\n",
      "    Message('note_on', channel=2, note=56, velocity=79, time=0),\n",
      "    Message('note_on', channel=2, note=56, velocity=0, time=435),\n",
      "    Message('note_on', channel=2, note=52, velocity=0, time=0),\n",
      "    Message('note_on', channel=2, note=59, velocity=0, time=0),\n",
      "    Message('note_on', channel=2, note=63, velocity=79, time=165),\n",
      "    Message('note_on', channel=2, note=54, velocity=79, time=0),\n",
      "    Message('note_on', channel=2, note=59, velocity=79, time=0),\n",
      "    Message('note_on', channel=2, note=59, velocity=0, time=480),\n",
      "    Message('note_on', channel=2, note=54, velocity=0, time=0),\n",
      "    Message('note_on', channel=2, note=63, velocity=0, time=0),\n",
      "    Message('note_on', channel=2, note=59, velocity=79, time=0),\n",
      "    Message('note_on', channel=2, note=56, velocity=79, time=0),\n",
      "    Message('note_on', channel=2, note=61, velocity=79, time=0),\n",
      "    Message('note_on', channel=2, note=61, velocity=0, time=635),\n",
      "    Message('note_on', channel=2, note=56, velocity=0, time=0),\n",
      "    Message('note_on', channel=2, note=59, velocity=0, time=0),\n",
      "    Message('note_on', channel=2, note=57, velocity=79, time=145),\n",
      "    Message('note_on', channel=2, note=57, velocity=0, time=60),\n",
      "    Message('note_on', channel=2, note=61, velocity=79, time=0),\n",
      "    Message('note_on', channel=2, note=61, velocity=0, time=60),\n",
      "    Message('note_on', channel=2, note=64, velocity=79, time=0),\n",
      "    Message('note_on', channel=2, note=64, velocity=0, time=60),\n",
      "    Message('note_on', channel=2, note=64, velocity=79, time=0),\n",
      "    Message('note_on', channel=2, note=61, velocity=79, time=0),\n",
      "    Message('note_on', channel=2, note=68, velocity=79, time=0),\n",
      "    Message('note_on', channel=2, note=68, velocity=0, time=440),\n",
      "    Message('note_on', channel=2, note=61, velocity=0, time=0),\n",
      "    Message('note_on', channel=2, note=64, velocity=0, time=0),\n",
      "    Message('note_on', channel=2, note=57, velocity=79, time=40),\n",
      "    Message('note_on', channel=2, note=56, velocity=79, time=0),\n",
      "    Message('note_on', channel=2, note=61, velocity=79, time=0),\n",
      "    Message('note_on', channel=2, note=61, velocity=0, time=240),\n",
      "    Message('note_on', channel=2, note=56, velocity=0, time=0),\n",
      "    Message('note_on', channel=2, note=57, velocity=0, time=0),\n",
      "    Message('note_on', channel=2, note=63, velocity=79, time=120),\n",
      "    Message('note_on', channel=2, note=54, velocity=79, time=0),\n",
      "    Message('note_on', channel=2, note=59, velocity=79, time=0),\n",
      "    Message('note_on', channel=2, note=59, velocity=0, time=200),\n",
      "    Message('note_on', channel=2, note=54, velocity=0, time=0),\n",
      "    Message('note_on', channel=2, note=63, velocity=0, time=0),\n",
      "    Message('note_on', channel=2, note=63, velocity=79, time=40),\n",
      "    Message('note_on', channel=2, note=54, velocity=79, time=0),\n",
      "    Message('note_on', channel=2, note=59, velocity=79, time=0),\n",
      "    Message('note_on', channel=2, note=59, velocity=0, time=1400),\n",
      "    Message('note_on', channel=2, note=54, velocity=0, time=0),\n",
      "    Message('note_on', channel=2, note=63, velocity=0, time=0),\n",
      "    Message('note_on', channel=2, note=59, velocity=79, time=40),\n",
      "    Message('note_on', channel=2, note=54, velocity=79, time=0),\n",
      "    Message('note_on', channel=2, note=61, velocity=79, time=0),\n",
      "    Message('note_on', channel=2, note=61, velocity=0, time=280),\n",
      "    Message('note_on', channel=2, note=54, velocity=0, time=0),\n",
      "    Message('note_on', channel=2, note=59, velocity=0, time=0),\n",
      "    Message('note_on', channel=2, note=61, velocity=79, time=80),\n",
      "    Message('note_on', channel=2, note=59, velocity=79, time=0),\n",
      "    Message('note_on', channel=2, note=64, velocity=79, time=0),\n",
      "    Message('note_on', channel=2, note=64, velocity=0, time=560),\n",
      "    Message('note_on', channel=2, note=59, velocity=0, time=0),\n",
      "    Message('note_on', channel=2, note=61, velocity=0, time=0),\n",
      "    Message('note_on', channel=2, note=59, velocity=79, time=40),\n",
      "    Message('note_on', channel=2, note=56, velocity=79, time=0),\n",
      "    Message('note_on', channel=2, note=61, velocity=79, time=0),\n",
      "    Message('note_on', channel=2, note=61, velocity=0, time=160),\n",
      "    Message('note_on', channel=2, note=56, velocity=0, time=0),\n",
      "    Message('note_on', channel=2, note=59, velocity=0, time=0),\n",
      "    Message('note_on', channel=2, note=64, velocity=79, time=80),\n",
      "    Message('note_on', channel=2, note=57, velocity=79, time=0),\n",
      "    Message('note_on', channel=2, note=61, velocity=79, time=0),\n",
      "    Message('note_on', channel=2, note=61, velocity=0, time=680),\n",
      "    Message('note_on', channel=2, note=57, velocity=0, time=0),\n",
      "    Message('note_on', channel=2, note=64, velocity=0, time=0),\n",
      "    Message('note_on', channel=2, note=61, velocity=79, time=40),\n",
      "    Message('note_on', channel=2, note=64, velocity=79, time=0),\n",
      "    Message('note_on', channel=2, note=64, velocity=0, time=200),\n",
      "    Message('note_on', channel=2, note=61, velocity=0, time=0),\n",
      "    Message('note_on', channel=2, note=59, velocity=79, time=40),\n",
      "    Message('note_on', channel=2, note=54, velocity=79, time=0),\n",
      "    Message('note_on', channel=2, note=61, velocity=79, time=0),\n",
      "    Message('note_on', channel=2, note=61, velocity=0, time=80),\n",
      "    Message('note_on', channel=2, note=54, velocity=0, time=0),\n",
      "    Message('note_on', channel=2, note=59, velocity=0, time=0),\n",
      "    Message('note_on', channel=2, note=59, velocity=79, time=40),\n",
      "    Message('note_on', channel=2, note=63, velocity=79, time=0),\n",
      "    Message('note_on', channel=2, note=63, velocity=0, time=240),\n",
      "    Message('note_on', channel=2, note=59, velocity=0, time=0),\n",
      "    Message('note_on', channel=2, note=59, velocity=79, time=120),\n",
      "    Message('note_on', channel=2, note=54, velocity=79, time=0),\n",
      "    Message('note_on', channel=2, note=61, velocity=79, time=0),\n",
      "    Message('note_on', channel=2, note=61, velocity=0, time=200),\n",
      "    Message('note_on', channel=2, note=54, velocity=0, time=0),\n",
      "    Message('note_on', channel=2, note=59, velocity=0, time=0),\n",
      "    Message('note_on', channel=2, note=59, velocity=79, time=40),\n",
      "    Message('note_on', channel=2, note=54, velocity=79, time=0),\n",
      "    Message('note_on', channel=2, note=63, velocity=79, time=0),\n",
      "    Message('note_on', channel=2, note=63, velocity=0, time=200),\n",
      "    Message('note_on', channel=2, note=54, velocity=0, time=0),\n",
      "    Message('note_on', channel=2, note=59, velocity=0, time=0),\n",
      "    Message('note_on', channel=2, note=59, velocity=79, time=40),\n",
      "    Message('note_on', channel=2, note=59, velocity=0, time=435),\n",
      "    Message('note_on', channel=2, note=59, velocity=79, time=165),\n",
      "    Message('note_on', channel=2, note=54, velocity=79, time=0),\n",
      "    Message('note_on', channel=2, note=63, velocity=79, time=0),\n",
      "    Message('note_on', channel=2, note=63, velocity=0, time=310),\n",
      "    Message('note_on', channel=2, note=54, velocity=0, time=0),\n",
      "    Message('note_on', channel=2, note=59, velocity=0, time=0),\n",
      "    Message('note_on', channel=2, note=54, velocity=79, time=1490),\n",
      "    Message('note_on', channel=2, note=54, velocity=0, time=120),\n",
      "    Message('control_change', channel=2, control=7, value=96, time=5280),\n",
      "    Message('control_change', channel=2, control=7, value=95, time=120),\n",
      "    Message('control_change', channel=2, control=7, value=94, time=90),\n",
      "    Message('control_change', channel=2, control=7, value=93, time=90),\n",
      "    Message('control_change', channel=2, control=7, value=92, time=120),\n",
      "    Message('note_on', channel=2, note=71, velocity=79, time=60),\n",
      "    Message('control_change', channel=2, control=7, value=91, time=30),\n",
      "    Message('control_change', channel=2, control=7, value=90, time=90),\n",
      "    Message('note_on', channel=2, note=71, velocity=0, time=120),\n",
      "    Message('control_change', channel=2, control=7, value=89, time=0),\n",
      "    Message('control_change', channel=2, control=7, value=88, time=90),\n",
      "    Message('control_change', channel=2, control=7, value=87, time=90),\n",
      "    Message('control_change', channel=2, control=7, value=86, time=120),\n",
      "    Message('control_change', channel=2, control=7, value=85, time=90),\n",
      "    Message('control_change', channel=2, control=7, value=84, time=90),\n",
      "    Message('control_change', channel=2, control=7, value=83, time=120),\n",
      "    Message('control_change', channel=2, control=7, value=82, time=90),\n",
      "    Message('control_change', channel=2, control=7, value=81, time=90),\n",
      "    Message('control_change', channel=2, control=7, value=80, time=120),\n",
      "    Message('control_change', channel=2, control=7, value=79, time=90),\n",
      "    Message('control_change', channel=2, control=7, value=78, time=90),\n",
      "    Message('control_change', channel=2, control=7, value=77, time=120),\n",
      "    Message('control_change', channel=2, control=7, value=76, time=90),\n",
      "    Message('control_change', channel=2, control=7, value=75, time=90),\n",
      "    Message('control_change', channel=2, control=7, value=74, time=120),\n",
      "    Message('control_change', channel=2, control=7, value=73, time=90),\n",
      "    Message('control_change', channel=2, control=7, value=72, time=90),\n",
      "    Message('control_change', channel=2, control=7, value=71, time=120),\n",
      "    Message('control_change', channel=2, control=7, value=70, time=90),\n",
      "    Message('control_change', channel=2, control=7, value=69, time=90),\n",
      "    Message('control_change', channel=2, control=7, value=68, time=120),\n",
      "    Message('control_change', channel=2, control=7, value=67, time=90),\n",
      "    Message('control_change', channel=2, control=7, value=66, time=90),\n",
      "    Message('control_change', channel=2, control=7, value=65, time=120),\n",
      "    Message('control_change', channel=2, control=7, value=64, time=90),\n",
      "    Message('control_change', channel=2, control=7, value=63, time=90),\n",
      "    Message('control_change', channel=2, control=7, value=62, time=120),\n",
      "    Message('control_change', channel=2, control=7, value=61, time=90),\n",
      "    Message('control_change', channel=2, control=7, value=60, time=90),\n",
      "    Message('control_change', channel=2, control=7, value=59, time=120),\n",
      "    Message('control_change', channel=2, control=7, value=58, time=90),\n",
      "    Message('control_change', channel=2, control=7, value=57, time=90),\n",
      "    Message('control_change', channel=2, control=7, value=56, time=120),\n",
      "    Message('control_change', channel=2, control=7, value=55, time=90),\n",
      "    Message('control_change', channel=2, control=7, value=54, time=90),\n",
      "    Message('control_change', channel=2, control=7, value=53, time=120),\n",
      "    Message('control_change', channel=2, control=7, value=52, time=90),\n",
      "    Message('control_change', channel=2, control=7, value=51, time=90),\n",
      "    Message('control_change', channel=2, control=7, value=50, time=120),\n",
      "    Message('control_change', channel=2, control=7, value=49, time=90),\n",
      "    Message('control_change', channel=2, control=7, value=48, time=90),\n",
      "    Message('control_change', channel=2, control=7, value=47, time=120),\n",
      "    Message('control_change', channel=2, control=7, value=46, time=90),\n",
      "    Message('control_change', channel=2, control=7, value=45, time=90),\n",
      "    Message('control_change', channel=2, control=7, value=44, time=120),\n",
      "    Message('control_change', channel=2, control=7, value=43, time=90),\n",
      "    Message('control_change', channel=2, control=7, value=42, time=90),\n",
      "    Message('control_change', channel=2, control=7, value=41, time=120),\n",
      "    Message('control_change', channel=2, control=7, value=40, time=90),\n",
      "    Message('control_change', channel=2, control=7, value=39, time=90),\n",
      "    Message('control_change', channel=2, control=7, value=38, time=120),\n",
      "    Message('control_change', channel=2, control=7, value=37, time=90),\n",
      "    Message('control_change', channel=2, control=7, value=36, time=90),\n",
      "    Message('control_change', channel=2, control=7, value=35, time=120),\n",
      "    Message('control_change', channel=2, control=7, value=34, time=90),\n",
      "    Message('control_change', channel=2, control=7, value=33, time=90),\n",
      "    Message('control_change', channel=2, control=7, value=32, time=120),\n",
      "    Message('control_change', channel=2, control=7, value=31, time=90),\n",
      "    Message('control_change', channel=2, control=7, value=30, time=90),\n",
      "    Message('control_change', channel=2, control=7, value=29, time=120),\n",
      "    Message('control_change', channel=2, control=7, value=28, time=90),\n",
      "    Message('control_change', channel=2, control=7, value=27, time=90),\n",
      "    Message('control_change', channel=2, control=7, value=26, time=120),\n",
      "    Message('control_change', channel=2, control=7, value=25, time=90),\n",
      "    Message('control_change', channel=2, control=7, value=24, time=90),\n",
      "    Message('control_change', channel=2, control=7, value=23, time=120),\n",
      "    Message('control_change', channel=2, control=7, value=22, time=90),\n",
      "    Message('control_change', channel=2, control=7, value=21, time=90),\n",
      "    Message('control_change', channel=2, control=7, value=20, time=120),\n",
      "    Message('control_change', channel=2, control=7, value=19, time=90),\n",
      "    Message('control_change', channel=2, control=7, value=18, time=90),\n",
      "    Message('control_change', channel=2, control=7, value=17, time=120),\n",
      "    Message('control_change', channel=2, control=7, value=16, time=90),\n",
      "    Message('control_change', channel=2, control=7, value=15, time=90),\n",
      "    Message('control_change', channel=2, control=7, value=14, time=120),\n",
      "    Message('control_change', channel=2, control=7, value=13, time=90),\n",
      "    Message('control_change', channel=2, control=7, value=12, time=90),\n",
      "    Message('control_change', channel=2, control=7, value=11, time=120),\n",
      "    Message('control_change', channel=2, control=7, value=10, time=90),\n",
      "    Message('control_change', channel=2, control=7, value=9, time=90),\n",
      "    Message('control_change', channel=2, control=7, value=8, time=120),\n",
      "    Message('control_change', channel=2, control=7, value=7, time=90),\n",
      "    Message('control_change', channel=2, control=7, value=6, time=90),\n",
      "    Message('control_change', channel=2, control=7, value=5, time=120),\n",
      "    Message('control_change', channel=2, control=7, value=4, time=90),\n",
      "    Message('control_change', channel=2, control=7, value=3, time=90),\n",
      "    Message('control_change', channel=2, control=7, value=2, time=120),\n",
      "    Message('control_change', channel=2, control=7, value=1, time=90),\n",
      "    Message('control_change', channel=2, control=7, value=0, time=30),\n",
      "    MetaMessage('end_of_track', time=0)]),\n",
      "  MidiTrack([\n",
      "    MetaMessage('midi_port', port=0, time=0),\n",
      "    MetaMessage('track_name', name='Bass', time=0),\n",
      "    Message('program_change', channel=3, program=87, time=0),\n",
      "    Message('control_change', channel=3, control=7, value=96, time=0),\n",
      "    Message('control_change', channel=3, control=0, value=0, time=480),\n",
      "    Message('control_change', channel=3, control=32, value=0, time=5),\n",
      "    Message('control_change', channel=3, control=1, value=0, time=10),\n",
      "    Message('control_change', channel=3, control=10, value=64, time=10),\n",
      "    Message('control_change', channel=3, control=11, value=127, time=5),\n",
      "    Message('control_change', channel=3, control=64, value=0, time=5),\n",
      "    Message('control_change', channel=3, control=91, value=64, time=5),\n",
      "    Message('control_change', channel=3, control=93, value=0, time=5),\n",
      "    Message('pitchwheel', channel=3, pitch=0, time=5),\n",
      "    Message('control_change', channel=3, control=91, value=64, time=670),\n",
      "    Message('note_on', channel=3, note=52, velocity=79, time=3600),\n",
      "    Message('note_on', channel=3, note=59, velocity=79, time=0),\n",
      "    Message('note_on', channel=3, note=59, velocity=0, time=80),\n",
      "    Message('note_on', channel=3, note=52, velocity=0, time=0),\n",
      "    Message('note_on', channel=3, note=52, velocity=79, time=40),\n",
      "    Message('note_on', channel=3, note=59, velocity=79, time=0),\n",
      "    Message('note_on', channel=3, note=59, velocity=0, time=80),\n",
      "    Message('note_on', channel=3, note=52, velocity=0, time=0),\n",
      "    Message('note_on', channel=3, note=52, velocity=79, time=40),\n",
      "    Message('note_on', channel=3, note=59, velocity=79, time=0),\n",
      "    Message('note_on', channel=3, note=59, velocity=0, time=80),\n",
      "    Message('note_on', channel=3, note=52, velocity=0, time=0),\n",
      "    Message('note_on', channel=3, note=51, velocity=79, time=40),\n",
      "    Message('note_on', channel=3, note=59, velocity=79, time=0),\n",
      "    Message('note_on', channel=3, note=59, velocity=0, time=80),\n",
      "    Message('note_on', channel=3, note=51, velocity=0, time=0),\n",
      "    Message('note_on', channel=3, note=51, velocity=79, time=40),\n",
      "    Message('note_on', channel=3, note=59, velocity=79, time=0),\n",
      "    Message('note_on', channel=3, note=59, velocity=0, time=80),\n",
      "    Message('note_on', channel=3, note=51, velocity=0, time=0),\n",
      "    Message('note_on', channel=3, note=51, velocity=79, time=40),\n",
      "    Message('note_on', channel=3, note=59, velocity=79, time=0),\n",
      "    Message('note_on', channel=3, note=59, velocity=0, time=80),\n",
      "    Message('note_on', channel=3, note=51, velocity=0, time=0),\n",
      "    Message('note_on', channel=3, note=51, velocity=79, time=40),\n",
      "    Message('note_on', channel=3, note=59, velocity=79, time=0),\n",
      "    Message('note_on', channel=3, note=59, velocity=0, time=80),\n",
      "    Message('note_on', channel=3, note=51, velocity=0, time=0),\n",
      "    Message('note_on', channel=3, note=49, velocity=79, time=40),\n",
      "    Message('note_on', channel=3, note=56, velocity=79, time=0),\n",
      "    Message('note_on', channel=3, note=56, velocity=0, time=80),\n",
      "    Message('note_on', channel=3, note=49, velocity=0, time=0),\n",
      "    Message('note_on', channel=3, note=49, velocity=79, time=40),\n",
      "    Message('note_on', channel=3, note=56, velocity=79, time=0),\n",
      "    Message('note_on', channel=3, note=56, velocity=0, time=80),\n",
      "    Message('note_on', channel=3, note=49, velocity=0, time=0),\n",
      "    Message('note_on', channel=3, note=49, velocity=79, time=40),\n",
      "    Message('note_on', channel=3, note=56, velocity=79, time=0),\n",
      "    Message('note_on', channel=3, note=56, velocity=0, time=80),\n",
      "    Message('note_on', channel=3, note=49, velocity=0, time=0),\n",
      "    Message('note_on', channel=3, note=49, velocity=79, time=40),\n",
      "    Message('note_on', channel=3, note=56, velocity=79, time=0),\n",
      "    Message('note_on', channel=3, note=56, velocity=0, time=80),\n",
      "    Message('note_on', channel=3, note=49, velocity=0, time=0),\n",
      "    Message('note_on', channel=3, note=47, velocity=79, time=40),\n",
      "    Message('note_on', channel=3, note=54, velocity=79, time=0),\n",
      "    Message('note_on', channel=3, note=54, velocity=0, time=80),\n",
      "    Message('note_on', channel=3, note=47, velocity=0, time=0),\n",
      "    Message('note_on', channel=3, note=47, velocity=79, time=40),\n",
      "    Message('note_on', channel=3, note=54, velocity=79, time=0),\n",
      "    Message('note_on', channel=3, note=54, velocity=0, time=80),\n",
      "    Message('note_on', channel=3, note=47, velocity=0, time=0),\n",
      "    Message('note_on', channel=3, note=47, velocity=79, time=40),\n",
      "    Message('note_on', channel=3, note=54, velocity=79, time=0),\n",
      "    Message('note_on', channel=3, note=54, velocity=0, time=80),\n",
      "    Message('note_on', channel=3, note=47, velocity=0, time=0),\n",
      "    Message('note_on', channel=3, note=47, velocity=79, time=40),\n",
      "    Message('note_on', channel=3, note=54, velocity=79, time=0),\n",
      "    Message('note_on', channel=3, note=54, velocity=0, time=80),\n",
      "    Message('note_on', channel=3, note=47, velocity=0, time=0),\n",
      "    Message('note_on', channel=3, note=45, velocity=79, time=40),\n",
      "    Message('note_on', channel=3, note=52, velocity=79, time=0),\n",
      "    Message('note_on', channel=3, note=52, velocity=0, time=80),\n",
      "    Message('note_on', channel=3, note=45, velocity=0, time=0),\n",
      "    Message('note_on', channel=3, note=45, velocity=79, time=40),\n",
      "    Message('note_on', channel=3, note=52, velocity=79, time=0),\n",
      "    Message('note_on', channel=3, note=52, velocity=0, time=80),\n",
      "    Message('note_on', channel=3, note=45, velocity=0, time=0),\n",
      "    Message('note_on', channel=3, note=45, velocity=79, time=40),\n",
      "    Message('note_on', channel=3, note=52, velocity=79, time=0),\n",
      "    Message('note_on', channel=3, note=52, velocity=0, time=80),\n",
      "    Message('note_on', channel=3, note=45, velocity=0, time=0),\n",
      "    Message('note_on', channel=3, note=45, velocity=79, time=40),\n",
      "    Message('note_on', channel=3, note=52, velocity=79, time=0),\n",
      "    Message('note_on', channel=3, note=52, velocity=0, time=80),\n",
      "    Message('note_on', channel=3, note=45, velocity=0, time=0),\n",
      "    Message('note_on', channel=3, note=45, velocity=79, time=40),\n",
      "    Message('note_on', channel=3, note=52, velocity=79, time=0),\n",
      "    Message('note_on', channel=3, note=52, velocity=0, time=80),\n",
      "    Message('note_on', channel=3, note=45, velocity=0, time=0),\n",
      "    Message('note_on', channel=3, note=49, velocity=79, time=40),\n",
      "    Message('note_on', channel=3, note=56, velocity=79, time=0),\n",
      "    Message('note_on', channel=3, note=56, velocity=0, time=80),\n",
      "    Message('note_on', channel=3, note=49, velocity=0, time=0),\n",
      "    Message('note_on', channel=3, note=49, velocity=79, time=40),\n",
      "    Message('note_on', channel=3, note=56, velocity=79, time=0),\n",
      "    Message('note_on', channel=3, note=56, velocity=0, time=80),\n",
      "    Message('note_on', channel=3, note=49, velocity=0, time=0),\n",
      "    Message('note_on', channel=3, note=49, velocity=79, time=40),\n",
      "    Message('note_on', channel=3, note=56, velocity=79, time=0),\n",
      "    Message('note_on', channel=3, note=56, velocity=0, time=80),\n",
      "    Message('note_on', channel=3, note=49, velocity=0, time=0),\n",
      "    Message('note_on', channel=3, note=47, velocity=79, time=40),\n",
      "    Message('note_on', channel=3, note=54, velocity=79, time=0),\n",
      "    Message('note_on', channel=3, note=54, velocity=0, time=80),\n",
      "    Message('note_on', channel=3, note=47, velocity=0, time=0),\n",
      "    Message('note_on', channel=3, note=47, velocity=79, time=40),\n",
      "    Message('note_on', channel=3, note=54, velocity=79, time=0),\n",
      "    Message('note_on', channel=3, note=54, velocity=0, time=80),\n",
      "    Message('note_on', channel=3, note=47, velocity=0, time=0),\n",
      "    Message('note_on', channel=3, note=47, velocity=79, time=40),\n",
      "    Message('note_on', channel=3, note=54, velocity=79, time=0),\n",
      "    Message('note_on', channel=3, note=54, velocity=0, time=80),\n",
      "    Message('note_on', channel=3, note=47, velocity=0, time=0),\n",
      "    Message('note_on', channel=3, note=47, velocity=79, time=40),\n",
      "    Message('note_on', channel=3, note=54, velocity=79, time=0),\n",
      "    Message('note_on', channel=3, note=54, velocity=0, time=80),\n",
      "    Message('note_on', channel=3, note=47, velocity=0, time=0),\n",
      "    Message('note_on', channel=3, note=47, velocity=79, time=40),\n",
      "    Message('note_on', channel=3, note=54, velocity=79, time=0),\n",
      "    Message('note_on', channel=3, note=54, velocity=0, time=80),\n",
      "    Message('note_on', channel=3, note=47, velocity=0, time=0),\n",
      "    Message('note_on', channel=3, note=47, velocity=79, time=40),\n",
      "    Message('note_on', channel=3, note=54, velocity=79, time=0),\n",
      "    Message('note_on', channel=3, note=54, velocity=0, time=80),\n",
      "    Message('note_on', channel=3, note=47, velocity=0, time=0),\n",
      "    Message('note_on', channel=3, note=47, velocity=79, time=40),\n",
      "    Message('note_on', channel=3, note=54, velocity=79, time=0),\n",
      "    Message('note_on', channel=3, note=54, velocity=0, time=80),\n",
      "    Message('note_on', channel=3, note=47, velocity=0, time=0),\n",
      "    Message('note_on', channel=3, note=47, velocity=79, time=40),\n",
      "    Message('note_on', channel=3, note=54, velocity=79, time=0),\n",
      "    Message('note_on', channel=3, note=54, velocity=0, time=80),\n",
      "    Message('note_on', channel=3, note=47, velocity=0, time=0),\n",
      "    Message('note_on', channel=3, note=47, velocity=79, time=40),\n",
      "    Message('note_on', channel=3, note=54, velocity=79, time=0),\n",
      "    Message('note_on', channel=3, note=54, velocity=0, time=80),\n",
      "    Message('note_on', channel=3, note=47, velocity=0, time=0),\n",
      "    Message('note_on', channel=3, note=52, velocity=79, time=40),\n",
      "    Message('note_on', channel=3, note=59, velocity=79, time=0),\n",
      "    Message('note_on', channel=3, note=59, velocity=0, time=80),\n",
      "    Message('note_on', channel=3, note=52, velocity=0, time=0),\n",
      "    Message('note_on', channel=3, note=52, velocity=79, time=40),\n",
      "    Message('note_on', channel=3, note=59, velocity=79, time=0),\n",
      "    Message('note_on', channel=3, note=59, velocity=0, time=80),\n",
      "    Message('note_on', channel=3, note=52, velocity=0, time=0),\n",
      "    Message('note_on', channel=3, note=52, velocity=79, time=40),\n",
      "    Message('note_on', channel=3, note=59, velocity=79, time=0),\n",
      "    Message('note_on', channel=3, note=59, velocity=0, time=80),\n",
      "    Message('note_on', channel=3, note=52, velocity=0, time=0),\n",
      "    Message('note_on', channel=3, note=51, velocity=79, time=40),\n",
      "    Message('note_on', channel=3, note=59, velocity=79, time=0),\n",
      "    Message('note_on', channel=3, note=59, velocity=0, time=80),\n",
      "    Message('note_on', channel=3, note=51, velocity=0, time=0),\n",
      "    Message('note_on', channel=3, note=51, velocity=79, time=40),\n",
      "    Message('note_on', channel=3, note=59, velocity=79, time=0),\n",
      "    Message('note_on', channel=3, note=59, velocity=0, time=80),\n",
      "    Message('note_on', channel=3, note=51, velocity=0, time=0),\n",
      "    Message('note_on', channel=3, note=51, velocity=79, time=40),\n",
      "    Message('note_on', channel=3, note=59, velocity=79, time=0),\n",
      "    Message('note_on', channel=3, note=59, velocity=0, time=80),\n",
      "    Message('note_on', channel=3, note=51, velocity=0, time=0),\n",
      "    Message('note_on', channel=3, note=51, velocity=79, time=40),\n",
      "    Message('note_on', channel=3, note=59, velocity=79, time=0),\n",
      "    Message('note_on', channel=3, note=59, velocity=0, time=80),\n",
      "    Message('note_on', channel=3, note=51, velocity=0, time=0),\n",
      "    Message('note_on', channel=3, note=49, velocity=79, time=40),\n",
      "    Message('note_on', channel=3, note=56, velocity=79, time=0),\n",
      "    Message('note_on', channel=3, note=56, velocity=0, time=80),\n",
      "    Message('note_on', channel=3, note=49, velocity=0, time=0),\n",
      "    Message('note_on', channel=3, note=49, velocity=79, time=40),\n",
      "    Message('note_on', channel=3, note=56, velocity=79, time=0),\n",
      "    Message('note_on', channel=3, note=56, velocity=0, time=80),\n",
      "    Message('note_on', channel=3, note=49, velocity=0, time=0),\n",
      "    Message('note_on', channel=3, note=49, velocity=79, time=40),\n",
      "    Message('note_on', channel=3, note=56, velocity=79, time=0),\n",
      "    Message('note_on', channel=3, note=56, velocity=0, time=80),\n",
      "    Message('note_on', channel=3, note=49, velocity=0, time=0),\n",
      "    Message('note_on', channel=3, note=49, velocity=79, time=40),\n",
      "    Message('note_on', channel=3, note=56, velocity=79, time=0),\n",
      "    Message('note_on', channel=3, note=56, velocity=0, time=80),\n",
      "    Message('note_on', channel=3, note=49, velocity=0, time=0),\n",
      "    Message('note_on', channel=3, note=47, velocity=79, time=40),\n",
      "    Message('note_on', channel=3, note=54, velocity=79, time=0),\n",
      "    Message('note_on', channel=3, note=54, velocity=0, time=80),\n",
      "    Message('note_on', channel=3, note=47, velocity=0, time=0),\n",
      "    Message('note_on', channel=3, note=47, velocity=79, time=40),\n",
      "    Message('note_on', channel=3, note=54, velocity=79, time=0),\n",
      "    Message('note_on', channel=3, note=54, velocity=0, time=80),\n",
      "    Message('note_on', channel=3, note=47, velocity=0, time=0),\n",
      "    Message('note_on', channel=3, note=47, velocity=79, time=40),\n",
      "    Message('note_on', channel=3, note=54, velocity=79, time=0),\n",
      "    Message('note_on', channel=3, note=54, velocity=0, time=80),\n",
      "    Message('note_on', channel=3, note=47, velocity=0, time=0),\n",
      "    Message('note_on', channel=3, note=47, velocity=79, time=40),\n",
      "    Message('note_on', channel=3, note=54, velocity=79, time=0),\n",
      "    Message('note_on', channel=3, note=54, velocity=0, time=80),\n",
      "    Message('note_on', channel=3, note=47, velocity=0, time=0),\n",
      "    Message('note_on', channel=3, note=45, velocity=79, time=40),\n",
      "    Message('note_on', channel=3, note=52, velocity=79, time=0),\n",
      "    Message('note_on', channel=3, note=52, velocity=0, time=80),\n",
      "    Message('note_on', channel=3, note=45, velocity=0, time=0),\n",
      "    Message('note_on', channel=3, note=45, velocity=79, time=40),\n",
      "    Message('note_on', channel=3, note=52, velocity=79, time=0),\n",
      "    Message('note_on', channel=3, note=52, velocity=0, time=80),\n",
      "    Message('note_on', channel=3, note=45, velocity=0, time=0),\n",
      "    Message('note_on', channel=3, note=45, velocity=79, time=40),\n",
      "    Message('note_on', channel=3, note=52, velocity=79, time=0),\n",
      "    Message('note_on', channel=3, note=52, velocity=0, time=80),\n",
      "    Message('note_on', channel=3, note=45, velocity=0, time=0),\n",
      "    Message('note_on', channel=3, note=45, velocity=79, time=40),\n",
      "    Message('note_on', channel=3, note=52, velocity=79, time=0),\n",
      "    Message('note_on', channel=3, note=52, velocity=0, time=80),\n",
      "    Message('note_on', channel=3, note=45, velocity=0, time=0),\n",
      "    Message('note_on', channel=3, note=45, velocity=79, time=40),\n",
      "    Message('note_on', channel=3, note=52, velocity=79, time=0),\n",
      "    Message('note_on', channel=3, note=52, velocity=0, time=80),\n",
      "    Message('note_on', channel=3, note=45, velocity=0, time=0),\n",
      "    Message('note_on', channel=3, note=49, velocity=79, time=40),\n",
      "    Message('note_on', channel=3, note=56, velocity=79, time=0),\n",
      "    Message('note_on', channel=3, note=56, velocity=0, time=80),\n",
      "    Message('note_on', channel=3, note=49, velocity=0, time=0),\n",
      "    Message('note_on', channel=3, note=49, velocity=79, time=40),\n",
      "    Message('note_on', channel=3, note=56, velocity=79, time=0),\n",
      "    Message('note_on', channel=3, note=56, velocity=0, time=80),\n",
      "    Message('note_on', channel=3, note=49, velocity=0, time=0),\n",
      "    Message('note_on', channel=3, note=49, velocity=79, time=40),\n",
      "    Message('note_on', channel=3, note=56, velocity=79, time=0),\n",
      "    Message('note_on', channel=3, note=56, velocity=0, time=80),\n",
      "    Message('note_on', channel=3, note=49, velocity=0, time=0),\n",
      "    Message('note_on', channel=3, note=47, velocity=79, time=40),\n",
      "    Message('note_on', channel=3, note=54, velocity=79, time=0),\n",
      "    Message('note_on', channel=3, note=54, velocity=0, time=80),\n",
      "    Message('note_on', channel=3, note=47, velocity=0, time=0),\n",
      "    Message('note_on', channel=3, note=47, velocity=79, time=40),\n",
      "    Message('note_on', channel=3, note=54, velocity=79, time=0),\n",
      "    Message('note_on', channel=3, note=54, velocity=0, time=80),\n",
      "    Message('note_on', channel=3, note=47, velocity=0, time=0),\n",
      "    Message('note_on', channel=3, note=47, velocity=79, time=40),\n",
      "    Message('note_on', channel=3, note=54, velocity=79, time=0),\n",
      "    Message('note_on', channel=3, note=54, velocity=0, time=80),\n",
      "    Message('note_on', channel=3, note=47, velocity=0, time=0),\n",
      "    Message('note_on', channel=3, note=47, velocity=79, time=40),\n",
      "    Message('note_on', channel=3, note=54, velocity=79, time=0),\n",
      "    Message('note_on', channel=3, note=54, velocity=0, time=80),\n",
      "    Message('note_on', channel=3, note=47, velocity=0, time=0),\n",
      "    Message('note_on', channel=3, note=47, velocity=79, time=40),\n",
      "    Message('note_on', channel=3, note=54, velocity=79, time=0),\n",
      "    Message('note_on', channel=3, note=54, velocity=0, time=80),\n",
      "    Message('note_on', channel=3, note=47, velocity=0, time=0),\n",
      "    Message('note_on', channel=3, note=47, velocity=79, time=40),\n",
      "    Message('note_on', channel=3, note=54, velocity=79, time=0),\n",
      "    Message('note_on', channel=3, note=54, velocity=0, time=80),\n",
      "    Message('note_on', channel=3, note=47, velocity=0, time=0),\n",
      "    Message('note_on', channel=3, note=47, velocity=79, time=40),\n",
      "    Message('note_on', channel=3, note=54, velocity=79, time=0),\n",
      "    Message('note_on', channel=3, note=54, velocity=0, time=80),\n",
      "    Message('note_on', channel=3, note=47, velocity=0, time=0),\n",
      "    Message('note_on', channel=3, note=47, velocity=79, time=40),\n",
      "    Message('note_on', channel=3, note=54, velocity=79, time=0),\n",
      "    Message('note_on', channel=3, note=54, velocity=0, time=80),\n",
      "    Message('note_on', channel=3, note=47, velocity=0, time=0),\n",
      "    Message('note_on', channel=3, note=45, velocity=79, time=40),\n",
      "    Message('note_on', channel=3, note=52, velocity=79, time=0),\n",
      "    Message('note_on', channel=3, note=52, velocity=0, time=80),\n",
      "    Message('note_on', channel=3, note=45, velocity=0, time=0),\n",
      "    Message('note_on', channel=3, note=45, velocity=79, time=40),\n",
      "    Message('note_on', channel=3, note=52, velocity=79, time=0),\n",
      "    Message('note_on', channel=3, note=52, velocity=0, time=80),\n",
      "    Message('note_on', channel=3, note=45, velocity=0, time=0),\n",
      "    Message('note_on', channel=3, note=45, velocity=79, time=40),\n",
      "    Message('note_on', channel=3, note=52, velocity=79, time=0),\n",
      "    Message('note_on', channel=3, note=52, velocity=0, time=80),\n",
      "    Message('note_on', channel=3, note=45, velocity=0, time=0),\n",
      "    Message('note_on', channel=3, note=45, velocity=79, time=40),\n",
      "    Message('note_on', channel=3, note=52, velocity=79, time=0),\n",
      "    Message('note_on', channel=3, note=52, velocity=0, time=80),\n",
      "    Message('note_on', channel=3, note=45, velocity=0, time=0),\n",
      "    Message('note_on', channel=3, note=45, velocity=79, time=40),\n",
      "    Message('note_on', channel=3, note=52, velocity=79, time=0),\n",
      "    Message('note_on', channel=3, note=52, velocity=0, time=80),\n",
      "    Message('note_on', channel=3, note=45, velocity=0, time=0),\n",
      "    Message('note_on', channel=3, note=49, velocity=79, time=40),\n",
      "    Message('note_on', channel=3, note=56, velocity=79, time=0),\n",
      "    Message('note_on', channel=3, note=56, velocity=0, time=80),\n",
      "    Message('note_on', channel=3, note=49, velocity=0, time=0),\n",
      "    Message('note_on', channel=3, note=49, velocity=79, time=40),\n",
      "    Message('note_on', channel=3, note=56, velocity=79, time=0),\n",
      "    Message('note_on', channel=3, note=56, velocity=0, time=80),\n",
      "    Message('note_on', channel=3, note=49, velocity=0, time=0),\n",
      "    Message('note_on', channel=3, note=49, velocity=79, time=40),\n",
      "    Message('note_on', channel=3, note=56, velocity=79, time=0),\n",
      "    Message('note_on', channel=3, note=56, velocity=0, time=80),\n",
      "    Message('note_on', channel=3, note=49, velocity=0, time=0),\n",
      "    Message('note_on', channel=3, note=47, velocity=79, time=40),\n",
      "    Message('note_on', channel=3, note=54, velocity=79, time=0),\n",
      "    Message('note_on', channel=3, note=54, velocity=0, time=80),\n",
      "    Message('note_on', channel=3, note=47, velocity=0, time=0),\n",
      "    Message('note_on', channel=3, note=47, velocity=79, time=40),\n",
      "    Message('note_on', channel=3, note=54, velocity=79, time=0),\n",
      "    Message('note_on', channel=3, note=54, velocity=0, time=80),\n",
      "    Message('note_on', channel=3, note=47, velocity=0, time=0),\n",
      "    Message('note_on', channel=3, note=47, velocity=79, time=40),\n",
      "    Message('note_on', channel=3, note=54, velocity=79, time=0),\n",
      "    Message('note_on', channel=3, note=54, velocity=0, time=80),\n",
      "    Message('note_on', channel=3, note=47, velocity=0, time=0),\n",
      "    Message('note_on', channel=3, note=47, velocity=79, time=40),\n",
      "    Message('note_on', channel=3, note=54, velocity=79, time=0),\n",
      "    Message('note_on', channel=3, note=54, velocity=0, time=80),\n",
      "    Message('note_on', channel=3, note=47, velocity=0, time=0),\n",
      "    Message('note_on', channel=3, note=47, velocity=79, time=40),\n",
      "    Message('note_on', channel=3, note=54, velocity=79, time=0),\n",
      "    Message('note_on', channel=3, note=54, velocity=0, time=80),\n",
      "    Message('note_on', channel=3, note=47, velocity=0, time=0),\n",
      "    Message('note_on', channel=3, note=47, velocity=79, time=40),\n",
      "    Message('note_on', channel=3, note=54, velocity=79, time=0),\n",
      "    Message('note_on', channel=3, note=54, velocity=0, time=80),\n",
      "    Message('note_on', channel=3, note=47, velocity=0, time=0),\n",
      "    Message('note_on', channel=3, note=47, velocity=79, time=40),\n",
      "    Message('note_on', channel=3, note=54, velocity=79, time=0),\n",
      "    Message('note_on', channel=3, note=54, velocity=0, time=80),\n",
      "    Message('note_on', channel=3, note=47, velocity=0, time=0),\n",
      "    Message('note_on', channel=3, note=47, velocity=79, time=40),\n",
      "    Message('note_on', channel=3, note=54, velocity=79, time=0),\n",
      "    Message('note_on', channel=3, note=54, velocity=0, time=80),\n",
      "    Message('note_on', channel=3, note=47, velocity=0, time=0),\n",
      "    Message('note_on', channel=3, note=47, velocity=79, time=40),\n",
      "    Message('note_on', channel=3, note=54, velocity=79, time=0),\n",
      "    Message('note_on', channel=3, note=54, velocity=0, time=80),\n",
      "    Message('note_on', channel=3, note=47, velocity=0, time=0),\n",
      "    Message('note_on', channel=3, note=45, velocity=79, time=40),\n",
      "    Message('note_on', channel=3, note=52, velocity=79, time=0),\n",
      "    Message('note_on', channel=3, note=52, velocity=0, time=80),\n",
      "    Message('note_on', channel=3, note=45, velocity=0, time=0),\n",
      "    Message('note_on', channel=3, note=45, velocity=79, time=40),\n",
      "    Message('note_on', channel=3, note=52, velocity=79, time=0),\n",
      "    Message('note_on', channel=3, note=52, velocity=0, time=80),\n",
      "    Message('note_on', channel=3, note=45, velocity=0, time=0),\n",
      "    Message('note_on', channel=3, note=45, velocity=79, time=40),\n",
      "    Message('note_on', channel=3, note=52, velocity=79, time=0),\n",
      "    Message('note_on', channel=3, note=52, velocity=0, time=80),\n",
      "    Message('note_on', channel=3, note=45, velocity=0, time=0),\n",
      "    Message('note_on', channel=3, note=45, velocity=79, time=40),\n",
      "    Message('note_on', channel=3, note=52, velocity=79, time=0),\n",
      "    Message('note_on', channel=3, note=52, velocity=0, time=80),\n",
      "    Message('note_on', channel=3, note=45, velocity=0, time=0),\n",
      "    Message('note_on', channel=3, note=49, velocity=79, time=40),\n",
      "    Message('note_on', channel=3, note=56, velocity=79, time=0),\n",
      "    Message('note_on', channel=3, note=56, velocity=0, time=80),\n",
      "    Message('note_on', channel=3, note=49, velocity=0, time=0),\n",
      "    Message('note_on', channel=3, note=49, velocity=79, time=40),\n",
      "    Message('note_on', channel=3, note=56, velocity=79, time=0),\n",
      "    Message('note_on', channel=3, note=56, velocity=0, time=80),\n",
      "    Message('note_on', channel=3, note=49, velocity=0, time=0),\n",
      "    Message('note_on', channel=3, note=49, velocity=79, time=40),\n",
      "    Message('note_on', channel=3, note=56, velocity=79, time=0),\n",
      "    Message('note_on', channel=3, note=56, velocity=0, time=80),\n",
      "    Message('note_on', channel=3, note=49, velocity=0, time=0),\n",
      "    Message('note_on', channel=3, note=47, velocity=79, time=40),\n",
      "    Message('note_on', channel=3, note=54, velocity=79, time=0),\n",
      "    Message('note_on', channel=3, note=54, velocity=0, time=80),\n",
      "    Message('note_on', channel=3, note=47, velocity=0, time=0),\n",
      "    Message('note_on', channel=3, note=47, velocity=79, time=40),\n",
      "    Message('note_on', channel=3, note=54, velocity=79, time=0),\n",
      "    Message('note_on', channel=3, note=54, velocity=0, time=80),\n",
      "    Message('note_on', channel=3, note=47, velocity=0, time=0),\n",
      "    Message('note_on', channel=3, note=47, velocity=79, time=40),\n",
      "    Message('note_on', channel=3, note=54, velocity=79, time=0),\n",
      "    Message('note_on', channel=3, note=54, velocity=0, time=80),\n",
      "    Message('note_on', channel=3, note=47, velocity=0, time=0),\n",
      "    Message('note_on', channel=3, note=47, velocity=79, time=40),\n",
      "    Message('note_on', channel=3, note=54, velocity=79, time=0),\n",
      "    Message('note_on', channel=3, note=54, velocity=0, time=80),\n",
      "    Message('note_on', channel=3, note=47, velocity=0, time=0),\n",
      "    Message('note_on', channel=3, note=47, velocity=79, time=40),\n",
      "    Message('note_on', channel=3, note=54, velocity=79, time=0),\n",
      "    Message('note_on', channel=3, note=54, velocity=0, time=80),\n",
      "    Message('note_on', channel=3, note=47, velocity=0, time=0),\n",
      "    Message('note_on', channel=3, note=47, velocity=79, time=40),\n",
      "    Message('note_on', channel=3, note=54, velocity=79, time=0),\n",
      "    Message('note_on', channel=3, note=54, velocity=0, time=80),\n",
      "    Message('note_on', channel=3, note=47, velocity=0, time=0),\n",
      "    Message('note_on', channel=3, note=47, velocity=79, time=40),\n",
      "    Message('note_on', channel=3, note=54, velocity=79, time=0),\n",
      "    Message('note_on', channel=3, note=54, velocity=0, time=80),\n",
      "    Message('note_on', channel=3, note=47, velocity=0, time=0),\n",
      "    Message('note_on', channel=3, note=47, velocity=79, time=40),\n",
      "    Message('note_on', channel=3, note=54, velocity=79, time=0),\n",
      "    Message('note_on', channel=3, note=54, velocity=0, time=80),\n",
      "    Message('note_on', channel=3, note=47, velocity=0, time=0),\n",
      "    Message('note_on', channel=3, note=47, velocity=79, time=40),\n",
      "    Message('note_on', channel=3, note=54, velocity=79, time=0),\n",
      "    Message('note_on', channel=3, note=54, velocity=0, time=80),\n",
      "    Message('note_on', channel=3, note=47, velocity=0, time=0),\n",
      "    Message('note_on', channel=3, note=42, velocity=79, time=40),\n",
      "    Message('note_on', channel=3, note=57, velocity=79, time=0),\n",
      "    Message('note_on', channel=3, note=57, velocity=0, time=80),\n",
      "    Message('note_on', channel=3, note=42, velocity=0, time=0),\n",
      "    Message('note_on', channel=3, note=42, velocity=79, time=40),\n",
      "    Message('note_on', channel=3, note=57, velocity=79, time=0),\n",
      "    Message('note_on', channel=3, note=57, velocity=0, time=80),\n",
      "    Message('note_on', channel=3, note=42, velocity=0, time=0),\n",
      "    Message('note_on', channel=3, note=42, velocity=79, time=40),\n",
      "    Message('note_on', channel=3, note=57, velocity=79, time=0),\n",
      "    Message('note_on', channel=3, note=57, velocity=0, time=80),\n",
      "    Message('note_on', channel=3, note=42, velocity=0, time=0),\n",
      "    Message('note_on', channel=3, note=44, velocity=79, time=40),\n",
      "    Message('note_on', channel=3, note=59, velocity=79, time=0),\n",
      "    Message('note_on', channel=3, note=59, velocity=0, time=80),\n",
      "    Message('note_on', channel=3, note=44, velocity=0, time=0),\n",
      "    Message('note_on', channel=3, note=44, velocity=79, time=40),\n",
      "    Message('note_on', channel=3, note=59, velocity=79, time=0),\n",
      "    Message('note_on', channel=3, note=59, velocity=0, time=80),\n",
      "    Message('note_on', channel=3, note=44, velocity=0, time=0),\n",
      "    Message('note_on', channel=3, note=44, velocity=79, time=40),\n",
      "    Message('note_on', channel=3, note=59, velocity=79, time=0),\n",
      "    Message('note_on', channel=3, note=59, velocity=0, time=80),\n",
      "    Message('note_on', channel=3, note=44, velocity=0, time=0),\n",
      "    Message('note_on', channel=3, note=44, velocity=79, time=40),\n",
      "    Message('note_on', channel=3, note=59, velocity=79, time=0),\n",
      "    Message('note_on', channel=3, note=59, velocity=0, time=80),\n",
      "    Message('note_on', channel=3, note=44, velocity=0, time=0),\n",
      "    Message('note_on', channel=3, note=45, velocity=79, time=40),\n",
      "    Message('note_on', channel=3, note=52, velocity=79, time=0),\n",
      "    Message('note_on', channel=3, note=52, velocity=0, time=80),\n",
      "    Message('note_on', channel=3, note=45, velocity=0, time=0),\n",
      "    Message('note_on', channel=3, note=45, velocity=79, time=40),\n",
      "    Message('note_on', channel=3, note=52, velocity=79, time=0),\n",
      "    Message('note_on', channel=3, note=52, velocity=0, time=80),\n",
      "    Message('note_on', channel=3, note=45, velocity=0, time=0),\n",
      "    Message('note_on', channel=3, note=45, velocity=79, time=40),\n",
      "    Message('note_on', channel=3, note=52, velocity=79, time=0),\n",
      "    Message('note_on', channel=3, note=52, velocity=0, time=80),\n",
      "    Message('note_on', channel=3, note=45, velocity=0, time=0),\n",
      "    Message('note_on', channel=3, note=45, velocity=79, time=40),\n",
      "    Message('note_on', channel=3, note=52, velocity=79, time=0),\n",
      "    Message('note_on', channel=3, note=52, velocity=0, time=80),\n",
      "    Message('note_on', channel=3, note=45, velocity=0, time=0),\n",
      "    Message('note_on', channel=3, note=46, velocity=79, time=40),\n",
      "    Message('note_on', channel=3, note=54, velocity=79, time=0),\n",
      "    Message('note_on', channel=3, note=54, velocity=0, time=80),\n",
      "    Message('note_on', channel=3, note=46, velocity=0, time=0),\n",
      "    Message('note_on', channel=3, note=46, velocity=79, time=40),\n",
      "    Message('note_on', channel=3, note=54, velocity=79, time=0),\n",
      "    Message('note_on', channel=3, note=54, velocity=0, time=80),\n",
      "    Message('note_on', channel=3, note=46, velocity=0, time=0),\n",
      "    Message('note_on', channel=3, note=46, velocity=79, time=40),\n",
      "    Message('note_on', channel=3, note=54, velocity=79, time=0),\n",
      "    Message('note_on', channel=3, note=54, velocity=0, time=80),\n",
      "    Message('note_on', channel=3, note=46, velocity=0, time=0),\n",
      "    Message('note_on', channel=3, note=46, velocity=79, time=40),\n",
      "    Message('note_on', channel=3, note=54, velocity=79, time=0),\n",
      "    Message('note_on', channel=3, note=54, velocity=0, time=80),\n",
      "    Message('note_on', channel=3, note=46, velocity=0, time=0),\n",
      "    Message('note_on', channel=3, note=46, velocity=79, time=40),\n",
      "    Message('note_on', channel=3, note=54, velocity=79, time=0),\n",
      "    Message('note_on', channel=3, note=54, velocity=0, time=80),\n",
      "    Message('note_on', channel=3, note=46, velocity=0, time=0),\n",
      "    Message('note_on', channel=3, note=47, velocity=79, time=40),\n",
      "    Message('note_on', channel=3, note=54, velocity=79, time=0),\n",
      "    Message('note_on', channel=3, note=54, velocity=0, time=80),\n",
      "    Message('note_on', channel=3, note=47, velocity=0, time=0),\n",
      "    Message('note_on', channel=3, note=47, velocity=79, time=40),\n",
      "    Message('note_on', channel=3, note=54, velocity=79, time=0),\n",
      "    Message('note_on', channel=3, note=54, velocity=0, time=80),\n",
      "    Message('note_on', channel=3, note=47, velocity=0, time=0),\n",
      "    Message('note_on', channel=3, note=47, velocity=79, time=40),\n",
      "    Message('note_on', channel=3, note=54, velocity=79, time=0),\n",
      "    Message('note_on', channel=3, note=54, velocity=0, time=80),\n",
      "    Message('note_on', channel=3, note=47, velocity=0, time=0),\n",
      "    Message('note_on', channel=3, note=47, velocity=79, time=40),\n",
      "    Message('note_on', channel=3, note=54, velocity=79, time=0),\n",
      "    Message('note_on', channel=3, note=54, velocity=0, time=80),\n",
      "    Message('note_on', channel=3, note=47, velocity=0, time=0),\n",
      "    Message('note_on', channel=3, note=47, velocity=79, time=40),\n",
      "    Message('note_on', channel=3, note=54, velocity=79, time=0),\n",
      "    Message('note_on', channel=3, note=54, velocity=0, time=80),\n",
      "    Message('note_on', channel=3, note=47, velocity=0, time=0),\n",
      "    Message('note_on', channel=3, note=47, velocity=79, time=40),\n",
      "    Message('note_on', channel=3, note=54, velocity=79, time=0),\n",
      "    Message('note_on', channel=3, note=54, velocity=0, time=80),\n",
      "    Message('note_on', channel=3, note=47, velocity=0, time=0),\n",
      "    Message('note_on', channel=3, note=47, velocity=79, time=40),\n",
      "    Message('note_on', channel=3, note=54, velocity=79, time=0),\n",
      "    Message('note_on', channel=3, note=54, velocity=0, time=80),\n",
      "    Message('note_on', channel=3, note=47, velocity=0, time=0),\n",
      "    Message('note_on', channel=3, note=47, velocity=79, time=40),\n",
      "    Message('note_on', channel=3, note=54, velocity=79, time=0),\n",
      "    Message('note_on', channel=3, note=54, velocity=0, time=80),\n",
      "    Message('note_on', channel=3, note=47, velocity=0, time=0),\n",
      "    Message('note_on', channel=3, note=47, velocity=79, time=40),\n",
      "    Message('note_on', channel=3, note=54, velocity=79, time=0),\n",
      "    Message('note_on', channel=3, note=54, velocity=0, time=80),\n",
      "    Message('note_on', channel=3, note=47, velocity=0, time=0),\n",
      "    Message('note_on', channel=3, note=47, velocity=79, time=40),\n",
      "    Message('note_on', channel=3, note=54, velocity=79, time=0),\n",
      "    Message('note_on', channel=3, note=54, velocity=0, time=80),\n",
      "    Message('note_on', channel=3, note=47, velocity=0, time=0),\n",
      "    Message('note_on', channel=3, note=45, velocity=79, time=640),\n",
      "    Message('note_on', channel=3, note=52, velocity=79, time=0),\n",
      "    Message('note_on', channel=3, note=52, velocity=0, time=80),\n",
      "    Message('note_on', channel=3, note=45, velocity=0, time=0),\n",
      "    Message('note_on', channel=3, note=45, velocity=79, time=40),\n",
      "    Message('note_on', channel=3, note=52, velocity=79, time=0),\n",
      "    Message('note_on', channel=3, note=52, velocity=0, time=80),\n",
      "    Message('note_on', channel=3, note=45, velocity=0, time=0),\n",
      "    Message('note_on', channel=3, note=45, velocity=79, time=40),\n",
      "    Message('note_on', channel=3, note=52, velocity=79, time=0),\n",
      "    Message('note_on', channel=3, note=52, velocity=0, time=80),\n",
      "    Message('note_on', channel=3, note=45, velocity=0, time=0),\n",
      "    Message('note_on', channel=3, note=45, velocity=79, time=40),\n",
      "    Message('note_on', channel=3, note=52, velocity=79, time=0),\n",
      "    Message('note_on', channel=3, note=52, velocity=0, time=80),\n",
      "    Message('note_on', channel=3, note=45, velocity=0, time=0),\n",
      "    Message('note_on', channel=3, note=45, velocity=79, time=40),\n",
      "    Message('note_on', channel=3, note=52, velocity=79, time=0),\n",
      "    Message('note_on', channel=3, note=52, velocity=0, time=80),\n",
      "    Message('note_on', channel=3, note=45, velocity=0, time=0),\n",
      "    Message('note_on', channel=3, note=45, velocity=79, time=40),\n",
      "    Message('note_on', channel=3, note=52, velocity=79, time=0),\n",
      "    Message('note_on', channel=3, note=52, velocity=0, time=80),\n",
      "    Message('note_on', channel=3, note=45, velocity=0, time=0),\n",
      "    Message('note_on', channel=3, note=45, velocity=79, time=40),\n",
      "    Message('note_on', channel=3, note=52, velocity=79, time=0),\n",
      "    Message('note_on', channel=3, note=52, velocity=0, time=80),\n",
      "    Message('note_on', channel=3, note=45, velocity=0, time=0),\n",
      "    Message('note_on', channel=3, note=45, velocity=79, time=40),\n",
      "    Message('note_on', channel=3, note=52, velocity=79, time=0),\n",
      "    Message('note_on', channel=3, note=52, velocity=0, time=80),\n",
      "    Message('note_on', channel=3, note=45, velocity=0, time=0),\n",
      "    Message('note_on', channel=3, note=44, velocity=79, time=40),\n",
      "    Message('note_on', channel=3, note=52, velocity=79, time=0),\n",
      "    Message('note_on', channel=3, note=52, velocity=0, time=80),\n",
      "    Message('note_on', channel=3, note=44, velocity=0, time=0),\n",
      "    Message('note_on', channel=3, note=44, velocity=79, time=40),\n",
      "    Message('note_on', channel=3, note=52, velocity=79, time=0),\n",
      "    Message('note_on', channel=3, note=52, velocity=0, time=80),\n",
      "    Message('note_on', channel=3, note=44, velocity=0, time=0),\n",
      "    Message('note_on', channel=3, note=44, velocity=79, time=40),\n",
      "    Message('note_on', channel=3, note=52, velocity=79, time=0),\n",
      "    Message('note_on', channel=3, note=52, velocity=0, time=80),\n",
      "    Message('note_on', channel=3, note=44, velocity=0, time=0),\n",
      "    Message('note_on', channel=3, note=44, velocity=79, time=40),\n",
      "    Message('note_on', channel=3, note=52, velocity=79, time=0),\n",
      "    Message('note_on', channel=3, note=52, velocity=0, time=80),\n",
      "    Message('note_on', channel=3, note=44, velocity=0, time=0),\n",
      "    Message('note_on', channel=3, note=44, velocity=79, time=40),\n",
      "    Message('note_on', channel=3, note=52, velocity=79, time=0),\n",
      "    Message('note_on', channel=3, note=52, velocity=0, time=80),\n",
      "    Message('note_on', channel=3, note=44, velocity=0, time=0),\n",
      "    Message('note_on', channel=3, note=44, velocity=79, time=40),\n",
      "    Message('note_on', channel=3, note=52, velocity=79, time=0),\n",
      "    Message('note_on', channel=3, note=52, velocity=0, time=80),\n",
      "    Message('note_on', channel=3, note=44, velocity=0, time=0),\n",
      "    Message('note_on', channel=3, note=44, velocity=79, time=40),\n",
      "    Message('note_on', channel=3, note=52, velocity=79, time=0),\n",
      "    Message('note_on', channel=3, note=52, velocity=0, time=80),\n",
      "    Message('note_on', channel=3, note=44, velocity=0, time=0),\n",
      "    Message('note_on', channel=3, note=44, velocity=79, time=40),\n",
      "    Message('note_on', channel=3, note=52, velocity=79, time=0),\n",
      "    Message('note_on', channel=3, note=52, velocity=0, time=80),\n",
      "    Message('note_on', channel=3, note=44, velocity=0, time=0),\n",
      "    Message('note_on', channel=3, note=42, velocity=79, time=40),\n",
      "    Message('note_on', channel=3, note=49, velocity=79, time=0),\n",
      "    Message('note_on', channel=3, note=49, velocity=0, time=80),\n",
      "    Message('note_on', channel=3, note=42, velocity=0, time=0),\n",
      "    Message('note_on', channel=3, note=42, velocity=79, time=40),\n",
      "    Message('note_on', channel=3, note=49, velocity=79, time=0),\n",
      "    Message('note_on', channel=3, note=49, velocity=0, time=80),\n",
      "    Message('note_on', channel=3, note=42, velocity=0, time=0),\n",
      "    Message('note_on', channel=3, note=42, velocity=79, time=40),\n",
      "    Message('note_on', channel=3, note=49, velocity=79, time=0),\n",
      "    Message('note_on', channel=3, note=49, velocity=0, time=80),\n",
      "    Message('note_on', channel=3, note=42, velocity=0, time=0),\n",
      "    Message('note_on', channel=3, note=42, velocity=79, time=40),\n",
      "    Message('note_on', channel=3, note=49, velocity=79, time=0),\n",
      "    Message('note_on', channel=3, note=49, velocity=0, time=80),\n",
      "    Message('note_on', channel=3, note=42, velocity=0, time=0),\n",
      "    Message('note_on', channel=3, note=42, velocity=79, time=40),\n",
      "    Message('note_on', channel=3, note=49, velocity=79, time=0),\n",
      "    Message('note_on', channel=3, note=49, velocity=0, time=80),\n",
      "    Message('note_on', channel=3, note=42, velocity=0, time=0),\n",
      "    Message('note_on', channel=3, note=42, velocity=79, time=40),\n",
      "    Message('note_on', channel=3, note=49, velocity=79, time=0),\n",
      "    Message('note_on', channel=3, note=49, velocity=0, time=80),\n",
      "    Message('note_on', channel=3, note=42, velocity=0, time=0),\n",
      "    Message('note_on', channel=3, note=42, velocity=79, time=40),\n",
      "    Message('note_on', channel=3, note=49, velocity=79, time=0),\n",
      "    Message('note_on', channel=3, note=49, velocity=0, time=80),\n",
      "    Message('note_on', channel=3, note=42, velocity=0, time=0),\n",
      "    Message('note_on', channel=3, note=42, velocity=79, time=40),\n",
      "    Message('note_on', channel=3, note=49, velocity=79, time=0),\n",
      "    Message('note_on', channel=3, note=49, velocity=0, time=80),\n",
      "    Message('note_on', channel=3, note=42, velocity=0, time=0),\n",
      "    Message('note_on', channel=3, note=49, velocity=79, time=40),\n",
      "    Message('note_on', channel=3, note=56, velocity=79, time=0),\n",
      "    Message('note_on', channel=3, note=56, velocity=0, time=80),\n",
      "    Message('note_on', channel=3, note=49, velocity=0, time=0),\n",
      "    Message('note_on', channel=3, note=49, velocity=79, time=40),\n",
      "    Message('note_on', channel=3, note=56, velocity=79, time=0),\n",
      "    Message('note_on', channel=3, note=56, velocity=0, time=80),\n",
      "    Message('note_on', channel=3, note=49, velocity=0, time=0),\n",
      "    Message('note_on', channel=3, note=49, velocity=79, time=40),\n",
      "    Message('note_on', channel=3, note=56, velocity=79, time=0),\n",
      "    Message('note_on', channel=3, note=56, velocity=0, time=80),\n",
      "    Message('note_on', channel=3, note=49, velocity=0, time=0),\n",
      "    Message('note_on', channel=3, note=49, velocity=79, time=40),\n",
      "    Message('note_on', channel=3, note=56, velocity=79, time=0),\n",
      "    Message('note_on', channel=3, note=56, velocity=0, time=80),\n",
      "    Message('note_on', channel=3, note=49, velocity=0, time=0),\n",
      "    Message('note_on', channel=3, note=49, velocity=79, time=40),\n",
      "    Message('note_on', channel=3, note=56, velocity=79, time=0),\n",
      "    Message('note_on', channel=3, note=56, velocity=0, time=80),\n",
      "    Message('note_on', channel=3, note=49, velocity=0, time=0),\n",
      "    Message('note_on', channel=3, note=40, velocity=79, time=40),\n",
      "    Message('note_on', channel=3, note=52, velocity=79, time=0),\n",
      "    Message('note_on', channel=3, note=52, velocity=0, time=80),\n",
      "    Message('note_on', channel=3, note=40, velocity=0, time=0),\n",
      "    Message('note_on', channel=3, note=40, velocity=79, time=40),\n",
      "    Message('note_on', channel=3, note=52, velocity=79, time=0),\n",
      "    Message('note_on', channel=3, note=52, velocity=0, time=80),\n",
      "    Message('note_on', channel=3, note=40, velocity=0, time=0),\n",
      "    Message('note_on', channel=3, note=40, velocity=79, time=40),\n",
      "    Message('note_on', channel=3, note=52, velocity=79, time=0),\n",
      "    Message('note_on', channel=3, note=52, velocity=0, time=80),\n",
      "    Message('note_on', channel=3, note=40, velocity=0, time=0),\n",
      "    Message('note_on', channel=3, note=45, velocity=79, time=40),\n",
      "    Message('note_on', channel=3, note=52, velocity=79, time=0),\n",
      "    Message('note_on', channel=3, note=52, velocity=0, time=80),\n",
      "    Message('note_on', channel=3, note=45, velocity=0, time=0),\n",
      "    Message('note_on', channel=3, note=45, velocity=79, time=40),\n",
      "    Message('note_on', channel=3, note=52, velocity=79, time=0),\n",
      "    Message('note_on', channel=3, note=52, velocity=0, time=80),\n",
      "    Message('note_on', channel=3, note=45, velocity=0, time=0),\n",
      "    Message('note_on', channel=3, note=45, velocity=79, time=40),\n",
      "    Message('note_on', channel=3, note=52, velocity=79, time=0),\n",
      "    Message('note_on', channel=3, note=52, velocity=0, time=80),\n",
      "    Message('note_on', channel=3, note=45, velocity=0, time=0),\n",
      "    Message('note_on', channel=3, note=45, velocity=79, time=40),\n",
      "    Message('note_on', channel=3, note=52, velocity=79, time=0),\n",
      "    Message('note_on', channel=3, note=52, velocity=0, time=80),\n",
      "    Message('note_on', channel=3, note=45, velocity=0, time=0),\n",
      "    Message('note_on', channel=3, note=45, velocity=79, time=40),\n",
      "    Message('note_on', channel=3, note=52, velocity=79, time=0),\n",
      "    Message('note_on', channel=3, note=52, velocity=0, time=80),\n",
      "    Message('note_on', channel=3, note=45, velocity=0, time=0),\n",
      "    Message('note_on', channel=3, note=45, velocity=79, time=40),\n",
      "    Message('note_on', channel=3, note=52, velocity=79, time=0),\n",
      "    Message('note_on', channel=3, note=52, velocity=0, time=80),\n",
      "    Message('note_on', channel=3, note=45, velocity=0, time=0),\n",
      "    Message('note_on', channel=3, note=45, velocity=79, time=40),\n",
      "    Message('note_on', channel=3, note=52, velocity=79, time=0),\n",
      "    Message('note_on', channel=3, note=52, velocity=0, time=80),\n",
      "    Message('note_on', channel=3, note=45, velocity=0, time=0),\n",
      "    Message('note_on', channel=3, note=45, velocity=79, time=40),\n",
      "    Message('note_on', channel=3, note=52, velocity=79, time=0),\n",
      "    Message('note_on', channel=3, note=52, velocity=0, time=80),\n",
      "    Message('note_on', channel=3, note=45, velocity=0, time=0),\n",
      "    Message('note_on', channel=3, note=44, velocity=79, time=40),\n",
      "    Message('note_on', channel=3, note=52, velocity=79, time=0),\n",
      "    Message('note_on', channel=3, note=52, velocity=0, time=80),\n",
      "    Message('note_on', channel=3, note=44, velocity=0, time=0),\n",
      "    Message('note_on', channel=3, note=44, velocity=79, time=40),\n",
      "    Message('note_on', channel=3, note=52, velocity=79, time=0),\n",
      "    Message('note_on', channel=3, note=52, velocity=0, time=80),\n",
      "    Message('note_on', channel=3, note=44, velocity=0, time=0),\n",
      "    Message('note_on', channel=3, note=44, velocity=79, time=40),\n",
      "    Message('note_on', channel=3, note=52, velocity=79, time=0),\n",
      "    Message('note_on', channel=3, note=52, velocity=0, time=80),\n",
      "    Message('note_on', channel=3, note=44, velocity=0, time=0),\n",
      "    Message('note_on', channel=3, note=44, velocity=79, time=40),\n",
      "    Message('note_on', channel=3, note=52, velocity=79, time=0),\n",
      "    Message('note_on', channel=3, note=52, velocity=0, time=80),\n",
      "    Message('note_on', channel=3, note=44, velocity=0, time=0),\n",
      "    Message('note_on', channel=3, note=44, velocity=79, time=40),\n",
      "    Message('note_on', channel=3, note=52, velocity=79, time=0),\n",
      "    Message('note_on', channel=3, note=52, velocity=0, time=80),\n",
      "    Message('note_on', channel=3, note=44, velocity=0, time=0),\n",
      "    Message('note_on', channel=3, note=44, velocity=79, time=40),\n",
      "    Message('note_on', channel=3, note=52, velocity=79, time=0),\n",
      "    Message('note_on', channel=3, note=52, velocity=0, time=80),\n",
      "    Message('note_on', channel=3, note=44, velocity=0, time=0),\n",
      "    Message('note_on', channel=3, note=44, velocity=79, time=40),\n",
      "    Message('note_on', channel=3, note=52, velocity=79, time=0),\n",
      "    Message('note_on', channel=3, note=52, velocity=0, time=80),\n",
      "    Message('note_on', channel=3, note=44, velocity=0, time=0),\n",
      "    Message('note_on', channel=3, note=44, velocity=79, time=40),\n",
      "    Message('note_on', channel=3, note=52, velocity=79, time=0),\n",
      "    Message('note_on', channel=3, note=52, velocity=0, time=80),\n",
      "    Message('note_on', channel=3, note=44, velocity=0, time=0),\n",
      "    Message('note_on', channel=3, note=42, velocity=79, time=40),\n",
      "    Message('note_on', channel=3, note=49, velocity=79, time=0),\n",
      "    Message('note_on', channel=3, note=49, velocity=0, time=80),\n",
      "    Message('note_on', channel=3, note=42, velocity=0, time=0),\n",
      "    Message('note_on', channel=3, note=42, velocity=79, time=40),\n",
      "    Message('note_on', channel=3, note=49, velocity=79, time=0),\n",
      "    Message('note_on', channel=3, note=49, velocity=0, time=80),\n",
      "    Message('note_on', channel=3, note=42, velocity=0, time=0),\n",
      "    Message('note_on', channel=3, note=42, velocity=79, time=40),\n",
      "    Message('note_on', channel=3, note=49, velocity=79, time=0),\n",
      "    Message('note_on', channel=3, note=49, velocity=0, time=80),\n",
      "    Message('note_on', channel=3, note=42, velocity=0, time=0),\n",
      "    Message('note_on', channel=3, note=42, velocity=79, time=40),\n",
      "    Message('note_on', channel=3, note=49, velocity=79, time=0),\n",
      "    Message('note_on', channel=3, note=49, velocity=0, time=80),\n",
      "    Message('note_on', channel=3, note=42, velocity=0, time=0),\n",
      "    Message('note_on', channel=3, note=42, velocity=79, time=40),\n",
      "    Message('note_on', channel=3, note=49, velocity=79, time=0),\n",
      "    Message('note_on', channel=3, note=49, velocity=0, time=80),\n",
      "    Message('note_on', channel=3, note=42, velocity=0, time=0),\n",
      "    Message('note_on', channel=3, note=42, velocity=79, time=40),\n",
      "    Message('note_on', channel=3, note=49, velocity=79, time=0),\n",
      "    Message('note_on', channel=3, note=49, velocity=0, time=80),\n",
      "    Message('note_on', channel=3, note=42, velocity=0, time=0),\n",
      "    Message('note_on', channel=3, note=42, velocity=79, time=40),\n",
      "    Message('note_on', channel=3, note=49, velocity=79, time=0),\n",
      "    Message('note_on', channel=3, note=49, velocity=0, time=80),\n",
      "    Message('note_on', channel=3, note=42, velocity=0, time=0),\n",
      "    Message('note_on', channel=3, note=42, velocity=79, time=40),\n",
      "    Message('note_on', channel=3, note=49, velocity=79, time=0),\n",
      "    Message('note_on', channel=3, note=49, velocity=0, time=80),\n",
      "    Message('note_on', channel=3, note=42, velocity=0, time=0),\n",
      "    Message('note_on', channel=3, note=49, velocity=79, time=40),\n",
      "    Message('note_on', channel=3, note=49, velocity=0, time=80),\n",
      "    Message('note_on', channel=3, note=49, velocity=79, time=40),\n",
      "    Message('note_on', channel=3, note=49, velocity=0, time=80),\n",
      "    Message('note_on', channel=3, note=49, velocity=79, time=40),\n",
      "    Message('note_on', channel=3, note=49, velocity=0, time=80),\n",
      "    Message('note_on', channel=3, note=49, velocity=79, time=40),\n",
      "    Message('note_on', channel=3, note=49, velocity=0, time=80),\n",
      "    Message('note_on', channel=3, note=49, velocity=79, time=40),\n",
      "    Message('note_on', channel=3, note=49, velocity=0, time=80),\n",
      "    Message('note_on', channel=3, note=40, velocity=79, time=40),\n",
      "    Message('note_on', channel=3, note=52, velocity=79, time=0),\n",
      "    Message('note_on', channel=3, note=52, velocity=0, time=80),\n",
      "    Message('note_on', channel=3, note=40, velocity=0, time=0),\n",
      "    Message('note_on', channel=3, note=40, velocity=79, time=40),\n",
      "    Message('note_on', channel=3, note=52, velocity=79, time=0),\n",
      "    Message('note_on', channel=3, note=52, velocity=0, time=80),\n",
      "    Message('note_on', channel=3, note=40, velocity=0, time=0),\n",
      "    Message('note_on', channel=3, note=40, velocity=79, time=40),\n",
      "    Message('note_on', channel=3, note=52, velocity=79, time=0),\n",
      "    Message('note_on', channel=3, note=52, velocity=0, time=80),\n",
      "    Message('note_on', channel=3, note=40, velocity=0, time=0),\n",
      "    Message('note_on', channel=3, note=45, velocity=79, time=40),\n",
      "    Message('note_on', channel=3, note=52, velocity=79, time=0),\n",
      "    Message('note_on', channel=3, note=52, velocity=0, time=80),\n",
      "    Message('note_on', channel=3, note=45, velocity=0, time=0),\n",
      "    Message('note_on', channel=3, note=45, velocity=79, time=40),\n",
      "    Message('note_on', channel=3, note=52, velocity=79, time=0),\n",
      "    Message('note_on', channel=3, note=52, velocity=0, time=80),\n",
      "    Message('note_on', channel=3, note=45, velocity=0, time=0),\n",
      "    Message('note_on', channel=3, note=45, velocity=79, time=40),\n",
      "    Message('note_on', channel=3, note=52, velocity=79, time=0),\n",
      "    Message('note_on', channel=3, note=52, velocity=0, time=80),\n",
      "    Message('note_on', channel=3, note=45, velocity=0, time=0),\n",
      "    Message('note_on', channel=3, note=45, velocity=79, time=40),\n",
      "    Message('note_on', channel=3, note=52, velocity=79, time=0),\n",
      "    Message('note_on', channel=3, note=52, velocity=0, time=80),\n",
      "    Message('note_on', channel=3, note=45, velocity=0, time=0),\n",
      "    Message('note_on', channel=3, note=45, velocity=79, time=40),\n",
      "    Message('note_on', channel=3, note=52, velocity=79, time=0),\n",
      "    Message('note_on', channel=3, note=52, velocity=0, time=80),\n",
      "    Message('note_on', channel=3, note=45, velocity=0, time=0),\n",
      "    Message('note_on', channel=3, note=45, velocity=79, time=40),\n",
      "    Message('note_on', channel=3, note=52, velocity=79, time=0),\n",
      "    Message('note_on', channel=3, note=52, velocity=0, time=80),\n",
      "    Message('note_on', channel=3, note=45, velocity=0, time=0),\n",
      "    Message('note_on', channel=3, note=45, velocity=79, time=40),\n",
      "    Message('note_on', channel=3, note=52, velocity=79, time=0),\n",
      "    Message('note_on', channel=3, note=52, velocity=0, time=80),\n",
      "    Message('note_on', channel=3, note=45, velocity=0, time=0),\n",
      "    Message('note_on', channel=3, note=45, velocity=79, time=40),\n",
      "    Message('note_on', channel=3, note=52, velocity=79, time=0),\n",
      "    Message('note_on', channel=3, note=52, velocity=0, time=80),\n",
      "    Message('note_on', channel=3, note=45, velocity=0, time=0),\n",
      "    Message('note_on', channel=3, note=44, velocity=79, time=40),\n",
      "    Message('note_on', channel=3, note=52, velocity=79, time=0),\n",
      "    Message('note_on', channel=3, note=52, velocity=0, time=80),\n",
      "    Message('note_on', channel=3, note=44, velocity=0, time=0),\n",
      "    Message('note_on', channel=3, note=44, velocity=79, time=40),\n",
      "    Message('note_on', channel=3, note=52, velocity=79, time=0),\n",
      "    Message('note_on', channel=3, note=52, velocity=0, time=80),\n",
      "    Message('note_on', channel=3, note=44, velocity=0, time=0),\n",
      "    Message('note_on', channel=3, note=44, velocity=79, time=40),\n",
      "    Message('note_on', channel=3, note=52, velocity=79, time=0),\n",
      "    Message('note_on', channel=3, note=52, velocity=0, time=80),\n",
      "    Message('note_on', channel=3, note=44, velocity=0, time=0),\n",
      "    Message('note_on', channel=3, note=44, velocity=79, time=40),\n",
      "    Message('note_on', channel=3, note=52, velocity=79, time=0),\n",
      "    Message('note_on', channel=3, note=52, velocity=0, time=80),\n",
      "    Message('note_on', channel=3, note=44, velocity=0, time=0),\n",
      "    Message('note_on', channel=3, note=44, velocity=79, time=40),\n",
      "    Message('note_on', channel=3, note=52, velocity=79, time=0),\n",
      "    Message('note_on', channel=3, note=52, velocity=0, time=80),\n",
      "    Message('note_on', channel=3, note=44, velocity=0, time=0),\n",
      "    Message('note_on', channel=3, note=44, velocity=79, time=40),\n",
      "    Message('note_on', channel=3, note=52, velocity=79, time=0),\n",
      "    Message('note_on', channel=3, note=52, velocity=0, time=80),\n",
      "    Message('note_on', channel=3, note=44, velocity=0, time=0),\n",
      "    Message('note_on', channel=3, note=44, velocity=79, time=40),\n",
      "    Message('note_on', channel=3, note=52, velocity=79, time=0),\n",
      "    Message('note_on', channel=3, note=52, velocity=0, time=80),\n",
      "    Message('note_on', channel=3, note=44, velocity=0, time=0),\n",
      "    Message('note_on', channel=3, note=44, velocity=79, time=40),\n",
      "    Message('note_on', channel=3, note=52, velocity=79, time=0),\n",
      "    Message('note_on', channel=3, note=52, velocity=0, time=80),\n",
      "    Message('note_on', channel=3, note=44, velocity=0, time=0),\n",
      "    Message('note_on', channel=3, note=42, velocity=79, time=40),\n",
      "    Message('note_on', channel=3, note=49, velocity=79, time=0),\n",
      "    Message('note_on', channel=3, note=49, velocity=0, time=80),\n",
      "    Message('note_on', channel=3, note=42, velocity=0, time=0),\n",
      "    Message('note_on', channel=3, note=42, velocity=79, time=40),\n",
      "    Message('note_on', channel=3, note=49, velocity=79, time=0),\n",
      "    Message('note_on', channel=3, note=49, velocity=0, time=80),\n",
      "    Message('note_on', channel=3, note=42, velocity=0, time=0),\n",
      "    Message('note_on', channel=3, note=42, velocity=79, time=40),\n",
      "    Message('note_on', channel=3, note=49, velocity=79, time=0),\n",
      "    Message('note_on', channel=3, note=49, velocity=0, time=80),\n",
      "    Message('note_on', channel=3, note=42, velocity=0, time=0),\n",
      "    Message('note_on', channel=3, note=42, velocity=79, time=40),\n",
      "    Message('note_on', channel=3, note=49, velocity=79, time=0),\n",
      "    Message('note_on', channel=3, note=49, velocity=0, time=80),\n",
      "    Message('note_on', channel=3, note=42, velocity=0, time=0),\n",
      "    Message('note_on', channel=3, note=45, velocity=79, time=40),\n",
      "    Message('note_on', channel=3, note=45, velocity=0, time=80),\n",
      "    Message('note_on', channel=3, note=44, velocity=79, time=40),\n",
      "    Message('note_on', channel=3, note=44, velocity=0, time=80),\n",
      "    Message('note_on', channel=3, note=44, velocity=79, time=40),\n",
      "    Message('note_on', channel=3, note=44, velocity=0, time=80),\n",
      "    Message('note_on', channel=3, note=44, velocity=79, time=40),\n",
      "    Message('note_on', channel=3, note=44, velocity=0, time=80),\n",
      "    Message('note_on', channel=3, note=45, velocity=79, time=40),\n",
      "    Message('note_on', channel=3, note=52, velocity=79, time=0),\n",
      "    Message('note_on', channel=3, note=52, velocity=0, time=80),\n",
      "    Message('note_on', channel=3, note=45, velocity=0, time=0),\n",
      "    Message('note_on', channel=3, note=45, velocity=79, time=40),\n",
      "    Message('note_on', channel=3, note=52, velocity=79, time=0),\n",
      "    Message('note_on', channel=3, note=52, velocity=0, time=80),\n",
      "    Message('note_on', channel=3, note=45, velocity=0, time=0),\n",
      "    Message('note_on', channel=3, note=45, velocity=79, time=40),\n",
      "    Message('note_on', channel=3, note=52, velocity=79, time=0),\n",
      "    Message('note_on', channel=3, note=52, velocity=0, time=80),\n",
      "    Message('note_on', channel=3, note=45, velocity=0, time=0),\n",
      "    Message('note_on', channel=3, note=45, velocity=79, time=40),\n",
      "    Message('note_on', channel=3, note=52, velocity=79, time=0),\n",
      "    Message('note_on', channel=3, note=52, velocity=0, time=80),\n",
      "    Message('note_on', channel=3, note=45, velocity=0, time=0),\n",
      "    Message('note_on', channel=3, note=46, velocity=79, time=40),\n",
      "    Message('note_on', channel=3, note=46, velocity=0, time=80),\n",
      "    Message('note_on', channel=3, note=46, velocity=79, time=40),\n",
      "    Message('note_on', channel=3, note=46, velocity=0, time=80),\n",
      "    Message('note_on', channel=3, note=46, velocity=79, time=40),\n",
      "    Message('note_on', channel=3, note=46, velocity=0, time=80),\n",
      "    Message('note_on', channel=3, note=46, velocity=79, time=40),\n",
      "    Message('note_on', channel=3, note=46, velocity=0, time=80),\n",
      "    Message('note_on', channel=3, note=35, velocity=79, time=40),\n",
      "    Message('note_on', channel=3, note=47, velocity=79, time=0),\n",
      "    Message('note_on', channel=3, note=47, velocity=0, time=80),\n",
      "    Message('note_on', channel=3, note=35, velocity=0, time=0),\n",
      "    Message('note_on', channel=3, note=35, velocity=79, time=40),\n",
      "    Message('note_on', channel=3, note=47, velocity=79, time=0),\n",
      "    Message('note_on', channel=3, note=47, velocity=0, time=80),\n",
      "    Message('note_on', channel=3, note=35, velocity=0, time=0),\n",
      "    Message('note_on', channel=3, note=35, velocity=79, time=40),\n",
      "    Message('note_on', channel=3, note=47, velocity=79, time=0),\n",
      "    Message('note_on', channel=3, note=47, velocity=0, time=80),\n",
      "    Message('note_on', channel=3, note=35, velocity=0, time=0),\n",
      "    Message('note_on', channel=3, note=35, velocity=79, time=40),\n",
      "    Message('note_on', channel=3, note=47, velocity=79, time=0),\n",
      "    Message('note_on', channel=3, note=47, velocity=0, time=80),\n",
      "    Message('note_on', channel=3, note=35, velocity=0, time=0),\n",
      "    Message('note_on', channel=3, note=35, velocity=79, time=40),\n",
      "    Message('note_on', channel=3, note=47, velocity=79, time=0),\n",
      "    Message('note_on', channel=3, note=47, velocity=0, time=80),\n",
      "    Message('note_on', channel=3, note=35, velocity=0, time=0),\n",
      "    Message('note_on', channel=3, note=35, velocity=79, time=40),\n",
      "    Message('note_on', channel=3, note=47, velocity=79, time=0),\n",
      "    Message('note_on', channel=3, note=47, velocity=0, time=80),\n",
      "    Message('note_on', channel=3, note=35, velocity=0, time=0),\n",
      "    Message('note_on', channel=3, note=35, velocity=79, time=40),\n",
      "    Message('note_on', channel=3, note=47, velocity=79, time=0),\n",
      "    Message('note_on', channel=3, note=47, velocity=0, time=80),\n",
      "    Message('note_on', channel=3, note=35, velocity=0, time=0),\n",
      "    Message('note_on', channel=3, note=35, velocity=79, time=40),\n",
      "    Message('note_on', channel=3, note=47, velocity=79, time=0),\n",
      "    Message('note_on', channel=3, note=47, velocity=0, time=80),\n",
      "    Message('note_on', channel=3, note=35, velocity=0, time=0),\n",
      "    Message('note_on', channel=3, note=35, velocity=79, time=40),\n",
      "    Message('note_on', channel=3, note=47, velocity=79, time=0),\n",
      "    Message('note_on', channel=3, note=47, velocity=0, time=80),\n",
      "    Message('note_on', channel=3, note=35, velocity=0, time=0),\n",
      "    Message('note_on', channel=3, note=35, velocity=79, time=40),\n",
      "    Message('note_on', channel=3, note=47, velocity=79, time=0),\n",
      "    Message('note_on', channel=3, note=47, velocity=0, time=80),\n",
      "    Message('note_on', channel=3, note=35, velocity=0, time=0),\n",
      "    Message('note_on', channel=3, note=52, velocity=79, time=880),\n",
      "    Message('note_on', channel=3, note=59, velocity=79, time=0),\n",
      "    Message('note_on', channel=3, note=59, velocity=0, time=80),\n",
      "    Message('note_on', channel=3, note=52, velocity=0, time=0),\n",
      "    Message('note_on', channel=3, note=52, velocity=79, time=40),\n",
      "    Message('note_on', channel=3, note=59, velocity=79, time=0),\n",
      "    Message('note_on', channel=3, note=59, velocity=0, time=80),\n",
      "    Message('note_on', channel=3, note=52, velocity=0, time=0),\n",
      "    Message('note_on', channel=3, note=52, velocity=79, time=40),\n",
      "    Message('note_on', channel=3, note=59, velocity=79, time=0),\n",
      "    Message('note_on', channel=3, note=59, velocity=0, time=80),\n",
      "    Message('note_on', channel=3, note=52, velocity=0, time=0),\n",
      "    Message('note_on', channel=3, note=51, velocity=79, time=40),\n",
      "    Message('note_on', channel=3, note=59, velocity=79, time=0),\n",
      "    Message('note_on', channel=3, note=59, velocity=0, time=80),\n",
      "    Message('note_on', channel=3, note=51, velocity=0, time=0),\n",
      "    Message('note_on', channel=3, note=51, velocity=79, time=40),\n",
      "    Message('note_on', channel=3, note=59, velocity=79, time=0),\n",
      "    Message('note_on', channel=3, note=59, velocity=0, time=80),\n",
      "    Message('note_on', channel=3, note=51, velocity=0, time=0),\n",
      "    Message('note_on', channel=3, note=51, velocity=79, time=40),\n",
      "    Message('note_on', channel=3, note=59, velocity=79, time=0),\n",
      "    Message('note_on', channel=3, note=59, velocity=0, time=80),\n",
      "    Message('note_on', channel=3, note=51, velocity=0, time=0),\n",
      "    Message('note_on', channel=3, note=51, velocity=79, time=40),\n",
      "    Message('note_on', channel=3, note=59, velocity=79, time=0),\n",
      "    Message('note_on', channel=3, note=59, velocity=0, time=80),\n",
      "    Message('note_on', channel=3, note=51, velocity=0, time=0),\n",
      "    Message('note_on', channel=3, note=49, velocity=79, time=40),\n",
      "    Message('note_on', channel=3, note=56, velocity=79, time=0),\n",
      "    Message('note_on', channel=3, note=56, velocity=0, time=80),\n",
      "    Message('note_on', channel=3, note=49, velocity=0, time=0),\n",
      "    Message('note_on', channel=3, note=49, velocity=79, time=40),\n",
      "    Message('note_on', channel=3, note=56, velocity=79, time=0),\n",
      "    Message('note_on', channel=3, note=56, velocity=0, time=80),\n",
      "    Message('note_on', channel=3, note=49, velocity=0, time=0),\n",
      "    Message('note_on', channel=3, note=49, velocity=79, time=40),\n",
      "    Message('note_on', channel=3, note=56, velocity=79, time=0),\n",
      "    Message('note_on', channel=3, note=56, velocity=0, time=80),\n",
      "    Message('note_on', channel=3, note=49, velocity=0, time=0),\n",
      "    Message('note_on', channel=3, note=49, velocity=79, time=40),\n",
      "    Message('note_on', channel=3, note=56, velocity=79, time=0),\n",
      "    Message('note_on', channel=3, note=56, velocity=0, time=80),\n",
      "    Message('note_on', channel=3, note=49, velocity=0, time=0),\n",
      "    Message('note_on', channel=3, note=47, velocity=79, time=40),\n",
      "    Message('note_on', channel=3, note=54, velocity=79, time=0),\n",
      "    Message('note_on', channel=3, note=54, velocity=0, time=80),\n",
      "    Message('note_on', channel=3, note=47, velocity=0, time=0),\n",
      "    Message('note_on', channel=3, note=47, velocity=79, time=40),\n",
      "    Message('note_on', channel=3, note=54, velocity=79, time=0),\n",
      "    Message('note_on', channel=3, note=54, velocity=0, time=80),\n",
      "    Message('note_on', channel=3, note=47, velocity=0, time=0),\n",
      "    Message('note_on', channel=3, note=47, velocity=79, time=40),\n",
      "    Message('note_on', channel=3, note=54, velocity=79, time=0),\n",
      "    Message('note_on', channel=3, note=54, velocity=0, time=80),\n",
      "    Message('note_on', channel=3, note=47, velocity=0, time=0),\n",
      "    Message('note_on', channel=3, note=47, velocity=79, time=40),\n",
      "    Message('note_on', channel=3, note=54, velocity=79, time=0),\n",
      "    Message('note_on', channel=3, note=54, velocity=0, time=80),\n",
      "    Message('note_on', channel=3, note=47, velocity=0, time=0),\n",
      "    Message('note_on', channel=3, note=45, velocity=79, time=40),\n",
      "    Message('note_on', channel=3, note=52, velocity=79, time=0),\n",
      "    Message('note_on', channel=3, note=52, velocity=0, time=80),\n",
      "    Message('note_on', channel=3, note=45, velocity=0, time=0),\n",
      "    Message('note_on', channel=3, note=45, velocity=79, time=40),\n",
      "    Message('note_on', channel=3, note=52, velocity=79, time=0),\n",
      "    Message('note_on', channel=3, note=52, velocity=0, time=80),\n",
      "    Message('note_on', channel=3, note=45, velocity=0, time=0),\n",
      "    Message('note_on', channel=3, note=45, velocity=79, time=40),\n",
      "    Message('note_on', channel=3, note=52, velocity=79, time=0),\n",
      "    Message('note_on', channel=3, note=52, velocity=0, time=80),\n",
      "    Message('note_on', channel=3, note=45, velocity=0, time=0),\n",
      "    Message('note_on', channel=3, note=45, velocity=79, time=40),\n",
      "    Message('note_on', channel=3, note=52, velocity=79, time=0),\n",
      "    Message('note_on', channel=3, note=52, velocity=0, time=80),\n",
      "    Message('note_on', channel=3, note=45, velocity=0, time=0),\n",
      "    Message('note_on', channel=3, note=45, velocity=79, time=40),\n",
      "    Message('note_on', channel=3, note=52, velocity=79, time=0),\n",
      "    Message('note_on', channel=3, note=52, velocity=0, time=80),\n",
      "    Message('note_on', channel=3, note=45, velocity=0, time=0),\n",
      "    Message('note_on', channel=3, note=49, velocity=79, time=40),\n",
      "    Message('note_on', channel=3, note=56, velocity=79, time=0),\n",
      "    Message('note_on', channel=3, note=56, velocity=0, time=80),\n",
      "    Message('note_on', channel=3, note=49, velocity=0, time=0),\n",
      "    Message('note_on', channel=3, note=49, velocity=79, time=40),\n",
      "    Message('note_on', channel=3, note=56, velocity=79, time=0),\n",
      "    Message('note_on', channel=3, note=56, velocity=0, time=80),\n",
      "    Message('note_on', channel=3, note=49, velocity=0, time=0),\n",
      "    Message('note_on', channel=3, note=49, velocity=79, time=40),\n",
      "    Message('note_on', channel=3, note=56, velocity=79, time=0),\n",
      "    Message('note_on', channel=3, note=56, velocity=0, time=80),\n",
      "    Message('note_on', channel=3, note=49, velocity=0, time=0),\n",
      "    Message('note_on', channel=3, note=47, velocity=79, time=40),\n",
      "    Message('note_on', channel=3, note=54, velocity=79, time=0),\n",
      "    Message('note_on', channel=3, note=54, velocity=0, time=80),\n",
      "    Message('note_on', channel=3, note=47, velocity=0, time=0),\n",
      "    Message('note_on', channel=3, note=47, velocity=79, time=40),\n",
      "    Message('note_on', channel=3, note=54, velocity=79, time=0),\n",
      "    Message('note_on', channel=3, note=54, velocity=0, time=80),\n",
      "    Message('note_on', channel=3, note=47, velocity=0, time=0),\n",
      "    Message('note_on', channel=3, note=47, velocity=79, time=40),\n",
      "    Message('note_on', channel=3, note=54, velocity=79, time=0),\n",
      "    Message('note_on', channel=3, note=54, velocity=0, time=80),\n",
      "    Message('note_on', channel=3, note=47, velocity=0, time=0),\n",
      "    Message('note_on', channel=3, note=47, velocity=79, time=40),\n",
      "    Message('note_on', channel=3, note=54, velocity=79, time=0),\n",
      "    Message('note_on', channel=3, note=54, velocity=0, time=80),\n",
      "    Message('note_on', channel=3, note=47, velocity=0, time=0),\n",
      "    Message('note_on', channel=3, note=47, velocity=79, time=40),\n",
      "    Message('note_on', channel=3, note=54, velocity=79, time=0),\n",
      "    Message('note_on', channel=3, note=54, velocity=0, time=80),\n",
      "    Message('note_on', channel=3, note=47, velocity=0, time=0),\n",
      "    Message('note_on', channel=3, note=47, velocity=79, time=40),\n",
      "    Message('note_on', channel=3, note=54, velocity=79, time=0),\n",
      "    Message('note_on', channel=3, note=54, velocity=0, time=80),\n",
      "    Message('note_on', channel=3, note=47, velocity=0, time=0),\n",
      "    Message('note_on', channel=3, note=47, velocity=79, time=40),\n",
      "    Message('note_on', channel=3, note=54, velocity=79, time=0),\n",
      "    Message('note_on', channel=3, note=54, velocity=0, time=80),\n",
      "    Message('note_on', channel=3, note=47, velocity=0, time=0),\n",
      "    Message('note_on', channel=3, note=47, velocity=79, time=40),\n",
      "    Message('note_on', channel=3, note=54, velocity=79, time=0),\n",
      "    Message('note_on', channel=3, note=54, velocity=0, time=80),\n",
      "    Message('note_on', channel=3, note=47, velocity=0, time=0),\n",
      "    Message('note_on', channel=3, note=47, velocity=79, time=40),\n",
      "    Message('note_on', channel=3, note=54, velocity=79, time=0),\n",
      "    Message('note_on', channel=3, note=54, velocity=0, time=80),\n",
      "    Message('note_on', channel=3, note=47, velocity=0, time=0),\n",
      "    Message('note_on', channel=3, note=52, velocity=79, time=40),\n",
      "    Message('note_on', channel=3, note=59, velocity=79, time=0),\n",
      "    Message('note_on', channel=3, note=59, velocity=0, time=80),\n",
      "    Message('note_on', channel=3, note=52, velocity=0, time=0),\n",
      "    Message('note_on', channel=3, note=52, velocity=79, time=40),\n",
      "    Message('note_on', channel=3, note=59, velocity=79, time=0),\n",
      "    Message('note_on', channel=3, note=59, velocity=0, time=80),\n",
      "    Message('note_on', channel=3, note=52, velocity=0, time=0),\n",
      "    Message('note_on', channel=3, note=52, velocity=79, time=40),\n",
      "    Message('note_on', channel=3, note=59, velocity=79, time=0),\n",
      "    Message('note_on', channel=3, note=59, velocity=0, time=80),\n",
      "    Message('note_on', channel=3, note=52, velocity=0, time=0),\n",
      "    Message('note_on', channel=3, note=51, velocity=79, time=40),\n",
      "    Message('note_on', channel=3, note=59, velocity=79, time=0),\n",
      "    Message('note_on', channel=3, note=59, velocity=0, time=80),\n",
      "    Message('note_on', channel=3, note=51, velocity=0, time=0),\n",
      "    Message('note_on', channel=3, note=51, velocity=79, time=40),\n",
      "    Message('note_on', channel=3, note=59, velocity=79, time=0),\n",
      "    Message('note_on', channel=3, note=59, velocity=0, time=80),\n",
      "    Message('note_on', channel=3, note=51, velocity=0, time=0),\n",
      "    Message('note_on', channel=3, note=51, velocity=79, time=40),\n",
      "    Message('note_on', channel=3, note=59, velocity=79, time=0),\n",
      "    Message('note_on', channel=3, note=59, velocity=0, time=80),\n",
      "    Message('note_on', channel=3, note=51, velocity=0, time=0),\n",
      "    Message('note_on', channel=3, note=51, velocity=79, time=40),\n",
      "    Message('note_on', channel=3, note=59, velocity=79, time=0),\n",
      "    Message('note_on', channel=3, note=59, velocity=0, time=80),\n",
      "    Message('note_on', channel=3, note=51, velocity=0, time=0),\n",
      "    Message('note_on', channel=3, note=49, velocity=79, time=40),\n",
      "    Message('note_on', channel=3, note=56, velocity=79, time=0),\n",
      "    Message('note_on', channel=3, note=56, velocity=0, time=80),\n",
      "    Message('note_on', channel=3, note=49, velocity=0, time=0),\n",
      "    Message('note_on', channel=3, note=49, velocity=79, time=40),\n",
      "    Message('note_on', channel=3, note=56, velocity=79, time=0),\n",
      "    Message('note_on', channel=3, note=56, velocity=0, time=80),\n",
      "    Message('note_on', channel=3, note=49, velocity=0, time=0),\n",
      "    Message('note_on', channel=3, note=49, velocity=79, time=40),\n",
      "    Message('note_on', channel=3, note=56, velocity=79, time=0),\n",
      "    Message('note_on', channel=3, note=56, velocity=0, time=80),\n",
      "    Message('note_on', channel=3, note=49, velocity=0, time=0),\n",
      "    Message('note_on', channel=3, note=49, velocity=79, time=40),\n",
      "    Message('note_on', channel=3, note=56, velocity=79, time=0),\n",
      "    Message('note_on', channel=3, note=56, velocity=0, time=80),\n",
      "    Message('note_on', channel=3, note=49, velocity=0, time=0),\n",
      "    Message('note_on', channel=3, note=47, velocity=79, time=40),\n",
      "    Message('note_on', channel=3, note=54, velocity=79, time=0),\n",
      "    Message('note_on', channel=3, note=54, velocity=0, time=80),\n",
      "    Message('note_on', channel=3, note=47, velocity=0, time=0),\n",
      "    Message('note_on', channel=3, note=47, velocity=79, time=40),\n",
      "    Message('note_on', channel=3, note=54, velocity=79, time=0),\n",
      "    Message('note_on', channel=3, note=54, velocity=0, time=80),\n",
      "    Message('note_on', channel=3, note=47, velocity=0, time=0),\n",
      "    Message('note_on', channel=3, note=47, velocity=79, time=40),\n",
      "    Message('note_on', channel=3, note=54, velocity=79, time=0),\n",
      "    Message('note_on', channel=3, note=54, velocity=0, time=80),\n",
      "    Message('note_on', channel=3, note=47, velocity=0, time=0),\n",
      "    Message('note_on', channel=3, note=47, velocity=79, time=40),\n",
      "    Message('note_on', channel=3, note=54, velocity=79, time=0),\n",
      "    Message('note_on', channel=3, note=54, velocity=0, time=80),\n",
      "    Message('note_on', channel=3, note=47, velocity=0, time=0),\n",
      "    Message('note_on', channel=3, note=45, velocity=79, time=40),\n",
      "    Message('note_on', channel=3, note=52, velocity=79, time=0),\n",
      "    Message('note_on', channel=3, note=52, velocity=0, time=80),\n",
      "    Message('note_on', channel=3, note=45, velocity=0, time=0),\n",
      "    Message('note_on', channel=3, note=45, velocity=79, time=40),\n",
      "    Message('note_on', channel=3, note=52, velocity=79, time=0),\n",
      "    Message('note_on', channel=3, note=52, velocity=0, time=80),\n",
      "    Message('note_on', channel=3, note=45, velocity=0, time=0),\n",
      "    Message('note_on', channel=3, note=45, velocity=79, time=40),\n",
      "    Message('note_on', channel=3, note=52, velocity=79, time=0),\n",
      "    Message('note_on', channel=3, note=52, velocity=0, time=80),\n",
      "    Message('note_on', channel=3, note=45, velocity=0, time=0),\n",
      "    Message('note_on', channel=3, note=45, velocity=79, time=40),\n",
      "    Message('note_on', channel=3, note=52, velocity=79, time=0),\n",
      "    Message('note_on', channel=3, note=52, velocity=0, time=80),\n",
      "    Message('note_on', channel=3, note=45, velocity=0, time=0),\n",
      "    Message('note_on', channel=3, note=45, velocity=79, time=40),\n",
      "    Message('note_on', channel=3, note=52, velocity=79, time=0),\n",
      "    Message('note_on', channel=3, note=52, velocity=0, time=80),\n",
      "    Message('note_on', channel=3, note=45, velocity=0, time=0),\n",
      "    Message('note_on', channel=3, note=49, velocity=79, time=40),\n",
      "    Message('note_on', channel=3, note=56, velocity=79, time=0),\n",
      "    Message('note_on', channel=3, note=56, velocity=0, time=80),\n",
      "    Message('note_on', channel=3, note=49, velocity=0, time=0),\n",
      "    Message('note_on', channel=3, note=49, velocity=79, time=40),\n",
      "    Message('note_on', channel=3, note=56, velocity=79, time=0),\n",
      "    Message('note_on', channel=3, note=56, velocity=0, time=80),\n",
      "    Message('note_on', channel=3, note=49, velocity=0, time=0),\n",
      "    Message('note_on', channel=3, note=49, velocity=79, time=40),\n",
      "    Message('note_on', channel=3, note=56, velocity=79, time=0),\n",
      "    Message('note_on', channel=3, note=56, velocity=0, time=80),\n",
      "    Message('note_on', channel=3, note=49, velocity=0, time=0),\n",
      "    Message('note_on', channel=3, note=47, velocity=79, time=40),\n",
      "    Message('note_on', channel=3, note=54, velocity=79, time=0),\n",
      "    Message('note_on', channel=3, note=54, velocity=0, time=80),\n",
      "    Message('note_on', channel=3, note=47, velocity=0, time=0),\n",
      "    Message('note_on', channel=3, note=47, velocity=79, time=40),\n",
      "    Message('note_on', channel=3, note=54, velocity=79, time=0),\n",
      "    Message('note_on', channel=3, note=54, velocity=0, time=80),\n",
      "    Message('note_on', channel=3, note=47, velocity=0, time=0),\n",
      "    Message('note_on', channel=3, note=47, velocity=79, time=40),\n",
      "    Message('note_on', channel=3, note=54, velocity=79, time=0),\n",
      "    Message('note_on', channel=3, note=54, velocity=0, time=80),\n",
      "    Message('note_on', channel=3, note=47, velocity=0, time=0),\n",
      "    Message('note_on', channel=3, note=47, velocity=79, time=40),\n",
      "    Message('note_on', channel=3, note=54, velocity=79, time=0),\n",
      "    Message('note_on', channel=3, note=54, velocity=0, time=80),\n",
      "    Message('note_on', channel=3, note=47, velocity=0, time=0),\n",
      "    Message('note_on', channel=3, note=47, velocity=79, time=40),\n",
      "    Message('note_on', channel=3, note=54, velocity=79, time=0),\n",
      "    Message('note_on', channel=3, note=54, velocity=0, time=80),\n",
      "    Message('note_on', channel=3, note=47, velocity=0, time=0),\n",
      "    Message('note_on', channel=3, note=47, velocity=79, time=40),\n",
      "    Message('note_on', channel=3, note=54, velocity=79, time=0),\n",
      "    Message('note_on', channel=3, note=54, velocity=0, time=80),\n",
      "    Message('note_on', channel=3, note=47, velocity=0, time=0),\n",
      "    Message('note_on', channel=3, note=47, velocity=79, time=40),\n",
      "    Message('note_on', channel=3, note=54, velocity=79, time=0),\n",
      "    Message('note_on', channel=3, note=54, velocity=0, time=80),\n",
      "    Message('note_on', channel=3, note=47, velocity=0, time=0),\n",
      "    Message('note_on', channel=3, note=47, velocity=79, time=40),\n",
      "    Message('note_on', channel=3, note=54, velocity=79, time=0),\n",
      "    Message('note_on', channel=3, note=54, velocity=0, time=80),\n",
      "    Message('note_on', channel=3, note=47, velocity=0, time=0),\n",
      "    Message('note_on', channel=3, note=45, velocity=79, time=40),\n",
      "    Message('note_on', channel=3, note=52, velocity=79, time=0),\n",
      "    Message('note_on', channel=3, note=52, velocity=0, time=80),\n",
      "    Message('note_on', channel=3, note=45, velocity=0, time=0),\n",
      "    Message('note_on', channel=3, note=45, velocity=79, time=40),\n",
      "    Message('note_on', channel=3, note=52, velocity=79, time=0),\n",
      "    Message('note_on', channel=3, note=52, velocity=0, time=80),\n",
      "    Message('note_on', channel=3, note=45, velocity=0, time=0),\n",
      "    Message('note_on', channel=3, note=45, velocity=79, time=40),\n",
      "    Message('note_on', channel=3, note=52, velocity=79, time=0),\n",
      "    Message('note_on', channel=3, note=52, velocity=0, time=80),\n",
      "    Message('note_on', channel=3, note=45, velocity=0, time=0),\n",
      "    Message('note_on', channel=3, note=45, velocity=79, time=40),\n",
      "    Message('note_on', channel=3, note=52, velocity=79, time=0),\n",
      "    Message('note_on', channel=3, note=52, velocity=0, time=80),\n",
      "    Message('note_on', channel=3, note=45, velocity=0, time=0),\n",
      "    Message('note_on', channel=3, note=45, velocity=79, time=40),\n",
      "    Message('note_on', channel=3, note=52, velocity=79, time=0),\n",
      "    Message('note_on', channel=3, note=52, velocity=0, time=80),\n",
      "    Message('note_on', channel=3, note=45, velocity=0, time=0),\n",
      "    Message('note_on', channel=3, note=49, velocity=79, time=40),\n",
      "    Message('note_on', channel=3, note=56, velocity=79, time=0),\n",
      "    Message('note_on', channel=3, note=56, velocity=0, time=80),\n",
      "    Message('note_on', channel=3, note=49, velocity=0, time=0),\n",
      "    Message('note_on', channel=3, note=49, velocity=79, time=40),\n",
      "    Message('note_on', channel=3, note=56, velocity=79, time=0),\n",
      "    Message('note_on', channel=3, note=56, velocity=0, time=80),\n",
      "    Message('note_on', channel=3, note=49, velocity=0, time=0),\n",
      "    Message('note_on', channel=3, note=49, velocity=79, time=40),\n",
      "    Message('note_on', channel=3, note=56, velocity=79, time=0),\n",
      "    Message('note_on', channel=3, note=56, velocity=0, time=80),\n",
      "    Message('note_on', channel=3, note=49, velocity=0, time=0),\n",
      "    Message('note_on', channel=3, note=47, velocity=79, time=40),\n",
      "    Message('note_on', channel=3, note=54, velocity=79, time=0),\n",
      "    Message('note_on', channel=3, note=54, velocity=0, time=80),\n",
      "    Message('note_on', channel=3, note=47, velocity=0, time=0),\n",
      "    Message('note_on', channel=3, note=47, velocity=79, time=40),\n",
      "    Message('note_on', channel=3, note=54, velocity=79, time=0),\n",
      "    Message('note_on', channel=3, note=54, velocity=0, time=80),\n",
      "    Message('note_on', channel=3, note=47, velocity=0, time=0),\n",
      "    Message('note_on', channel=3, note=47, velocity=79, time=40),\n",
      "    Message('note_on', channel=3, note=54, velocity=79, time=0),\n",
      "    Message('note_on', channel=3, note=54, velocity=0, time=80),\n",
      "    Message('note_on', channel=3, note=47, velocity=0, time=0),\n",
      "    Message('note_on', channel=3, note=47, velocity=79, time=40),\n",
      "    Message('note_on', channel=3, note=54, velocity=79, time=0),\n",
      "    Message('note_on', channel=3, note=54, velocity=0, time=80),\n",
      "    Message('note_on', channel=3, note=47, velocity=0, time=0),\n",
      "    Message('note_on', channel=3, note=47, velocity=79, time=40),\n",
      "    Message('note_on', channel=3, note=54, velocity=79, time=0),\n",
      "    Message('note_on', channel=3, note=54, velocity=0, time=80),\n",
      "    Message('note_on', channel=3, note=47, velocity=0, time=0),\n",
      "    Message('note_on', channel=3, note=47, velocity=79, time=40),\n",
      "    Message('note_on', channel=3, note=54, velocity=79, time=0),\n",
      "    Message('note_on', channel=3, note=54, velocity=0, time=80),\n",
      "    Message('note_on', channel=3, note=47, velocity=0, time=0),\n",
      "    Message('note_on', channel=3, note=47, velocity=79, time=40),\n",
      "    Message('note_on', channel=3, note=54, velocity=79, time=0),\n",
      "    Message('note_on', channel=3, note=54, velocity=0, time=80),\n",
      "    Message('note_on', channel=3, note=47, velocity=0, time=0),\n",
      "    Message('note_on', channel=3, note=47, velocity=79, time=40),\n",
      "    Message('note_on', channel=3, note=54, velocity=79, time=0),\n",
      "    Message('note_on', channel=3, note=54, velocity=0, time=80),\n",
      "    Message('note_on', channel=3, note=47, velocity=0, time=0),\n",
      "    Message('note_on', channel=3, note=47, velocity=79, time=40),\n",
      "    Message('note_on', channel=3, note=54, velocity=79, time=0),\n",
      "    Message('note_on', channel=3, note=54, velocity=0, time=80),\n",
      "    Message('note_on', channel=3, note=47, velocity=0, time=0),\n",
      "    Message('note_on', channel=3, note=45, velocity=79, time=40),\n",
      "    Message('note_on', channel=3, note=52, velocity=79, time=0),\n",
      "    Message('note_on', channel=3, note=52, velocity=0, time=80),\n",
      "    Message('note_on', channel=3, note=45, velocity=0, time=0),\n",
      "    Message('note_on', channel=3, note=45, velocity=79, time=40),\n",
      "    Message('note_on', channel=3, note=52, velocity=79, time=0),\n",
      "    Message('note_on', channel=3, note=52, velocity=0, time=80),\n",
      "    Message('note_on', channel=3, note=45, velocity=0, time=0),\n",
      "    Message('note_on', channel=3, note=45, velocity=79, time=40),\n",
      "    Message('note_on', channel=3, note=52, velocity=79, time=0),\n",
      "    Message('note_on', channel=3, note=52, velocity=0, time=80),\n",
      "    Message('note_on', channel=3, note=45, velocity=0, time=0),\n",
      "    Message('note_on', channel=3, note=45, velocity=79, time=40),\n",
      "    Message('note_on', channel=3, note=52, velocity=79, time=0),\n",
      "    Message('note_on', channel=3, note=52, velocity=0, time=80),\n",
      "    Message('note_on', channel=3, note=45, velocity=0, time=0),\n",
      "    Message('note_on', channel=3, note=49, velocity=79, time=40),\n",
      "    Message('note_on', channel=3, note=56, velocity=79, time=0),\n",
      "    Message('note_on', channel=3, note=56, velocity=0, time=80),\n",
      "    Message('note_on', channel=3, note=49, velocity=0, time=0),\n",
      "    Message('note_on', channel=3, note=49, velocity=79, time=40),\n",
      "    Message('note_on', channel=3, note=56, velocity=79, time=0),\n",
      "    Message('note_on', channel=3, note=56, velocity=0, time=80),\n",
      "    Message('note_on', channel=3, note=49, velocity=0, time=0),\n",
      "    Message('note_on', channel=3, note=49, velocity=79, time=40),\n",
      "    Message('note_on', channel=3, note=56, velocity=79, time=0),\n",
      "    Message('note_on', channel=3, note=56, velocity=0, time=80),\n",
      "    Message('note_on', channel=3, note=49, velocity=0, time=0),\n",
      "    Message('note_on', channel=3, note=47, velocity=79, time=40),\n",
      "    Message('note_on', channel=3, note=54, velocity=79, time=0),\n",
      "    Message('note_on', channel=3, note=54, velocity=0, time=80),\n",
      "    Message('note_on', channel=3, note=47, velocity=0, time=0),\n",
      "    Message('note_on', channel=3, note=47, velocity=79, time=40),\n",
      "    Message('note_on', channel=3, note=54, velocity=79, time=0),\n",
      "    Message('note_on', channel=3, note=54, velocity=0, time=80),\n",
      "    Message('note_on', channel=3, note=47, velocity=0, time=0),\n",
      "    Message('note_on', channel=3, note=47, velocity=79, time=40),\n",
      "    Message('note_on', channel=3, note=54, velocity=79, time=0),\n",
      "    Message('note_on', channel=3, note=54, velocity=0, time=80),\n",
      "    Message('note_on', channel=3, note=47, velocity=0, time=0),\n",
      "    Message('note_on', channel=3, note=47, velocity=79, time=40),\n",
      "    Message('note_on', channel=3, note=54, velocity=79, time=0),\n",
      "    Message('note_on', channel=3, note=54, velocity=0, time=80),\n",
      "    Message('note_on', channel=3, note=47, velocity=0, time=0),\n",
      "    Message('note_on', channel=3, note=47, velocity=79, time=40),\n",
      "    Message('note_on', channel=3, note=54, velocity=79, time=0),\n",
      "    Message('note_on', channel=3, note=54, velocity=0, time=80),\n",
      "    Message('note_on', channel=3, note=47, velocity=0, time=0),\n",
      "    Message('note_on', channel=3, note=47, velocity=79, time=40),\n",
      "    Message('note_on', channel=3, note=54, velocity=79, time=0),\n",
      "    Message('note_on', channel=3, note=54, velocity=0, time=80),\n",
      "    Message('note_on', channel=3, note=47, velocity=0, time=0),\n",
      "    Message('note_on', channel=3, note=47, velocity=79, time=40),\n",
      "    Message('note_on', channel=3, note=54, velocity=79, time=0),\n",
      "    Message('note_on', channel=3, note=54, velocity=0, time=80),\n",
      "    Message('note_on', channel=3, note=47, velocity=0, time=0),\n",
      "    Message('note_on', channel=3, note=47, velocity=79, time=40),\n",
      "    Message('note_on', channel=3, note=54, velocity=79, time=0),\n",
      "    Message('note_on', channel=3, note=54, velocity=0, time=80),\n",
      "    Message('note_on', channel=3, note=47, velocity=0, time=0),\n",
      "    Message('note_on', channel=3, note=47, velocity=79, time=40),\n",
      "    Message('note_on', channel=3, note=54, velocity=79, time=0),\n",
      "    Message('note_on', channel=3, note=54, velocity=0, time=80),\n",
      "    Message('note_on', channel=3, note=47, velocity=0, time=0),\n",
      "    Message('note_on', channel=3, note=42, velocity=79, time=40),\n",
      "    Message('note_on', channel=3, note=57, velocity=79, time=0),\n",
      "    Message('note_on', channel=3, note=57, velocity=0, time=80),\n",
      "    Message('note_on', channel=3, note=42, velocity=0, time=0),\n",
      "    Message('note_on', channel=3, note=42, velocity=79, time=40),\n",
      "    Message('note_on', channel=3, note=57, velocity=79, time=0),\n",
      "    Message('note_on', channel=3, note=57, velocity=0, time=80),\n",
      "    Message('note_on', channel=3, note=42, velocity=0, time=0),\n",
      "    Message('note_on', channel=3, note=42, velocity=79, time=40),\n",
      "    Message('note_on', channel=3, note=57, velocity=79, time=0),\n",
      "    Message('note_on', channel=3, note=57, velocity=0, time=80),\n",
      "    Message('note_on', channel=3, note=42, velocity=0, time=0),\n",
      "    Message('note_on', channel=3, note=44, velocity=79, time=40),\n",
      "    Message('note_on', channel=3, note=59, velocity=79, time=0),\n",
      "    Message('note_on', channel=3, note=59, velocity=0, time=80),\n",
      "    Message('note_on', channel=3, note=44, velocity=0, time=0),\n",
      "    Message('note_on', channel=3, note=44, velocity=79, time=40),\n",
      "    Message('note_on', channel=3, note=59, velocity=79, time=0),\n",
      "    Message('note_on', channel=3, note=59, velocity=0, time=80),\n",
      "    Message('note_on', channel=3, note=44, velocity=0, time=0),\n",
      "    Message('note_on', channel=3, note=44, velocity=79, time=40),\n",
      "    Message('note_on', channel=3, note=59, velocity=79, time=0),\n",
      "    Message('note_on', channel=3, note=59, velocity=0, time=80),\n",
      "    Message('note_on', channel=3, note=44, velocity=0, time=0),\n",
      "    Message('note_on', channel=3, note=44, velocity=79, time=40),\n",
      "    Message('note_on', channel=3, note=59, velocity=79, time=0),\n",
      "    Message('note_on', channel=3, note=59, velocity=0, time=80),\n",
      "    Message('note_on', channel=3, note=44, velocity=0, time=0),\n",
      "    Message('note_on', channel=3, note=45, velocity=79, time=40),\n",
      "    Message('note_on', channel=3, note=52, velocity=79, time=0),\n",
      "    Message('note_on', channel=3, note=52, velocity=0, time=80),\n",
      "    Message('note_on', channel=3, note=45, velocity=0, time=0),\n",
      "    Message('note_on', channel=3, note=45, velocity=79, time=40),\n",
      "    Message('note_on', channel=3, note=52, velocity=79, time=0),\n",
      "    Message('note_on', channel=3, note=52, velocity=0, time=80),\n",
      "    Message('note_on', channel=3, note=45, velocity=0, time=0),\n",
      "    Message('note_on', channel=3, note=45, velocity=79, time=40),\n",
      "    Message('note_on', channel=3, note=52, velocity=79, time=0),\n",
      "    Message('note_on', channel=3, note=52, velocity=0, time=80),\n",
      "    Message('note_on', channel=3, note=45, velocity=0, time=0),\n",
      "    Message('note_on', channel=3, note=45, velocity=79, time=40),\n",
      "    Message('note_on', channel=3, note=52, velocity=79, time=0),\n",
      "    Message('note_on', channel=3, note=52, velocity=0, time=80),\n",
      "    Message('note_on', channel=3, note=45, velocity=0, time=0),\n",
      "    Message('note_on', channel=3, note=46, velocity=79, time=40),\n",
      "    Message('note_on', channel=3, note=54, velocity=79, time=0),\n",
      "    Message('note_on', channel=3, note=54, velocity=0, time=80),\n",
      "    Message('note_on', channel=3, note=46, velocity=0, time=0),\n",
      "    Message('note_on', channel=3, note=46, velocity=79, time=40),\n",
      "    Message('note_on', channel=3, note=54, velocity=79, time=0),\n",
      "    Message('note_on', channel=3, note=54, velocity=0, time=80),\n",
      "    Message('note_on', channel=3, note=46, velocity=0, time=0),\n",
      "    Message('note_on', channel=3, note=46, velocity=79, time=40),\n",
      "    Message('note_on', channel=3, note=54, velocity=79, time=0),\n",
      "    Message('note_on', channel=3, note=54, velocity=0, time=80),\n",
      "    Message('note_on', channel=3, note=46, velocity=0, time=0),\n",
      "    Message('note_on', channel=3, note=46, velocity=79, time=40),\n",
      "    Message('note_on', channel=3, note=54, velocity=79, time=0),\n",
      "    Message('note_on', channel=3, note=54, velocity=0, time=80),\n",
      "    Message('note_on', channel=3, note=46, velocity=0, time=0),\n",
      "    Message('note_on', channel=3, note=46, velocity=79, time=40),\n",
      "    Message('note_on', channel=3, note=54, velocity=79, time=0),\n",
      "    Message('note_on', channel=3, note=54, velocity=0, time=80),\n",
      "    Message('note_on', channel=3, note=46, velocity=0, time=0),\n",
      "    Message('note_on', channel=3, note=47, velocity=79, time=40),\n",
      "    Message('note_on', channel=3, note=54, velocity=79, time=0),\n",
      "    Message('note_on', channel=3, note=54, velocity=0, time=80),\n",
      "    Message('note_on', channel=3, note=47, velocity=0, time=0),\n",
      "    Message('note_on', channel=3, note=47, velocity=79, time=40),\n",
      "    Message('note_on', channel=3, note=54, velocity=79, time=0),\n",
      "    Message('note_on', channel=3, note=54, velocity=0, time=80),\n",
      "    Message('note_on', channel=3, note=47, velocity=0, time=0),\n",
      "    Message('note_on', channel=3, note=47, velocity=79, time=40),\n",
      "    Message('note_on', channel=3, note=54, velocity=79, time=0),\n",
      "    Message('note_on', channel=3, note=54, velocity=0, time=80),\n",
      "    Message('note_on', channel=3, note=47, velocity=0, time=0),\n",
      "    Message('note_on', channel=3, note=47, velocity=79, time=40),\n",
      "    Message('note_on', channel=3, note=54, velocity=79, time=0),\n",
      "    Message('note_on', channel=3, note=54, velocity=0, time=80),\n",
      "    Message('note_on', channel=3, note=47, velocity=0, time=0),\n",
      "    Message('note_on', channel=3, note=47, velocity=79, time=40),\n",
      "    Message('note_on', channel=3, note=54, velocity=79, time=0),\n",
      "    Message('note_on', channel=3, note=54, velocity=0, time=80),\n",
      "    Message('note_on', channel=3, note=47, velocity=0, time=0),\n",
      "    Message('note_on', channel=3, note=47, velocity=79, time=40),\n",
      "    Message('note_on', channel=3, note=54, velocity=79, time=0),\n",
      "    Message('note_on', channel=3, note=54, velocity=0, time=80),\n",
      "    Message('note_on', channel=3, note=47, velocity=0, time=0),\n",
      "    Message('note_on', channel=3, note=47, velocity=79, time=40),\n",
      "    Message('note_on', channel=3, note=54, velocity=79, time=0),\n",
      "    Message('note_on', channel=3, note=54, velocity=0, time=80),\n",
      "    Message('note_on', channel=3, note=47, velocity=0, time=0),\n",
      "    Message('note_on', channel=3, note=47, velocity=79, time=40),\n",
      "    Message('note_on', channel=3, note=54, velocity=79, time=0),\n",
      "    Message('note_on', channel=3, note=54, velocity=0, time=80),\n",
      "    Message('note_on', channel=3, note=47, velocity=0, time=0),\n",
      "    Message('note_on', channel=3, note=47, velocity=79, time=40),\n",
      "    Message('note_on', channel=3, note=54, velocity=79, time=0),\n",
      "    Message('note_on', channel=3, note=54, velocity=0, time=80),\n",
      "    Message('note_on', channel=3, note=47, velocity=0, time=0),\n",
      "    Message('note_on', channel=3, note=47, velocity=79, time=40),\n",
      "    Message('note_on', channel=3, note=54, velocity=79, time=0),\n",
      "    Message('note_on', channel=3, note=54, velocity=0, time=80),\n",
      "    Message('note_on', channel=3, note=47, velocity=0, time=0),\n",
      "    Message('note_on', channel=3, note=45, velocity=79, time=640),\n",
      "    Message('note_on', channel=3, note=52, velocity=79, time=0),\n",
      "    Message('note_on', channel=3, note=52, velocity=0, time=80),\n",
      "    Message('note_on', channel=3, note=45, velocity=0, time=0),\n",
      "    Message('note_on', channel=3, note=45, velocity=79, time=40),\n",
      "    Message('note_on', channel=3, note=52, velocity=79, time=0),\n",
      "    Message('note_on', channel=3, note=52, velocity=0, time=80),\n",
      "    Message('note_on', channel=3, note=45, velocity=0, time=0),\n",
      "    Message('note_on', channel=3, note=45, velocity=79, time=40),\n",
      "    Message('note_on', channel=3, note=52, velocity=79, time=0),\n",
      "    Message('note_on', channel=3, note=52, velocity=0, time=80),\n",
      "    Message('note_on', channel=3, note=45, velocity=0, time=0),\n",
      "    Message('note_on', channel=3, note=45, velocity=79, time=40),\n",
      "    Message('note_on', channel=3, note=52, velocity=79, time=0),\n",
      "    Message('note_on', channel=3, note=52, velocity=0, time=80),\n",
      "    Message('note_on', channel=3, note=45, velocity=0, time=0),\n",
      "    Message('note_on', channel=3, note=45, velocity=79, time=40),\n",
      "    Message('note_on', channel=3, note=52, velocity=79, time=0),\n",
      "    Message('note_on', channel=3, note=52, velocity=0, time=80),\n",
      "    Message('note_on', channel=3, note=45, velocity=0, time=0),\n",
      "    Message('note_on', channel=3, note=45, velocity=79, time=40),\n",
      "    Message('note_on', channel=3, note=52, velocity=79, time=0),\n",
      "    Message('note_on', channel=3, note=52, velocity=0, time=80),\n",
      "    Message('note_on', channel=3, note=45, velocity=0, time=0),\n",
      "    Message('note_on', channel=3, note=45, velocity=79, time=40),\n",
      "    Message('note_on', channel=3, note=52, velocity=79, time=0),\n",
      "    Message('note_on', channel=3, note=52, velocity=0, time=80),\n",
      "    Message('note_on', channel=3, note=45, velocity=0, time=0),\n",
      "    Message('note_on', channel=3, note=45, velocity=79, time=40),\n",
      "    Message('note_on', channel=3, note=52, velocity=79, time=0),\n",
      "    Message('note_on', channel=3, note=52, velocity=0, time=80),\n",
      "    Message('note_on', channel=3, note=45, velocity=0, time=0),\n",
      "    Message('note_on', channel=3, note=44, velocity=79, time=40),\n",
      "    Message('note_on', channel=3, note=52, velocity=79, time=0),\n",
      "    Message('note_on', channel=3, note=52, velocity=0, time=80),\n",
      "    Message('note_on', channel=3, note=44, velocity=0, time=0),\n",
      "    Message('note_on', channel=3, note=44, velocity=79, time=40),\n",
      "    Message('note_on', channel=3, note=52, velocity=79, time=0),\n",
      "    Message('note_on', channel=3, note=52, velocity=0, time=80),\n",
      "    Message('note_on', channel=3, note=44, velocity=0, time=0),\n",
      "    Message('note_on', channel=3, note=44, velocity=79, time=40),\n",
      "    Message('note_on', channel=3, note=52, velocity=79, time=0),\n",
      "    Message('note_on', channel=3, note=52, velocity=0, time=80),\n",
      "    Message('note_on', channel=3, note=44, velocity=0, time=0),\n",
      "    Message('note_on', channel=3, note=44, velocity=79, time=40),\n",
      "    Message('note_on', channel=3, note=52, velocity=79, time=0),\n",
      "    Message('note_on', channel=3, note=52, velocity=0, time=80),\n",
      "    Message('note_on', channel=3, note=44, velocity=0, time=0),\n",
      "    Message('note_on', channel=3, note=44, velocity=79, time=40),\n",
      "    Message('note_on', channel=3, note=52, velocity=79, time=0),\n",
      "    Message('note_on', channel=3, note=52, velocity=0, time=80),\n",
      "    Message('note_on', channel=3, note=44, velocity=0, time=0),\n",
      "    Message('note_on', channel=3, note=44, velocity=79, time=40),\n",
      "    Message('note_on', channel=3, note=52, velocity=79, time=0),\n",
      "    Message('note_on', channel=3, note=52, velocity=0, time=80),\n",
      "    Message('note_on', channel=3, note=44, velocity=0, time=0),\n",
      "    Message('note_on', channel=3, note=44, velocity=79, time=40),\n",
      "    Message('note_on', channel=3, note=52, velocity=79, time=0),\n",
      "    Message('note_on', channel=3, note=52, velocity=0, time=80),\n",
      "    Message('note_on', channel=3, note=44, velocity=0, time=0),\n",
      "    Message('note_on', channel=3, note=44, velocity=79, time=40),\n",
      "    Message('note_on', channel=3, note=52, velocity=79, time=0),\n",
      "    Message('note_on', channel=3, note=52, velocity=0, time=80),\n",
      "    Message('note_on', channel=3, note=44, velocity=0, time=0),\n",
      "    Message('note_on', channel=3, note=42, velocity=79, time=40),\n",
      "    Message('note_on', channel=3, note=49, velocity=79, time=0),\n",
      "    Message('note_on', channel=3, note=49, velocity=0, time=80),\n",
      "    Message('note_on', channel=3, note=42, velocity=0, time=0),\n",
      "    Message('note_on', channel=3, note=42, velocity=79, time=40),\n",
      "    Message('note_on', channel=3, note=49, velocity=79, time=0),\n",
      "    Message('note_on', channel=3, note=49, velocity=0, time=80),\n",
      "    Message('note_on', channel=3, note=42, velocity=0, time=0),\n",
      "    Message('note_on', channel=3, note=42, velocity=79, time=40),\n",
      "    Message('note_on', channel=3, note=49, velocity=79, time=0),\n",
      "    Message('note_on', channel=3, note=49, velocity=0, time=80),\n",
      "    Message('note_on', channel=3, note=42, velocity=0, time=0),\n",
      "    Message('note_on', channel=3, note=42, velocity=79, time=40),\n",
      "    Message('note_on', channel=3, note=49, velocity=79, time=0),\n",
      "    Message('note_on', channel=3, note=49, velocity=0, time=80),\n",
      "    Message('note_on', channel=3, note=42, velocity=0, time=0),\n",
      "    Message('note_on', channel=3, note=42, velocity=79, time=40),\n",
      "    Message('note_on', channel=3, note=49, velocity=79, time=0),\n",
      "    Message('note_on', channel=3, note=49, velocity=0, time=80),\n",
      "    Message('note_on', channel=3, note=42, velocity=0, time=0),\n",
      "    Message('note_on', channel=3, note=42, velocity=79, time=40),\n",
      "    Message('note_on', channel=3, note=49, velocity=79, time=0),\n",
      "    Message('note_on', channel=3, note=49, velocity=0, time=80),\n",
      "    Message('note_on', channel=3, note=42, velocity=0, time=0),\n",
      "    Message('note_on', channel=3, note=42, velocity=79, time=40),\n",
      "    Message('note_on', channel=3, note=49, velocity=79, time=0),\n",
      "    Message('note_on', channel=3, note=49, velocity=0, time=80),\n",
      "    Message('note_on', channel=3, note=42, velocity=0, time=0),\n",
      "    Message('note_on', channel=3, note=42, velocity=79, time=40),\n",
      "    Message('note_on', channel=3, note=49, velocity=79, time=0),\n",
      "    Message('note_on', channel=3, note=49, velocity=0, time=80),\n",
      "    Message('note_on', channel=3, note=42, velocity=0, time=0),\n",
      "    Message('note_on', channel=3, note=49, velocity=79, time=40),\n",
      "    Message('note_on', channel=3, note=56, velocity=79, time=0),\n",
      "    Message('note_on', channel=3, note=56, velocity=0, time=80),\n",
      "    Message('note_on', channel=3, note=49, velocity=0, time=0),\n",
      "    Message('note_on', channel=3, note=49, velocity=79, time=40),\n",
      "    Message('note_on', channel=3, note=56, velocity=79, time=0),\n",
      "    Message('note_on', channel=3, note=56, velocity=0, time=80),\n",
      "    Message('note_on', channel=3, note=49, velocity=0, time=0),\n",
      "    Message('note_on', channel=3, note=49, velocity=79, time=40),\n",
      "    Message('note_on', channel=3, note=56, velocity=79, time=0),\n",
      "    Message('note_on', channel=3, note=56, velocity=0, time=80),\n",
      "    Message('note_on', channel=3, note=49, velocity=0, time=0),\n",
      "    Message('note_on', channel=3, note=49, velocity=79, time=40),\n",
      "    Message('note_on', channel=3, note=56, velocity=79, time=0),\n",
      "    Message('note_on', channel=3, note=56, velocity=0, time=80),\n",
      "    Message('note_on', channel=3, note=49, velocity=0, time=0),\n",
      "    Message('note_on', channel=3, note=49, velocity=79, time=40),\n",
      "    Message('note_on', channel=3, note=56, velocity=79, time=0),\n",
      "    Message('note_on', channel=3, note=56, velocity=0, time=80),\n",
      "    Message('note_on', channel=3, note=49, velocity=0, time=0),\n",
      "    Message('note_on', channel=3, note=40, velocity=79, time=40),\n",
      "    Message('note_on', channel=3, note=52, velocity=79, time=0),\n",
      "    Message('note_on', channel=3, note=52, velocity=0, time=80),\n",
      "    Message('note_on', channel=3, note=40, velocity=0, time=0),\n",
      "    Message('note_on', channel=3, note=40, velocity=79, time=40),\n",
      "    Message('note_on', channel=3, note=52, velocity=79, time=0),\n",
      "    Message('note_on', channel=3, note=52, velocity=0, time=80),\n",
      "    Message('note_on', channel=3, note=40, velocity=0, time=0),\n",
      "    Message('note_on', channel=3, note=40, velocity=79, time=40),\n",
      "    Message('note_on', channel=3, note=52, velocity=79, time=0),\n",
      "    Message('note_on', channel=3, note=52, velocity=0, time=80),\n",
      "    Message('note_on', channel=3, note=40, velocity=0, time=0),\n",
      "    Message('note_on', channel=3, note=45, velocity=79, time=40),\n",
      "    Message('note_on', channel=3, note=52, velocity=79, time=0),\n",
      "    Message('note_on', channel=3, note=52, velocity=0, time=80),\n",
      "    Message('note_on', channel=3, note=45, velocity=0, time=0),\n",
      "    Message('note_on', channel=3, note=45, velocity=79, time=40),\n",
      "    Message('note_on', channel=3, note=52, velocity=79, time=0),\n",
      "    Message('note_on', channel=3, note=52, velocity=0, time=80),\n",
      "    Message('note_on', channel=3, note=45, velocity=0, time=0),\n",
      "    Message('note_on', channel=3, note=45, velocity=79, time=40),\n",
      "    Message('note_on', channel=3, note=52, velocity=79, time=0),\n",
      "    Message('note_on', channel=3, note=52, velocity=0, time=80),\n",
      "    Message('note_on', channel=3, note=45, velocity=0, time=0),\n",
      "    Message('note_on', channel=3, note=45, velocity=79, time=40),\n",
      "    Message('note_on', channel=3, note=52, velocity=79, time=0),\n",
      "    Message('note_on', channel=3, note=52, velocity=0, time=80),\n",
      "    Message('note_on', channel=3, note=45, velocity=0, time=0),\n",
      "    Message('note_on', channel=3, note=45, velocity=79, time=40),\n",
      "    Message('note_on', channel=3, note=52, velocity=79, time=0),\n",
      "    Message('note_on', channel=3, note=52, velocity=0, time=80),\n",
      "    Message('note_on', channel=3, note=45, velocity=0, time=0),\n",
      "    Message('note_on', channel=3, note=45, velocity=79, time=40),\n",
      "    Message('note_on', channel=3, note=52, velocity=79, time=0),\n",
      "    Message('note_on', channel=3, note=52, velocity=0, time=80),\n",
      "    Message('note_on', channel=3, note=45, velocity=0, time=0),\n",
      "    Message('note_on', channel=3, note=45, velocity=79, time=40),\n",
      "    Message('note_on', channel=3, note=52, velocity=79, time=0),\n",
      "    Message('note_on', channel=3, note=52, velocity=0, time=80),\n",
      "    Message('note_on', channel=3, note=45, velocity=0, time=0),\n",
      "    Message('note_on', channel=3, note=45, velocity=79, time=40),\n",
      "    Message('note_on', channel=3, note=52, velocity=79, time=0),\n",
      "    Message('note_on', channel=3, note=52, velocity=0, time=80),\n",
      "    Message('note_on', channel=3, note=45, velocity=0, time=0),\n",
      "    Message('note_on', channel=3, note=44, velocity=79, time=40),\n",
      "    Message('note_on', channel=3, note=52, velocity=79, time=0),\n",
      "    Message('note_on', channel=3, note=52, velocity=0, time=80),\n",
      "    Message('note_on', channel=3, note=44, velocity=0, time=0),\n",
      "    Message('note_on', channel=3, note=44, velocity=79, time=40),\n",
      "    Message('note_on', channel=3, note=52, velocity=79, time=0),\n",
      "    Message('note_on', channel=3, note=52, velocity=0, time=80),\n",
      "    Message('note_on', channel=3, note=44, velocity=0, time=0),\n",
      "    Message('note_on', channel=3, note=44, velocity=79, time=40),\n",
      "    Message('note_on', channel=3, note=52, velocity=79, time=0),\n",
      "    Message('note_on', channel=3, note=52, velocity=0, time=80),\n",
      "    Message('note_on', channel=3, note=44, velocity=0, time=0),\n",
      "    Message('note_on', channel=3, note=44, velocity=79, time=40),\n",
      "    Message('note_on', channel=3, note=52, velocity=79, time=0),\n",
      "    Message('note_on', channel=3, note=52, velocity=0, time=80),\n",
      "    Message('note_on', channel=3, note=44, velocity=0, time=0),\n",
      "    Message('note_on', channel=3, note=44, velocity=79, time=40),\n",
      "    Message('note_on', channel=3, note=52, velocity=79, time=0),\n",
      "    Message('note_on', channel=3, note=52, velocity=0, time=80),\n",
      "    Message('note_on', channel=3, note=44, velocity=0, time=0),\n",
      "    Message('note_on', channel=3, note=44, velocity=79, time=40),\n",
      "    Message('note_on', channel=3, note=52, velocity=79, time=0),\n",
      "    Message('note_on', channel=3, note=52, velocity=0, time=80),\n",
      "    Message('note_on', channel=3, note=44, velocity=0, time=0),\n",
      "    Message('note_on', channel=3, note=44, velocity=79, time=40),\n",
      "    Message('note_on', channel=3, note=52, velocity=79, time=0),\n",
      "    Message('note_on', channel=3, note=52, velocity=0, time=80),\n",
      "    Message('note_on', channel=3, note=44, velocity=0, time=0),\n",
      "    Message('note_on', channel=3, note=44, velocity=79, time=40),\n",
      "    Message('note_on', channel=3, note=52, velocity=79, time=0),\n",
      "    Message('note_on', channel=3, note=52, velocity=0, time=80),\n",
      "    Message('note_on', channel=3, note=44, velocity=0, time=0),\n",
      "    Message('note_on', channel=3, note=42, velocity=79, time=40),\n",
      "    Message('note_on', channel=3, note=49, velocity=79, time=0),\n",
      "    Message('note_on', channel=3, note=49, velocity=0, time=80),\n",
      "    Message('note_on', channel=3, note=42, velocity=0, time=0),\n",
      "    Message('note_on', channel=3, note=42, velocity=79, time=40),\n",
      "    Message('note_on', channel=3, note=49, velocity=79, time=0),\n",
      "    Message('note_on', channel=3, note=49, velocity=0, time=80),\n",
      "    Message('note_on', channel=3, note=42, velocity=0, time=0),\n",
      "    Message('note_on', channel=3, note=42, velocity=79, time=40),\n",
      "    Message('note_on', channel=3, note=49, velocity=79, time=0),\n",
      "    Message('note_on', channel=3, note=49, velocity=0, time=80),\n",
      "    Message('note_on', channel=3, note=42, velocity=0, time=0),\n",
      "    Message('note_on', channel=3, note=42, velocity=79, time=40),\n",
      "    Message('note_on', channel=3, note=49, velocity=79, time=0),\n",
      "    Message('note_on', channel=3, note=49, velocity=0, time=80),\n",
      "    Message('note_on', channel=3, note=42, velocity=0, time=0),\n",
      "    Message('note_on', channel=3, note=42, velocity=79, time=40),\n",
      "    Message('note_on', channel=3, note=49, velocity=79, time=0),\n",
      "    Message('note_on', channel=3, note=49, velocity=0, time=80),\n",
      "    Message('note_on', channel=3, note=42, velocity=0, time=0),\n",
      "    Message('note_on', channel=3, note=42, velocity=79, time=40),\n",
      "    Message('note_on', channel=3, note=49, velocity=79, time=0),\n",
      "    Message('note_on', channel=3, note=49, velocity=0, time=80),\n",
      "    Message('note_on', channel=3, note=42, velocity=0, time=0),\n",
      "    Message('note_on', channel=3, note=42, velocity=79, time=40),\n",
      "    Message('note_on', channel=3, note=49, velocity=79, time=0),\n",
      "    Message('note_on', channel=3, note=49, velocity=0, time=80),\n",
      "    Message('note_on', channel=3, note=42, velocity=0, time=0),\n",
      "    Message('note_on', channel=3, note=42, velocity=79, time=40),\n",
      "    Message('note_on', channel=3, note=49, velocity=79, time=0),\n",
      "    Message('note_on', channel=3, note=49, velocity=0, time=80),\n",
      "    Message('note_on', channel=3, note=42, velocity=0, time=0),\n",
      "    Message('note_on', channel=3, note=49, velocity=79, time=40),\n",
      "    Message('note_on', channel=3, note=49, velocity=0, time=80),\n",
      "    Message('note_on', channel=3, note=49, velocity=79, time=40),\n",
      "    Message('note_on', channel=3, note=49, velocity=0, time=80),\n",
      "    Message('note_on', channel=3, note=49, velocity=79, time=40),\n",
      "    Message('note_on', channel=3, note=49, velocity=0, time=80),\n",
      "    Message('note_on', channel=3, note=49, velocity=79, time=40),\n",
      "    Message('note_on', channel=3, note=49, velocity=0, time=80),\n",
      "    Message('note_on', channel=3, note=49, velocity=79, time=40),\n",
      "    Message('note_on', channel=3, note=49, velocity=0, time=80),\n",
      "    Message('note_on', channel=3, note=40, velocity=79, time=40),\n",
      "    Message('note_on', channel=3, note=52, velocity=79, time=0),\n",
      "    Message('note_on', channel=3, note=52, velocity=0, time=80),\n",
      "    Message('note_on', channel=3, note=40, velocity=0, time=0),\n",
      "    Message('note_on', channel=3, note=40, velocity=79, time=40),\n",
      "    Message('note_on', channel=3, note=52, velocity=79, time=0),\n",
      "    Message('note_on', channel=3, note=52, velocity=0, time=80),\n",
      "    Message('note_on', channel=3, note=40, velocity=0, time=0),\n",
      "    Message('note_on', channel=3, note=40, velocity=79, time=40),\n",
      "    Message('note_on', channel=3, note=52, velocity=79, time=0),\n",
      "    Message('note_on', channel=3, note=52, velocity=0, time=80),\n",
      "    Message('note_on', channel=3, note=40, velocity=0, time=0),\n",
      "    Message('note_on', channel=3, note=45, velocity=79, time=40),\n",
      "    Message('note_on', channel=3, note=52, velocity=79, time=0),\n",
      "    Message('note_on', channel=3, note=52, velocity=0, time=80),\n",
      "    Message('note_on', channel=3, note=45, velocity=0, time=0),\n",
      "    Message('note_on', channel=3, note=45, velocity=79, time=40),\n",
      "    Message('note_on', channel=3, note=52, velocity=79, time=0),\n",
      "    Message('note_on', channel=3, note=52, velocity=0, time=80),\n",
      "    Message('note_on', channel=3, note=45, velocity=0, time=0),\n",
      "    Message('note_on', channel=3, note=45, velocity=79, time=40),\n",
      "    Message('note_on', channel=3, note=52, velocity=79, time=0),\n",
      "    Message('note_on', channel=3, note=52, velocity=0, time=80),\n",
      "    Message('note_on', channel=3, note=45, velocity=0, time=0),\n",
      "    Message('note_on', channel=3, note=45, velocity=79, time=40),\n",
      "    Message('note_on', channel=3, note=52, velocity=79, time=0),\n",
      "    Message('note_on', channel=3, note=52, velocity=0, time=80),\n",
      "    Message('note_on', channel=3, note=45, velocity=0, time=0),\n",
      "    Message('note_on', channel=3, note=45, velocity=79, time=40),\n",
      "    Message('note_on', channel=3, note=52, velocity=79, time=0),\n",
      "    Message('note_on', channel=3, note=52, velocity=0, time=80),\n",
      "    Message('note_on', channel=3, note=45, velocity=0, time=0),\n",
      "    Message('note_on', channel=3, note=45, velocity=79, time=40),\n",
      "    Message('note_on', channel=3, note=52, velocity=79, time=0),\n",
      "    Message('note_on', channel=3, note=52, velocity=0, time=80),\n",
      "    Message('note_on', channel=3, note=45, velocity=0, time=0),\n",
      "    Message('note_on', channel=3, note=45, velocity=79, time=40),\n",
      "    Message('note_on', channel=3, note=52, velocity=79, time=0),\n",
      "    Message('note_on', channel=3, note=52, velocity=0, time=80),\n",
      "    Message('note_on', channel=3, note=45, velocity=0, time=0),\n",
      "    Message('note_on', channel=3, note=45, velocity=79, time=40),\n",
      "    Message('note_on', channel=3, note=52, velocity=79, time=0),\n",
      "    Message('note_on', channel=3, note=52, velocity=0, time=80),\n",
      "    Message('note_on', channel=3, note=45, velocity=0, time=0),\n",
      "    Message('note_on', channel=3, note=44, velocity=79, time=40),\n",
      "    Message('note_on', channel=3, note=52, velocity=79, time=0),\n",
      "    Message('note_on', channel=3, note=52, velocity=0, time=80),\n",
      "    Message('note_on', channel=3, note=44, velocity=0, time=0),\n",
      "    Message('note_on', channel=3, note=44, velocity=79, time=40),\n",
      "    Message('note_on', channel=3, note=52, velocity=79, time=0),\n",
      "    Message('note_on', channel=3, note=52, velocity=0, time=80),\n",
      "    Message('note_on', channel=3, note=44, velocity=0, time=0),\n",
      "    Message('note_on', channel=3, note=44, velocity=79, time=40),\n",
      "    Message('note_on', channel=3, note=52, velocity=79, time=0),\n",
      "    Message('note_on', channel=3, note=52, velocity=0, time=80),\n",
      "    Message('note_on', channel=3, note=44, velocity=0, time=0),\n",
      "    Message('note_on', channel=3, note=44, velocity=79, time=40),\n",
      "    Message('note_on', channel=3, note=52, velocity=79, time=0),\n",
      "    Message('note_on', channel=3, note=52, velocity=0, time=80),\n",
      "    Message('note_on', channel=3, note=44, velocity=0, time=0),\n",
      "    Message('note_on', channel=3, note=44, velocity=79, time=40),\n",
      "    Message('note_on', channel=3, note=52, velocity=79, time=0),\n",
      "    Message('note_on', channel=3, note=52, velocity=0, time=80),\n",
      "    Message('note_on', channel=3, note=44, velocity=0, time=0),\n",
      "    Message('note_on', channel=3, note=44, velocity=79, time=40),\n",
      "    Message('note_on', channel=3, note=52, velocity=79, time=0),\n",
      "    Message('note_on', channel=3, note=52, velocity=0, time=80),\n",
      "    Message('note_on', channel=3, note=44, velocity=0, time=0),\n",
      "    Message('note_on', channel=3, note=44, velocity=79, time=40),\n",
      "    Message('note_on', channel=3, note=52, velocity=79, time=0),\n",
      "    Message('note_on', channel=3, note=52, velocity=0, time=80),\n",
      "    Message('note_on', channel=3, note=44, velocity=0, time=0),\n",
      "    Message('note_on', channel=3, note=44, velocity=79, time=40),\n",
      "    Message('note_on', channel=3, note=52, velocity=79, time=0),\n",
      "    Message('note_on', channel=3, note=52, velocity=0, time=80),\n",
      "    Message('note_on', channel=3, note=44, velocity=0, time=0),\n",
      "    Message('note_on', channel=3, note=42, velocity=79, time=40),\n",
      "    Message('note_on', channel=3, note=49, velocity=79, time=0),\n",
      "    Message('note_on', channel=3, note=49, velocity=0, time=80),\n",
      "    Message('note_on', channel=3, note=42, velocity=0, time=0),\n",
      "    Message('note_on', channel=3, note=42, velocity=79, time=40),\n",
      "    Message('note_on', channel=3, note=49, velocity=79, time=0),\n",
      "    Message('note_on', channel=3, note=49, velocity=0, time=80),\n",
      "    Message('note_on', channel=3, note=42, velocity=0, time=0),\n",
      "    Message('note_on', channel=3, note=42, velocity=79, time=40),\n",
      "    Message('note_on', channel=3, note=49, velocity=79, time=0),\n",
      "    Message('note_on', channel=3, note=49, velocity=0, time=80),\n",
      "    Message('note_on', channel=3, note=42, velocity=0, time=0),\n",
      "    Message('note_on', channel=3, note=42, velocity=79, time=40),\n",
      "    Message('note_on', channel=3, note=49, velocity=79, time=0),\n",
      "    Message('note_on', channel=3, note=49, velocity=0, time=80),\n",
      "    Message('note_on', channel=3, note=42, velocity=0, time=0),\n",
      "    Message('note_on', channel=3, note=45, velocity=79, time=40),\n",
      "    Message('note_on', channel=3, note=45, velocity=0, time=80),\n",
      "    Message('note_on', channel=3, note=44, velocity=79, time=40),\n",
      "    Message('note_on', channel=3, note=44, velocity=0, time=80),\n",
      "    Message('note_on', channel=3, note=44, velocity=79, time=40),\n",
      "    Message('note_on', channel=3, note=44, velocity=0, time=80),\n",
      "    Message('note_on', channel=3, note=44, velocity=79, time=40),\n",
      "    Message('note_on', channel=3, note=44, velocity=0, time=80),\n",
      "    Message('note_on', channel=3, note=45, velocity=79, time=40),\n",
      "    Message('note_on', channel=3, note=52, velocity=79, time=0),\n",
      "    Message('note_on', channel=3, note=52, velocity=0, time=80),\n",
      "    Message('note_on', channel=3, note=45, velocity=0, time=0),\n",
      "    Message('note_on', channel=3, note=45, velocity=79, time=40),\n",
      "    Message('note_on', channel=3, note=52, velocity=79, time=0),\n",
      "    Message('note_on', channel=3, note=52, velocity=0, time=80),\n",
      "    Message('note_on', channel=3, note=45, velocity=0, time=0),\n",
      "    Message('note_on', channel=3, note=45, velocity=79, time=40),\n",
      "    Message('note_on', channel=3, note=52, velocity=79, time=0),\n",
      "    Message('note_on', channel=3, note=52, velocity=0, time=80),\n",
      "    Message('note_on', channel=3, note=45, velocity=0, time=0),\n",
      "    Message('note_on', channel=3, note=45, velocity=79, time=40),\n",
      "    Message('note_on', channel=3, note=52, velocity=79, time=0),\n",
      "    Message('note_on', channel=3, note=52, velocity=0, time=80),\n",
      "    Message('note_on', channel=3, note=45, velocity=0, time=0),\n",
      "    Message('note_on', channel=3, note=46, velocity=79, time=40),\n",
      "    Message('note_on', channel=3, note=46, velocity=0, time=80),\n",
      "    Message('note_on', channel=3, note=46, velocity=79, time=40),\n",
      "    Message('note_on', channel=3, note=46, velocity=0, time=80),\n",
      "    Message('note_on', channel=3, note=46, velocity=79, time=40),\n",
      "    Message('note_on', channel=3, note=46, velocity=0, time=80),\n",
      "    Message('note_on', channel=3, note=46, velocity=79, time=40),\n",
      "    Message('note_on', channel=3, note=46, velocity=0, time=80),\n",
      "    Message('note_on', channel=3, note=35, velocity=79, time=40),\n",
      "    Message('note_on', channel=3, note=47, velocity=79, time=0),\n",
      "    Message('note_on', channel=3, note=47, velocity=0, time=80),\n",
      "    Message('note_on', channel=3, note=35, velocity=0, time=0),\n",
      "    Message('note_on', channel=3, note=35, velocity=79, time=40),\n",
      "    Message('note_on', channel=3, note=47, velocity=79, time=0),\n",
      "    Message('note_on', channel=3, note=47, velocity=0, time=80),\n",
      "    Message('note_on', channel=3, note=35, velocity=0, time=0),\n",
      "    Message('note_on', channel=3, note=35, velocity=79, time=40),\n",
      "    Message('note_on', channel=3, note=47, velocity=79, time=0),\n",
      "    Message('note_on', channel=3, note=47, velocity=0, time=80),\n",
      "    Message('note_on', channel=3, note=35, velocity=0, time=0),\n",
      "    Message('note_on', channel=3, note=35, velocity=79, time=40),\n",
      "    Message('note_on', channel=3, note=47, velocity=79, time=0),\n",
      "    Message('note_on', channel=3, note=47, velocity=0, time=80),\n",
      "    Message('note_on', channel=3, note=35, velocity=0, time=0),\n",
      "    Message('note_on', channel=3, note=35, velocity=79, time=40),\n",
      "    Message('note_on', channel=3, note=47, velocity=79, time=0),\n",
      "    Message('note_on', channel=3, note=47, velocity=0, time=80),\n",
      "    Message('note_on', channel=3, note=35, velocity=0, time=0),\n",
      "    Message('note_on', channel=3, note=35, velocity=79, time=40),\n",
      "    Message('note_on', channel=3, note=47, velocity=79, time=0),\n",
      "    Message('note_on', channel=3, note=47, velocity=0, time=80),\n",
      "    Message('note_on', channel=3, note=35, velocity=0, time=0),\n",
      "    Message('note_on', channel=3, note=35, velocity=79, time=40),\n",
      "    Message('note_on', channel=3, note=47, velocity=79, time=0),\n",
      "    Message('note_on', channel=3, note=47, velocity=0, time=80),\n",
      "    Message('note_on', channel=3, note=35, velocity=0, time=0),\n",
      "    Message('note_on', channel=3, note=35, velocity=79, time=40),\n",
      "    Message('note_on', channel=3, note=47, velocity=79, time=0),\n",
      "    Message('note_on', channel=3, note=47, velocity=0, time=80),\n",
      "    Message('note_on', channel=3, note=35, velocity=0, time=0),\n",
      "    Message('note_on', channel=3, note=35, velocity=79, time=40),\n",
      "    Message('note_on', channel=3, note=47, velocity=79, time=0),\n",
      "    Message('note_on', channel=3, note=47, velocity=0, time=80),\n",
      "    Message('note_on', channel=3, note=35, velocity=0, time=0),\n",
      "    Message('note_on', channel=3, note=35, velocity=79, time=40),\n",
      "    Message('note_on', channel=3, note=47, velocity=79, time=0),\n",
      "    Message('note_on', channel=3, note=47, velocity=0, time=80),\n",
      "    Message('note_on', channel=3, note=35, velocity=0, time=0),\n",
      "    Message('note_on', channel=3, note=37, velocity=79, time=880),\n",
      "    Message('note_on', channel=3, note=49, velocity=79, time=0),\n",
      "    Message('note_on', channel=3, note=49, velocity=0, time=240),\n",
      "    Message('note_on', channel=3, note=37, velocity=0, time=0),\n",
      "    Message('note_on', channel=3, note=37, velocity=79, time=120),\n",
      "    Message('note_on', channel=3, note=49, velocity=79, time=0),\n",
      "    Message('note_on', channel=3, note=49, velocity=0, time=80),\n",
      "    Message('note_on', channel=3, note=37, velocity=0, time=0),\n",
      "    Message('note_on', channel=3, note=37, velocity=79, time=40),\n",
      "    Message('note_on', channel=3, note=49, velocity=79, time=0),\n",
      "    Message('note_on', channel=3, note=49, velocity=0, time=240),\n",
      "    Message('note_on', channel=3, note=37, velocity=0, time=0),\n",
      "    Message('note_on', channel=3, note=30, velocity=79, time=240),\n",
      "    Message('note_on', channel=3, note=42, velocity=79, time=0),\n",
      "    Message('note_on', channel=3, note=42, velocity=0, time=240),\n",
      "    Message('note_on', channel=3, note=30, velocity=0, time=0),\n",
      "    Message('note_on', channel=3, note=30, velocity=79, time=120),\n",
      "    Message('note_on', channel=3, note=42, velocity=79, time=0),\n",
      "    Message('note_on', channel=3, note=42, velocity=0, time=80),\n",
      "    Message('note_on', channel=3, note=30, velocity=0, time=0),\n",
      "    Message('note_on', channel=3, note=30, velocity=79, time=40),\n",
      "    Message('note_on', channel=3, note=42, velocity=79, time=0),\n",
      "    Message('note_on', channel=3, note=42, velocity=0, time=315),\n",
      "    Message('note_on', channel=3, note=30, velocity=0, time=0),\n",
      "    Message('note_on', channel=3, note=35, velocity=79, time=165),\n",
      "    Message('note_on', channel=3, note=47, velocity=79, time=0),\n",
      "    Message('note_on', channel=3, note=47, velocity=0, time=240),\n",
      "    Message('note_on', channel=3, note=35, velocity=0, time=0),\n",
      "    Message('note_on', channel=3, note=35, velocity=79, time=120),\n",
      "    Message('note_on', channel=3, note=47, velocity=79, time=0),\n",
      "    Message('note_on', channel=3, note=47, velocity=0, time=80),\n",
      "    Message('note_on', channel=3, note=35, velocity=0, time=0),\n",
      "    Message('note_on', channel=3, note=35, velocity=79, time=40),\n",
      "    Message('note_on', channel=3, note=47, velocity=79, time=0),\n",
      "    Message('note_on', channel=3, note=47, velocity=0, time=240),\n",
      "    Message('note_on', channel=3, note=35, velocity=0, time=0),\n",
      "    Message('note_on', channel=3, note=40, velocity=79, time=240),\n",
      "    Message('note_on', channel=3, note=40, velocity=0, time=240),\n",
      "    Message('note_on', channel=3, note=40, velocity=79, time=120),\n",
      "    Message('note_on', channel=3, note=40, velocity=0, time=80),\n",
      "    Message('note_on', channel=3, note=39, velocity=79, time=40),\n",
      "    Message('note_on', channel=3, note=51, velocity=79, time=0),\n",
      "    Message('note_on', channel=3, note=51, velocity=0, time=315),\n",
      "    Message('note_on', channel=3, note=39, velocity=0, time=0),\n",
      "    Message('note_on', channel=3, note=37, velocity=79, time=165),\n",
      "    Message('note_on', channel=3, note=44, velocity=79, time=0),\n",
      "    Message('note_on', channel=3, note=44, velocity=0, time=240),\n",
      "    Message('note_on', channel=3, note=37, velocity=0, time=0),\n",
      "    Message('note_on', channel=3, note=37, velocity=79, time=120),\n",
      "    Message('note_on', channel=3, note=37, velocity=0, time=80),\n",
      "    Message('note_on', channel=3, note=37, velocity=79, time=40),\n",
      "    Message('note_on', channel=3, note=37, velocity=0, time=315),\n",
      "    Message('note_on', channel=3, note=30, velocity=79, time=165),\n",
      "    Message('note_on', channel=3, note=42, velocity=79, time=0),\n",
      "    Message('note_on', channel=3, note=42, velocity=0, time=240),\n",
      "    Message('note_on', channel=3, note=30, velocity=0, time=0),\n",
      "    Message('note_on', channel=3, note=30, velocity=79, time=120),\n",
      "    Message('note_on', channel=3, note=42, velocity=79, time=0),\n",
      "    Message('note_on', channel=3, note=42, velocity=0, time=80),\n",
      "    Message('note_on', channel=3, note=30, velocity=0, time=0),\n",
      "    Message('note_on', channel=3, note=30, velocity=79, time=40),\n",
      "    Message('note_on', channel=3, note=42, velocity=79, time=0),\n",
      "    Message('note_on', channel=3, note=42, velocity=0, time=240),\n",
      "    Message('note_on', channel=3, note=30, velocity=0, time=0),\n",
      "    Message('note_on', channel=3, note=35, velocity=79, time=240),\n",
      "    Message('note_on', channel=3, note=47, velocity=79, time=0),\n",
      "    Message('note_on', channel=3, note=47, velocity=0, time=240),\n",
      "    Message('note_on', channel=3, note=35, velocity=0, time=0),\n",
      "    Message('note_on', channel=3, note=35, velocity=79, time=120),\n",
      "    Message('note_on', channel=3, note=47, velocity=79, time=0),\n",
      "    Message('note_on', channel=3, note=47, velocity=0, time=80),\n",
      "    Message('note_on', channel=3, note=35, velocity=0, time=0),\n",
      "    Message('note_on', channel=3, note=35, velocity=79, time=40),\n",
      "    Message('note_on', channel=3, note=47, velocity=79, time=0),\n",
      "    Message('note_on', channel=3, note=47, velocity=0, time=315),\n",
      "    Message('note_on', channel=3, note=35, velocity=0, time=0),\n",
      "    Message('note_on', channel=3, note=35, velocity=79, time=165),\n",
      "    Message('note_on', channel=3, note=47, velocity=79, time=0),\n",
      "    Message('note_on', channel=3, note=47, velocity=0, time=240),\n",
      "    Message('note_on', channel=3, note=35, velocity=0, time=0),\n",
      "    Message('note_on', channel=3, note=42, velocity=79, time=120),\n",
      "    Message('note_on', channel=3, note=42, velocity=0, time=80),\n",
      "    Message('note_on', channel=3, note=47, velocity=79, time=40),\n",
      "    Message('note_on', channel=3, note=47, velocity=0, time=80),\n",
      "    Message('note_on', channel=3, note=42, velocity=79, time=40),\n",
      "    Message('note_on', channel=3, note=42, velocity=0, time=80),\n",
      "    Message('note_on', channel=3, note=35, velocity=79, time=40),\n",
      "    Message('note_on', channel=3, note=35, velocity=0, time=160),\n",
      "    Message('note_on', channel=3, note=37, velocity=79, time=80),\n",
      "    Message('note_on', channel=3, note=44, velocity=79, time=0),\n",
      "    Message('note_on', channel=3, note=44, velocity=0, time=80),\n",
      "    Message('note_on', channel=3, note=37, velocity=0, time=0),\n",
      "    Message('note_on', channel=3, note=37, velocity=79, time=160),\n",
      "    Message('note_on', channel=3, note=44, velocity=79, time=0),\n",
      "    Message('note_on', channel=3, note=44, velocity=0, time=80),\n",
      "    Message('note_on', channel=3, note=37, velocity=0, time=0),\n",
      "    Message('note_on', channel=3, note=37, velocity=79, time=160),\n",
      "    Message('note_on', channel=3, note=44, velocity=79, time=0),\n",
      "    Message('note_on', channel=3, note=44, velocity=0, time=80),\n",
      "    Message('note_on', channel=3, note=37, velocity=0, time=0),\n",
      "    Message('note_on', channel=3, note=37, velocity=79, time=160),\n",
      "    Message('note_on', channel=3, note=44, velocity=79, time=0),\n",
      "    Message('note_on', channel=3, note=44, velocity=0, time=80),\n",
      "    Message('note_on', channel=3, note=37, velocity=0, time=0),\n",
      "    Message('note_on', channel=3, note=49, velocity=79, time=40),\n",
      "    Message('note_on', channel=3, note=42, velocity=79, time=0),\n",
      "    Message('note_on', channel=3, note=42, velocity=0, time=280),\n",
      "    Message('note_on', channel=3, note=49, velocity=0, time=0),\n",
      "    Message('note_on', channel=3, note=42, velocity=79, time=80),\n",
      "    Message('note_on', channel=3, note=49, velocity=79, time=0),\n",
      "    Message('note_on', channel=3, note=49, velocity=0, time=80),\n",
      "    Message('note_on', channel=3, note=42, velocity=0, time=0),\n",
      "    Message('note_on', channel=3, note=42, velocity=79, time=160),\n",
      "    Message('note_on', channel=3, note=49, velocity=79, time=0),\n",
      "    Message('note_on', channel=3, note=49, velocity=0, time=80),\n",
      "    Message('note_on', channel=3, note=42, velocity=0, time=0),\n",
      "    Message('note_on', channel=3, note=42, velocity=79, time=160),\n",
      "    Message('note_on', channel=3, note=49, velocity=79, time=0),\n",
      "    Message('note_on', channel=3, note=49, velocity=0, time=80),\n",
      "    Message('note_on', channel=3, note=42, velocity=0, time=0),\n",
      "    Message('note_on', channel=3, note=47, velocity=79, time=40),\n",
      "    Message('note_on', channel=3, note=35, velocity=79, time=0),\n",
      "    Message('note_on', channel=3, note=35, velocity=0, time=280),\n",
      "    Message('note_on', channel=3, note=47, velocity=0, time=0),\n",
      "    Message('note_on', channel=3, note=35, velocity=79, time=80),\n",
      "    Message('note_on', channel=3, note=47, velocity=79, time=0),\n",
      "    Message('note_on', channel=3, note=47, velocity=0, time=80),\n",
      "    Message('note_on', channel=3, note=35, velocity=0, time=0),\n",
      "    Message('note_on', channel=3, note=35, velocity=79, time=160),\n",
      "    Message('note_on', channel=3, note=47, velocity=79, time=0),\n",
      "    Message('note_on', channel=3, note=47, velocity=0, time=80),\n",
      "    Message('note_on', channel=3, note=35, velocity=0, time=0),\n",
      "    Message('note_on', channel=3, note=35, velocity=79, time=160),\n",
      "    Message('note_on', channel=3, note=47, velocity=79, time=0),\n",
      "    Message('note_on', channel=3, note=47, velocity=0, time=80),\n",
      "    Message('note_on', channel=3, note=35, velocity=0, time=0),\n",
      "    Message('note_on', channel=3, note=40, velocity=79, time=160),\n",
      "    Message('note_on', channel=3, note=47, velocity=79, time=0),\n",
      "    Message('note_on', channel=3, note=47, velocity=0, time=315),\n",
      "    Message('note_on', channel=3, note=40, velocity=0, time=0),\n",
      "    Message('note_on', channel=3, note=39, velocity=79, time=165),\n",
      "    Message('note_on', channel=3, note=47, velocity=79, time=0),\n",
      "    Message('note_on', channel=3, note=47, velocity=0, time=315),\n",
      "    Message('note_on', channel=3, note=39, velocity=0, time=0),\n",
      "    Message('note_on', channel=3, note=37, velocity=79, time=165),\n",
      "    Message('note_on', channel=3, note=44, velocity=79, time=0),\n",
      "    Message('note_on', channel=3, note=44, velocity=0, time=80),\n",
      "    Message('note_on', channel=3, note=37, velocity=0, time=0),\n",
      "    Message('note_on', channel=3, note=37, velocity=79, time=160),\n",
      "    Message('note_on', channel=3, note=44, velocity=79, time=0),\n",
      "    Message('note_on', channel=3, note=44, velocity=0, time=80),\n",
      "    Message('note_on', channel=3, note=37, velocity=0, time=0),\n",
      "    Message('note_on', channel=3, note=37, velocity=79, time=160),\n",
      "    Message('note_on', channel=3, note=44, velocity=79, time=0),\n",
      "    Message('note_on', channel=3, note=44, velocity=0, time=80),\n",
      "    Message('note_on', channel=3, note=37, velocity=0, time=0),\n",
      "    Message('note_on', channel=3, note=37, velocity=79, time=160),\n",
      "    Message('note_on', channel=3, note=44, velocity=79, time=0),\n",
      "    Message('note_on', channel=3, note=44, velocity=0, time=80),\n",
      "    Message('note_on', channel=3, note=37, velocity=0, time=0),\n",
      "    Message('note_on', channel=3, note=49, velocity=79, time=40),\n",
      "    Message('note_on', channel=3, note=42, velocity=79, time=0),\n",
      "    Message('note_on', channel=3, note=42, velocity=0, time=275),\n",
      "    Message('note_on', channel=3, note=49, velocity=0, time=0),\n",
      "    Message('note_on', channel=3, note=42, velocity=79, time=85),\n",
      "    Message('note_on', channel=3, note=49, velocity=79, time=0),\n",
      "    Message('note_on', channel=3, note=49, velocity=0, time=80),\n",
      "    Message('note_on', channel=3, note=42, velocity=0, time=0),\n",
      "    Message('note_on', channel=3, note=42, velocity=79, time=160),\n",
      "    Message('note_on', channel=3, note=49, velocity=79, time=0),\n",
      "    Message('note_on', channel=3, note=49, velocity=0, time=80),\n",
      "    Message('note_on', channel=3, note=42, velocity=0, time=0),\n",
      "    Message('note_on', channel=3, note=42, velocity=79, time=160),\n",
      "    Message('note_on', channel=3, note=49, velocity=79, time=0),\n",
      "    Message('note_on', channel=3, note=49, velocity=0, time=80),\n",
      "    Message('note_on', channel=3, note=42, velocity=0, time=0),\n",
      "    Message('note_on', channel=3, note=35, velocity=79, time=160),\n",
      "    Message('note_on', channel=3, note=47, velocity=79, time=0),\n",
      "    Message('note_on', channel=3, note=47, velocity=0, time=80),\n",
      "    Message('note_on', channel=3, note=35, velocity=0, time=0),\n",
      "    Message('note_on', channel=3, note=35, velocity=79, time=40),\n",
      "    Message('note_on', channel=3, note=47, velocity=79, time=0),\n",
      "    Message('note_on', channel=3, note=47, velocity=0, time=80),\n",
      "    Message('note_on', channel=3, note=35, velocity=0, time=0),\n",
      "    Message('note_on', channel=3, note=35, velocity=79, time=40),\n",
      "    Message('note_on', channel=3, note=47, velocity=79, time=0),\n",
      "    Message('note_on', channel=3, note=47, velocity=0, time=80),\n",
      "    Message('note_on', channel=3, note=35, velocity=0, time=0),\n",
      "    Message('note_on', channel=3, note=35, velocity=79, time=40),\n",
      "    Message('note_on', channel=3, note=47, velocity=79, time=0),\n",
      "    Message('note_on', channel=3, note=47, velocity=0, time=80),\n",
      "    Message('note_on', channel=3, note=35, velocity=0, time=0),\n",
      "    Message('note_on', channel=3, note=35, velocity=79, time=40),\n",
      "    Message('note_on', channel=3, note=47, velocity=79, time=0),\n",
      "    Message('note_on', channel=3, note=47, velocity=0, time=80),\n",
      "    Message('note_on', channel=3, note=35, velocity=0, time=0),\n",
      "    Message('note_on', channel=3, note=35, velocity=79, time=40),\n",
      "    Message('note_on', channel=3, note=47, velocity=79, time=0),\n",
      "    Message('note_on', channel=3, note=47, velocity=0, time=80),\n",
      "    Message('note_on', channel=3, note=35, velocity=0, time=0),\n",
      "    Message('note_on', channel=3, note=35, velocity=79, time=40),\n",
      "    Message('note_on', channel=3, note=47, velocity=79, time=0),\n",
      "    Message('note_on', channel=3, note=47, velocity=0, time=80),\n",
      "    Message('note_on', channel=3, note=35, velocity=0, time=0),\n",
      "    Message('note_on', channel=3, note=35, velocity=79, time=40),\n",
      "    Message('note_on', channel=3, note=47, velocity=79, time=0),\n",
      "    Message('note_on', channel=3, note=47, velocity=0, time=80),\n",
      "    Message('note_on', channel=3, note=35, velocity=0, time=0),\n",
      "    Message('note_on', channel=3, note=35, velocity=79, time=40),\n",
      "    Message('note_on', channel=3, note=47, velocity=79, time=0),\n",
      "    Message('note_on', channel=3, note=47, velocity=0, time=80),\n",
      "    Message('note_on', channel=3, note=35, velocity=0, time=0),\n",
      "    Message('note_on', channel=3, note=45, velocity=79, time=760),\n",
      "    Message('note_on', channel=3, note=52, velocity=79, time=0),\n",
      "    Message('note_on', channel=3, note=52, velocity=0, time=80),\n",
      "    Message('note_on', channel=3, note=45, velocity=0, time=0),\n",
      "    Message('note_on', channel=3, note=45, velocity=79, time=40),\n",
      "    Message('note_on', channel=3, note=52, velocity=79, time=0),\n",
      "    Message('note_on', channel=3, note=52, velocity=0, time=80),\n",
      "    Message('note_on', channel=3, note=45, velocity=0, time=0),\n",
      "    Message('note_on', channel=3, note=45, velocity=79, time=40),\n",
      "    Message('note_on', channel=3, note=52, velocity=79, time=0),\n",
      "    Message('note_on', channel=3, note=52, velocity=0, time=80),\n",
      "    Message('note_on', channel=3, note=45, velocity=0, time=0),\n",
      "    Message('note_on', channel=3, note=45, velocity=79, time=40),\n",
      "    Message('note_on', channel=3, note=52, velocity=79, time=0),\n",
      "    Message('note_on', channel=3, note=52, velocity=0, time=80),\n",
      "    Message('note_on', channel=3, note=45, velocity=0, time=0),\n",
      "    Message('note_on', channel=3, note=45, velocity=79, time=40),\n",
      "    Message('note_on', channel=3, note=52, velocity=79, time=0),\n",
      "    Message('note_on', channel=3, note=52, velocity=0, time=80),\n",
      "    Message('note_on', channel=3, note=45, velocity=0, time=0),\n",
      "    Message('note_on', channel=3, note=45, velocity=79, time=40),\n",
      "    Message('note_on', channel=3, note=52, velocity=79, time=0),\n",
      "    Message('note_on', channel=3, note=52, velocity=0, time=80),\n",
      "    Message('note_on', channel=3, note=45, velocity=0, time=0),\n",
      "    Message('note_on', channel=3, note=45, velocity=79, time=40),\n",
      "    Message('note_on', channel=3, note=52, velocity=79, time=0),\n",
      "    Message('note_on', channel=3, note=52, velocity=0, time=80),\n",
      "    Message('note_on', channel=3, note=45, velocity=0, time=0),\n",
      "    Message('note_on', channel=3, note=45, velocity=79, time=40),\n",
      "    Message('note_on', channel=3, note=52, velocity=79, time=0),\n",
      "    Message('note_on', channel=3, note=52, velocity=0, time=80),\n",
      "    Message('note_on', channel=3, note=45, velocity=0, time=0),\n",
      "    Message('note_on', channel=3, note=44, velocity=79, time=40),\n",
      "    Message('note_on', channel=3, note=52, velocity=79, time=0),\n",
      "    Message('note_on', channel=3, note=52, velocity=0, time=80),\n",
      "    Message('note_on', channel=3, note=44, velocity=0, time=0),\n",
      "    Message('note_on', channel=3, note=44, velocity=79, time=40),\n",
      "    Message('note_on', channel=3, note=52, velocity=79, time=0),\n",
      "    Message('note_on', channel=3, note=52, velocity=0, time=80),\n",
      "    Message('note_on', channel=3, note=44, velocity=0, time=0),\n",
      "    Message('note_on', channel=3, note=44, velocity=79, time=40),\n",
      "    Message('note_on', channel=3, note=52, velocity=79, time=0),\n",
      "    Message('note_on', channel=3, note=52, velocity=0, time=80),\n",
      "    Message('note_on', channel=3, note=44, velocity=0, time=0),\n",
      "    Message('note_on', channel=3, note=44, velocity=79, time=40),\n",
      "    Message('note_on', channel=3, note=52, velocity=79, time=0),\n",
      "    Message('note_on', channel=3, note=52, velocity=0, time=80),\n",
      "    Message('note_on', channel=3, note=44, velocity=0, time=0),\n",
      "    Message('note_on', channel=3, note=44, velocity=79, time=40),\n",
      "    Message('note_on', channel=3, note=52, velocity=79, time=0),\n",
      "    Message('note_on', channel=3, note=52, velocity=0, time=80),\n",
      "    Message('note_on', channel=3, note=44, velocity=0, time=0),\n",
      "    Message('note_on', channel=3, note=44, velocity=79, time=40),\n",
      "    Message('note_on', channel=3, note=52, velocity=79, time=0),\n",
      "    Message('note_on', channel=3, note=52, velocity=0, time=80),\n",
      "    Message('note_on', channel=3, note=44, velocity=0, time=0),\n",
      "    Message('note_on', channel=3, note=44, velocity=79, time=40),\n",
      "    Message('note_on', channel=3, note=52, velocity=79, time=0),\n",
      "    Message('note_on', channel=3, note=52, velocity=0, time=80),\n",
      "    Message('note_on', channel=3, note=44, velocity=0, time=0),\n",
      "    Message('note_on', channel=3, note=44, velocity=79, time=40),\n",
      "    Message('note_on', channel=3, note=52, velocity=79, time=0),\n",
      "    Message('note_on', channel=3, note=52, velocity=0, time=80),\n",
      "    Message('note_on', channel=3, note=44, velocity=0, time=0),\n",
      "    Message('note_on', channel=3, note=42, velocity=79, time=40),\n",
      "    Message('note_on', channel=3, note=49, velocity=79, time=0),\n",
      "    Message('note_on', channel=3, note=49, velocity=0, time=80),\n",
      "    Message('note_on', channel=3, note=42, velocity=0, time=0),\n",
      "    Message('note_on', channel=3, note=42, velocity=79, time=40),\n",
      "    Message('note_on', channel=3, note=49, velocity=79, time=0),\n",
      "    Message('note_on', channel=3, note=49, velocity=0, time=80),\n",
      "    Message('note_on', channel=3, note=42, velocity=0, time=0),\n",
      "    Message('note_on', channel=3, note=42, velocity=79, time=40),\n",
      "    Message('note_on', channel=3, note=49, velocity=79, time=0),\n",
      "    Message('note_on', channel=3, note=49, velocity=0, time=80),\n",
      "    Message('note_on', channel=3, note=42, velocity=0, time=0),\n",
      "    Message('note_on', channel=3, note=42, velocity=79, time=40),\n",
      "    Message('note_on', channel=3, note=49, velocity=79, time=0),\n",
      "    Message('note_on', channel=3, note=49, velocity=0, time=80),\n",
      "    Message('note_on', channel=3, note=42, velocity=0, time=0),\n",
      "    Message('note_on', channel=3, note=42, velocity=79, time=40),\n",
      "    Message('note_on', channel=3, note=49, velocity=79, time=0),\n",
      "    Message('note_on', channel=3, note=49, velocity=0, time=80),\n",
      "    Message('note_on', channel=3, note=42, velocity=0, time=0),\n",
      "    Message('note_on', channel=3, note=42, velocity=79, time=40),\n",
      "    Message('note_on', channel=3, note=49, velocity=79, time=0),\n",
      "    Message('note_on', channel=3, note=49, velocity=0, time=80),\n",
      "    Message('note_on', channel=3, note=42, velocity=0, time=0),\n",
      "    Message('note_on', channel=3, note=42, velocity=79, time=40),\n",
      "    Message('note_on', channel=3, note=49, velocity=79, time=0),\n",
      "    Message('note_on', channel=3, note=49, velocity=0, time=80),\n",
      "    Message('note_on', channel=3, note=42, velocity=0, time=0),\n",
      "    Message('note_on', channel=3, note=42, velocity=79, time=40),\n",
      "    Message('note_on', channel=3, note=49, velocity=79, time=0),\n",
      "    Message('note_on', channel=3, note=49, velocity=0, time=80),\n",
      "    Message('note_on', channel=3, note=42, velocity=0, time=0),\n",
      "    Message('note_on', channel=3, note=49, velocity=79, time=40),\n",
      "    Message('note_on', channel=3, note=56, velocity=79, time=0),\n",
      "    Message('note_on', channel=3, note=56, velocity=0, time=80),\n",
      "    Message('note_on', channel=3, note=49, velocity=0, time=0),\n",
      "    Message('control_change', channel=3, control=7, value=96, time=40),\n",
      "    Message('note_on', channel=3, note=49, velocity=79, time=0),\n",
      "    Message('note_on', channel=3, note=56, velocity=79, time=0),\n",
      "    Message('note_on', channel=3, note=56, velocity=0, time=80),\n",
      "    Message('note_on', channel=3, note=49, velocity=0, time=0),\n",
      "    Message('control_change', channel=3, control=7, value=95, time=40),\n",
      "    Message('note_on', channel=3, note=49, velocity=79, time=0),\n",
      "    Message('note_on', channel=3, note=56, velocity=79, time=0),\n",
      "    Message('note_on', channel=3, note=56, velocity=0, time=80),\n",
      "    Message('note_on', channel=3, note=49, velocity=0, time=0),\n",
      "    Message('control_change', channel=3, control=7, value=94, time=10),\n",
      "    Message('note_on', channel=3, note=49, velocity=79, time=30),\n",
      "    Message('note_on', channel=3, note=56, velocity=79, time=0),\n",
      "    Message('control_change', channel=3, control=7, value=93, time=60),\n",
      "    Message('note_on', channel=3, note=56, velocity=0, time=20),\n",
      "    Message('note_on', channel=3, note=49, velocity=0, time=0),\n",
      "    Message('note_on', channel=3, note=49, velocity=79, time=40),\n",
      "    Message('note_on', channel=3, note=56, velocity=79, time=0),\n",
      "    Message('control_change', channel=3, control=7, value=92, time=60),\n",
      "    Message('note_on', channel=3, note=56, velocity=0, time=20),\n",
      "    Message('note_on', channel=3, note=49, velocity=0, time=0),\n",
      "    Message('note_on', channel=3, note=40, velocity=79, time=40),\n",
      "    Message('note_on', channel=3, note=52, velocity=79, time=0),\n",
      "    Message('control_change', channel=3, control=7, value=91, time=30),\n",
      "    Message('note_on', channel=3, note=52, velocity=0, time=50),\n",
      "    Message('note_on', channel=3, note=40, velocity=0, time=0),\n",
      "    Message('control_change', channel=3, control=7, value=90, time=40),\n",
      "    Message('note_on', channel=3, note=40, velocity=79, time=0),\n",
      "    Message('note_on', channel=3, note=52, velocity=79, time=0),\n",
      "    Message('note_on', channel=3, note=52, velocity=0, time=80),\n",
      "    Message('note_on', channel=3, note=40, velocity=0, time=0),\n",
      "    Message('control_change', channel=3, control=7, value=89, time=40),\n",
      "    Message('note_on', channel=3, note=40, velocity=79, time=0),\n",
      "    Message('note_on', channel=3, note=52, velocity=79, time=0),\n",
      "    Message('note_on', channel=3, note=52, velocity=0, time=80),\n",
      "    Message('note_on', channel=3, note=40, velocity=0, time=0),\n",
      "    Message('control_change', channel=3, control=7, value=88, time=10),\n",
      "    Message('note_on', channel=3, note=45, velocity=79, time=30),\n",
      "    Message('note_on', channel=3, note=52, velocity=79, time=0),\n",
      "    Message('control_change', channel=3, control=7, value=87, time=60),\n",
      "    Message('note_on', channel=3, note=52, velocity=0, time=20),\n",
      "    Message('note_on', channel=3, note=45, velocity=0, time=0),\n",
      "    Message('note_on', channel=3, note=45, velocity=79, time=40),\n",
      "    Message('note_on', channel=3, note=52, velocity=79, time=0),\n",
      "    Message('control_change', channel=3, control=7, value=86, time=60),\n",
      "    Message('note_on', channel=3, note=52, velocity=0, time=20),\n",
      "    Message('note_on', channel=3, note=45, velocity=0, time=0),\n",
      "    Message('note_on', channel=3, note=45, velocity=79, time=40),\n",
      "    Message('note_on', channel=3, note=52, velocity=79, time=0),\n",
      "    Message('control_change', channel=3, control=7, value=85, time=30),\n",
      "    Message('note_on', channel=3, note=52, velocity=0, time=50),\n",
      "    Message('note_on', channel=3, note=45, velocity=0, time=0),\n",
      "    Message('control_change', channel=3, control=7, value=84, time=40),\n",
      "    Message('note_on', channel=3, note=45, velocity=79, time=0),\n",
      "    Message('note_on', channel=3, note=52, velocity=79, time=0),\n",
      "    Message('note_on', channel=3, note=52, velocity=0, time=80),\n",
      "    Message('note_on', channel=3, note=45, velocity=0, time=0),\n",
      "    Message('control_change', channel=3, control=7, value=83, time=40),\n",
      "    Message('note_on', channel=3, note=45, velocity=79, time=0),\n",
      "    Message('note_on', channel=3, note=52, velocity=79, time=0),\n",
      "    Message('note_on', channel=3, note=52, velocity=0, time=80),\n",
      "    Message('note_on', channel=3, note=45, velocity=0, time=0),\n",
      "    Message('control_change', channel=3, control=7, value=82, time=10),\n",
      "    Message('note_on', channel=3, note=45, velocity=79, time=30),\n",
      "    Message('note_on', channel=3, note=52, velocity=79, time=0),\n",
      "    Message('control_change', channel=3, control=7, value=81, time=60),\n",
      "    Message('note_on', channel=3, note=52, velocity=0, time=20),\n",
      "    Message('note_on', channel=3, note=45, velocity=0, time=0),\n",
      "    Message('note_on', channel=3, note=45, velocity=79, time=40),\n",
      "    Message('note_on', channel=3, note=52, velocity=79, time=0),\n",
      "    Message('control_change', channel=3, control=7, value=80, time=60),\n",
      "    Message('note_on', channel=3, note=52, velocity=0, time=20),\n",
      "    Message('note_on', channel=3, note=45, velocity=0, time=0),\n",
      "    Message('note_on', channel=3, note=45, velocity=79, time=40),\n",
      "    Message('note_on', channel=3, note=52, velocity=79, time=0),\n",
      "    Message('control_change', channel=3, control=7, value=79, time=30),\n",
      "    Message('note_on', channel=3, note=52, velocity=0, time=50),\n",
      "    Message('note_on', channel=3, note=45, velocity=0, time=0),\n",
      "    Message('control_change', channel=3, control=7, value=78, time=40),\n",
      "    Message('note_on', channel=3, note=44, velocity=79, time=0),\n",
      "    Message('note_on', channel=3, note=52, velocity=79, time=0),\n",
      "    Message('note_on', channel=3, note=52, velocity=0, time=80),\n",
      "    Message('note_on', channel=3, note=44, velocity=0, time=0),\n",
      "    Message('control_change', channel=3, control=7, value=77, time=40),\n",
      "    Message('note_on', channel=3, note=44, velocity=79, time=0),\n",
      "    Message('note_on', channel=3, note=52, velocity=79, time=0),\n",
      "    Message('note_on', channel=3, note=52, velocity=0, time=80),\n",
      "    Message('note_on', channel=3, note=44, velocity=0, time=0),\n",
      "    Message('control_change', channel=3, control=7, value=76, time=10),\n",
      "    Message('note_on', channel=3, note=44, velocity=79, time=30),\n",
      "    Message('note_on', channel=3, note=52, velocity=79, time=0),\n",
      "    Message('control_change', channel=3, control=7, value=75, time=60),\n",
      "    Message('note_on', channel=3, note=52, velocity=0, time=20),\n",
      "    Message('note_on', channel=3, note=44, velocity=0, time=0),\n",
      "    Message('note_on', channel=3, note=44, velocity=79, time=40),\n",
      "    Message('note_on', channel=3, note=52, velocity=79, time=0),\n",
      "    Message('control_change', channel=3, control=7, value=74, time=60),\n",
      "    Message('note_on', channel=3, note=52, velocity=0, time=20),\n",
      "    Message('note_on', channel=3, note=44, velocity=0, time=0),\n",
      "    Message('note_on', channel=3, note=44, velocity=79, time=40),\n",
      "    Message('note_on', channel=3, note=52, velocity=79, time=0),\n",
      "    Message('control_change', channel=3, control=7, value=73, time=30),\n",
      "    Message('note_on', channel=3, note=52, velocity=0, time=50),\n",
      "    Message('note_on', channel=3, note=44, velocity=0, time=0),\n",
      "    Message('control_change', channel=3, control=7, value=72, time=40),\n",
      "    Message('note_on', channel=3, note=44, velocity=79, time=0),\n",
      "    Message('note_on', channel=3, note=52, velocity=79, time=0),\n",
      "    Message('note_on', channel=3, note=52, velocity=0, time=80),\n",
      "    Message('note_on', channel=3, note=44, velocity=0, time=0),\n",
      "    Message('control_change', channel=3, control=7, value=71, time=40),\n",
      "    Message('note_on', channel=3, note=44, velocity=79, time=0),\n",
      "    Message('note_on', channel=3, note=52, velocity=79, time=0),\n",
      "    Message('note_on', channel=3, note=52, velocity=0, time=80),\n",
      "    Message('note_on', channel=3, note=44, velocity=0, time=0),\n",
      "    Message('control_change', channel=3, control=7, value=70, time=10),\n",
      "    Message('note_on', channel=3, note=44, velocity=79, time=30),\n",
      "    Message('note_on', channel=3, note=52, velocity=79, time=0),\n",
      "    Message('control_change', channel=3, control=7, value=69, time=60),\n",
      "    Message('note_on', channel=3, note=52, velocity=0, time=20),\n",
      "    Message('note_on', channel=3, note=44, velocity=0, time=0),\n",
      "    Message('note_on', channel=3, note=42, velocity=79, time=40),\n",
      "    Message('note_on', channel=3, note=49, velocity=79, time=0),\n",
      "    Message('control_change', channel=3, control=7, value=68, time=60),\n",
      "    Message('note_on', channel=3, note=49, velocity=0, time=20),\n",
      "    Message('note_on', channel=3, note=42, velocity=0, time=0),\n",
      "    Message('note_on', channel=3, note=42, velocity=79, time=40),\n",
      "    Message('note_on', channel=3, note=49, velocity=79, time=0),\n",
      "    Message('control_change', channel=3, control=7, value=67, time=30),\n",
      "    Message('note_on', channel=3, note=49, velocity=0, time=50),\n",
      "    Message('note_on', channel=3, note=42, velocity=0, time=0),\n",
      "    Message('control_change', channel=3, control=7, value=66, time=40),\n",
      "    Message('note_on', channel=3, note=42, velocity=79, time=0),\n",
      "    Message('note_on', channel=3, note=49, velocity=79, time=0),\n",
      "    Message('note_on', channel=3, note=49, velocity=0, time=80),\n",
      "    Message('note_on', channel=3, note=42, velocity=0, time=0),\n",
      "    Message('control_change', channel=3, control=7, value=65, time=40),\n",
      "    Message('note_on', channel=3, note=42, velocity=79, time=0),\n",
      "    Message('note_on', channel=3, note=49, velocity=79, time=0),\n",
      "    Message('note_on', channel=3, note=49, velocity=0, time=80),\n",
      "    Message('note_on', channel=3, note=42, velocity=0, time=0),\n",
      "    Message('control_change', channel=3, control=7, value=64, time=10),\n",
      "    Message('note_on', channel=3, note=42, velocity=79, time=30),\n",
      "    Message('note_on', channel=3, note=49, velocity=79, time=0),\n",
      "    Message('control_change', channel=3, control=7, value=63, time=60),\n",
      "    Message('note_on', channel=3, note=49, velocity=0, time=20),\n",
      "    Message('note_on', channel=3, note=42, velocity=0, time=0),\n",
      "    Message('note_on', channel=3, note=42, velocity=79, time=40),\n",
      "    Message('note_on', channel=3, note=49, velocity=79, time=0),\n",
      "    Message('control_change', channel=3, control=7, value=62, time=60),\n",
      "    Message('note_on', channel=3, note=49, velocity=0, time=20),\n",
      "    Message('note_on', channel=3, note=42, velocity=0, time=0),\n",
      "    Message('note_on', channel=3, note=42, velocity=79, time=40),\n",
      "    Message('note_on', channel=3, note=49, velocity=79, time=0),\n",
      "    Message('control_change', channel=3, control=7, value=61, time=30),\n",
      "    Message('note_on', channel=3, note=49, velocity=0, time=50),\n",
      "    Message('note_on', channel=3, note=42, velocity=0, time=0),\n",
      "    Message('control_change', channel=3, control=7, value=60, time=40),\n",
      "    Message('note_on', channel=3, note=42, velocity=79, time=0),\n",
      "    Message('note_on', channel=3, note=49, velocity=79, time=0),\n",
      "    Message('note_on', channel=3, note=49, velocity=0, time=80),\n",
      "    Message('note_on', channel=3, note=42, velocity=0, time=0),\n",
      "    Message('control_change', channel=3, control=7, value=59, time=40),\n",
      "    Message('note_on', channel=3, note=49, velocity=79, time=0),\n",
      "    Message('note_on', channel=3, note=49, velocity=0, time=80),\n",
      "    Message('control_change', channel=3, control=7, value=58, time=10),\n",
      "    Message('note_on', channel=3, note=49, velocity=79, time=30),\n",
      "    Message('control_change', channel=3, control=7, value=57, time=60),\n",
      "    Message('note_on', channel=3, note=49, velocity=0, time=20),\n",
      "    Message('note_on', channel=3, note=49, velocity=79, time=40),\n",
      "    Message('control_change', channel=3, control=7, value=56, time=60),\n",
      "    Message('note_on', channel=3, note=49, velocity=0, time=20),\n",
      "    Message('note_on', channel=3, note=49, velocity=79, time=40),\n",
      "    Message('control_change', channel=3, control=7, value=55, time=30),\n",
      "    Message('note_on', channel=3, note=49, velocity=0, time=50),\n",
      "    Message('control_change', channel=3, control=7, value=54, time=40),\n",
      "    Message('note_on', channel=3, note=49, velocity=79, time=0),\n",
      "    Message('note_on', channel=3, note=49, velocity=0, time=80),\n",
      "    Message('control_change', channel=3, control=7, value=53, time=40),\n",
      "    Message('note_on', channel=3, note=40, velocity=79, time=0),\n",
      "    Message('note_on', channel=3, note=52, velocity=79, time=0),\n",
      "    Message('note_on', channel=3, note=52, velocity=0, time=80),\n",
      "    Message('note_on', channel=3, note=40, velocity=0, time=0),\n",
      "    Message('control_change', channel=3, control=7, value=52, time=10),\n",
      "    Message('note_on', channel=3, note=40, velocity=79, time=30),\n",
      "    Message('note_on', channel=3, note=52, velocity=79, time=0),\n",
      "    Message('control_change', channel=3, control=7, value=51, time=60),\n",
      "    Message('note_on', channel=3, note=52, velocity=0, time=20),\n",
      "    Message('note_on', channel=3, note=40, velocity=0, time=0),\n",
      "    Message('note_on', channel=3, note=40, velocity=79, time=40),\n",
      "    Message('note_on', channel=3, note=52, velocity=79, time=0),\n",
      "    Message('control_change', channel=3, control=7, value=50, time=60),\n",
      "    Message('note_on', channel=3, note=52, velocity=0, time=20),\n",
      "    Message('note_on', channel=3, note=40, velocity=0, time=0),\n",
      "    Message('note_on', channel=3, note=45, velocity=79, time=40),\n",
      "    Message('note_on', channel=3, note=52, velocity=79, time=0),\n",
      "    Message('control_change', channel=3, control=7, value=49, time=30),\n",
      "    Message('note_on', channel=3, note=52, velocity=0, time=50),\n",
      "    Message('note_on', channel=3, note=45, velocity=0, time=0),\n",
      "    Message('control_change', channel=3, control=7, value=48, time=40),\n",
      "    Message('note_on', channel=3, note=45, velocity=79, time=0),\n",
      "    Message('note_on', channel=3, note=52, velocity=79, time=0),\n",
      "    Message('note_on', channel=3, note=52, velocity=0, time=80),\n",
      "    Message('note_on', channel=3, note=45, velocity=0, time=0),\n",
      "    Message('control_change', channel=3, control=7, value=47, time=40),\n",
      "    Message('note_on', channel=3, note=45, velocity=79, time=0),\n",
      "    Message('note_on', channel=3, note=52, velocity=79, time=0),\n",
      "    Message('note_on', channel=3, note=52, velocity=0, time=80),\n",
      "    Message('note_on', channel=3, note=45, velocity=0, time=0),\n",
      "    Message('control_change', channel=3, control=7, value=46, time=10),\n",
      "    Message('note_on', channel=3, note=45, velocity=79, time=30),\n",
      "    Message('note_on', channel=3, note=52, velocity=79, time=0),\n",
      "    Message('control_change', channel=3, control=7, value=45, time=60),\n",
      "    Message('note_on', channel=3, note=52, velocity=0, time=20),\n",
      "    Message('note_on', channel=3, note=45, velocity=0, time=0),\n",
      "    Message('note_on', channel=3, note=45, velocity=79, time=40),\n",
      "    Message('note_on', channel=3, note=52, velocity=79, time=0),\n",
      "    Message('control_change', channel=3, control=7, value=44, time=60),\n",
      "    Message('note_on', channel=3, note=52, velocity=0, time=20),\n",
      "    Message('note_on', channel=3, note=45, velocity=0, time=0),\n",
      "    Message('note_on', channel=3, note=45, velocity=79, time=40),\n",
      "    Message('note_on', channel=3, note=52, velocity=79, time=0),\n",
      "    Message('control_change', channel=3, control=7, value=43, time=30),\n",
      "    Message('note_on', channel=3, note=52, velocity=0, time=50),\n",
      "    Message('note_on', channel=3, note=45, velocity=0, time=0),\n",
      "    Message('control_change', channel=3, control=7, value=42, time=40),\n",
      "    Message('note_on', channel=3, note=45, velocity=79, time=0),\n",
      "    Message('note_on', channel=3, note=52, velocity=79, time=0),\n",
      "    Message('note_on', channel=3, note=52, velocity=0, time=80),\n",
      "    Message('note_on', channel=3, note=45, velocity=0, time=0),\n",
      "    Message('control_change', channel=3, control=7, value=41, time=40),\n",
      "    Message('note_on', channel=3, note=45, velocity=79, time=0),\n",
      "    Message('note_on', channel=3, note=52, velocity=79, time=0),\n",
      "    Message('note_on', channel=3, note=52, velocity=0, time=80),\n",
      "    Message('note_on', channel=3, note=45, velocity=0, time=0),\n",
      "    Message('control_change', channel=3, control=7, value=40, time=10),\n",
      "    Message('note_on', channel=3, note=44, velocity=79, time=30),\n",
      "    Message('note_on', channel=3, note=52, velocity=79, time=0),\n",
      "    Message('control_change', channel=3, control=7, value=39, time=60),\n",
      "    Message('note_on', channel=3, note=52, velocity=0, time=20),\n",
      "    Message('note_on', channel=3, note=44, velocity=0, time=0),\n",
      "    Message('note_on', channel=3, note=44, velocity=79, time=40),\n",
      "    Message('note_on', channel=3, note=52, velocity=79, time=0),\n",
      "    Message('control_change', channel=3, control=7, value=38, time=60),\n",
      "    Message('note_on', channel=3, note=52, velocity=0, time=20),\n",
      "    Message('note_on', channel=3, note=44, velocity=0, time=0),\n",
      "    Message('note_on', channel=3, note=44, velocity=79, time=40),\n",
      "    Message('note_on', channel=3, note=52, velocity=79, time=0),\n",
      "    Message('control_change', channel=3, control=7, value=37, time=30),\n",
      "    Message('note_on', channel=3, note=52, velocity=0, time=50),\n",
      "    Message('note_on', channel=3, note=44, velocity=0, time=0),\n",
      "    Message('control_change', channel=3, control=7, value=36, time=40),\n",
      "    Message('note_on', channel=3, note=44, velocity=79, time=0),\n",
      "    Message('note_on', channel=3, note=52, velocity=79, time=0),\n",
      "    Message('note_on', channel=3, note=52, velocity=0, time=80),\n",
      "    Message('note_on', channel=3, note=44, velocity=0, time=0),\n",
      "    Message('control_change', channel=3, control=7, value=35, time=40),\n",
      "    Message('note_on', channel=3, note=44, velocity=79, time=0),\n",
      "    Message('note_on', channel=3, note=52, velocity=79, time=0),\n",
      "    Message('note_on', channel=3, note=52, velocity=0, time=80),\n",
      "    Message('note_on', channel=3, note=44, velocity=0, time=0),\n",
      "    Message('control_change', channel=3, control=7, value=34, time=10),\n",
      "    Message('note_on', channel=3, note=44, velocity=79, time=30),\n",
      "    Message('note_on', channel=3, note=52, velocity=79, time=0),\n",
      "    Message('control_change', channel=3, control=7, value=33, time=60),\n",
      "    Message('note_on', channel=3, note=52, velocity=0, time=20),\n",
      "    Message('note_on', channel=3, note=44, velocity=0, time=0),\n",
      "    Message('note_on', channel=3, note=44, velocity=79, time=40),\n",
      "    Message('note_on', channel=3, note=52, velocity=79, time=0),\n",
      "    Message('control_change', channel=3, control=7, value=32, time=60),\n",
      "    Message('note_on', channel=3, note=52, velocity=0, time=20),\n",
      "    Message('note_on', channel=3, note=44, velocity=0, time=0),\n",
      "    Message('note_on', channel=3, note=44, velocity=79, time=40),\n",
      "    Message('note_on', channel=3, note=52, velocity=79, time=0),\n",
      "    Message('control_change', channel=3, control=7, value=31, time=30),\n",
      "    Message('note_on', channel=3, note=52, velocity=0, time=50),\n",
      "    Message('note_on', channel=3, note=44, velocity=0, time=0),\n",
      "    Message('control_change', channel=3, control=7, value=30, time=40),\n",
      "    Message('note_on', channel=3, note=42, velocity=79, time=0),\n",
      "    Message('note_on', channel=3, note=49, velocity=79, time=0),\n",
      "    Message('note_on', channel=3, note=49, velocity=0, time=80),\n",
      "    Message('note_on', channel=3, note=42, velocity=0, time=0),\n",
      "    Message('control_change', channel=3, control=7, value=29, time=40),\n",
      "    Message('note_on', channel=3, note=42, velocity=79, time=0),\n",
      "    Message('note_on', channel=3, note=49, velocity=79, time=0),\n",
      "    Message('note_on', channel=3, note=49, velocity=0, time=80),\n",
      "    Message('note_on', channel=3, note=42, velocity=0, time=0),\n",
      "    Message('control_change', channel=3, control=7, value=28, time=10),\n",
      "    Message('note_on', channel=3, note=42, velocity=79, time=30),\n",
      "    Message('note_on', channel=3, note=49, velocity=79, time=0),\n",
      "    Message('control_change', channel=3, control=7, value=27, time=60),\n",
      "    Message('note_on', channel=3, note=49, velocity=0, time=20),\n",
      "    Message('note_on', channel=3, note=42, velocity=0, time=0),\n",
      "    Message('note_on', channel=3, note=42, velocity=79, time=40),\n",
      "    Message('note_on', channel=3, note=49, velocity=79, time=0),\n",
      "    Message('control_change', channel=3, control=7, value=26, time=60),\n",
      "    Message('note_on', channel=3, note=49, velocity=0, time=20),\n",
      "    Message('note_on', channel=3, note=42, velocity=0, time=0),\n",
      "    Message('note_on', channel=3, note=45, velocity=79, time=40),\n",
      "    Message('control_change', channel=3, control=7, value=25, time=30),\n",
      "    Message('note_on', channel=3, note=45, velocity=0, time=50),\n",
      "    Message('control_change', channel=3, control=7, value=24, time=40),\n",
      "    Message('note_on', channel=3, note=44, velocity=79, time=0),\n",
      "    Message('note_on', channel=3, note=44, velocity=0, time=80),\n",
      "    Message('control_change', channel=3, control=7, value=23, time=40),\n",
      "    Message('note_on', channel=3, note=44, velocity=79, time=0),\n",
      "    Message('note_on', channel=3, note=44, velocity=0, time=80),\n",
      "    Message('control_change', channel=3, control=7, value=22, time=10),\n",
      "    Message('note_on', channel=3, note=44, velocity=79, time=30),\n",
      "    Message('control_change', channel=3, control=7, value=21, time=60),\n",
      "    Message('note_on', channel=3, note=44, velocity=0, time=20),\n",
      "    Message('note_on', channel=3, note=45, velocity=79, time=40),\n",
      "    Message('note_on', channel=3, note=52, velocity=79, time=0),\n",
      "    Message('control_change', channel=3, control=7, value=20, time=60),\n",
      "    Message('note_on', channel=3, note=52, velocity=0, time=20),\n",
      "    Message('note_on', channel=3, note=45, velocity=0, time=0),\n",
      "    Message('note_on', channel=3, note=45, velocity=79, time=40),\n",
      "    Message('note_on', channel=3, note=52, velocity=79, time=0),\n",
      "    Message('control_change', channel=3, control=7, value=19, time=30),\n",
      "    Message('note_on', channel=3, note=52, velocity=0, time=50),\n",
      "    Message('note_on', channel=3, note=45, velocity=0, time=0),\n",
      "    Message('control_change', channel=3, control=7, value=18, time=40),\n",
      "    Message('note_on', channel=3, note=45, velocity=79, time=0),\n",
      "    Message('note_on', channel=3, note=52, velocity=79, time=0),\n",
      "    Message('note_on', channel=3, note=52, velocity=0, time=80),\n",
      "    Message('note_on', channel=3, note=45, velocity=0, time=0),\n",
      "    Message('control_change', channel=3, control=7, value=17, time=40),\n",
      "    Message('note_on', channel=3, note=45, velocity=79, time=0),\n",
      "    Message('note_on', channel=3, note=52, velocity=79, time=0),\n",
      "    Message('note_on', channel=3, note=52, velocity=0, time=80),\n",
      "    Message('note_on', channel=3, note=45, velocity=0, time=0),\n",
      "    Message('control_change', channel=3, control=7, value=16, time=10),\n",
      "    Message('note_on', channel=3, note=46, velocity=79, time=30),\n",
      "    Message('control_change', channel=3, control=7, value=15, time=60),\n",
      "    Message('note_on', channel=3, note=46, velocity=0, time=20),\n",
      "    Message('note_on', channel=3, note=46, velocity=79, time=40),\n",
      "    Message('control_change', channel=3, control=7, value=14, time=60),\n",
      "    Message('note_on', channel=3, note=46, velocity=0, time=20),\n",
      "    Message('note_on', channel=3, note=46, velocity=79, time=40),\n",
      "    Message('control_change', channel=3, control=7, value=13, time=30),\n",
      "    Message('note_on', channel=3, note=46, velocity=0, time=50),\n",
      "    Message('control_change', channel=3, control=7, value=12, time=40),\n",
      "    Message('note_on', channel=3, note=46, velocity=79, time=0),\n",
      "    Message('note_on', channel=3, note=46, velocity=0, time=80),\n",
      "    Message('control_change', channel=3, control=7, value=11, time=40),\n",
      "    Message('note_on', channel=3, note=35, velocity=79, time=0),\n",
      "    Message('note_on', channel=3, note=47, velocity=79, time=0),\n",
      "    Message('note_on', channel=3, note=47, velocity=0, time=80),\n",
      "    Message('note_on', channel=3, note=35, velocity=0, time=0),\n",
      "    Message('control_change', channel=3, control=7, value=10, time=10),\n",
      "    Message('note_on', channel=3, note=35, velocity=79, time=30),\n",
      "    Message('note_on', channel=3, note=47, velocity=79, time=0),\n",
      "    Message('control_change', channel=3, control=7, value=9, time=60),\n",
      "    Message('note_on', channel=3, note=47, velocity=0, time=20),\n",
      "    Message('note_on', channel=3, note=35, velocity=0, time=0),\n",
      "    Message('note_on', channel=3, note=35, velocity=79, time=40),\n",
      "    Message('note_on', channel=3, note=47, velocity=79, time=0),\n",
      "    Message('control_change', channel=3, control=7, value=8, time=60),\n",
      "    Message('note_on', channel=3, note=47, velocity=0, time=20),\n",
      "    Message('note_on', channel=3, note=35, velocity=0, time=0),\n",
      "    Message('note_on', channel=3, note=35, velocity=79, time=40),\n",
      "    Message('note_on', channel=3, note=47, velocity=79, time=0),\n",
      "    Message('control_change', channel=3, control=7, value=7, time=30),\n",
      "    Message('note_on', channel=3, note=47, velocity=0, time=50),\n",
      "    Message('note_on', channel=3, note=35, velocity=0, time=0),\n",
      "    Message('control_change', channel=3, control=7, value=6, time=40),\n",
      "    Message('note_on', channel=3, note=35, velocity=79, time=0),\n",
      "    Message('note_on', channel=3, note=47, velocity=79, time=0),\n",
      "    Message('note_on', channel=3, note=47, velocity=0, time=80),\n",
      "    Message('note_on', channel=3, note=35, velocity=0, time=0),\n",
      "    Message('control_change', channel=3, control=7, value=5, time=40),\n",
      "    Message('note_on', channel=3, note=35, velocity=79, time=0),\n",
      "    Message('note_on', channel=3, note=47, velocity=79, time=0),\n",
      "    Message('note_on', channel=3, note=47, velocity=0, time=80),\n",
      "    Message('note_on', channel=3, note=35, velocity=0, time=0),\n",
      "    Message('control_change', channel=3, control=7, value=4, time=10),\n",
      "    Message('note_on', channel=3, note=35, velocity=79, time=30),\n",
      "    Message('note_on', channel=3, note=47, velocity=79, time=0),\n",
      "    Message('control_change', channel=3, control=7, value=3, time=60),\n",
      "    Message('note_on', channel=3, note=47, velocity=0, time=20),\n",
      "    Message('note_on', channel=3, note=35, velocity=0, time=0),\n",
      "    Message('note_on', channel=3, note=35, velocity=79, time=40),\n",
      "    Message('note_on', channel=3, note=47, velocity=79, time=0),\n",
      "    Message('control_change', channel=3, control=7, value=2, time=60),\n",
      "    Message('note_on', channel=3, note=47, velocity=0, time=20),\n",
      "    Message('note_on', channel=3, note=35, velocity=0, time=0),\n",
      "    Message('note_on', channel=3, note=35, velocity=79, time=40),\n",
      "    Message('note_on', channel=3, note=47, velocity=79, time=0),\n",
      "    Message('control_change', channel=3, control=7, value=1, time=30),\n",
      "    Message('control_change', channel=3, control=7, value=0, time=30),\n",
      "    Message('note_on', channel=3, note=47, velocity=0, time=20),\n",
      "    Message('note_on', channel=3, note=35, velocity=0, time=0),\n",
      "    MetaMessage('end_of_track', time=0)]),\n",
      "  MidiTrack([\n",
      "    MetaMessage('midi_port', port=0, time=0),\n",
      "    MetaMessage('track_name', name='SteelGtr', time=0),\n",
      "    Message('program_change', channel=4, program=25, time=0),\n",
      "    Message('control_change', channel=4, control=7, value=108, time=0),\n",
      "    Message('control_change', channel=4, control=0, value=0, time=480),\n",
      "    Message('control_change', channel=4, control=32, value=0, time=5),\n",
      "    Message('control_change', channel=4, control=1, value=0, time=10),\n",
      "    Message('control_change', channel=4, control=10, value=108, time=10),\n",
      "    Message('control_change', channel=4, control=11, value=127, time=5),\n",
      "    Message('control_change', channel=4, control=64, value=0, time=5),\n",
      "    Message('control_change', channel=4, control=91, value=64, time=5),\n",
      "    Message('control_change', channel=4, control=93, value=0, time=5),\n",
      "    Message('pitchwheel', channel=4, pitch=0, time=5),\n",
      "    Message('control_change', channel=4, control=7, value=108, time=670),\n",
      "    Message('control_change', channel=4, control=91, value=64, time=0),\n",
      "    Message('note_on', channel=4, note=64, velocity=79, time=3600),\n",
      "    Message('note_on', channel=4, note=71, velocity=79, time=0),\n",
      "    Message('note_on', channel=4, note=71, velocity=0, time=80),\n",
      "    Message('note_on', channel=4, note=64, velocity=0, time=0),\n",
      "    Message('note_on', channel=4, note=64, velocity=79, time=40),\n",
      "    Message('note_on', channel=4, note=71, velocity=79, time=0),\n",
      "    Message('note_on', channel=4, note=71, velocity=0, time=80),\n",
      "    Message('note_on', channel=4, note=64, velocity=0, time=0),\n",
      "    Message('note_on', channel=4, note=64, velocity=79, time=40),\n",
      "    Message('note_on', channel=4, note=71, velocity=79, time=0),\n",
      "    Message('note_on', channel=4, note=71, velocity=0, time=80),\n",
      "    Message('note_on', channel=4, note=64, velocity=0, time=0),\n",
      "    Message('note_on', channel=4, note=63, velocity=79, time=40),\n",
      "    Message('note_on', channel=4, note=71, velocity=79, time=0),\n",
      "    Message('note_on', channel=4, note=71, velocity=0, time=80),\n",
      "    Message('note_on', channel=4, note=63, velocity=0, time=0),\n",
      "    Message('note_on', channel=4, note=63, velocity=79, time=40),\n",
      "    Message('note_on', channel=4, note=71, velocity=79, time=0),\n",
      "    Message('note_on', channel=4, note=71, velocity=0, time=80),\n",
      "    Message('note_on', channel=4, note=63, velocity=0, time=0),\n",
      "    Message('note_on', channel=4, note=63, velocity=79, time=40),\n",
      "    Message('note_on', channel=4, note=71, velocity=79, time=0),\n",
      "    Message('note_on', channel=4, note=71, velocity=0, time=80),\n",
      "    Message('note_on', channel=4, note=63, velocity=0, time=0),\n",
      "    Message('note_on', channel=4, note=63, velocity=79, time=40),\n",
      "    Message('note_on', channel=4, note=71, velocity=79, time=0),\n",
      "    Message('note_on', channel=4, note=71, velocity=0, time=80),\n",
      "    Message('note_on', channel=4, note=63, velocity=0, time=0),\n",
      "    Message('note_on', channel=4, note=61, velocity=79, time=40),\n",
      "    Message('note_on', channel=4, note=68, velocity=79, time=0),\n",
      "    Message('note_on', channel=4, note=68, velocity=0, time=80),\n",
      "    Message('note_on', channel=4, note=61, velocity=0, time=0),\n",
      "    Message('note_on', channel=4, note=61, velocity=79, time=40),\n",
      "    Message('note_on', channel=4, note=68, velocity=79, time=0),\n",
      "    Message('note_on', channel=4, note=68, velocity=0, time=80),\n",
      "    Message('note_on', channel=4, note=61, velocity=0, time=0),\n",
      "    Message('note_on', channel=4, note=61, velocity=79, time=40),\n",
      "    Message('note_on', channel=4, note=68, velocity=79, time=0),\n",
      "    Message('note_on', channel=4, note=68, velocity=0, time=80),\n",
      "    Message('note_on', channel=4, note=61, velocity=0, time=0),\n",
      "    Message('note_on', channel=4, note=61, velocity=79, time=40),\n",
      "    Message('note_on', channel=4, note=68, velocity=79, time=0),\n",
      "    Message('note_on', channel=4, note=68, velocity=0, time=80),\n",
      "    Message('note_on', channel=4, note=61, velocity=0, time=0),\n",
      "    Message('note_on', channel=4, note=59, velocity=79, time=40),\n",
      "    Message('note_on', channel=4, note=66, velocity=79, time=0),\n",
      "    Message('note_on', channel=4, note=66, velocity=0, time=80),\n",
      "    Message('note_on', channel=4, note=59, velocity=0, time=0),\n",
      "    Message('note_on', channel=4, note=59, velocity=79, time=40),\n",
      "    Message('note_on', channel=4, note=66, velocity=79, time=0),\n",
      "    Message('note_on', channel=4, note=66, velocity=0, time=80),\n",
      "    Message('note_on', channel=4, note=59, velocity=0, time=0),\n",
      "    Message('note_on', channel=4, note=59, velocity=79, time=40),\n",
      "    Message('note_on', channel=4, note=66, velocity=79, time=0),\n",
      "    Message('note_on', channel=4, note=66, velocity=0, time=80),\n",
      "    Message('note_on', channel=4, note=59, velocity=0, time=0),\n",
      "    Message('note_on', channel=4, note=59, velocity=79, time=40),\n",
      "    Message('note_on', channel=4, note=66, velocity=79, time=0),\n",
      "    Message('note_on', channel=4, note=66, velocity=0, time=80),\n",
      "    Message('note_on', channel=4, note=59, velocity=0, time=0),\n",
      "    Message('note_on', channel=4, note=57, velocity=79, time=40),\n",
      "    Message('note_on', channel=4, note=64, velocity=79, time=0),\n",
      "    Message('note_on', channel=4, note=64, velocity=0, time=80),\n",
      "    Message('note_on', channel=4, note=57, velocity=0, time=0),\n",
      "    Message('note_on', channel=4, note=57, velocity=79, time=40),\n",
      "    Message('note_on', channel=4, note=64, velocity=79, time=0),\n",
      "    Message('note_on', channel=4, note=64, velocity=0, time=80),\n",
      "    Message('note_on', channel=4, note=57, velocity=0, time=0),\n",
      "    Message('note_on', channel=4, note=57, velocity=79, time=40),\n",
      "    Message('note_on', channel=4, note=64, velocity=79, time=0),\n",
      "    Message('note_on', channel=4, note=64, velocity=0, time=80),\n",
      "    Message('note_on', channel=4, note=57, velocity=0, time=0),\n",
      "    Message('note_on', channel=4, note=57, velocity=79, time=40),\n",
      "    Message('note_on', channel=4, note=64, velocity=79, time=0),\n",
      "    Message('note_on', channel=4, note=64, velocity=0, time=80),\n",
      "    Message('note_on', channel=4, note=57, velocity=0, time=0),\n",
      "    Message('note_on', channel=4, note=57, velocity=79, time=40),\n",
      "    Message('note_on', channel=4, note=64, velocity=79, time=0),\n",
      "    Message('note_on', channel=4, note=64, velocity=0, time=80),\n",
      "    Message('note_on', channel=4, note=57, velocity=0, time=0),\n",
      "    Message('note_on', channel=4, note=61, velocity=79, time=40),\n",
      "    Message('note_on', channel=4, note=68, velocity=79, time=0),\n",
      "    Message('note_on', channel=4, note=68, velocity=0, time=80),\n",
      "    Message('note_on', channel=4, note=61, velocity=0, time=0),\n",
      "    Message('note_on', channel=4, note=61, velocity=79, time=40),\n",
      "    Message('note_on', channel=4, note=68, velocity=79, time=0),\n",
      "    Message('note_on', channel=4, note=68, velocity=0, time=80),\n",
      "    Message('note_on', channel=4, note=61, velocity=0, time=0),\n",
      "    Message('note_on', channel=4, note=61, velocity=79, time=40),\n",
      "    Message('note_on', channel=4, note=68, velocity=79, time=0),\n",
      "    Message('note_on', channel=4, note=68, velocity=0, time=80),\n",
      "    Message('note_on', channel=4, note=61, velocity=0, time=0),\n",
      "    Message('note_on', channel=4, note=59, velocity=79, time=40),\n",
      "    Message('note_on', channel=4, note=66, velocity=79, time=0),\n",
      "    Message('note_on', channel=4, note=66, velocity=0, time=80),\n",
      "    Message('note_on', channel=4, note=59, velocity=0, time=0),\n",
      "    Message('note_on', channel=4, note=59, velocity=79, time=40),\n",
      "    Message('note_on', channel=4, note=66, velocity=79, time=0),\n",
      "    Message('note_on', channel=4, note=66, velocity=0, time=80),\n",
      "    Message('note_on', channel=4, note=59, velocity=0, time=0),\n",
      "    Message('note_on', channel=4, note=59, velocity=79, time=40),\n",
      "    Message('note_on', channel=4, note=66, velocity=79, time=0),\n",
      "    Message('note_on', channel=4, note=66, velocity=0, time=80),\n",
      "    Message('note_on', channel=4, note=59, velocity=0, time=0),\n",
      "    Message('note_on', channel=4, note=59, velocity=79, time=40),\n",
      "    Message('note_on', channel=4, note=66, velocity=79, time=0),\n",
      "    Message('note_on', channel=4, note=66, velocity=0, time=80),\n",
      "    Message('note_on', channel=4, note=59, velocity=0, time=0),\n",
      "    Message('note_on', channel=4, note=59, velocity=79, time=40),\n",
      "    Message('note_on', channel=4, note=66, velocity=79, time=0),\n",
      "    Message('note_on', channel=4, note=66, velocity=0, time=80),\n",
      "    Message('note_on', channel=4, note=59, velocity=0, time=0),\n",
      "    Message('note_on', channel=4, note=59, velocity=79, time=40),\n",
      "    Message('note_on', channel=4, note=66, velocity=79, time=0),\n",
      "    Message('note_on', channel=4, note=66, velocity=0, time=80),\n",
      "    Message('note_on', channel=4, note=59, velocity=0, time=0),\n",
      "    Message('note_on', channel=4, note=59, velocity=79, time=40),\n",
      "    Message('note_on', channel=4, note=66, velocity=79, time=0),\n",
      "    Message('note_on', channel=4, note=66, velocity=0, time=80),\n",
      "    Message('note_on', channel=4, note=59, velocity=0, time=0),\n",
      "    Message('note_on', channel=4, note=59, velocity=79, time=40),\n",
      "    Message('note_on', channel=4, note=66, velocity=79, time=0),\n",
      "    Message('note_on', channel=4, note=66, velocity=0, time=80),\n",
      "    Message('note_on', channel=4, note=59, velocity=0, time=0),\n",
      "    Message('note_on', channel=4, note=59, velocity=79, time=40),\n",
      "    Message('note_on', channel=4, note=66, velocity=79, time=0),\n",
      "    Message('note_on', channel=4, note=66, velocity=0, time=80),\n",
      "    Message('note_on', channel=4, note=59, velocity=0, time=0),\n",
      "    Message('note_on', channel=4, note=64, velocity=79, time=40),\n",
      "    Message('note_on', channel=4, note=71, velocity=79, time=0),\n",
      "    Message('note_on', channel=4, note=71, velocity=0, time=80),\n",
      "    Message('note_on', channel=4, note=64, velocity=0, time=0),\n",
      "    Message('note_on', channel=4, note=64, velocity=79, time=40),\n",
      "    Message('note_on', channel=4, note=71, velocity=79, time=0),\n",
      "    Message('note_on', channel=4, note=71, velocity=0, time=80),\n",
      "    Message('note_on', channel=4, note=64, velocity=0, time=0),\n",
      "    Message('note_on', channel=4, note=64, velocity=79, time=40),\n",
      "    Message('note_on', channel=4, note=71, velocity=79, time=0),\n",
      "    Message('note_on', channel=4, note=71, velocity=0, time=80),\n",
      "    Message('note_on', channel=4, note=64, velocity=0, time=0),\n",
      "    Message('note_on', channel=4, note=63, velocity=79, time=40),\n",
      "    Message('note_on', channel=4, note=71, velocity=79, time=0),\n",
      "    Message('note_on', channel=4, note=71, velocity=0, time=80),\n",
      "    Message('note_on', channel=4, note=63, velocity=0, time=0),\n",
      "    Message('note_on', channel=4, note=63, velocity=79, time=40),\n",
      "    Message('note_on', channel=4, note=71, velocity=79, time=0),\n",
      "    Message('note_on', channel=4, note=71, velocity=0, time=80),\n",
      "    Message('note_on', channel=4, note=63, velocity=0, time=0),\n",
      "    Message('note_on', channel=4, note=63, velocity=79, time=40),\n",
      "    Message('note_on', channel=4, note=71, velocity=79, time=0),\n",
      "    Message('note_on', channel=4, note=71, velocity=0, time=80),\n",
      "    Message('note_on', channel=4, note=63, velocity=0, time=0),\n",
      "    Message('note_on', channel=4, note=63, velocity=79, time=40),\n",
      "    Message('note_on', channel=4, note=71, velocity=79, time=0),\n",
      "    Message('note_on', channel=4, note=71, velocity=0, time=80),\n",
      "    Message('note_on', channel=4, note=63, velocity=0, time=0),\n",
      "    Message('note_on', channel=4, note=61, velocity=79, time=40),\n",
      "    Message('note_on', channel=4, note=68, velocity=79, time=0),\n",
      "    Message('note_on', channel=4, note=68, velocity=0, time=80),\n",
      "    Message('note_on', channel=4, note=61, velocity=0, time=0),\n",
      "    Message('note_on', channel=4, note=61, velocity=79, time=40),\n",
      "    Message('note_on', channel=4, note=68, velocity=79, time=0),\n",
      "    Message('note_on', channel=4, note=68, velocity=0, time=80),\n",
      "    Message('note_on', channel=4, note=61, velocity=0, time=0),\n",
      "    Message('note_on', channel=4, note=61, velocity=79, time=40),\n",
      "    Message('note_on', channel=4, note=68, velocity=79, time=0),\n",
      "    Message('note_on', channel=4, note=68, velocity=0, time=80),\n",
      "    Message('note_on', channel=4, note=61, velocity=0, time=0),\n",
      "    Message('note_on', channel=4, note=61, velocity=79, time=40),\n",
      "    Message('note_on', channel=4, note=68, velocity=79, time=0),\n",
      "    Message('note_on', channel=4, note=68, velocity=0, time=80),\n",
      "    Message('note_on', channel=4, note=61, velocity=0, time=0),\n",
      "    Message('note_on', channel=4, note=59, velocity=79, time=40),\n",
      "    Message('note_on', channel=4, note=66, velocity=79, time=0),\n",
      "    Message('note_on', channel=4, note=66, velocity=0, time=80),\n",
      "    Message('note_on', channel=4, note=59, velocity=0, time=0),\n",
      "    Message('note_on', channel=4, note=59, velocity=79, time=40),\n",
      "    Message('note_on', channel=4, note=66, velocity=79, time=0),\n",
      "    Message('note_on', channel=4, note=66, velocity=0, time=80),\n",
      "    Message('note_on', channel=4, note=59, velocity=0, time=0),\n",
      "    Message('note_on', channel=4, note=59, velocity=79, time=40),\n",
      "    Message('note_on', channel=4, note=66, velocity=79, time=0),\n",
      "    Message('note_on', channel=4, note=66, velocity=0, time=80),\n",
      "    Message('note_on', channel=4, note=59, velocity=0, time=0),\n",
      "    Message('note_on', channel=4, note=59, velocity=79, time=40),\n",
      "    Message('note_on', channel=4, note=66, velocity=79, time=0),\n",
      "    Message('note_on', channel=4, note=66, velocity=0, time=80),\n",
      "    Message('note_on', channel=4, note=59, velocity=0, time=0),\n",
      "    Message('note_on', channel=4, note=57, velocity=79, time=40),\n",
      "    Message('note_on', channel=4, note=64, velocity=79, time=0),\n",
      "    Message('note_on', channel=4, note=64, velocity=0, time=80),\n",
      "    Message('note_on', channel=4, note=57, velocity=0, time=0),\n",
      "    Message('note_on', channel=4, note=57, velocity=79, time=40),\n",
      "    Message('note_on', channel=4, note=64, velocity=79, time=0),\n",
      "    Message('note_on', channel=4, note=64, velocity=0, time=80),\n",
      "    Message('note_on', channel=4, note=57, velocity=0, time=0),\n",
      "    Message('note_on', channel=4, note=57, velocity=79, time=40),\n",
      "    Message('note_on', channel=4, note=64, velocity=79, time=0),\n",
      "    Message('note_on', channel=4, note=64, velocity=0, time=80),\n",
      "    Message('note_on', channel=4, note=57, velocity=0, time=0),\n",
      "    Message('note_on', channel=4, note=57, velocity=79, time=40),\n",
      "    Message('note_on', channel=4, note=64, velocity=79, time=0),\n",
      "    Message('note_on', channel=4, note=64, velocity=0, time=80),\n",
      "    Message('note_on', channel=4, note=57, velocity=0, time=0),\n",
      "    Message('note_on', channel=4, note=57, velocity=79, time=40),\n",
      "    Message('note_on', channel=4, note=64, velocity=79, time=0),\n",
      "    Message('note_on', channel=4, note=64, velocity=0, time=80),\n",
      "    Message('note_on', channel=4, note=57, velocity=0, time=0),\n",
      "    Message('note_on', channel=4, note=61, velocity=79, time=40),\n",
      "    Message('note_on', channel=4, note=68, velocity=79, time=0),\n",
      "    Message('note_on', channel=4, note=68, velocity=0, time=80),\n",
      "    Message('note_on', channel=4, note=61, velocity=0, time=0),\n",
      "    Message('note_on', channel=4, note=61, velocity=79, time=40),\n",
      "    Message('note_on', channel=4, note=68, velocity=79, time=0),\n",
      "    Message('note_on', channel=4, note=68, velocity=0, time=80),\n",
      "    Message('note_on', channel=4, note=61, velocity=0, time=0),\n",
      "    Message('note_on', channel=4, note=61, velocity=79, time=40),\n",
      "    Message('note_on', channel=4, note=68, velocity=79, time=0),\n",
      "    Message('note_on', channel=4, note=68, velocity=0, time=80),\n",
      "    Message('note_on', channel=4, note=61, velocity=0, time=0),\n",
      "    Message('note_on', channel=4, note=59, velocity=79, time=40),\n",
      "    Message('note_on', channel=4, note=66, velocity=79, time=0),\n",
      "    Message('note_on', channel=4, note=66, velocity=0, time=80),\n",
      "    Message('note_on', channel=4, note=59, velocity=0, time=0),\n",
      "    Message('note_on', channel=4, note=59, velocity=79, time=40),\n",
      "    Message('note_on', channel=4, note=66, velocity=79, time=0),\n",
      "    Message('note_on', channel=4, note=66, velocity=0, time=80),\n",
      "    Message('note_on', channel=4, note=59, velocity=0, time=0),\n",
      "    Message('note_on', channel=4, note=59, velocity=79, time=40),\n",
      "    Message('note_on', channel=4, note=66, velocity=79, time=0),\n",
      "    Message('note_on', channel=4, note=66, velocity=0, time=80),\n",
      "    Message('note_on', channel=4, note=59, velocity=0, time=0),\n",
      "    Message('note_on', channel=4, note=59, velocity=79, time=40),\n",
      "    Message('note_on', channel=4, note=66, velocity=79, time=0),\n",
      "    Message('note_on', channel=4, note=66, velocity=0, time=80),\n",
      "    Message('note_on', channel=4, note=59, velocity=0, time=0),\n",
      "    Message('note_on', channel=4, note=59, velocity=79, time=40),\n",
      "    Message('note_on', channel=4, note=66, velocity=79, time=0),\n",
      "    Message('note_on', channel=4, note=66, velocity=0, time=80),\n",
      "    Message('note_on', channel=4, note=59, velocity=0, time=0),\n",
      "    Message('note_on', channel=4, note=59, velocity=79, time=40),\n",
      "    Message('note_on', channel=4, note=66, velocity=79, time=0),\n",
      "    Message('note_on', channel=4, note=66, velocity=0, time=80),\n",
      "    Message('note_on', channel=4, note=59, velocity=0, time=0),\n",
      "    Message('note_on', channel=4, note=59, velocity=79, time=40),\n",
      "    Message('note_on', channel=4, note=66, velocity=79, time=0),\n",
      "    Message('note_on', channel=4, note=66, velocity=0, time=80),\n",
      "    Message('note_on', channel=4, note=59, velocity=0, time=0),\n",
      "    Message('note_on', channel=4, note=59, velocity=79, time=40),\n",
      "    Message('note_on', channel=4, note=66, velocity=79, time=0),\n",
      "    Message('note_on', channel=4, note=66, velocity=0, time=80),\n",
      "    Message('note_on', channel=4, note=59, velocity=0, time=0),\n",
      "    Message('note_on', channel=4, note=57, velocity=79, time=40),\n",
      "    Message('note_on', channel=4, note=64, velocity=79, time=0),\n",
      "    Message('note_on', channel=4, note=64, velocity=0, time=80),\n",
      "    Message('note_on', channel=4, note=57, velocity=0, time=0),\n",
      "    Message('note_on', channel=4, note=57, velocity=79, time=40),\n",
      "    Message('note_on', channel=4, note=64, velocity=79, time=0),\n",
      "    Message('note_on', channel=4, note=64, velocity=0, time=80),\n",
      "    Message('note_on', channel=4, note=57, velocity=0, time=0),\n",
      "    Message('note_on', channel=4, note=57, velocity=79, time=40),\n",
      "    Message('note_on', channel=4, note=64, velocity=79, time=0),\n",
      "    Message('note_on', channel=4, note=64, velocity=0, time=80),\n",
      "    Message('note_on', channel=4, note=57, velocity=0, time=0),\n",
      "    Message('note_on', channel=4, note=57, velocity=79, time=40),\n",
      "    Message('note_on', channel=4, note=64, velocity=79, time=0),\n",
      "    Message('note_on', channel=4, note=64, velocity=0, time=80),\n",
      "    Message('note_on', channel=4, note=57, velocity=0, time=0),\n",
      "    Message('note_on', channel=4, note=57, velocity=79, time=40),\n",
      "    Message('note_on', channel=4, note=64, velocity=79, time=0),\n",
      "    Message('note_on', channel=4, note=64, velocity=0, time=80),\n",
      "    Message('note_on', channel=4, note=57, velocity=0, time=0),\n",
      "    Message('note_on', channel=4, note=61, velocity=79, time=40),\n",
      "    Message('note_on', channel=4, note=68, velocity=79, time=0),\n",
      "    Message('note_on', channel=4, note=68, velocity=0, time=80),\n",
      "    Message('note_on', channel=4, note=61, velocity=0, time=0),\n",
      "    Message('note_on', channel=4, note=61, velocity=79, time=40),\n",
      "    Message('note_on', channel=4, note=68, velocity=79, time=0),\n",
      "    Message('note_on', channel=4, note=68, velocity=0, time=80),\n",
      "    Message('note_on', channel=4, note=61, velocity=0, time=0),\n",
      "    Message('note_on', channel=4, note=61, velocity=79, time=40),\n",
      "    Message('note_on', channel=4, note=68, velocity=79, time=0),\n",
      "    Message('note_on', channel=4, note=68, velocity=0, time=80),\n",
      "    Message('note_on', channel=4, note=61, velocity=0, time=0),\n",
      "    Message('note_on', channel=4, note=59, velocity=79, time=40),\n",
      "    Message('note_on', channel=4, note=66, velocity=79, time=0),\n",
      "    Message('note_on', channel=4, note=66, velocity=0, time=80),\n",
      "    Message('note_on', channel=4, note=59, velocity=0, time=0),\n",
      "    Message('note_on', channel=4, note=59, velocity=79, time=40),\n",
      "    Message('note_on', channel=4, note=66, velocity=79, time=0),\n",
      "    Message('note_on', channel=4, note=66, velocity=0, time=80),\n",
      "    Message('note_on', channel=4, note=59, velocity=0, time=0),\n",
      "    Message('note_on', channel=4, note=59, velocity=79, time=40),\n",
      "    Message('note_on', channel=4, note=66, velocity=79, time=0),\n",
      "    Message('note_on', channel=4, note=66, velocity=0, time=80),\n",
      "    Message('note_on', channel=4, note=59, velocity=0, time=0),\n",
      "    Message('note_on', channel=4, note=59, velocity=79, time=40),\n",
      "    Message('note_on', channel=4, note=66, velocity=79, time=0),\n",
      "    Message('note_on', channel=4, note=66, velocity=0, time=80),\n",
      "    Message('note_on', channel=4, note=59, velocity=0, time=0),\n",
      "    Message('note_on', channel=4, note=59, velocity=79, time=40),\n",
      "    Message('note_on', channel=4, note=66, velocity=79, time=0),\n",
      "    Message('note_on', channel=4, note=66, velocity=0, time=80),\n",
      "    Message('note_on', channel=4, note=59, velocity=0, time=0),\n",
      "    Message('note_on', channel=4, note=59, velocity=79, time=40),\n",
      "    Message('note_on', channel=4, note=66, velocity=79, time=0),\n",
      "    Message('note_on', channel=4, note=66, velocity=0, time=80),\n",
      "    Message('note_on', channel=4, note=59, velocity=0, time=0),\n",
      "    Message('note_on', channel=4, note=59, velocity=79, time=40),\n",
      "    Message('note_on', channel=4, note=66, velocity=79, time=0),\n",
      "    Message('note_on', channel=4, note=66, velocity=0, time=80),\n",
      "    Message('note_on', channel=4, note=59, velocity=0, time=0),\n",
      "    Message('note_on', channel=4, note=59, velocity=79, time=40),\n",
      "    Message('note_on', channel=4, note=66, velocity=79, time=0),\n",
      "    Message('note_on', channel=4, note=66, velocity=0, time=80),\n",
      "    Message('note_on', channel=4, note=59, velocity=0, time=0),\n",
      "    Message('note_on', channel=4, note=59, velocity=79, time=40),\n",
      "    Message('note_on', channel=4, note=66, velocity=79, time=0),\n",
      "    Message('note_on', channel=4, note=66, velocity=0, time=80),\n",
      "    Message('note_on', channel=4, note=59, velocity=0, time=0),\n",
      "    Message('note_on', channel=4, note=57, velocity=79, time=40),\n",
      "    Message('note_on', channel=4, note=64, velocity=79, time=0),\n",
      "    Message('note_on', channel=4, note=64, velocity=0, time=80),\n",
      "    Message('note_on', channel=4, note=57, velocity=0, time=0),\n",
      "    Message('note_on', channel=4, note=57, velocity=79, time=40),\n",
      "    Message('note_on', channel=4, note=64, velocity=79, time=0),\n",
      "    Message('note_on', channel=4, note=64, velocity=0, time=80),\n",
      "    Message('note_on', channel=4, note=57, velocity=0, time=0),\n",
      "    Message('note_on', channel=4, note=57, velocity=79, time=40),\n",
      "    Message('note_on', channel=4, note=64, velocity=79, time=0),\n",
      "    Message('note_on', channel=4, note=64, velocity=0, time=80),\n",
      "    Message('note_on', channel=4, note=57, velocity=0, time=0),\n",
      "    Message('note_on', channel=4, note=57, velocity=79, time=40),\n",
      "    Message('note_on', channel=4, note=64, velocity=79, time=0),\n",
      "    Message('note_on', channel=4, note=64, velocity=0, time=80),\n",
      "    Message('note_on', channel=4, note=57, velocity=0, time=0),\n",
      "    Message('note_on', channel=4, note=61, velocity=79, time=40),\n",
      "    Message('note_on', channel=4, note=68, velocity=79, time=0),\n",
      "    Message('note_on', channel=4, note=68, velocity=0, time=80),\n",
      "    Message('note_on', channel=4, note=61, velocity=0, time=0),\n",
      "    Message('note_on', channel=4, note=61, velocity=79, time=40),\n",
      "    Message('note_on', channel=4, note=68, velocity=79, time=0),\n",
      "    Message('note_on', channel=4, note=68, velocity=0, time=80),\n",
      "    Message('note_on', channel=4, note=61, velocity=0, time=0),\n",
      "    Message('note_on', channel=4, note=61, velocity=79, time=40),\n",
      "    Message('note_on', channel=4, note=68, velocity=79, time=0),\n",
      "    Message('note_on', channel=4, note=68, velocity=0, time=80),\n",
      "    Message('note_on', channel=4, note=61, velocity=0, time=0),\n",
      "    Message('note_on', channel=4, note=59, velocity=79, time=40),\n",
      "    Message('note_on', channel=4, note=66, velocity=79, time=0),\n",
      "    Message('note_on', channel=4, note=66, velocity=0, time=80),\n",
      "    Message('note_on', channel=4, note=59, velocity=0, time=0),\n",
      "    Message('note_on', channel=4, note=59, velocity=79, time=40),\n",
      "    Message('note_on', channel=4, note=66, velocity=79, time=0),\n",
      "    Message('note_on', channel=4, note=66, velocity=0, time=80),\n",
      "    Message('note_on', channel=4, note=59, velocity=0, time=0),\n",
      "    Message('note_on', channel=4, note=59, velocity=79, time=40),\n",
      "    Message('note_on', channel=4, note=66, velocity=79, time=0),\n",
      "    Message('note_on', channel=4, note=66, velocity=0, time=80),\n",
      "    Message('note_on', channel=4, note=59, velocity=0, time=0),\n",
      "    Message('note_on', channel=4, note=59, velocity=79, time=40),\n",
      "    Message('note_on', channel=4, note=66, velocity=79, time=0),\n",
      "    Message('note_on', channel=4, note=66, velocity=0, time=80),\n",
      "    Message('note_on', channel=4, note=59, velocity=0, time=0),\n",
      "    Message('note_on', channel=4, note=59, velocity=79, time=40),\n",
      "    Message('note_on', channel=4, note=66, velocity=79, time=0),\n",
      "    Message('note_on', channel=4, note=66, velocity=0, time=80),\n",
      "    Message('note_on', channel=4, note=59, velocity=0, time=0),\n",
      "    Message('note_on', channel=4, note=59, velocity=79, time=40),\n",
      "    Message('note_on', channel=4, note=66, velocity=79, time=0),\n",
      "    Message('note_on', channel=4, note=66, velocity=0, time=80),\n",
      "    Message('note_on', channel=4, note=59, velocity=0, time=0),\n",
      "    Message('note_on', channel=4, note=59, velocity=79, time=40),\n",
      "    Message('note_on', channel=4, note=66, velocity=79, time=0),\n",
      "    Message('note_on', channel=4, note=66, velocity=0, time=80),\n",
      "    Message('note_on', channel=4, note=59, velocity=0, time=0),\n",
      "    Message('note_on', channel=4, note=59, velocity=79, time=40),\n",
      "    Message('note_on', channel=4, note=66, velocity=79, time=0),\n",
      "    Message('note_on', channel=4, note=66, velocity=0, time=80),\n",
      "    Message('note_on', channel=4, note=59, velocity=0, time=0),\n",
      "    Message('note_on', channel=4, note=59, velocity=79, time=40),\n",
      "    Message('note_on', channel=4, note=66, velocity=79, time=0),\n",
      "    Message('note_on', channel=4, note=66, velocity=0, time=80),\n",
      "    Message('note_on', channel=4, note=59, velocity=0, time=0),\n",
      "    Message('note_on', channel=4, note=54, velocity=79, time=40),\n",
      "    Message('note_on', channel=4, note=69, velocity=79, time=0),\n",
      "    Message('note_on', channel=4, note=69, velocity=0, time=80),\n",
      "    Message('note_on', channel=4, note=54, velocity=0, time=0),\n",
      "    Message('note_on', channel=4, note=54, velocity=79, time=40),\n",
      "    Message('note_on', channel=4, note=69, velocity=79, time=0),\n",
      "    Message('note_on', channel=4, note=69, velocity=0, time=80),\n",
      "    Message('note_on', channel=4, note=54, velocity=0, time=0),\n",
      "    Message('note_on', channel=4, note=54, velocity=79, time=40),\n",
      "    Message('note_on', channel=4, note=69, velocity=79, time=0),\n",
      "    Message('note_on', channel=4, note=69, velocity=0, time=80),\n",
      "    Message('note_on', channel=4, note=54, velocity=0, time=0),\n",
      "    Message('note_on', channel=4, note=56, velocity=79, time=40),\n",
      "    Message('note_on', channel=4, note=71, velocity=79, time=0),\n",
      "    Message('note_on', channel=4, note=71, velocity=0, time=80),\n",
      "    Message('note_on', channel=4, note=56, velocity=0, time=0),\n",
      "    Message('note_on', channel=4, note=56, velocity=79, time=40),\n",
      "    Message('note_on', channel=4, note=71, velocity=79, time=0),\n",
      "    Message('note_on', channel=4, note=71, velocity=0, time=80),\n",
      "    Message('note_on', channel=4, note=56, velocity=0, time=0),\n",
      "    Message('note_on', channel=4, note=56, velocity=79, time=40),\n",
      "    Message('note_on', channel=4, note=71, velocity=79, time=0),\n",
      "    Message('note_on', channel=4, note=71, velocity=0, time=80),\n",
      "    Message('note_on', channel=4, note=56, velocity=0, time=0),\n",
      "    Message('note_on', channel=4, note=56, velocity=79, time=40),\n",
      "    Message('note_on', channel=4, note=71, velocity=79, time=0),\n",
      "    Message('note_on', channel=4, note=71, velocity=0, time=80),\n",
      "    Message('note_on', channel=4, note=56, velocity=0, time=0),\n",
      "    Message('note_on', channel=4, note=57, velocity=79, time=40),\n",
      "    Message('note_on', channel=4, note=64, velocity=79, time=0),\n",
      "    Message('note_on', channel=4, note=64, velocity=0, time=80),\n",
      "    Message('note_on', channel=4, note=57, velocity=0, time=0),\n",
      "    Message('note_on', channel=4, note=57, velocity=79, time=40),\n",
      "    Message('note_on', channel=4, note=64, velocity=79, time=0),\n",
      "    Message('note_on', channel=4, note=64, velocity=0, time=80),\n",
      "    Message('note_on', channel=4, note=57, velocity=0, time=0),\n",
      "    Message('note_on', channel=4, note=57, velocity=79, time=40),\n",
      "    Message('note_on', channel=4, note=64, velocity=79, time=0),\n",
      "    Message('note_on', channel=4, note=64, velocity=0, time=80),\n",
      "    Message('note_on', channel=4, note=57, velocity=0, time=0),\n",
      "    Message('note_on', channel=4, note=57, velocity=79, time=40),\n",
      "    Message('note_on', channel=4, note=64, velocity=79, time=0),\n",
      "    Message('note_on', channel=4, note=64, velocity=0, time=80),\n",
      "    Message('note_on', channel=4, note=57, velocity=0, time=0),\n",
      "    Message('note_on', channel=4, note=58, velocity=79, time=40),\n",
      "    Message('note_on', channel=4, note=66, velocity=79, time=0),\n",
      "    Message('note_on', channel=4, note=66, velocity=0, time=80),\n",
      "    Message('note_on', channel=4, note=58, velocity=0, time=0),\n",
      "    Message('note_on', channel=4, note=58, velocity=79, time=40),\n",
      "    Message('note_on', channel=4, note=66, velocity=79, time=0),\n",
      "    Message('note_on', channel=4, note=66, velocity=0, time=80),\n",
      "    Message('note_on', channel=4, note=58, velocity=0, time=0),\n",
      "    Message('note_on', channel=4, note=58, velocity=79, time=40),\n",
      "    Message('note_on', channel=4, note=66, velocity=79, time=0),\n",
      "    Message('note_on', channel=4, note=66, velocity=0, time=80),\n",
      "    Message('note_on', channel=4, note=58, velocity=0, time=0),\n",
      "    Message('note_on', channel=4, note=58, velocity=79, time=40),\n",
      "    Message('note_on', channel=4, note=66, velocity=79, time=0),\n",
      "    Message('note_on', channel=4, note=66, velocity=0, time=80),\n",
      "    Message('note_on', channel=4, note=58, velocity=0, time=0),\n",
      "    Message('note_on', channel=4, note=58, velocity=79, time=40),\n",
      "    Message('note_on', channel=4, note=66, velocity=79, time=0),\n",
      "    Message('note_on', channel=4, note=66, velocity=0, time=80),\n",
      "    Message('note_on', channel=4, note=58, velocity=0, time=0),\n",
      "    Message('note_on', channel=4, note=59, velocity=79, time=40),\n",
      "    Message('note_on', channel=4, note=66, velocity=79, time=0),\n",
      "    Message('note_on', channel=4, note=66, velocity=0, time=80),\n",
      "    Message('note_on', channel=4, note=59, velocity=0, time=0),\n",
      "    Message('note_on', channel=4, note=59, velocity=79, time=40),\n",
      "    Message('note_on', channel=4, note=66, velocity=79, time=0),\n",
      "    Message('note_on', channel=4, note=66, velocity=0, time=80),\n",
      "    Message('note_on', channel=4, note=59, velocity=0, time=0),\n",
      "    Message('note_on', channel=4, note=59, velocity=79, time=40),\n",
      "    Message('note_on', channel=4, note=66, velocity=79, time=0),\n",
      "    Message('note_on', channel=4, note=66, velocity=0, time=80),\n",
      "    Message('note_on', channel=4, note=59, velocity=0, time=0),\n",
      "    Message('note_on', channel=4, note=59, velocity=79, time=40),\n",
      "    Message('note_on', channel=4, note=66, velocity=79, time=0),\n",
      "    Message('note_on', channel=4, note=66, velocity=0, time=80),\n",
      "    Message('note_on', channel=4, note=59, velocity=0, time=0),\n",
      "    Message('note_on', channel=4, note=59, velocity=79, time=40),\n",
      "    Message('note_on', channel=4, note=66, velocity=79, time=0),\n",
      "    Message('note_on', channel=4, note=66, velocity=0, time=80),\n",
      "    Message('note_on', channel=4, note=59, velocity=0, time=0),\n",
      "    Message('note_on', channel=4, note=59, velocity=79, time=40),\n",
      "    Message('note_on', channel=4, note=66, velocity=79, time=0),\n",
      "    Message('note_on', channel=4, note=66, velocity=0, time=80),\n",
      "    Message('note_on', channel=4, note=59, velocity=0, time=0),\n",
      "    Message('note_on', channel=4, note=59, velocity=79, time=40),\n",
      "    Message('note_on', channel=4, note=66, velocity=79, time=0),\n",
      "    Message('note_on', channel=4, note=66, velocity=0, time=80),\n",
      "    Message('note_on', channel=4, note=59, velocity=0, time=0),\n",
      "    Message('note_on', channel=4, note=59, velocity=79, time=40),\n",
      "    Message('note_on', channel=4, note=66, velocity=79, time=0),\n",
      "    Message('note_on', channel=4, note=66, velocity=0, time=80),\n",
      "    Message('note_on', channel=4, note=59, velocity=0, time=0),\n",
      "    Message('note_on', channel=4, note=59, velocity=79, time=40),\n",
      "    Message('note_on', channel=4, note=66, velocity=79, time=0),\n",
      "    Message('note_on', channel=4, note=66, velocity=0, time=80),\n",
      "    Message('note_on', channel=4, note=59, velocity=0, time=0),\n",
      "    Message('note_on', channel=4, note=59, velocity=79, time=40),\n",
      "    Message('note_on', channel=4, note=66, velocity=79, time=0),\n",
      "    Message('note_on', channel=4, note=66, velocity=0, time=80),\n",
      "    Message('note_on', channel=4, note=59, velocity=0, time=0),\n",
      "    Message('note_on', channel=4, note=57, velocity=79, time=640),\n",
      "    Message('note_on', channel=4, note=64, velocity=79, time=0),\n",
      "    Message('note_on', channel=4, note=64, velocity=0, time=80),\n",
      "    Message('note_on', channel=4, note=57, velocity=0, time=0),\n",
      "    Message('note_on', channel=4, note=57, velocity=79, time=40),\n",
      "    Message('note_on', channel=4, note=64, velocity=79, time=0),\n",
      "    Message('note_on', channel=4, note=64, velocity=0, time=80),\n",
      "    Message('note_on', channel=4, note=57, velocity=0, time=0),\n",
      "    Message('note_on', channel=4, note=57, velocity=79, time=40),\n",
      "    Message('note_on', channel=4, note=64, velocity=79, time=0),\n",
      "    Message('note_on', channel=4, note=64, velocity=0, time=80),\n",
      "    Message('note_on', channel=4, note=57, velocity=0, time=0),\n",
      "    Message('note_on', channel=4, note=57, velocity=79, time=40),\n",
      "    Message('note_on', channel=4, note=64, velocity=79, time=0),\n",
      "    Message('note_on', channel=4, note=64, velocity=0, time=80),\n",
      "    Message('note_on', channel=4, note=57, velocity=0, time=0),\n",
      "    Message('note_on', channel=4, note=57, velocity=79, time=40),\n",
      "    Message('note_on', channel=4, note=64, velocity=79, time=0),\n",
      "    Message('note_on', channel=4, note=64, velocity=0, time=80),\n",
      "    Message('note_on', channel=4, note=57, velocity=0, time=0),\n",
      "    Message('note_on', channel=4, note=57, velocity=79, time=40),\n",
      "    Message('note_on', channel=4, note=64, velocity=79, time=0),\n",
      "    Message('note_on', channel=4, note=64, velocity=0, time=80),\n",
      "    Message('note_on', channel=4, note=57, velocity=0, time=0),\n",
      "    Message('note_on', channel=4, note=57, velocity=79, time=40),\n",
      "    Message('note_on', channel=4, note=64, velocity=79, time=0),\n",
      "    Message('note_on', channel=4, note=64, velocity=0, time=80),\n",
      "    Message('note_on', channel=4, note=57, velocity=0, time=0),\n",
      "    Message('note_on', channel=4, note=57, velocity=79, time=40),\n",
      "    Message('note_on', channel=4, note=64, velocity=79, time=0),\n",
      "    Message('note_on', channel=4, note=64, velocity=0, time=80),\n",
      "    Message('note_on', channel=4, note=57, velocity=0, time=0),\n",
      "    Message('note_on', channel=4, note=56, velocity=79, time=40),\n",
      "    Message('note_on', channel=4, note=64, velocity=79, time=0),\n",
      "    Message('note_on', channel=4, note=64, velocity=0, time=80),\n",
      "    Message('note_on', channel=4, note=56, velocity=0, time=0),\n",
      "    Message('note_on', channel=4, note=56, velocity=79, time=40),\n",
      "    Message('note_on', channel=4, note=64, velocity=79, time=0),\n",
      "    Message('note_on', channel=4, note=64, velocity=0, time=80),\n",
      "    Message('note_on', channel=4, note=56, velocity=0, time=0),\n",
      "    Message('note_on', channel=4, note=56, velocity=79, time=40),\n",
      "    Message('note_on', channel=4, note=64, velocity=79, time=0),\n",
      "    Message('note_on', channel=4, note=64, velocity=0, time=80),\n",
      "    Message('note_on', channel=4, note=56, velocity=0, time=0),\n",
      "    Message('note_on', channel=4, note=56, velocity=79, time=40),\n",
      "    Message('note_on', channel=4, note=64, velocity=79, time=0),\n",
      "    Message('note_on', channel=4, note=64, velocity=0, time=80),\n",
      "    Message('note_on', channel=4, note=56, velocity=0, time=0),\n",
      "    Message('note_on', channel=4, note=56, velocity=79, time=40),\n",
      "    Message('note_on', channel=4, note=64, velocity=79, time=0),\n",
      "    Message('note_on', channel=4, note=64, velocity=0, time=80),\n",
      "    Message('note_on', channel=4, note=56, velocity=0, time=0),\n",
      "    Message('note_on', channel=4, note=56, velocity=79, time=40),\n",
      "    Message('note_on', channel=4, note=64, velocity=79, time=0),\n",
      "    Message('note_on', channel=4, note=64, velocity=0, time=80),\n",
      "    Message('note_on', channel=4, note=56, velocity=0, time=0),\n",
      "    Message('note_on', channel=4, note=56, velocity=79, time=40),\n",
      "    Message('note_on', channel=4, note=64, velocity=79, time=0),\n",
      "    Message('note_on', channel=4, note=64, velocity=0, time=80),\n",
      "    Message('note_on', channel=4, note=56, velocity=0, time=0),\n",
      "    Message('note_on', channel=4, note=56, velocity=79, time=40),\n",
      "    Message('note_on', channel=4, note=64, velocity=79, time=0),\n",
      "    Message('note_on', channel=4, note=64, velocity=0, time=80),\n",
      "    Message('note_on', channel=4, note=56, velocity=0, time=0),\n",
      "    Message('note_on', channel=4, note=54, velocity=79, time=40),\n",
      "    Message('note_on', channel=4, note=61, velocity=79, time=0),\n",
      "    Message('note_on', channel=4, note=61, velocity=0, time=80),\n",
      "    Message('note_on', channel=4, note=54, velocity=0, time=0),\n",
      "    Message('note_on', channel=4, note=54, velocity=79, time=40),\n",
      "    Message('note_on', channel=4, note=61, velocity=79, time=0),\n",
      "    Message('note_on', channel=4, note=61, velocity=0, time=80),\n",
      "    Message('note_on', channel=4, note=54, velocity=0, time=0),\n",
      "    Message('note_on', channel=4, note=54, velocity=79, time=40),\n",
      "    Message('note_on', channel=4, note=61, velocity=79, time=0),\n",
      "    Message('note_on', channel=4, note=61, velocity=0, time=80),\n",
      "    Message('note_on', channel=4, note=54, velocity=0, time=0),\n",
      "    Message('note_on', channel=4, note=54, velocity=79, time=40),\n",
      "    Message('note_on', channel=4, note=61, velocity=79, time=0),\n",
      "    Message('note_on', channel=4, note=61, velocity=0, time=80),\n",
      "    Message('note_on', channel=4, note=54, velocity=0, time=0),\n",
      "    Message('note_on', channel=4, note=54, velocity=79, time=40),\n",
      "    Message('note_on', channel=4, note=61, velocity=79, time=0),\n",
      "    Message('note_on', channel=4, note=61, velocity=0, time=80),\n",
      "    Message('note_on', channel=4, note=54, velocity=0, time=0),\n",
      "    Message('note_on', channel=4, note=54, velocity=79, time=40),\n",
      "    Message('note_on', channel=4, note=61, velocity=79, time=0),\n",
      "    Message('note_on', channel=4, note=61, velocity=0, time=80),\n",
      "    Message('note_on', channel=4, note=54, velocity=0, time=0),\n",
      "    Message('note_on', channel=4, note=54, velocity=79, time=40),\n",
      "    Message('note_on', channel=4, note=61, velocity=79, time=0),\n",
      "    Message('note_on', channel=4, note=61, velocity=0, time=80),\n",
      "    Message('note_on', channel=4, note=54, velocity=0, time=0),\n",
      "    Message('note_on', channel=4, note=54, velocity=79, time=40),\n",
      "    Message('note_on', channel=4, note=61, velocity=79, time=0),\n",
      "    Message('note_on', channel=4, note=61, velocity=0, time=80),\n",
      "    Message('note_on', channel=4, note=54, velocity=0, time=0),\n",
      "    Message('note_on', channel=4, note=61, velocity=79, time=40),\n",
      "    Message('note_on', channel=4, note=68, velocity=79, time=0),\n",
      "    Message('note_on', channel=4, note=68, velocity=0, time=80),\n",
      "    Message('note_on', channel=4, note=61, velocity=0, time=0),\n",
      "    Message('note_on', channel=4, note=61, velocity=79, time=40),\n",
      "    Message('note_on', channel=4, note=68, velocity=79, time=0),\n",
      "    Message('note_on', channel=4, note=68, velocity=0, time=80),\n",
      "    Message('note_on', channel=4, note=61, velocity=0, time=0),\n",
      "    Message('note_on', channel=4, note=61, velocity=79, time=40),\n",
      "    Message('note_on', channel=4, note=68, velocity=79, time=0),\n",
      "    Message('note_on', channel=4, note=68, velocity=0, time=80),\n",
      "    Message('note_on', channel=4, note=61, velocity=0, time=0),\n",
      "    Message('note_on', channel=4, note=61, velocity=79, time=40),\n",
      "    Message('note_on', channel=4, note=68, velocity=79, time=0),\n",
      "    Message('note_on', channel=4, note=68, velocity=0, time=80),\n",
      "    Message('note_on', channel=4, note=61, velocity=0, time=0),\n",
      "    Message('note_on', channel=4, note=61, velocity=79, time=40),\n",
      "    Message('note_on', channel=4, note=68, velocity=79, time=0),\n",
      "    Message('note_on', channel=4, note=68, velocity=0, time=80),\n",
      "    Message('note_on', channel=4, note=61, velocity=0, time=0),\n",
      "    Message('note_on', channel=4, note=52, velocity=79, time=40),\n",
      "    Message('note_on', channel=4, note=64, velocity=79, time=0),\n",
      "    Message('note_on', channel=4, note=64, velocity=0, time=80),\n",
      "    Message('note_on', channel=4, note=52, velocity=0, time=0),\n",
      "    Message('note_on', channel=4, note=52, velocity=79, time=40),\n",
      "    Message('note_on', channel=4, note=64, velocity=79, time=0),\n",
      "    Message('note_on', channel=4, note=64, velocity=0, time=80),\n",
      "    Message('note_on', channel=4, note=52, velocity=0, time=0),\n",
      "    Message('note_on', channel=4, note=52, velocity=79, time=40),\n",
      "    Message('note_on', channel=4, note=64, velocity=79, time=0),\n",
      "    Message('note_on', channel=4, note=64, velocity=0, time=80),\n",
      "    Message('note_on', channel=4, note=52, velocity=0, time=0),\n",
      "    Message('note_on', channel=4, note=57, velocity=79, time=40),\n",
      "    Message('note_on', channel=4, note=64, velocity=79, time=0),\n",
      "    Message('note_on', channel=4, note=64, velocity=0, time=80),\n",
      "    Message('note_on', channel=4, note=57, velocity=0, time=0),\n",
      "    Message('note_on', channel=4, note=57, velocity=79, time=40),\n",
      "    Message('note_on', channel=4, note=64, velocity=79, time=0),\n",
      "    Message('note_on', channel=4, note=64, velocity=0, time=80),\n",
      "    Message('note_on', channel=4, note=57, velocity=0, time=0),\n",
      "    Message('note_on', channel=4, note=57, velocity=79, time=40),\n",
      "    Message('note_on', channel=4, note=64, velocity=79, time=0),\n",
      "    Message('note_on', channel=4, note=64, velocity=0, time=80),\n",
      "    Message('note_on', channel=4, note=57, velocity=0, time=0),\n",
      "    Message('note_on', channel=4, note=57, velocity=79, time=40),\n",
      "    Message('note_on', channel=4, note=64, velocity=79, time=0),\n",
      "    Message('note_on', channel=4, note=64, velocity=0, time=80),\n",
      "    Message('note_on', channel=4, note=57, velocity=0, time=0),\n",
      "    Message('note_on', channel=4, note=57, velocity=79, time=40),\n",
      "    Message('note_on', channel=4, note=64, velocity=79, time=0),\n",
      "    Message('note_on', channel=4, note=64, velocity=0, time=80),\n",
      "    Message('note_on', channel=4, note=57, velocity=0, time=0),\n",
      "    Message('note_on', channel=4, note=57, velocity=79, time=40),\n",
      "    Message('note_on', channel=4, note=64, velocity=79, time=0),\n",
      "    Message('note_on', channel=4, note=64, velocity=0, time=80),\n",
      "    Message('note_on', channel=4, note=57, velocity=0, time=0),\n",
      "    Message('note_on', channel=4, note=57, velocity=79, time=40),\n",
      "    Message('note_on', channel=4, note=64, velocity=79, time=0),\n",
      "    Message('note_on', channel=4, note=64, velocity=0, time=80),\n",
      "    Message('note_on', channel=4, note=57, velocity=0, time=0),\n",
      "    Message('note_on', channel=4, note=57, velocity=79, time=40),\n",
      "    Message('note_on', channel=4, note=64, velocity=79, time=0),\n",
      "    Message('note_on', channel=4, note=64, velocity=0, time=80),\n",
      "    Message('note_on', channel=4, note=57, velocity=0, time=0),\n",
      "    Message('note_on', channel=4, note=56, velocity=79, time=40),\n",
      "    Message('note_on', channel=4, note=64, velocity=79, time=0),\n",
      "    Message('note_on', channel=4, note=64, velocity=0, time=80),\n",
      "    Message('note_on', channel=4, note=56, velocity=0, time=0),\n",
      "    Message('note_on', channel=4, note=56, velocity=79, time=40),\n",
      "    Message('note_on', channel=4, note=64, velocity=79, time=0),\n",
      "    Message('note_on', channel=4, note=64, velocity=0, time=80),\n",
      "    Message('note_on', channel=4, note=56, velocity=0, time=0),\n",
      "    Message('note_on', channel=4, note=56, velocity=79, time=40),\n",
      "    Message('note_on', channel=4, note=64, velocity=79, time=0),\n",
      "    Message('note_on', channel=4, note=64, velocity=0, time=80),\n",
      "    Message('note_on', channel=4, note=56, velocity=0, time=0),\n",
      "    Message('note_on', channel=4, note=56, velocity=79, time=40),\n",
      "    Message('note_on', channel=4, note=64, velocity=79, time=0),\n",
      "    Message('note_on', channel=4, note=64, velocity=0, time=80),\n",
      "    Message('note_on', channel=4, note=56, velocity=0, time=0),\n",
      "    Message('note_on', channel=4, note=56, velocity=79, time=40),\n",
      "    Message('note_on', channel=4, note=64, velocity=79, time=0),\n",
      "    Message('note_on', channel=4, note=64, velocity=0, time=80),\n",
      "    Message('note_on', channel=4, note=56, velocity=0, time=0),\n",
      "    Message('note_on', channel=4, note=56, velocity=79, time=40),\n",
      "    Message('note_on', channel=4, note=64, velocity=79, time=0),\n",
      "    Message('note_on', channel=4, note=64, velocity=0, time=80),\n",
      "    Message('note_on', channel=4, note=56, velocity=0, time=0),\n",
      "    Message('note_on', channel=4, note=56, velocity=79, time=40),\n",
      "    Message('note_on', channel=4, note=64, velocity=79, time=0),\n",
      "    Message('note_on', channel=4, note=64, velocity=0, time=80),\n",
      "    Message('note_on', channel=4, note=56, velocity=0, time=0),\n",
      "    Message('note_on', channel=4, note=56, velocity=79, time=40),\n",
      "    Message('note_on', channel=4, note=64, velocity=79, time=0),\n",
      "    Message('note_on', channel=4, note=64, velocity=0, time=80),\n",
      "    Message('note_on', channel=4, note=56, velocity=0, time=0),\n",
      "    Message('note_on', channel=4, note=54, velocity=79, time=40),\n",
      "    Message('note_on', channel=4, note=61, velocity=79, time=0),\n",
      "    Message('note_on', channel=4, note=61, velocity=0, time=80),\n",
      "    Message('note_on', channel=4, note=54, velocity=0, time=0),\n",
      "    Message('note_on', channel=4, note=54, velocity=79, time=40),\n",
      "    Message('note_on', channel=4, note=61, velocity=79, time=0),\n",
      "    Message('note_on', channel=4, note=61, velocity=0, time=80),\n",
      "    Message('note_on', channel=4, note=54, velocity=0, time=0),\n",
      "    Message('note_on', channel=4, note=54, velocity=79, time=40),\n",
      "    Message('note_on', channel=4, note=61, velocity=79, time=0),\n",
      "    Message('note_on', channel=4, note=61, velocity=0, time=80),\n",
      "    Message('note_on', channel=4, note=54, velocity=0, time=0),\n",
      "    Message('note_on', channel=4, note=54, velocity=79, time=40),\n",
      "    Message('note_on', channel=4, note=61, velocity=79, time=0),\n",
      "    Message('note_on', channel=4, note=61, velocity=0, time=80),\n",
      "    Message('note_on', channel=4, note=54, velocity=0, time=0),\n",
      "    Message('note_on', channel=4, note=54, velocity=79, time=40),\n",
      "    Message('note_on', channel=4, note=61, velocity=79, time=0),\n",
      "    Message('note_on', channel=4, note=61, velocity=0, time=80),\n",
      "    Message('note_on', channel=4, note=54, velocity=0, time=0),\n",
      "    Message('note_on', channel=4, note=54, velocity=79, time=40),\n",
      "    Message('note_on', channel=4, note=61, velocity=79, time=0),\n",
      "    Message('note_on', channel=4, note=61, velocity=0, time=80),\n",
      "    Message('note_on', channel=4, note=54, velocity=0, time=0),\n",
      "    Message('note_on', channel=4, note=54, velocity=79, time=40),\n",
      "    Message('note_on', channel=4, note=61, velocity=79, time=0),\n",
      "    Message('note_on', channel=4, note=61, velocity=0, time=80),\n",
      "    Message('note_on', channel=4, note=54, velocity=0, time=0),\n",
      "    Message('note_on', channel=4, note=54, velocity=79, time=40),\n",
      "    Message('note_on', channel=4, note=61, velocity=79, time=0),\n",
      "    Message('note_on', channel=4, note=61, velocity=0, time=80),\n",
      "    Message('note_on', channel=4, note=54, velocity=0, time=0),\n",
      "    Message('note_on', channel=4, note=61, velocity=79, time=40),\n",
      "    Message('note_on', channel=4, note=61, velocity=0, time=80),\n",
      "    Message('note_on', channel=4, note=61, velocity=79, time=40),\n",
      "    Message('note_on', channel=4, note=61, velocity=0, time=80),\n",
      "    Message('note_on', channel=4, note=61, velocity=79, time=40),\n",
      "    Message('note_on', channel=4, note=61, velocity=0, time=80),\n",
      "    Message('note_on', channel=4, note=61, velocity=79, time=40),\n",
      "    Message('note_on', channel=4, note=61, velocity=0, time=80),\n",
      "    Message('note_on', channel=4, note=61, velocity=79, time=40),\n",
      "    Message('note_on', channel=4, note=61, velocity=0, time=80),\n",
      "    Message('note_on', channel=4, note=52, velocity=79, time=40),\n",
      "    Message('note_on', channel=4, note=64, velocity=79, time=0),\n",
      "    Message('note_on', channel=4, note=64, velocity=0, time=80),\n",
      "    Message('note_on', channel=4, note=52, velocity=0, time=0),\n",
      "    Message('note_on', channel=4, note=52, velocity=79, time=40),\n",
      "    Message('note_on', channel=4, note=64, velocity=79, time=0),\n",
      "    Message('note_on', channel=4, note=64, velocity=0, time=80),\n",
      "    Message('note_on', channel=4, note=52, velocity=0, time=0),\n",
      "    Message('note_on', channel=4, note=52, velocity=79, time=40),\n",
      "    Message('note_on', channel=4, note=64, velocity=79, time=0),\n",
      "    Message('note_on', channel=4, note=64, velocity=0, time=80),\n",
      "    Message('note_on', channel=4, note=52, velocity=0, time=0),\n",
      "    Message('note_on', channel=4, note=57, velocity=79, time=40),\n",
      "    Message('note_on', channel=4, note=64, velocity=79, time=0),\n",
      "    Message('note_on', channel=4, note=64, velocity=0, time=80),\n",
      "    Message('note_on', channel=4, note=57, velocity=0, time=0),\n",
      "    Message('note_on', channel=4, note=57, velocity=79, time=40),\n",
      "    Message('note_on', channel=4, note=64, velocity=79, time=0),\n",
      "    Message('note_on', channel=4, note=64, velocity=0, time=80),\n",
      "    Message('note_on', channel=4, note=57, velocity=0, time=0),\n",
      "    Message('note_on', channel=4, note=57, velocity=79, time=40),\n",
      "    Message('note_on', channel=4, note=64, velocity=79, time=0),\n",
      "    Message('note_on', channel=4, note=64, velocity=0, time=80),\n",
      "    Message('note_on', channel=4, note=57, velocity=0, time=0),\n",
      "    Message('note_on', channel=4, note=57, velocity=79, time=40),\n",
      "    Message('note_on', channel=4, note=64, velocity=79, time=0),\n",
      "    Message('note_on', channel=4, note=64, velocity=0, time=80),\n",
      "    Message('note_on', channel=4, note=57, velocity=0, time=0),\n",
      "    Message('note_on', channel=4, note=57, velocity=79, time=40),\n",
      "    Message('note_on', channel=4, note=64, velocity=79, time=0),\n",
      "    Message('note_on', channel=4, note=64, velocity=0, time=80),\n",
      "    Message('note_on', channel=4, note=57, velocity=0, time=0),\n",
      "    Message('note_on', channel=4, note=57, velocity=79, time=40),\n",
      "    Message('note_on', channel=4, note=64, velocity=79, time=0),\n",
      "    Message('note_on', channel=4, note=64, velocity=0, time=80),\n",
      "    Message('note_on', channel=4, note=57, velocity=0, time=0),\n",
      "    Message('note_on', channel=4, note=57, velocity=79, time=40),\n",
      "    Message('note_on', channel=4, note=64, velocity=79, time=0),\n",
      "    Message('note_on', channel=4, note=64, velocity=0, time=80),\n",
      "    Message('note_on', channel=4, note=57, velocity=0, time=0),\n",
      "    Message('note_on', channel=4, note=57, velocity=79, time=40),\n",
      "    Message('note_on', channel=4, note=64, velocity=79, time=0),\n",
      "    Message('note_on', channel=4, note=64, velocity=0, time=80),\n",
      "    Message('note_on', channel=4, note=57, velocity=0, time=0),\n",
      "    Message('note_on', channel=4, note=56, velocity=79, time=40),\n",
      "    Message('note_on', channel=4, note=64, velocity=79, time=0),\n",
      "    Message('note_on', channel=4, note=64, velocity=0, time=80),\n",
      "    Message('note_on', channel=4, note=56, velocity=0, time=0),\n",
      "    Message('note_on', channel=4, note=56, velocity=79, time=40),\n",
      "    Message('note_on', channel=4, note=64, velocity=79, time=0),\n",
      "    Message('note_on', channel=4, note=64, velocity=0, time=80),\n",
      "    Message('note_on', channel=4, note=56, velocity=0, time=0),\n",
      "    Message('note_on', channel=4, note=56, velocity=79, time=40),\n",
      "    Message('note_on', channel=4, note=64, velocity=79, time=0),\n",
      "    Message('note_on', channel=4, note=64, velocity=0, time=80),\n",
      "    Message('note_on', channel=4, note=56, velocity=0, time=0),\n",
      "    Message('note_on', channel=4, note=56, velocity=79, time=40),\n",
      "    Message('note_on', channel=4, note=64, velocity=79, time=0),\n",
      "    Message('note_on', channel=4, note=64, velocity=0, time=80),\n",
      "    Message('note_on', channel=4, note=56, velocity=0, time=0),\n",
      "    Message('note_on', channel=4, note=56, velocity=79, time=40),\n",
      "    Message('note_on', channel=4, note=64, velocity=79, time=0),\n",
      "    Message('note_on', channel=4, note=64, velocity=0, time=80),\n",
      "    Message('note_on', channel=4, note=56, velocity=0, time=0),\n",
      "    Message('note_on', channel=4, note=56, velocity=79, time=40),\n",
      "    Message('note_on', channel=4, note=64, velocity=79, time=0),\n",
      "    Message('note_on', channel=4, note=64, velocity=0, time=80),\n",
      "    Message('note_on', channel=4, note=56, velocity=0, time=0),\n",
      "    Message('note_on', channel=4, note=56, velocity=79, time=40),\n",
      "    Message('note_on', channel=4, note=64, velocity=79, time=0),\n",
      "    Message('note_on', channel=4, note=64, velocity=0, time=80),\n",
      "    Message('note_on', channel=4, note=56, velocity=0, time=0),\n",
      "    Message('note_on', channel=4, note=56, velocity=79, time=40),\n",
      "    Message('note_on', channel=4, note=64, velocity=79, time=0),\n",
      "    Message('note_on', channel=4, note=64, velocity=0, time=80),\n",
      "    Message('note_on', channel=4, note=56, velocity=0, time=0),\n",
      "    Message('note_on', channel=4, note=54, velocity=79, time=40),\n",
      "    Message('note_on', channel=4, note=61, velocity=79, time=0),\n",
      "    Message('note_on', channel=4, note=61, velocity=0, time=80),\n",
      "    Message('note_on', channel=4, note=54, velocity=0, time=0),\n",
      "    Message('note_on', channel=4, note=54, velocity=79, time=40),\n",
      "    Message('note_on', channel=4, note=61, velocity=79, time=0),\n",
      "    Message('note_on', channel=4, note=61, velocity=0, time=80),\n",
      "    Message('note_on', channel=4, note=54, velocity=0, time=0),\n",
      "    Message('note_on', channel=4, note=54, velocity=79, time=40),\n",
      "    Message('note_on', channel=4, note=61, velocity=79, time=0),\n",
      "    Message('note_on', channel=4, note=61, velocity=0, time=80),\n",
      "    Message('note_on', channel=4, note=54, velocity=0, time=0),\n",
      "    Message('note_on', channel=4, note=54, velocity=79, time=40),\n",
      "    Message('note_on', channel=4, note=61, velocity=79, time=0),\n",
      "    Message('note_on', channel=4, note=61, velocity=0, time=80),\n",
      "    Message('note_on', channel=4, note=54, velocity=0, time=0),\n",
      "    Message('note_on', channel=4, note=57, velocity=79, time=40),\n",
      "    Message('note_on', channel=4, note=57, velocity=0, time=80),\n",
      "    Message('note_on', channel=4, note=56, velocity=79, time=40),\n",
      "    Message('note_on', channel=4, note=56, velocity=0, time=80),\n",
      "    Message('note_on', channel=4, note=56, velocity=79, time=40),\n",
      "    Message('note_on', channel=4, note=56, velocity=0, time=80),\n",
      "    Message('note_on', channel=4, note=56, velocity=79, time=40),\n",
      "    Message('note_on', channel=4, note=56, velocity=0, time=80),\n",
      "    Message('note_on', channel=4, note=57, velocity=79, time=40),\n",
      "    Message('note_on', channel=4, note=64, velocity=79, time=0),\n",
      "    Message('note_on', channel=4, note=64, velocity=0, time=80),\n",
      "    Message('note_on', channel=4, note=57, velocity=0, time=0),\n",
      "    Message('note_on', channel=4, note=57, velocity=79, time=40),\n",
      "    Message('note_on', channel=4, note=64, velocity=79, time=0),\n",
      "    Message('note_on', channel=4, note=64, velocity=0, time=80),\n",
      "    Message('note_on', channel=4, note=57, velocity=0, time=0),\n",
      "    Message('note_on', channel=4, note=57, velocity=79, time=40),\n",
      "    Message('note_on', channel=4, note=64, velocity=79, time=0),\n",
      "    Message('note_on', channel=4, note=64, velocity=0, time=80),\n",
      "    Message('note_on', channel=4, note=57, velocity=0, time=0),\n",
      "    Message('note_on', channel=4, note=57, velocity=79, time=40),\n",
      "    Message('note_on', channel=4, note=64, velocity=79, time=0),\n",
      "    Message('note_on', channel=4, note=64, velocity=0, time=80),\n",
      "    Message('note_on', channel=4, note=57, velocity=0, time=0),\n",
      "    Message('note_on', channel=4, note=58, velocity=79, time=40),\n",
      "    Message('note_on', channel=4, note=58, velocity=0, time=80),\n",
      "    Message('note_on', channel=4, note=58, velocity=79, time=40),\n",
      "    Message('note_on', channel=4, note=58, velocity=0, time=80),\n",
      "    Message('note_on', channel=4, note=58, velocity=79, time=40),\n",
      "    Message('note_on', channel=4, note=58, velocity=0, time=80),\n",
      "    Message('note_on', channel=4, note=58, velocity=79, time=40),\n",
      "    Message('note_on', channel=4, note=58, velocity=0, time=80),\n",
      "    Message('note_on', channel=4, note=47, velocity=79, time=40),\n",
      "    Message('note_on', channel=4, note=59, velocity=79, time=0),\n",
      "    Message('note_on', channel=4, note=59, velocity=0, time=80),\n",
      "    Message('note_on', channel=4, note=47, velocity=0, time=0),\n",
      "    Message('note_on', channel=4, note=47, velocity=79, time=40),\n",
      "    Message('note_on', channel=4, note=59, velocity=79, time=0),\n",
      "    Message('note_on', channel=4, note=59, velocity=0, time=80),\n",
      "    Message('note_on', channel=4, note=47, velocity=0, time=0),\n",
      "    Message('note_on', channel=4, note=47, velocity=79, time=40),\n",
      "    Message('note_on', channel=4, note=59, velocity=79, time=0),\n",
      "    Message('note_on', channel=4, note=59, velocity=0, time=80),\n",
      "    Message('note_on', channel=4, note=47, velocity=0, time=0),\n",
      "    Message('note_on', channel=4, note=47, velocity=79, time=40),\n",
      "    Message('note_on', channel=4, note=59, velocity=79, time=0),\n",
      "    Message('note_on', channel=4, note=59, velocity=0, time=80),\n",
      "    Message('note_on', channel=4, note=47, velocity=0, time=0),\n",
      "    Message('note_on', channel=4, note=47, velocity=79, time=40),\n",
      "    Message('note_on', channel=4, note=59, velocity=79, time=0),\n",
      "    Message('note_on', channel=4, note=59, velocity=0, time=80),\n",
      "    Message('note_on', channel=4, note=47, velocity=0, time=0),\n",
      "    Message('note_on', channel=4, note=47, velocity=79, time=40),\n",
      "    Message('note_on', channel=4, note=59, velocity=79, time=0),\n",
      "    Message('note_on', channel=4, note=59, velocity=0, time=80),\n",
      "    Message('note_on', channel=4, note=47, velocity=0, time=0),\n",
      "    Message('note_on', channel=4, note=47, velocity=79, time=40),\n",
      "    Message('note_on', channel=4, note=59, velocity=79, time=0),\n",
      "    Message('note_on', channel=4, note=59, velocity=0, time=80),\n",
      "    Message('note_on', channel=4, note=47, velocity=0, time=0),\n",
      "    Message('note_on', channel=4, note=47, velocity=79, time=40),\n",
      "    Message('note_on', channel=4, note=59, velocity=79, time=0),\n",
      "    Message('note_on', channel=4, note=59, velocity=0, time=80),\n",
      "    Message('note_on', channel=4, note=47, velocity=0, time=0),\n",
      "    Message('note_on', channel=4, note=47, velocity=79, time=40),\n",
      "    Message('note_on', channel=4, note=59, velocity=79, time=0),\n",
      "    Message('note_on', channel=4, note=59, velocity=0, time=80),\n",
      "    Message('note_on', channel=4, note=47, velocity=0, time=0),\n",
      "    Message('note_on', channel=4, note=47, velocity=79, time=40),\n",
      "    Message('note_on', channel=4, note=59, velocity=79, time=0),\n",
      "    Message('note_on', channel=4, note=59, velocity=0, time=80),\n",
      "    Message('note_on', channel=4, note=47, velocity=0, time=0),\n",
      "    Message('note_on', channel=4, note=64, velocity=79, time=880),\n",
      "    Message('note_on', channel=4, note=71, velocity=79, time=0),\n",
      "    Message('note_on', channel=4, note=71, velocity=0, time=80),\n",
      "    Message('note_on', channel=4, note=64, velocity=0, time=0),\n",
      "    Message('note_on', channel=4, note=64, velocity=79, time=40),\n",
      "    Message('note_on', channel=4, note=71, velocity=79, time=0),\n",
      "    Message('note_on', channel=4, note=71, velocity=0, time=80),\n",
      "    Message('note_on', channel=4, note=64, velocity=0, time=0),\n",
      "    Message('note_on', channel=4, note=64, velocity=79, time=40),\n",
      "    Message('note_on', channel=4, note=71, velocity=79, time=0),\n",
      "    Message('note_on', channel=4, note=71, velocity=0, time=80),\n",
      "    Message('note_on', channel=4, note=64, velocity=0, time=0),\n",
      "    Message('note_on', channel=4, note=63, velocity=79, time=40),\n",
      "    Message('note_on', channel=4, note=71, velocity=79, time=0),\n",
      "    Message('note_on', channel=4, note=71, velocity=0, time=80),\n",
      "    Message('note_on', channel=4, note=63, velocity=0, time=0),\n",
      "    Message('note_on', channel=4, note=63, velocity=79, time=40),\n",
      "    Message('note_on', channel=4, note=71, velocity=79, time=0),\n",
      "    Message('note_on', channel=4, note=71, velocity=0, time=80),\n",
      "    Message('note_on', channel=4, note=63, velocity=0, time=0),\n",
      "    Message('note_on', channel=4, note=63, velocity=79, time=40),\n",
      "    Message('note_on', channel=4, note=71, velocity=79, time=0),\n",
      "    Message('note_on', channel=4, note=71, velocity=0, time=80),\n",
      "    Message('note_on', channel=4, note=63, velocity=0, time=0),\n",
      "    Message('note_on', channel=4, note=63, velocity=79, time=40),\n",
      "    Message('note_on', channel=4, note=71, velocity=79, time=0),\n",
      "    Message('note_on', channel=4, note=71, velocity=0, time=80),\n",
      "    Message('note_on', channel=4, note=63, velocity=0, time=0),\n",
      "    Message('note_on', channel=4, note=61, velocity=79, time=40),\n",
      "    Message('note_on', channel=4, note=68, velocity=79, time=0),\n",
      "    Message('note_on', channel=4, note=68, velocity=0, time=80),\n",
      "    Message('note_on', channel=4, note=61, velocity=0, time=0),\n",
      "    Message('note_on', channel=4, note=61, velocity=79, time=40),\n",
      "    Message('note_on', channel=4, note=68, velocity=79, time=0),\n",
      "    Message('note_on', channel=4, note=68, velocity=0, time=80),\n",
      "    Message('note_on', channel=4, note=61, velocity=0, time=0),\n",
      "    Message('note_on', channel=4, note=61, velocity=79, time=40),\n",
      "    Message('note_on', channel=4, note=68, velocity=79, time=0),\n",
      "    Message('note_on', channel=4, note=68, velocity=0, time=80),\n",
      "    Message('note_on', channel=4, note=61, velocity=0, time=0),\n",
      "    Message('note_on', channel=4, note=61, velocity=79, time=40),\n",
      "    Message('note_on', channel=4, note=68, velocity=79, time=0),\n",
      "    Message('note_on', channel=4, note=68, velocity=0, time=80),\n",
      "    Message('note_on', channel=4, note=61, velocity=0, time=0),\n",
      "    Message('note_on', channel=4, note=59, velocity=79, time=40),\n",
      "    Message('note_on', channel=4, note=66, velocity=79, time=0),\n",
      "    Message('note_on', channel=4, note=66, velocity=0, time=80),\n",
      "    Message('note_on', channel=4, note=59, velocity=0, time=0),\n",
      "    Message('note_on', channel=4, note=59, velocity=79, time=40),\n",
      "    Message('note_on', channel=4, note=66, velocity=79, time=0),\n",
      "    Message('note_on', channel=4, note=66, velocity=0, time=80),\n",
      "    Message('note_on', channel=4, note=59, velocity=0, time=0),\n",
      "    Message('note_on', channel=4, note=59, velocity=79, time=40),\n",
      "    Message('note_on', channel=4, note=66, velocity=79, time=0),\n",
      "    Message('note_on', channel=4, note=66, velocity=0, time=80),\n",
      "    Message('note_on', channel=4, note=59, velocity=0, time=0),\n",
      "    Message('note_on', channel=4, note=59, velocity=79, time=40),\n",
      "    Message('note_on', channel=4, note=66, velocity=79, time=0),\n",
      "    Message('note_on', channel=4, note=66, velocity=0, time=80),\n",
      "    Message('note_on', channel=4, note=59, velocity=0, time=0),\n",
      "    Message('note_on', channel=4, note=57, velocity=79, time=40),\n",
      "    Message('note_on', channel=4, note=64, velocity=79, time=0),\n",
      "    Message('note_on', channel=4, note=64, velocity=0, time=80),\n",
      "    Message('note_on', channel=4, note=57, velocity=0, time=0),\n",
      "    Message('note_on', channel=4, note=57, velocity=79, time=40),\n",
      "    Message('note_on', channel=4, note=64, velocity=79, time=0),\n",
      "    Message('note_on', channel=4, note=64, velocity=0, time=80),\n",
      "    Message('note_on', channel=4, note=57, velocity=0, time=0),\n",
      "    Message('note_on', channel=4, note=57, velocity=79, time=40),\n",
      "    Message('note_on', channel=4, note=64, velocity=79, time=0),\n",
      "    Message('note_on', channel=4, note=64, velocity=0, time=80),\n",
      "    Message('note_on', channel=4, note=57, velocity=0, time=0),\n",
      "    Message('note_on', channel=4, note=57, velocity=79, time=40),\n",
      "    Message('note_on', channel=4, note=64, velocity=79, time=0),\n",
      "    Message('note_on', channel=4, note=64, velocity=0, time=80),\n",
      "    Message('note_on', channel=4, note=57, velocity=0, time=0),\n",
      "    Message('note_on', channel=4, note=57, velocity=79, time=40),\n",
      "    Message('note_on', channel=4, note=64, velocity=79, time=0),\n",
      "    Message('note_on', channel=4, note=64, velocity=0, time=80),\n",
      "    Message('note_on', channel=4, note=57, velocity=0, time=0),\n",
      "    Message('note_on', channel=4, note=61, velocity=79, time=40),\n",
      "    Message('note_on', channel=4, note=68, velocity=79, time=0),\n",
      "    Message('note_on', channel=4, note=68, velocity=0, time=80),\n",
      "    Message('note_on', channel=4, note=61, velocity=0, time=0),\n",
      "    Message('note_on', channel=4, note=61, velocity=79, time=40),\n",
      "    Message('note_on', channel=4, note=68, velocity=79, time=0),\n",
      "    Message('note_on', channel=4, note=68, velocity=0, time=80),\n",
      "    Message('note_on', channel=4, note=61, velocity=0, time=0),\n",
      "    Message('note_on', channel=4, note=61, velocity=79, time=40),\n",
      "    Message('note_on', channel=4, note=68, velocity=79, time=0),\n",
      "    Message('note_on', channel=4, note=68, velocity=0, time=80),\n",
      "    Message('note_on', channel=4, note=61, velocity=0, time=0),\n",
      "    Message('note_on', channel=4, note=59, velocity=79, time=40),\n",
      "    Message('note_on', channel=4, note=66, velocity=79, time=0),\n",
      "    Message('note_on', channel=4, note=66, velocity=0, time=80),\n",
      "    Message('note_on', channel=4, note=59, velocity=0, time=0),\n",
      "    Message('note_on', channel=4, note=59, velocity=79, time=40),\n",
      "    Message('note_on', channel=4, note=66, velocity=79, time=0),\n",
      "    Message('note_on', channel=4, note=66, velocity=0, time=80),\n",
      "    Message('note_on', channel=4, note=59, velocity=0, time=0),\n",
      "    Message('note_on', channel=4, note=59, velocity=79, time=40),\n",
      "    Message('note_on', channel=4, note=66, velocity=79, time=0),\n",
      "    Message('note_on', channel=4, note=66, velocity=0, time=80),\n",
      "    Message('note_on', channel=4, note=59, velocity=0, time=0),\n",
      "    Message('note_on', channel=4, note=59, velocity=79, time=40),\n",
      "    Message('note_on', channel=4, note=66, velocity=79, time=0),\n",
      "    Message('note_on', channel=4, note=66, velocity=0, time=80),\n",
      "    Message('note_on', channel=4, note=59, velocity=0, time=0),\n",
      "    Message('note_on', channel=4, note=59, velocity=79, time=40),\n",
      "    Message('note_on', channel=4, note=66, velocity=79, time=0),\n",
      "    Message('note_on', channel=4, note=66, velocity=0, time=80),\n",
      "    Message('note_on', channel=4, note=59, velocity=0, time=0),\n",
      "    Message('note_on', channel=4, note=59, velocity=79, time=40),\n",
      "    Message('note_on', channel=4, note=66, velocity=79, time=0),\n",
      "    Message('note_on', channel=4, note=66, velocity=0, time=80),\n",
      "    Message('note_on', channel=4, note=59, velocity=0, time=0),\n",
      "    Message('note_on', channel=4, note=59, velocity=79, time=40),\n",
      "    Message('note_on', channel=4, note=66, velocity=79, time=0),\n",
      "    Message('note_on', channel=4, note=66, velocity=0, time=80),\n",
      "    Message('note_on', channel=4, note=59, velocity=0, time=0),\n",
      "    Message('note_on', channel=4, note=59, velocity=79, time=40),\n",
      "    Message('note_on', channel=4, note=66, velocity=79, time=0),\n",
      "    Message('note_on', channel=4, note=66, velocity=0, time=80),\n",
      "    Message('note_on', channel=4, note=59, velocity=0, time=0),\n",
      "    Message('note_on', channel=4, note=59, velocity=79, time=40),\n",
      "    Message('note_on', channel=4, note=66, velocity=79, time=0),\n",
      "    Message('note_on', channel=4, note=66, velocity=0, time=80),\n",
      "    Message('note_on', channel=4, note=59, velocity=0, time=0),\n",
      "    Message('note_on', channel=4, note=64, velocity=79, time=40),\n",
      "    Message('note_on', channel=4, note=71, velocity=79, time=0),\n",
      "    Message('note_on', channel=4, note=71, velocity=0, time=80),\n",
      "    Message('note_on', channel=4, note=64, velocity=0, time=0),\n",
      "    Message('note_on', channel=4, note=64, velocity=79, time=40),\n",
      "    Message('note_on', channel=4, note=71, velocity=79, time=0),\n",
      "    Message('note_on', channel=4, note=71, velocity=0, time=80),\n",
      "    Message('note_on', channel=4, note=64, velocity=0, time=0),\n",
      "    Message('note_on', channel=4, note=64, velocity=79, time=40),\n",
      "    Message('note_on', channel=4, note=71, velocity=79, time=0),\n",
      "    Message('note_on', channel=4, note=71, velocity=0, time=80),\n",
      "    Message('note_on', channel=4, note=64, velocity=0, time=0),\n",
      "    Message('note_on', channel=4, note=63, velocity=79, time=40),\n",
      "    Message('note_on', channel=4, note=71, velocity=79, time=0),\n",
      "    Message('note_on', channel=4, note=71, velocity=0, time=80),\n",
      "    Message('note_on', channel=4, note=63, velocity=0, time=0),\n",
      "    Message('note_on', channel=4, note=63, velocity=79, time=40),\n",
      "    Message('note_on', channel=4, note=71, velocity=79, time=0),\n",
      "    Message('note_on', channel=4, note=71, velocity=0, time=80),\n",
      "    Message('note_on', channel=4, note=63, velocity=0, time=0),\n",
      "    Message('note_on', channel=4, note=63, velocity=79, time=40),\n",
      "    Message('note_on', channel=4, note=71, velocity=79, time=0),\n",
      "    Message('note_on', channel=4, note=71, velocity=0, time=80),\n",
      "    Message('note_on', channel=4, note=63, velocity=0, time=0),\n",
      "    Message('note_on', channel=4, note=63, velocity=79, time=40),\n",
      "    Message('note_on', channel=4, note=71, velocity=79, time=0),\n",
      "    Message('note_on', channel=4, note=71, velocity=0, time=80),\n",
      "    Message('note_on', channel=4, note=63, velocity=0, time=0),\n",
      "    Message('note_on', channel=4, note=61, velocity=79, time=40),\n",
      "    Message('note_on', channel=4, note=68, velocity=79, time=0),\n",
      "    Message('note_on', channel=4, note=68, velocity=0, time=80),\n",
      "    Message('note_on', channel=4, note=61, velocity=0, time=0),\n",
      "    Message('note_on', channel=4, note=61, velocity=79, time=40),\n",
      "    Message('note_on', channel=4, note=68, velocity=79, time=0),\n",
      "    Message('note_on', channel=4, note=68, velocity=0, time=80),\n",
      "    Message('note_on', channel=4, note=61, velocity=0, time=0),\n",
      "    Message('note_on', channel=4, note=61, velocity=79, time=40),\n",
      "    Message('note_on', channel=4, note=68, velocity=79, time=0),\n",
      "    Message('note_on', channel=4, note=68, velocity=0, time=80),\n",
      "    Message('note_on', channel=4, note=61, velocity=0, time=0),\n",
      "    Message('note_on', channel=4, note=61, velocity=79, time=40),\n",
      "    Message('note_on', channel=4, note=68, velocity=79, time=0),\n",
      "    Message('note_on', channel=4, note=68, velocity=0, time=80),\n",
      "    Message('note_on', channel=4, note=61, velocity=0, time=0),\n",
      "    Message('note_on', channel=4, note=59, velocity=79, time=40),\n",
      "    Message('note_on', channel=4, note=66, velocity=79, time=0),\n",
      "    Message('note_on', channel=4, note=66, velocity=0, time=80),\n",
      "    Message('note_on', channel=4, note=59, velocity=0, time=0),\n",
      "    Message('note_on', channel=4, note=59, velocity=79, time=40),\n",
      "    Message('note_on', channel=4, note=66, velocity=79, time=0),\n",
      "    Message('note_on', channel=4, note=66, velocity=0, time=80),\n",
      "    Message('note_on', channel=4, note=59, velocity=0, time=0),\n",
      "    Message('note_on', channel=4, note=59, velocity=79, time=40),\n",
      "    Message('note_on', channel=4, note=66, velocity=79, time=0),\n",
      "    Message('note_on', channel=4, note=66, velocity=0, time=80),\n",
      "    Message('note_on', channel=4, note=59, velocity=0, time=0),\n",
      "    Message('note_on', channel=4, note=59, velocity=79, time=40),\n",
      "    Message('note_on', channel=4, note=66, velocity=79, time=0),\n",
      "    Message('note_on', channel=4, note=66, velocity=0, time=80),\n",
      "    Message('note_on', channel=4, note=59, velocity=0, time=0),\n",
      "    Message('note_on', channel=4, note=57, velocity=79, time=40),\n",
      "    Message('note_on', channel=4, note=64, velocity=79, time=0),\n",
      "    Message('note_on', channel=4, note=64, velocity=0, time=80),\n",
      "    Message('note_on', channel=4, note=57, velocity=0, time=0),\n",
      "    Message('note_on', channel=4, note=57, velocity=79, time=40),\n",
      "    Message('note_on', channel=4, note=64, velocity=79, time=0),\n",
      "    Message('note_on', channel=4, note=64, velocity=0, time=80),\n",
      "    Message('note_on', channel=4, note=57, velocity=0, time=0),\n",
      "    Message('note_on', channel=4, note=57, velocity=79, time=40),\n",
      "    Message('note_on', channel=4, note=64, velocity=79, time=0),\n",
      "    Message('note_on', channel=4, note=64, velocity=0, time=80),\n",
      "    Message('note_on', channel=4, note=57, velocity=0, time=0),\n",
      "    Message('note_on', channel=4, note=57, velocity=79, time=40),\n",
      "    Message('note_on', channel=4, note=64, velocity=79, time=0),\n",
      "    Message('note_on', channel=4, note=64, velocity=0, time=80),\n",
      "    Message('note_on', channel=4, note=57, velocity=0, time=0),\n",
      "    Message('note_on', channel=4, note=57, velocity=79, time=40),\n",
      "    Message('note_on', channel=4, note=64, velocity=79, time=0),\n",
      "    Message('note_on', channel=4, note=64, velocity=0, time=80),\n",
      "    Message('note_on', channel=4, note=57, velocity=0, time=0),\n",
      "    Message('note_on', channel=4, note=61, velocity=79, time=40),\n",
      "    Message('note_on', channel=4, note=68, velocity=79, time=0),\n",
      "    Message('note_on', channel=4, note=68, velocity=0, time=80),\n",
      "    Message('note_on', channel=4, note=61, velocity=0, time=0),\n",
      "    Message('note_on', channel=4, note=61, velocity=79, time=40),\n",
      "    Message('note_on', channel=4, note=68, velocity=79, time=0),\n",
      "    Message('note_on', channel=4, note=68, velocity=0, time=80),\n",
      "    Message('note_on', channel=4, note=61, velocity=0, time=0),\n",
      "    Message('note_on', channel=4, note=61, velocity=79, time=40),\n",
      "    Message('note_on', channel=4, note=68, velocity=79, time=0),\n",
      "    Message('note_on', channel=4, note=68, velocity=0, time=80),\n",
      "    Message('note_on', channel=4, note=61, velocity=0, time=0),\n",
      "    Message('note_on', channel=4, note=59, velocity=79, time=40),\n",
      "    Message('note_on', channel=4, note=66, velocity=79, time=0),\n",
      "    Message('note_on', channel=4, note=66, velocity=0, time=80),\n",
      "    Message('note_on', channel=4, note=59, velocity=0, time=0),\n",
      "    Message('note_on', channel=4, note=59, velocity=79, time=40),\n",
      "    Message('note_on', channel=4, note=66, velocity=79, time=0),\n",
      "    Message('note_on', channel=4, note=66, velocity=0, time=80),\n",
      "    Message('note_on', channel=4, note=59, velocity=0, time=0),\n",
      "    Message('note_on', channel=4, note=59, velocity=79, time=40),\n",
      "    Message('note_on', channel=4, note=66, velocity=79, time=0),\n",
      "    Message('note_on', channel=4, note=66, velocity=0, time=80),\n",
      "    Message('note_on', channel=4, note=59, velocity=0, time=0),\n",
      "    Message('note_on', channel=4, note=59, velocity=79, time=40),\n",
      "    Message('note_on', channel=4, note=66, velocity=79, time=0),\n",
      "    Message('note_on', channel=4, note=66, velocity=0, time=80),\n",
      "    Message('note_on', channel=4, note=59, velocity=0, time=0),\n",
      "    Message('note_on', channel=4, note=59, velocity=79, time=40),\n",
      "    Message('note_on', channel=4, note=66, velocity=79, time=0),\n",
      "    Message('note_on', channel=4, note=66, velocity=0, time=80),\n",
      "    Message('note_on', channel=4, note=59, velocity=0, time=0),\n",
      "    Message('note_on', channel=4, note=59, velocity=79, time=40),\n",
      "    Message('note_on', channel=4, note=66, velocity=79, time=0),\n",
      "    Message('note_on', channel=4, note=66, velocity=0, time=80),\n",
      "    Message('note_on', channel=4, note=59, velocity=0, time=0),\n",
      "    Message('note_on', channel=4, note=59, velocity=79, time=40),\n",
      "    Message('note_on', channel=4, note=66, velocity=79, time=0),\n",
      "    Message('note_on', channel=4, note=66, velocity=0, time=80),\n",
      "    Message('note_on', channel=4, note=59, velocity=0, time=0),\n",
      "    Message('note_on', channel=4, note=59, velocity=79, time=40),\n",
      "    Message('note_on', channel=4, note=66, velocity=79, time=0),\n",
      "    Message('note_on', channel=4, note=66, velocity=0, time=80),\n",
      "    Message('note_on', channel=4, note=59, velocity=0, time=0),\n",
      "    Message('note_on', channel=4, note=57, velocity=79, time=40),\n",
      "    Message('note_on', channel=4, note=64, velocity=79, time=0),\n",
      "    Message('note_on', channel=4, note=64, velocity=0, time=80),\n",
      "    Message('note_on', channel=4, note=57, velocity=0, time=0),\n",
      "    Message('note_on', channel=4, note=57, velocity=79, time=40),\n",
      "    Message('note_on', channel=4, note=64, velocity=79, time=0),\n",
      "    Message('note_on', channel=4, note=64, velocity=0, time=80),\n",
      "    Message('note_on', channel=4, note=57, velocity=0, time=0),\n",
      "    Message('note_on', channel=4, note=57, velocity=79, time=40),\n",
      "    Message('note_on', channel=4, note=64, velocity=79, time=0),\n",
      "    Message('note_on', channel=4, note=64, velocity=0, time=80),\n",
      "    Message('note_on', channel=4, note=57, velocity=0, time=0),\n",
      "    Message('note_on', channel=4, note=57, velocity=79, time=40),\n",
      "    Message('note_on', channel=4, note=64, velocity=79, time=0),\n",
      "    Message('note_on', channel=4, note=64, velocity=0, time=80),\n",
      "    Message('note_on', channel=4, note=57, velocity=0, time=0),\n",
      "    Message('note_on', channel=4, note=57, velocity=79, time=40),\n",
      "    Message('note_on', channel=4, note=64, velocity=79, time=0),\n",
      "    Message('note_on', channel=4, note=64, velocity=0, time=80),\n",
      "    Message('note_on', channel=4, note=57, velocity=0, time=0),\n",
      "    Message('note_on', channel=4, note=61, velocity=79, time=40),\n",
      "    Message('note_on', channel=4, note=68, velocity=79, time=0),\n",
      "    Message('note_on', channel=4, note=68, velocity=0, time=80),\n",
      "    Message('note_on', channel=4, note=61, velocity=0, time=0),\n",
      "    Message('note_on', channel=4, note=61, velocity=79, time=40),\n",
      "    Message('note_on', channel=4, note=68, velocity=79, time=0),\n",
      "    Message('note_on', channel=4, note=68, velocity=0, time=80),\n",
      "    Message('note_on', channel=4, note=61, velocity=0, time=0),\n",
      "    Message('note_on', channel=4, note=61, velocity=79, time=40),\n",
      "    Message('note_on', channel=4, note=68, velocity=79, time=0),\n",
      "    Message('note_on', channel=4, note=68, velocity=0, time=80),\n",
      "    Message('note_on', channel=4, note=61, velocity=0, time=0),\n",
      "    Message('note_on', channel=4, note=59, velocity=79, time=40),\n",
      "    Message('note_on', channel=4, note=66, velocity=79, time=0),\n",
      "    Message('note_on', channel=4, note=66, velocity=0, time=80),\n",
      "    Message('note_on', channel=4, note=59, velocity=0, time=0),\n",
      "    Message('note_on', channel=4, note=59, velocity=79, time=40),\n",
      "    Message('note_on', channel=4, note=66, velocity=79, time=0),\n",
      "    Message('note_on', channel=4, note=66, velocity=0, time=80),\n",
      "    Message('note_on', channel=4, note=59, velocity=0, time=0),\n",
      "    Message('note_on', channel=4, note=59, velocity=79, time=40),\n",
      "    Message('note_on', channel=4, note=66, velocity=79, time=0),\n",
      "    Message('note_on', channel=4, note=66, velocity=0, time=80),\n",
      "    Message('note_on', channel=4, note=59, velocity=0, time=0),\n",
      "    Message('note_on', channel=4, note=59, velocity=79, time=40),\n",
      "    Message('note_on', channel=4, note=66, velocity=79, time=0),\n",
      "    Message('note_on', channel=4, note=66, velocity=0, time=80),\n",
      "    Message('note_on', channel=4, note=59, velocity=0, time=0),\n",
      "    Message('note_on', channel=4, note=59, velocity=79, time=40),\n",
      "    Message('note_on', channel=4, note=66, velocity=79, time=0),\n",
      "    Message('note_on', channel=4, note=66, velocity=0, time=80),\n",
      "    Message('note_on', channel=4, note=59, velocity=0, time=0),\n",
      "    Message('note_on', channel=4, note=59, velocity=79, time=40),\n",
      "    Message('note_on', channel=4, note=66, velocity=79, time=0),\n",
      "    Message('note_on', channel=4, note=66, velocity=0, time=80),\n",
      "    Message('note_on', channel=4, note=59, velocity=0, time=0),\n",
      "    Message('note_on', channel=4, note=59, velocity=79, time=40),\n",
      "    Message('note_on', channel=4, note=66, velocity=79, time=0),\n",
      "    Message('note_on', channel=4, note=66, velocity=0, time=80),\n",
      "    Message('note_on', channel=4, note=59, velocity=0, time=0),\n",
      "    Message('note_on', channel=4, note=59, velocity=79, time=40),\n",
      "    Message('note_on', channel=4, note=66, velocity=79, time=0),\n",
      "    Message('note_on', channel=4, note=66, velocity=0, time=80),\n",
      "    Message('note_on', channel=4, note=59, velocity=0, time=0),\n",
      "    Message('note_on', channel=4, note=59, velocity=79, time=40),\n",
      "    Message('note_on', channel=4, note=66, velocity=79, time=0),\n",
      "    Message('note_on', channel=4, note=66, velocity=0, time=80),\n",
      "    Message('note_on', channel=4, note=59, velocity=0, time=0),\n",
      "    Message('note_on', channel=4, note=57, velocity=79, time=40),\n",
      "    Message('note_on', channel=4, note=64, velocity=79, time=0),\n",
      "    Message('note_on', channel=4, note=64, velocity=0, time=80),\n",
      "    Message('note_on', channel=4, note=57, velocity=0, time=0),\n",
      "    Message('note_on', channel=4, note=57, velocity=79, time=40),\n",
      "    Message('note_on', channel=4, note=64, velocity=79, time=0),\n",
      "    Message('note_on', channel=4, note=64, velocity=0, time=80),\n",
      "    Message('note_on', channel=4, note=57, velocity=0, time=0),\n",
      "    Message('note_on', channel=4, note=57, velocity=79, time=40),\n",
      "    Message('note_on', channel=4, note=64, velocity=79, time=0),\n",
      "    Message('note_on', channel=4, note=64, velocity=0, time=80),\n",
      "    Message('note_on', channel=4, note=57, velocity=0, time=0),\n",
      "    Message('note_on', channel=4, note=57, velocity=79, time=40),\n",
      "    Message('note_on', channel=4, note=64, velocity=79, time=0),\n",
      "    Message('note_on', channel=4, note=64, velocity=0, time=80),\n",
      "    Message('note_on', channel=4, note=57, velocity=0, time=0),\n",
      "    Message('note_on', channel=4, note=61, velocity=79, time=40),\n",
      "    Message('note_on', channel=4, note=68, velocity=79, time=0),\n",
      "    Message('note_on', channel=4, note=68, velocity=0, time=80),\n",
      "    Message('note_on', channel=4, note=61, velocity=0, time=0),\n",
      "    Message('note_on', channel=4, note=61, velocity=79, time=40),\n",
      "    Message('note_on', channel=4, note=68, velocity=79, time=0),\n",
      "    Message('note_on', channel=4, note=68, velocity=0, time=80),\n",
      "    Message('note_on', channel=4, note=61, velocity=0, time=0),\n",
      "    Message('note_on', channel=4, note=61, velocity=79, time=40),\n",
      "    Message('note_on', channel=4, note=68, velocity=79, time=0),\n",
      "    Message('note_on', channel=4, note=68, velocity=0, time=80),\n",
      "    Message('note_on', channel=4, note=61, velocity=0, time=0),\n",
      "    Message('note_on', channel=4, note=59, velocity=79, time=40),\n",
      "    Message('note_on', channel=4, note=66, velocity=79, time=0),\n",
      "    Message('note_on', channel=4, note=66, velocity=0, time=80),\n",
      "    Message('note_on', channel=4, note=59, velocity=0, time=0),\n",
      "    Message('note_on', channel=4, note=59, velocity=79, time=40),\n",
      "    Message('note_on', channel=4, note=66, velocity=79, time=0),\n",
      "    Message('note_on', channel=4, note=66, velocity=0, time=80),\n",
      "    Message('note_on', channel=4, note=59, velocity=0, time=0),\n",
      "    Message('note_on', channel=4, note=59, velocity=79, time=40),\n",
      "    Message('note_on', channel=4, note=66, velocity=79, time=0),\n",
      "    Message('note_on', channel=4, note=66, velocity=0, time=80),\n",
      "    Message('note_on', channel=4, note=59, velocity=0, time=0),\n",
      "    Message('note_on', channel=4, note=59, velocity=79, time=40),\n",
      "    Message('note_on', channel=4, note=66, velocity=79, time=0),\n",
      "    Message('note_on', channel=4, note=66, velocity=0, time=80),\n",
      "    Message('note_on', channel=4, note=59, velocity=0, time=0),\n",
      "    Message('note_on', channel=4, note=59, velocity=79, time=40),\n",
      "    Message('note_on', channel=4, note=66, velocity=79, time=0),\n",
      "    Message('note_on', channel=4, note=66, velocity=0, time=80),\n",
      "    Message('note_on', channel=4, note=59, velocity=0, time=0),\n",
      "    Message('note_on', channel=4, note=59, velocity=79, time=40),\n",
      "    Message('note_on', channel=4, note=66, velocity=79, time=0),\n",
      "    Message('note_on', channel=4, note=66, velocity=0, time=80),\n",
      "    Message('note_on', channel=4, note=59, velocity=0, time=0),\n",
      "    Message('note_on', channel=4, note=59, velocity=79, time=40),\n",
      "    Message('note_on', channel=4, note=66, velocity=79, time=0),\n",
      "    Message('note_on', channel=4, note=66, velocity=0, time=80),\n",
      "    Message('note_on', channel=4, note=59, velocity=0, time=0),\n",
      "    Message('note_on', channel=4, note=59, velocity=79, time=40),\n",
      "    Message('note_on', channel=4, note=66, velocity=79, time=0),\n",
      "    Message('note_on', channel=4, note=66, velocity=0, time=80),\n",
      "    Message('note_on', channel=4, note=59, velocity=0, time=0),\n",
      "    Message('note_on', channel=4, note=59, velocity=79, time=40),\n",
      "    Message('note_on', channel=4, note=66, velocity=79, time=0),\n",
      "    Message('note_on', channel=4, note=66, velocity=0, time=80),\n",
      "    Message('note_on', channel=4, note=59, velocity=0, time=0),\n",
      "    Message('note_on', channel=4, note=54, velocity=79, time=40),\n",
      "    Message('note_on', channel=4, note=69, velocity=79, time=0),\n",
      "    Message('note_on', channel=4, note=69, velocity=0, time=80),\n",
      "    Message('note_on', channel=4, note=54, velocity=0, time=0),\n",
      "    Message('note_on', channel=4, note=54, velocity=79, time=40),\n",
      "    Message('note_on', channel=4, note=69, velocity=79, time=0),\n",
      "    Message('note_on', channel=4, note=69, velocity=0, time=80),\n",
      "    Message('note_on', channel=4, note=54, velocity=0, time=0),\n",
      "    Message('note_on', channel=4, note=54, velocity=79, time=40),\n",
      "    Message('note_on', channel=4, note=69, velocity=79, time=0),\n",
      "    Message('note_on', channel=4, note=69, velocity=0, time=80),\n",
      "    Message('note_on', channel=4, note=54, velocity=0, time=0),\n",
      "    Message('note_on', channel=4, note=56, velocity=79, time=40),\n",
      "    Message('note_on', channel=4, note=71, velocity=79, time=0),\n",
      "    Message('note_on', channel=4, note=71, velocity=0, time=80),\n",
      "    Message('note_on', channel=4, note=56, velocity=0, time=0),\n",
      "    Message('note_on', channel=4, note=56, velocity=79, time=40),\n",
      "    Message('note_on', channel=4, note=71, velocity=79, time=0),\n",
      "    Message('note_on', channel=4, note=71, velocity=0, time=80),\n",
      "    Message('note_on', channel=4, note=56, velocity=0, time=0),\n",
      "    Message('note_on', channel=4, note=56, velocity=79, time=40),\n",
      "    Message('note_on', channel=4, note=71, velocity=79, time=0),\n",
      "    Message('note_on', channel=4, note=71, velocity=0, time=80),\n",
      "    Message('note_on', channel=4, note=56, velocity=0, time=0),\n",
      "    Message('note_on', channel=4, note=56, velocity=79, time=40),\n",
      "    Message('note_on', channel=4, note=71, velocity=79, time=0),\n",
      "    Message('note_on', channel=4, note=71, velocity=0, time=80),\n",
      "    Message('note_on', channel=4, note=56, velocity=0, time=0),\n",
      "    Message('note_on', channel=4, note=57, velocity=79, time=40),\n",
      "    Message('note_on', channel=4, note=64, velocity=79, time=0),\n",
      "    Message('note_on', channel=4, note=64, velocity=0, time=80),\n",
      "    Message('note_on', channel=4, note=57, velocity=0, time=0),\n",
      "    Message('note_on', channel=4, note=57, velocity=79, time=40),\n",
      "    Message('note_on', channel=4, note=64, velocity=79, time=0),\n",
      "    Message('note_on', channel=4, note=64, velocity=0, time=80),\n",
      "    Message('note_on', channel=4, note=57, velocity=0, time=0),\n",
      "    Message('note_on', channel=4, note=57, velocity=79, time=40),\n",
      "    Message('note_on', channel=4, note=64, velocity=79, time=0),\n",
      "    Message('note_on', channel=4, note=64, velocity=0, time=80),\n",
      "    Message('note_on', channel=4, note=57, velocity=0, time=0),\n",
      "    Message('note_on', channel=4, note=57, velocity=79, time=40),\n",
      "    Message('note_on', channel=4, note=64, velocity=79, time=0),\n",
      "    Message('note_on', channel=4, note=64, velocity=0, time=80),\n",
      "    Message('note_on', channel=4, note=57, velocity=0, time=0),\n",
      "    Message('note_on', channel=4, note=58, velocity=79, time=40),\n",
      "    Message('note_on', channel=4, note=66, velocity=79, time=0),\n",
      "    Message('note_on', channel=4, note=66, velocity=0, time=80),\n",
      "    Message('note_on', channel=4, note=58, velocity=0, time=0),\n",
      "    Message('note_on', channel=4, note=58, velocity=79, time=40),\n",
      "    Message('note_on', channel=4, note=66, velocity=79, time=0),\n",
      "    Message('note_on', channel=4, note=66, velocity=0, time=80),\n",
      "    Message('note_on', channel=4, note=58, velocity=0, time=0),\n",
      "    Message('note_on', channel=4, note=58, velocity=79, time=40),\n",
      "    Message('note_on', channel=4, note=66, velocity=79, time=0),\n",
      "    Message('note_on', channel=4, note=66, velocity=0, time=80),\n",
      "    Message('note_on', channel=4, note=58, velocity=0, time=0),\n",
      "    Message('note_on', channel=4, note=58, velocity=79, time=40),\n",
      "    Message('note_on', channel=4, note=66, velocity=79, time=0),\n",
      "    Message('note_on', channel=4, note=66, velocity=0, time=80),\n",
      "    Message('note_on', channel=4, note=58, velocity=0, time=0),\n",
      "    Message('note_on', channel=4, note=58, velocity=79, time=40),\n",
      "    Message('note_on', channel=4, note=66, velocity=79, time=0),\n",
      "    Message('note_on', channel=4, note=66, velocity=0, time=80),\n",
      "    Message('note_on', channel=4, note=58, velocity=0, time=0),\n",
      "    Message('note_on', channel=4, note=59, velocity=79, time=40),\n",
      "    Message('note_on', channel=4, note=66, velocity=79, time=0),\n",
      "    Message('note_on', channel=4, note=66, velocity=0, time=80),\n",
      "    Message('note_on', channel=4, note=59, velocity=0, time=0),\n",
      "    Message('note_on', channel=4, note=59, velocity=79, time=40),\n",
      "    Message('note_on', channel=4, note=66, velocity=79, time=0),\n",
      "    Message('note_on', channel=4, note=66, velocity=0, time=80),\n",
      "    Message('note_on', channel=4, note=59, velocity=0, time=0),\n",
      "    Message('note_on', channel=4, note=59, velocity=79, time=40),\n",
      "    Message('note_on', channel=4, note=66, velocity=79, time=0),\n",
      "    Message('note_on', channel=4, note=66, velocity=0, time=80),\n",
      "    Message('note_on', channel=4, note=59, velocity=0, time=0),\n",
      "    Message('note_on', channel=4, note=59, velocity=79, time=40),\n",
      "    Message('note_on', channel=4, note=66, velocity=79, time=0),\n",
      "    Message('note_on', channel=4, note=66, velocity=0, time=80),\n",
      "    Message('note_on', channel=4, note=59, velocity=0, time=0),\n",
      "    Message('note_on', channel=4, note=59, velocity=79, time=40),\n",
      "    Message('note_on', channel=4, note=66, velocity=79, time=0),\n",
      "    Message('note_on', channel=4, note=66, velocity=0, time=80),\n",
      "    Message('note_on', channel=4, note=59, velocity=0, time=0),\n",
      "    Message('note_on', channel=4, note=59, velocity=79, time=40),\n",
      "    Message('note_on', channel=4, note=66, velocity=79, time=0),\n",
      "    Message('note_on', channel=4, note=66, velocity=0, time=80),\n",
      "    Message('note_on', channel=4, note=59, velocity=0, time=0),\n",
      "    Message('note_on', channel=4, note=59, velocity=79, time=40),\n",
      "    Message('note_on', channel=4, note=66, velocity=79, time=0),\n",
      "    Message('note_on', channel=4, note=66, velocity=0, time=80),\n",
      "    Message('note_on', channel=4, note=59, velocity=0, time=0),\n",
      "    Message('note_on', channel=4, note=59, velocity=79, time=40),\n",
      "    Message('note_on', channel=4, note=66, velocity=79, time=0),\n",
      "    Message('note_on', channel=4, note=66, velocity=0, time=80),\n",
      "    Message('note_on', channel=4, note=59, velocity=0, time=0),\n",
      "    Message('note_on', channel=4, note=59, velocity=79, time=40),\n",
      "    Message('note_on', channel=4, note=66, velocity=79, time=0),\n",
      "    Message('note_on', channel=4, note=66, velocity=0, time=80),\n",
      "    Message('note_on', channel=4, note=59, velocity=0, time=0),\n",
      "    Message('note_on', channel=4, note=59, velocity=79, time=40),\n",
      "    Message('note_on', channel=4, note=66, velocity=79, time=0),\n",
      "    Message('note_on', channel=4, note=66, velocity=0, time=80),\n",
      "    Message('note_on', channel=4, note=59, velocity=0, time=0),\n",
      "    Message('note_on', channel=4, note=57, velocity=79, time=640),\n",
      "    Message('note_on', channel=4, note=64, velocity=79, time=0),\n",
      "    Message('note_on', channel=4, note=64, velocity=0, time=80),\n",
      "    Message('note_on', channel=4, note=57, velocity=0, time=0),\n",
      "    Message('note_on', channel=4, note=57, velocity=79, time=40),\n",
      "    Message('note_on', channel=4, note=64, velocity=79, time=0),\n",
      "    Message('note_on', channel=4, note=64, velocity=0, time=80),\n",
      "    Message('note_on', channel=4, note=57, velocity=0, time=0),\n",
      "    Message('note_on', channel=4, note=57, velocity=79, time=40),\n",
      "    Message('note_on', channel=4, note=64, velocity=79, time=0),\n",
      "    Message('note_on', channel=4, note=64, velocity=0, time=80),\n",
      "    Message('note_on', channel=4, note=57, velocity=0, time=0),\n",
      "    Message('note_on', channel=4, note=57, velocity=79, time=40),\n",
      "    Message('note_on', channel=4, note=64, velocity=79, time=0),\n",
      "    Message('note_on', channel=4, note=64, velocity=0, time=80),\n",
      "    Message('note_on', channel=4, note=57, velocity=0, time=0),\n",
      "    Message('note_on', channel=4, note=57, velocity=79, time=40),\n",
      "    Message('note_on', channel=4, note=64, velocity=79, time=0),\n",
      "    Message('note_on', channel=4, note=64, velocity=0, time=80),\n",
      "    Message('note_on', channel=4, note=57, velocity=0, time=0),\n",
      "    Message('note_on', channel=4, note=57, velocity=79, time=40),\n",
      "    Message('note_on', channel=4, note=64, velocity=79, time=0),\n",
      "    Message('note_on', channel=4, note=64, velocity=0, time=80),\n",
      "    Message('note_on', channel=4, note=57, velocity=0, time=0),\n",
      "    Message('note_on', channel=4, note=57, velocity=79, time=40),\n",
      "    Message('note_on', channel=4, note=64, velocity=79, time=0),\n",
      "    Message('note_on', channel=4, note=64, velocity=0, time=80),\n",
      "    Message('note_on', channel=4, note=57, velocity=0, time=0),\n",
      "    Message('note_on', channel=4, note=57, velocity=79, time=40),\n",
      "    Message('note_on', channel=4, note=64, velocity=79, time=0),\n",
      "    Message('note_on', channel=4, note=64, velocity=0, time=80),\n",
      "    Message('note_on', channel=4, note=57, velocity=0, time=0),\n",
      "    Message('note_on', channel=4, note=56, velocity=79, time=40),\n",
      "    Message('note_on', channel=4, note=64, velocity=79, time=0),\n",
      "    Message('note_on', channel=4, note=64, velocity=0, time=80),\n",
      "    Message('note_on', channel=4, note=56, velocity=0, time=0),\n",
      "    Message('note_on', channel=4, note=56, velocity=79, time=40),\n",
      "    Message('note_on', channel=4, note=64, velocity=79, time=0),\n",
      "    Message('note_on', channel=4, note=64, velocity=0, time=80),\n",
      "    Message('note_on', channel=4, note=56, velocity=0, time=0),\n",
      "    Message('note_on', channel=4, note=56, velocity=79, time=40),\n",
      "    Message('note_on', channel=4, note=64, velocity=79, time=0),\n",
      "    Message('note_on', channel=4, note=64, velocity=0, time=80),\n",
      "    Message('note_on', channel=4, note=56, velocity=0, time=0),\n",
      "    Message('note_on', channel=4, note=56, velocity=79, time=40),\n",
      "    Message('note_on', channel=4, note=64, velocity=79, time=0),\n",
      "    Message('note_on', channel=4, note=64, velocity=0, time=80),\n",
      "    Message('note_on', channel=4, note=56, velocity=0, time=0),\n",
      "    Message('note_on', channel=4, note=56, velocity=79, time=40),\n",
      "    Message('note_on', channel=4, note=64, velocity=79, time=0),\n",
      "    Message('note_on', channel=4, note=64, velocity=0, time=80),\n",
      "    Message('note_on', channel=4, note=56, velocity=0, time=0),\n",
      "    Message('note_on', channel=4, note=56, velocity=79, time=40),\n",
      "    Message('note_on', channel=4, note=64, velocity=79, time=0),\n",
      "    Message('note_on', channel=4, note=64, velocity=0, time=80),\n",
      "    Message('note_on', channel=4, note=56, velocity=0, time=0),\n",
      "    Message('note_on', channel=4, note=56, velocity=79, time=40),\n",
      "    Message('note_on', channel=4, note=64, velocity=79, time=0),\n",
      "    Message('note_on', channel=4, note=64, velocity=0, time=80),\n",
      "    Message('note_on', channel=4, note=56, velocity=0, time=0),\n",
      "    Message('note_on', channel=4, note=56, velocity=79, time=40),\n",
      "    Message('note_on', channel=4, note=64, velocity=79, time=0),\n",
      "    Message('note_on', channel=4, note=64, velocity=0, time=80),\n",
      "    Message('note_on', channel=4, note=56, velocity=0, time=0),\n",
      "    Message('note_on', channel=4, note=54, velocity=79, time=40),\n",
      "    Message('note_on', channel=4, note=61, velocity=79, time=0),\n",
      "    Message('note_on', channel=4, note=61, velocity=0, time=80),\n",
      "    Message('note_on', channel=4, note=54, velocity=0, time=0),\n",
      "    Message('note_on', channel=4, note=54, velocity=79, time=40),\n",
      "    Message('note_on', channel=4, note=61, velocity=79, time=0),\n",
      "    Message('note_on', channel=4, note=61, velocity=0, time=80),\n",
      "    Message('note_on', channel=4, note=54, velocity=0, time=0),\n",
      "    Message('note_on', channel=4, note=54, velocity=79, time=40),\n",
      "    Message('note_on', channel=4, note=61, velocity=79, time=0),\n",
      "    Message('note_on', channel=4, note=61, velocity=0, time=80),\n",
      "    Message('note_on', channel=4, note=54, velocity=0, time=0),\n",
      "    Message('note_on', channel=4, note=54, velocity=79, time=40),\n",
      "    Message('note_on', channel=4, note=61, velocity=79, time=0),\n",
      "    Message('note_on', channel=4, note=61, velocity=0, time=80),\n",
      "    Message('note_on', channel=4, note=54, velocity=0, time=0),\n",
      "    Message('note_on', channel=4, note=54, velocity=79, time=40),\n",
      "    Message('note_on', channel=4, note=61, velocity=79, time=0),\n",
      "    Message('note_on', channel=4, note=61, velocity=0, time=80),\n",
      "    Message('note_on', channel=4, note=54, velocity=0, time=0),\n",
      "    Message('note_on', channel=4, note=54, velocity=79, time=40),\n",
      "    Message('note_on', channel=4, note=61, velocity=79, time=0),\n",
      "    Message('note_on', channel=4, note=61, velocity=0, time=80),\n",
      "    Message('note_on', channel=4, note=54, velocity=0, time=0),\n",
      "    Message('note_on', channel=4, note=54, velocity=79, time=40),\n",
      "    Message('note_on', channel=4, note=61, velocity=79, time=0),\n",
      "    Message('note_on', channel=4, note=61, velocity=0, time=80),\n",
      "    Message('note_on', channel=4, note=54, velocity=0, time=0),\n",
      "    Message('note_on', channel=4, note=54, velocity=79, time=40),\n",
      "    Message('note_on', channel=4, note=61, velocity=79, time=0),\n",
      "    Message('note_on', channel=4, note=61, velocity=0, time=80),\n",
      "    Message('note_on', channel=4, note=54, velocity=0, time=0),\n",
      "    Message('note_on', channel=4, note=61, velocity=79, time=40),\n",
      "    Message('note_on', channel=4, note=68, velocity=79, time=0),\n",
      "    Message('note_on', channel=4, note=68, velocity=0, time=80),\n",
      "    Message('note_on', channel=4, note=61, velocity=0, time=0),\n",
      "    Message('note_on', channel=4, note=61, velocity=79, time=40),\n",
      "    Message('note_on', channel=4, note=68, velocity=79, time=0),\n",
      "    Message('note_on', channel=4, note=68, velocity=0, time=80),\n",
      "    Message('note_on', channel=4, note=61, velocity=0, time=0),\n",
      "    Message('note_on', channel=4, note=61, velocity=79, time=40),\n",
      "    Message('note_on', channel=4, note=68, velocity=79, time=0),\n",
      "    Message('note_on', channel=4, note=68, velocity=0, time=80),\n",
      "    Message('note_on', channel=4, note=61, velocity=0, time=0),\n",
      "    Message('note_on', channel=4, note=61, velocity=79, time=40),\n",
      "    Message('note_on', channel=4, note=68, velocity=79, time=0),\n",
      "    Message('note_on', channel=4, note=68, velocity=0, time=80),\n",
      "    Message('note_on', channel=4, note=61, velocity=0, time=0),\n",
      "    Message('note_on', channel=4, note=61, velocity=79, time=40),\n",
      "    Message('note_on', channel=4, note=68, velocity=79, time=0),\n",
      "    Message('note_on', channel=4, note=68, velocity=0, time=80),\n",
      "    Message('note_on', channel=4, note=61, velocity=0, time=0),\n",
      "    Message('note_on', channel=4, note=52, velocity=79, time=40),\n",
      "    Message('note_on', channel=4, note=64, velocity=79, time=0),\n",
      "    Message('note_on', channel=4, note=64, velocity=0, time=80),\n",
      "    Message('note_on', channel=4, note=52, velocity=0, time=0),\n",
      "    Message('note_on', channel=4, note=52, velocity=79, time=40),\n",
      "    Message('note_on', channel=4, note=64, velocity=79, time=0),\n",
      "    Message('note_on', channel=4, note=64, velocity=0, time=80),\n",
      "    Message('note_on', channel=4, note=52, velocity=0, time=0),\n",
      "    Message('note_on', channel=4, note=52, velocity=79, time=40),\n",
      "    Message('note_on', channel=4, note=64, velocity=79, time=0),\n",
      "    Message('note_on', channel=4, note=64, velocity=0, time=80),\n",
      "    Message('note_on', channel=4, note=52, velocity=0, time=0),\n",
      "    Message('note_on', channel=4, note=57, velocity=79, time=40),\n",
      "    Message('note_on', channel=4, note=64, velocity=79, time=0),\n",
      "    Message('note_on', channel=4, note=64, velocity=0, time=80),\n",
      "    Message('note_on', channel=4, note=57, velocity=0, time=0),\n",
      "    Message('note_on', channel=4, note=57, velocity=79, time=40),\n",
      "    Message('note_on', channel=4, note=64, velocity=79, time=0),\n",
      "    Message('note_on', channel=4, note=64, velocity=0, time=80),\n",
      "    Message('note_on', channel=4, note=57, velocity=0, time=0),\n",
      "    Message('note_on', channel=4, note=57, velocity=79, time=40),\n",
      "    Message('note_on', channel=4, note=64, velocity=79, time=0),\n",
      "    Message('note_on', channel=4, note=64, velocity=0, time=80),\n",
      "    Message('note_on', channel=4, note=57, velocity=0, time=0),\n",
      "    Message('note_on', channel=4, note=57, velocity=79, time=40),\n",
      "    Message('note_on', channel=4, note=64, velocity=79, time=0),\n",
      "    Message('note_on', channel=4, note=64, velocity=0, time=80),\n",
      "    Message('note_on', channel=4, note=57, velocity=0, time=0),\n",
      "    Message('note_on', channel=4, note=57, velocity=79, time=40),\n",
      "    Message('note_on', channel=4, note=64, velocity=79, time=0),\n",
      "    Message('note_on', channel=4, note=64, velocity=0, time=80),\n",
      "    Message('note_on', channel=4, note=57, velocity=0, time=0),\n",
      "    Message('note_on', channel=4, note=57, velocity=79, time=40),\n",
      "    Message('note_on', channel=4, note=64, velocity=79, time=0),\n",
      "    Message('note_on', channel=4, note=64, velocity=0, time=80),\n",
      "    Message('note_on', channel=4, note=57, velocity=0, time=0),\n",
      "    Message('note_on', channel=4, note=57, velocity=79, time=40),\n",
      "    Message('note_on', channel=4, note=64, velocity=79, time=0),\n",
      "    Message('note_on', channel=4, note=64, velocity=0, time=80),\n",
      "    Message('note_on', channel=4, note=57, velocity=0, time=0),\n",
      "    Message('note_on', channel=4, note=57, velocity=79, time=40),\n",
      "    Message('note_on', channel=4, note=64, velocity=79, time=0),\n",
      "    Message('note_on', channel=4, note=64, velocity=0, time=80),\n",
      "    Message('note_on', channel=4, note=57, velocity=0, time=0),\n",
      "    Message('note_on', channel=4, note=56, velocity=79, time=40),\n",
      "    Message('note_on', channel=4, note=64, velocity=79, time=0),\n",
      "    Message('note_on', channel=4, note=64, velocity=0, time=80),\n",
      "    Message('note_on', channel=4, note=56, velocity=0, time=0),\n",
      "    Message('note_on', channel=4, note=56, velocity=79, time=40),\n",
      "    Message('note_on', channel=4, note=64, velocity=79, time=0),\n",
      "    Message('note_on', channel=4, note=64, velocity=0, time=80),\n",
      "    Message('note_on', channel=4, note=56, velocity=0, time=0),\n",
      "    Message('note_on', channel=4, note=56, velocity=79, time=40),\n",
      "    Message('note_on', channel=4, note=64, velocity=79, time=0),\n",
      "    Message('note_on', channel=4, note=64, velocity=0, time=80),\n",
      "    Message('note_on', channel=4, note=56, velocity=0, time=0),\n",
      "    Message('note_on', channel=4, note=56, velocity=79, time=40),\n",
      "    Message('note_on', channel=4, note=64, velocity=79, time=0),\n",
      "    Message('note_on', channel=4, note=64, velocity=0, time=80),\n",
      "    Message('note_on', channel=4, note=56, velocity=0, time=0),\n",
      "    Message('note_on', channel=4, note=56, velocity=79, time=40),\n",
      "    Message('note_on', channel=4, note=64, velocity=79, time=0),\n",
      "    Message('note_on', channel=4, note=64, velocity=0, time=80),\n",
      "    Message('note_on', channel=4, note=56, velocity=0, time=0),\n",
      "    Message('note_on', channel=4, note=56, velocity=79, time=40),\n",
      "    Message('note_on', channel=4, note=64, velocity=79, time=0),\n",
      "    Message('note_on', channel=4, note=64, velocity=0, time=80),\n",
      "    Message('note_on', channel=4, note=56, velocity=0, time=0),\n",
      "    Message('note_on', channel=4, note=56, velocity=79, time=40),\n",
      "    Message('note_on', channel=4, note=64, velocity=79, time=0),\n",
      "    Message('note_on', channel=4, note=64, velocity=0, time=80),\n",
      "    Message('note_on', channel=4, note=56, velocity=0, time=0),\n",
      "    Message('note_on', channel=4, note=56, velocity=79, time=40),\n",
      "    Message('note_on', channel=4, note=64, velocity=79, time=0),\n",
      "    Message('note_on', channel=4, note=64, velocity=0, time=80),\n",
      "    Message('note_on', channel=4, note=56, velocity=0, time=0),\n",
      "    Message('note_on', channel=4, note=54, velocity=79, time=40),\n",
      "    Message('note_on', channel=4, note=61, velocity=79, time=0),\n",
      "    Message('note_on', channel=4, note=61, velocity=0, time=80),\n",
      "    Message('note_on', channel=4, note=54, velocity=0, time=0),\n",
      "    Message('note_on', channel=4, note=54, velocity=79, time=40),\n",
      "    Message('note_on', channel=4, note=61, velocity=79, time=0),\n",
      "    Message('note_on', channel=4, note=61, velocity=0, time=80),\n",
      "    Message('note_on', channel=4, note=54, velocity=0, time=0),\n",
      "    Message('note_on', channel=4, note=54, velocity=79, time=40),\n",
      "    Message('note_on', channel=4, note=61, velocity=79, time=0),\n",
      "    Message('note_on', channel=4, note=61, velocity=0, time=80),\n",
      "    Message('note_on', channel=4, note=54, velocity=0, time=0),\n",
      "    Message('note_on', channel=4, note=54, velocity=79, time=40),\n",
      "    Message('note_on', channel=4, note=61, velocity=79, time=0),\n",
      "    Message('note_on', channel=4, note=61, velocity=0, time=80),\n",
      "    Message('note_on', channel=4, note=54, velocity=0, time=0),\n",
      "    Message('note_on', channel=4, note=54, velocity=79, time=40),\n",
      "    Message('note_on', channel=4, note=61, velocity=79, time=0),\n",
      "    Message('note_on', channel=4, note=61, velocity=0, time=80),\n",
      "    Message('note_on', channel=4, note=54, velocity=0, time=0),\n",
      "    Message('note_on', channel=4, note=54, velocity=79, time=40),\n",
      "    Message('note_on', channel=4, note=61, velocity=79, time=0),\n",
      "    Message('note_on', channel=4, note=61, velocity=0, time=80),\n",
      "    Message('note_on', channel=4, note=54, velocity=0, time=0),\n",
      "    Message('note_on', channel=4, note=54, velocity=79, time=40),\n",
      "    Message('note_on', channel=4, note=61, velocity=79, time=0),\n",
      "    Message('note_on', channel=4, note=61, velocity=0, time=80),\n",
      "    Message('note_on', channel=4, note=54, velocity=0, time=0),\n",
      "    Message('note_on', channel=4, note=54, velocity=79, time=40),\n",
      "    Message('note_on', channel=4, note=61, velocity=79, time=0),\n",
      "    Message('note_on', channel=4, note=61, velocity=0, time=80),\n",
      "    Message('note_on', channel=4, note=54, velocity=0, time=0),\n",
      "    Message('note_on', channel=4, note=61, velocity=79, time=40),\n",
      "    Message('note_on', channel=4, note=61, velocity=0, time=80),\n",
      "    Message('note_on', channel=4, note=61, velocity=79, time=40),\n",
      "    Message('note_on', channel=4, note=61, velocity=0, time=80),\n",
      "    Message('note_on', channel=4, note=61, velocity=79, time=40),\n",
      "    Message('note_on', channel=4, note=61, velocity=0, time=80),\n",
      "    Message('note_on', channel=4, note=61, velocity=79, time=40),\n",
      "    Message('note_on', channel=4, note=61, velocity=0, time=80),\n",
      "    Message('note_on', channel=4, note=61, velocity=79, time=40),\n",
      "    Message('note_on', channel=4, note=61, velocity=0, time=80),\n",
      "    Message('note_on', channel=4, note=52, velocity=79, time=40),\n",
      "    Message('note_on', channel=4, note=64, velocity=79, time=0),\n",
      "    Message('note_on', channel=4, note=64, velocity=0, time=80),\n",
      "    Message('note_on', channel=4, note=52, velocity=0, time=0),\n",
      "    Message('note_on', channel=4, note=52, velocity=79, time=40),\n",
      "    Message('note_on', channel=4, note=64, velocity=79, time=0),\n",
      "    Message('note_on', channel=4, note=64, velocity=0, time=80),\n",
      "    Message('note_on', channel=4, note=52, velocity=0, time=0),\n",
      "    Message('note_on', channel=4, note=52, velocity=79, time=40),\n",
      "    Message('note_on', channel=4, note=64, velocity=79, time=0),\n",
      "    Message('note_on', channel=4, note=64, velocity=0, time=80),\n",
      "    Message('note_on', channel=4, note=52, velocity=0, time=0),\n",
      "    Message('note_on', channel=4, note=57, velocity=79, time=40),\n",
      "    Message('note_on', channel=4, note=64, velocity=79, time=0),\n",
      "    Message('note_on', channel=4, note=64, velocity=0, time=80),\n",
      "    Message('note_on', channel=4, note=57, velocity=0, time=0),\n",
      "    Message('note_on', channel=4, note=57, velocity=79, time=40),\n",
      "    Message('note_on', channel=4, note=64, velocity=79, time=0),\n",
      "    Message('note_on', channel=4, note=64, velocity=0, time=80),\n",
      "    Message('note_on', channel=4, note=57, velocity=0, time=0),\n",
      "    Message('note_on', channel=4, note=57, velocity=79, time=40),\n",
      "    Message('note_on', channel=4, note=64, velocity=79, time=0),\n",
      "    Message('note_on', channel=4, note=64, velocity=0, time=80),\n",
      "    Message('note_on', channel=4, note=57, velocity=0, time=0),\n",
      "    Message('note_on', channel=4, note=57, velocity=79, time=40),\n",
      "    Message('note_on', channel=4, note=64, velocity=79, time=0),\n",
      "    Message('note_on', channel=4, note=64, velocity=0, time=80),\n",
      "    Message('note_on', channel=4, note=57, velocity=0, time=0),\n",
      "    Message('note_on', channel=4, note=57, velocity=79, time=40),\n",
      "    Message('note_on', channel=4, note=64, velocity=79, time=0),\n",
      "    Message('note_on', channel=4, note=64, velocity=0, time=80),\n",
      "    Message('note_on', channel=4, note=57, velocity=0, time=0),\n",
      "    Message('note_on', channel=4, note=57, velocity=79, time=40),\n",
      "    Message('note_on', channel=4, note=64, velocity=79, time=0),\n",
      "    Message('note_on', channel=4, note=64, velocity=0, time=80),\n",
      "    Message('note_on', channel=4, note=57, velocity=0, time=0),\n",
      "    Message('note_on', channel=4, note=57, velocity=79, time=40),\n",
      "    Message('note_on', channel=4, note=64, velocity=79, time=0),\n",
      "    Message('note_on', channel=4, note=64, velocity=0, time=80),\n",
      "    Message('note_on', channel=4, note=57, velocity=0, time=0),\n",
      "    Message('note_on', channel=4, note=57, velocity=79, time=40),\n",
      "    Message('note_on', channel=4, note=64, velocity=79, time=0),\n",
      "    Message('note_on', channel=4, note=64, velocity=0, time=80),\n",
      "    Message('note_on', channel=4, note=57, velocity=0, time=0),\n",
      "    Message('note_on', channel=4, note=56, velocity=79, time=40),\n",
      "    Message('note_on', channel=4, note=64, velocity=79, time=0),\n",
      "    Message('note_on', channel=4, note=64, velocity=0, time=80),\n",
      "    Message('note_on', channel=4, note=56, velocity=0, time=0),\n",
      "    Message('note_on', channel=4, note=56, velocity=79, time=40),\n",
      "    Message('note_on', channel=4, note=64, velocity=79, time=0),\n",
      "    Message('note_on', channel=4, note=64, velocity=0, time=80),\n",
      "    Message('note_on', channel=4, note=56, velocity=0, time=0),\n",
      "    Message('note_on', channel=4, note=56, velocity=79, time=40),\n",
      "    Message('note_on', channel=4, note=64, velocity=79, time=0),\n",
      "    Message('note_on', channel=4, note=64, velocity=0, time=80),\n",
      "    Message('note_on', channel=4, note=56, velocity=0, time=0),\n",
      "    Message('note_on', channel=4, note=56, velocity=79, time=40),\n",
      "    Message('note_on', channel=4, note=64, velocity=79, time=0),\n",
      "    Message('note_on', channel=4, note=64, velocity=0, time=80),\n",
      "    Message('note_on', channel=4, note=56, velocity=0, time=0),\n",
      "    Message('note_on', channel=4, note=56, velocity=79, time=40),\n",
      "    Message('note_on', channel=4, note=64, velocity=79, time=0),\n",
      "    Message('note_on', channel=4, note=64, velocity=0, time=80),\n",
      "    Message('note_on', channel=4, note=56, velocity=0, time=0),\n",
      "    Message('note_on', channel=4, note=56, velocity=79, time=40),\n",
      "    Message('note_on', channel=4, note=64, velocity=79, time=0),\n",
      "    Message('note_on', channel=4, note=64, velocity=0, time=80),\n",
      "    Message('note_on', channel=4, note=56, velocity=0, time=0),\n",
      "    Message('note_on', channel=4, note=56, velocity=79, time=40),\n",
      "    Message('note_on', channel=4, note=64, velocity=79, time=0),\n",
      "    Message('note_on', channel=4, note=64, velocity=0, time=80),\n",
      "    Message('note_on', channel=4, note=56, velocity=0, time=0),\n",
      "    Message('note_on', channel=4, note=56, velocity=79, time=40),\n",
      "    Message('note_on', channel=4, note=64, velocity=79, time=0),\n",
      "    Message('note_on', channel=4, note=64, velocity=0, time=80),\n",
      "    Message('note_on', channel=4, note=56, velocity=0, time=0),\n",
      "    Message('note_on', channel=4, note=54, velocity=79, time=40),\n",
      "    Message('note_on', channel=4, note=61, velocity=79, time=0),\n",
      "    Message('note_on', channel=4, note=61, velocity=0, time=80),\n",
      "    Message('note_on', channel=4, note=54, velocity=0, time=0),\n",
      "    Message('note_on', channel=4, note=54, velocity=79, time=40),\n",
      "    Message('note_on', channel=4, note=61, velocity=79, time=0),\n",
      "    Message('note_on', channel=4, note=61, velocity=0, time=80),\n",
      "    Message('note_on', channel=4, note=54, velocity=0, time=0),\n",
      "    Message('note_on', channel=4, note=54, velocity=79, time=40),\n",
      "    Message('note_on', channel=4, note=61, velocity=79, time=0),\n",
      "    Message('note_on', channel=4, note=61, velocity=0, time=80),\n",
      "    Message('note_on', channel=4, note=54, velocity=0, time=0),\n",
      "    Message('note_on', channel=4, note=54, velocity=79, time=40),\n",
      "    Message('note_on', channel=4, note=61, velocity=79, time=0),\n",
      "    Message('note_on', channel=4, note=61, velocity=0, time=80),\n",
      "    Message('note_on', channel=4, note=54, velocity=0, time=0),\n",
      "    Message('note_on', channel=4, note=57, velocity=79, time=40),\n",
      "    Message('note_on', channel=4, note=57, velocity=0, time=80),\n",
      "    Message('note_on', channel=4, note=56, velocity=79, time=40),\n",
      "    Message('note_on', channel=4, note=56, velocity=0, time=80),\n",
      "    Message('note_on', channel=4, note=56, velocity=79, time=40),\n",
      "    Message('note_on', channel=4, note=56, velocity=0, time=80),\n",
      "    Message('note_on', channel=4, note=56, velocity=79, time=40),\n",
      "    Message('note_on', channel=4, note=56, velocity=0, time=80),\n",
      "    Message('note_on', channel=4, note=57, velocity=79, time=40),\n",
      "    Message('note_on', channel=4, note=64, velocity=79, time=0),\n",
      "    Message('note_on', channel=4, note=64, velocity=0, time=80),\n",
      "    Message('note_on', channel=4, note=57, velocity=0, time=0),\n",
      "    Message('note_on', channel=4, note=57, velocity=79, time=40),\n",
      "    Message('note_on', channel=4, note=64, velocity=79, time=0),\n",
      "    Message('note_on', channel=4, note=64, velocity=0, time=80),\n",
      "    Message('note_on', channel=4, note=57, velocity=0, time=0),\n",
      "    Message('note_on', channel=4, note=57, velocity=79, time=40),\n",
      "    Message('note_on', channel=4, note=64, velocity=79, time=0),\n",
      "    Message('note_on', channel=4, note=64, velocity=0, time=80),\n",
      "    Message('note_on', channel=4, note=57, velocity=0, time=0),\n",
      "    Message('note_on', channel=4, note=57, velocity=79, time=40),\n",
      "    Message('note_on', channel=4, note=64, velocity=79, time=0),\n",
      "    Message('note_on', channel=4, note=64, velocity=0, time=80),\n",
      "    Message('note_on', channel=4, note=57, velocity=0, time=0),\n",
      "    Message('note_on', channel=4, note=58, velocity=79, time=40),\n",
      "    Message('note_on', channel=4, note=58, velocity=0, time=80),\n",
      "    Message('note_on', channel=4, note=58, velocity=79, time=40),\n",
      "    Message('note_on', channel=4, note=58, velocity=0, time=80),\n",
      "    Message('note_on', channel=4, note=58, velocity=79, time=40),\n",
      "    Message('note_on', channel=4, note=58, velocity=0, time=80),\n",
      "    Message('note_on', channel=4, note=58, velocity=79, time=40),\n",
      "    Message('note_on', channel=4, note=58, velocity=0, time=80),\n",
      "    Message('note_on', channel=4, note=47, velocity=79, time=40),\n",
      "    Message('note_on', channel=4, note=59, velocity=79, time=0),\n",
      "    Message('note_on', channel=4, note=59, velocity=0, time=80),\n",
      "    Message('note_on', channel=4, note=47, velocity=0, time=0),\n",
      "    Message('note_on', channel=4, note=47, velocity=79, time=40),\n",
      "    Message('note_on', channel=4, note=59, velocity=79, time=0),\n",
      "    Message('note_on', channel=4, note=59, velocity=0, time=80),\n",
      "    Message('note_on', channel=4, note=47, velocity=0, time=0),\n",
      "    Message('note_on', channel=4, note=47, velocity=79, time=40),\n",
      "    Message('note_on', channel=4, note=59, velocity=79, time=0),\n",
      "    Message('note_on', channel=4, note=59, velocity=0, time=80),\n",
      "    Message('note_on', channel=4, note=47, velocity=0, time=0),\n",
      "    Message('note_on', channel=4, note=47, velocity=79, time=40),\n",
      "    Message('note_on', channel=4, note=59, velocity=79, time=0),\n",
      "    Message('note_on', channel=4, note=59, velocity=0, time=80),\n",
      "    Message('note_on', channel=4, note=47, velocity=0, time=0),\n",
      "    Message('note_on', channel=4, note=47, velocity=79, time=40),\n",
      "    Message('note_on', channel=4, note=59, velocity=79, time=0),\n",
      "    Message('note_on', channel=4, note=59, velocity=0, time=80),\n",
      "    Message('note_on', channel=4, note=47, velocity=0, time=0),\n",
      "    Message('note_on', channel=4, note=47, velocity=79, time=40),\n",
      "    Message('note_on', channel=4, note=59, velocity=79, time=0),\n",
      "    Message('note_on', channel=4, note=59, velocity=0, time=80),\n",
      "    Message('note_on', channel=4, note=47, velocity=0, time=0),\n",
      "    Message('note_on', channel=4, note=47, velocity=79, time=40),\n",
      "    Message('note_on', channel=4, note=59, velocity=79, time=0),\n",
      "    Message('note_on', channel=4, note=59, velocity=0, time=80),\n",
      "    Message('note_on', channel=4, note=47, velocity=0, time=0),\n",
      "    Message('note_on', channel=4, note=47, velocity=79, time=40),\n",
      "    Message('note_on', channel=4, note=59, velocity=79, time=0),\n",
      "    Message('note_on', channel=4, note=59, velocity=0, time=80),\n",
      "    Message('note_on', channel=4, note=47, velocity=0, time=0),\n",
      "    Message('note_on', channel=4, note=47, velocity=79, time=40),\n",
      "    Message('note_on', channel=4, note=59, velocity=79, time=0),\n",
      "    Message('note_on', channel=4, note=59, velocity=0, time=80),\n",
      "    Message('note_on', channel=4, note=47, velocity=0, time=0),\n",
      "    Message('note_on', channel=4, note=47, velocity=79, time=40),\n",
      "    Message('note_on', channel=4, note=59, velocity=79, time=0),\n",
      "    Message('note_on', channel=4, note=59, velocity=0, time=80),\n",
      "    Message('note_on', channel=4, note=47, velocity=0, time=0),\n",
      "    Message('note_on', channel=4, note=49, velocity=79, time=880),\n",
      "    Message('note_on', channel=4, note=61, velocity=79, time=0),\n",
      "    Message('note_on', channel=4, note=61, velocity=0, time=240),\n",
      "    Message('note_on', channel=4, note=49, velocity=0, time=0),\n",
      "    Message('note_on', channel=4, note=49, velocity=79, time=120),\n",
      "    Message('note_on', channel=4, note=61, velocity=79, time=0),\n",
      "    Message('note_on', channel=4, note=61, velocity=0, time=80),\n",
      "    Message('note_on', channel=4, note=49, velocity=0, time=0),\n",
      "    Message('note_on', channel=4, note=49, velocity=79, time=40),\n",
      "    Message('note_on', channel=4, note=61, velocity=79, time=0),\n",
      "    Message('note_on', channel=4, note=61, velocity=0, time=240),\n",
      "    Message('note_on', channel=4, note=49, velocity=0, time=0),\n",
      "    Message('note_on', channel=4, note=42, velocity=79, time=240),\n",
      "    Message('note_on', channel=4, note=54, velocity=79, time=0),\n",
      "    Message('note_on', channel=4, note=54, velocity=0, time=240),\n",
      "    Message('note_on', channel=4, note=42, velocity=0, time=0),\n",
      "    Message('note_on', channel=4, note=42, velocity=79, time=120),\n",
      "    Message('note_on', channel=4, note=54, velocity=79, time=0),\n",
      "    Message('note_on', channel=4, note=54, velocity=0, time=80),\n",
      "    Message('note_on', channel=4, note=42, velocity=0, time=0),\n",
      "    Message('note_on', channel=4, note=42, velocity=79, time=40),\n",
      "    Message('note_on', channel=4, note=54, velocity=79, time=0),\n",
      "    Message('note_on', channel=4, note=54, velocity=0, time=315),\n",
      "    Message('note_on', channel=4, note=42, velocity=0, time=0),\n",
      "    Message('note_on', channel=4, note=47, velocity=79, time=165),\n",
      "    Message('note_on', channel=4, note=59, velocity=79, time=0),\n",
      "    Message('note_on', channel=4, note=59, velocity=0, time=240),\n",
      "    Message('note_on', channel=4, note=47, velocity=0, time=0),\n",
      "    Message('note_on', channel=4, note=47, velocity=79, time=120),\n",
      "    Message('note_on', channel=4, note=59, velocity=79, time=0),\n",
      "    Message('note_on', channel=4, note=59, velocity=0, time=80),\n",
      "    Message('note_on', channel=4, note=47, velocity=0, time=0),\n",
      "    Message('note_on', channel=4, note=47, velocity=79, time=40),\n",
      "    Message('note_on', channel=4, note=59, velocity=79, time=0),\n",
      "    Message('note_on', channel=4, note=59, velocity=0, time=240),\n",
      "    Message('note_on', channel=4, note=47, velocity=0, time=0),\n",
      "    Message('note_on', channel=4, note=52, velocity=79, time=240),\n",
      "    Message('note_on', channel=4, note=52, velocity=0, time=240),\n",
      "    Message('note_on', channel=4, note=52, velocity=79, time=120),\n",
      "    Message('note_on', channel=4, note=52, velocity=0, time=80),\n",
      "    Message('note_on', channel=4, note=51, velocity=79, time=40),\n",
      "    Message('note_on', channel=4, note=63, velocity=79, time=0),\n",
      "    Message('note_on', channel=4, note=63, velocity=0, time=315),\n",
      "    Message('note_on', channel=4, note=51, velocity=0, time=0),\n",
      "    Message('note_on', channel=4, note=49, velocity=79, time=165),\n",
      "    Message('note_on', channel=4, note=56, velocity=79, time=0),\n",
      "    Message('note_on', channel=4, note=56, velocity=0, time=240),\n",
      "    Message('note_on', channel=4, note=49, velocity=0, time=0),\n",
      "    Message('note_on', channel=4, note=49, velocity=79, time=120),\n",
      "    Message('note_on', channel=4, note=49, velocity=0, time=80),\n",
      "    Message('note_on', channel=4, note=49, velocity=79, time=40),\n",
      "    Message('note_on', channel=4, note=49, velocity=0, time=315),\n",
      "    Message('note_on', channel=4, note=42, velocity=79, time=165),\n",
      "    Message('note_on', channel=4, note=54, velocity=79, time=0),\n",
      "    Message('note_on', channel=4, note=54, velocity=0, time=240),\n",
      "    Message('note_on', channel=4, note=42, velocity=0, time=0),\n",
      "    Message('note_on', channel=4, note=42, velocity=79, time=120),\n",
      "    Message('note_on', channel=4, note=54, velocity=79, time=0),\n",
      "    Message('note_on', channel=4, note=54, velocity=0, time=80),\n",
      "    Message('note_on', channel=4, note=42, velocity=0, time=0),\n",
      "    Message('note_on', channel=4, note=42, velocity=79, time=40),\n",
      "    Message('note_on', channel=4, note=54, velocity=79, time=0),\n",
      "    Message('note_on', channel=4, note=54, velocity=0, time=240),\n",
      "    Message('note_on', channel=4, note=42, velocity=0, time=0),\n",
      "    Message('note_on', channel=4, note=47, velocity=79, time=240),\n",
      "    Message('note_on', channel=4, note=59, velocity=79, time=0),\n",
      "    Message('note_on', channel=4, note=59, velocity=0, time=240),\n",
      "    Message('note_on', channel=4, note=47, velocity=0, time=0),\n",
      "    Message('note_on', channel=4, note=47, velocity=79, time=120),\n",
      "    Message('note_on', channel=4, note=59, velocity=79, time=0),\n",
      "    Message('note_on', channel=4, note=59, velocity=0, time=80),\n",
      "    Message('note_on', channel=4, note=47, velocity=0, time=0),\n",
      "    Message('note_on', channel=4, note=47, velocity=79, time=40),\n",
      "    Message('note_on', channel=4, note=59, velocity=79, time=0),\n",
      "    Message('note_on', channel=4, note=59, velocity=0, time=315),\n",
      "    Message('note_on', channel=4, note=47, velocity=0, time=0),\n",
      "    Message('note_on', channel=4, note=47, velocity=79, time=165),\n",
      "    Message('note_on', channel=4, note=59, velocity=79, time=0),\n",
      "    Message('note_on', channel=4, note=59, velocity=0, time=240),\n",
      "    Message('note_on', channel=4, note=47, velocity=0, time=0),\n",
      "    Message('note_on', channel=4, note=54, velocity=79, time=120),\n",
      "    Message('note_on', channel=4, note=54, velocity=0, time=80),\n",
      "    Message('note_on', channel=4, note=59, velocity=79, time=40),\n",
      "    Message('note_on', channel=4, note=59, velocity=0, time=80),\n",
      "    Message('note_on', channel=4, note=54, velocity=79, time=40),\n",
      "    Message('note_on', channel=4, note=54, velocity=0, time=80),\n",
      "    Message('note_on', channel=4, note=47, velocity=79, time=40),\n",
      "    Message('note_on', channel=4, note=47, velocity=0, time=160),\n",
      "    Message('note_on', channel=4, note=49, velocity=79, time=80),\n",
      "    Message('note_on', channel=4, note=56, velocity=79, time=0),\n",
      "    Message('note_on', channel=4, note=56, velocity=0, time=80),\n",
      "    Message('note_on', channel=4, note=49, velocity=0, time=0),\n",
      "    Message('note_on', channel=4, note=49, velocity=79, time=160),\n",
      "    Message('note_on', channel=4, note=56, velocity=79, time=0),\n",
      "    Message('note_on', channel=4, note=56, velocity=0, time=80),\n",
      "    Message('note_on', channel=4, note=49, velocity=0, time=0),\n",
      "    Message('note_on', channel=4, note=49, velocity=79, time=160),\n",
      "    Message('note_on', channel=4, note=56, velocity=79, time=0),\n",
      "    Message('note_on', channel=4, note=56, velocity=0, time=80),\n",
      "    Message('note_on', channel=4, note=49, velocity=0, time=0),\n",
      "    Message('note_on', channel=4, note=49, velocity=79, time=160),\n",
      "    Message('note_on', channel=4, note=56, velocity=79, time=0),\n",
      "    Message('note_on', channel=4, note=56, velocity=0, time=80),\n",
      "    Message('note_on', channel=4, note=49, velocity=0, time=0),\n",
      "    Message('note_on', channel=4, note=61, velocity=79, time=40),\n",
      "    Message('note_on', channel=4, note=54, velocity=79, time=0),\n",
      "    Message('note_on', channel=4, note=54, velocity=0, time=280),\n",
      "    Message('note_on', channel=4, note=61, velocity=0, time=0),\n",
      "    Message('note_on', channel=4, note=54, velocity=79, time=80),\n",
      "    Message('note_on', channel=4, note=61, velocity=79, time=0),\n",
      "    Message('note_on', channel=4, note=61, velocity=0, time=80),\n",
      "    Message('note_on', channel=4, note=54, velocity=0, time=0),\n",
      "    Message('note_on', channel=4, note=54, velocity=79, time=160),\n",
      "    Message('note_on', channel=4, note=61, velocity=79, time=0),\n",
      "    Message('note_on', channel=4, note=61, velocity=0, time=80),\n",
      "    Message('note_on', channel=4, note=54, velocity=0, time=0),\n",
      "    Message('note_on', channel=4, note=54, velocity=79, time=160),\n",
      "    Message('note_on', channel=4, note=61, velocity=79, time=0),\n",
      "    Message('note_on', channel=4, note=61, velocity=0, time=80),\n",
      "    Message('note_on', channel=4, note=54, velocity=0, time=0),\n",
      "    Message('note_on', channel=4, note=59, velocity=79, time=40),\n",
      "    Message('note_on', channel=4, note=47, velocity=79, time=0),\n",
      "    Message('note_on', channel=4, note=47, velocity=0, time=280),\n",
      "    Message('note_on', channel=4, note=59, velocity=0, time=0),\n",
      "    Message('note_on', channel=4, note=47, velocity=79, time=80),\n",
      "    Message('note_on', channel=4, note=59, velocity=79, time=0),\n",
      "    Message('note_on', channel=4, note=59, velocity=0, time=80),\n",
      "    Message('note_on', channel=4, note=47, velocity=0, time=0),\n",
      "    Message('note_on', channel=4, note=47, velocity=79, time=160),\n",
      "    Message('note_on', channel=4, note=59, velocity=79, time=0),\n",
      "    Message('note_on', channel=4, note=59, velocity=0, time=80),\n",
      "    Message('note_on', channel=4, note=47, velocity=0, time=0),\n",
      "    Message('note_on', channel=4, note=47, velocity=79, time=160),\n",
      "    Message('note_on', channel=4, note=59, velocity=79, time=0),\n",
      "    Message('note_on', channel=4, note=59, velocity=0, time=80),\n",
      "    Message('note_on', channel=4, note=47, velocity=0, time=0),\n",
      "    Message('note_on', channel=4, note=52, velocity=79, time=160),\n",
      "    Message('note_on', channel=4, note=59, velocity=79, time=0),\n",
      "    Message('note_on', channel=4, note=59, velocity=0, time=315),\n",
      "    Message('note_on', channel=4, note=52, velocity=0, time=0),\n",
      "    Message('note_on', channel=4, note=51, velocity=79, time=165),\n",
      "    Message('note_on', channel=4, note=59, velocity=79, time=0),\n",
      "    Message('note_on', channel=4, note=59, velocity=0, time=315),\n",
      "    Message('note_on', channel=4, note=51, velocity=0, time=0),\n",
      "    Message('note_on', channel=4, note=49, velocity=79, time=165),\n",
      "    Message('note_on', channel=4, note=56, velocity=79, time=0),\n",
      "    Message('note_on', channel=4, note=56, velocity=0, time=80),\n",
      "    Message('note_on', channel=4, note=49, velocity=0, time=0),\n",
      "    Message('note_on', channel=4, note=49, velocity=79, time=160),\n",
      "    Message('note_on', channel=4, note=56, velocity=79, time=0),\n",
      "    Message('note_on', channel=4, note=56, velocity=0, time=80),\n",
      "    Message('note_on', channel=4, note=49, velocity=0, time=0),\n",
      "    Message('note_on', channel=4, note=49, velocity=79, time=160),\n",
      "    Message('note_on', channel=4, note=56, velocity=79, time=0),\n",
      "    Message('note_on', channel=4, note=56, velocity=0, time=80),\n",
      "    Message('note_on', channel=4, note=49, velocity=0, time=0),\n",
      "    Message('note_on', channel=4, note=49, velocity=79, time=160),\n",
      "    Message('note_on', channel=4, note=56, velocity=79, time=0),\n",
      "    Message('note_on', channel=4, note=56, velocity=0, time=80),\n",
      "    Message('note_on', channel=4, note=49, velocity=0, time=0),\n",
      "    Message('note_on', channel=4, note=61, velocity=79, time=40),\n",
      "    Message('note_on', channel=4, note=54, velocity=79, time=0),\n",
      "    Message('note_on', channel=4, note=54, velocity=0, time=275),\n",
      "    Message('note_on', channel=4, note=61, velocity=0, time=0),\n",
      "    Message('note_on', channel=4, note=54, velocity=79, time=85),\n",
      "    Message('note_on', channel=4, note=61, velocity=79, time=0),\n",
      "    Message('note_on', channel=4, note=61, velocity=0, time=80),\n",
      "    Message('note_on', channel=4, note=54, velocity=0, time=0),\n",
      "    Message('note_on', channel=4, note=54, velocity=79, time=160),\n",
      "    Message('note_on', channel=4, note=61, velocity=79, time=0),\n",
      "    Message('note_on', channel=4, note=61, velocity=0, time=80),\n",
      "    Message('note_on', channel=4, note=54, velocity=0, time=0),\n",
      "    Message('note_on', channel=4, note=54, velocity=79, time=160),\n",
      "    Message('note_on', channel=4, note=61, velocity=79, time=0),\n",
      "    Message('note_on', channel=4, note=61, velocity=0, time=80),\n",
      "    Message('note_on', channel=4, note=54, velocity=0, time=0),\n",
      "    Message('note_on', channel=4, note=47, velocity=79, time=160),\n",
      "    Message('note_on', channel=4, note=59, velocity=79, time=0),\n",
      "    Message('note_on', channel=4, note=59, velocity=0, time=80),\n",
      "    Message('note_on', channel=4, note=47, velocity=0, time=0),\n",
      "    Message('note_on', channel=4, note=47, velocity=79, time=40),\n",
      "    Message('note_on', channel=4, note=59, velocity=79, time=0),\n",
      "    Message('note_on', channel=4, note=59, velocity=0, time=80),\n",
      "    Message('note_on', channel=4, note=47, velocity=0, time=0),\n",
      "    Message('note_on', channel=4, note=47, velocity=79, time=40),\n",
      "    Message('note_on', channel=4, note=59, velocity=79, time=0),\n",
      "    Message('note_on', channel=4, note=59, velocity=0, time=80),\n",
      "    Message('note_on', channel=4, note=47, velocity=0, time=0),\n",
      "    Message('note_on', channel=4, note=47, velocity=79, time=40),\n",
      "    Message('note_on', channel=4, note=59, velocity=79, time=0),\n",
      "    Message('note_on', channel=4, note=59, velocity=0, time=80),\n",
      "    Message('note_on', channel=4, note=47, velocity=0, time=0),\n",
      "    Message('note_on', channel=4, note=47, velocity=79, time=40),\n",
      "    Message('note_on', channel=4, note=59, velocity=79, time=0),\n",
      "    Message('note_on', channel=4, note=59, velocity=0, time=80),\n",
      "    Message('note_on', channel=4, note=47, velocity=0, time=0),\n",
      "    Message('note_on', channel=4, note=47, velocity=79, time=40),\n",
      "    Message('note_on', channel=4, note=59, velocity=79, time=0),\n",
      "    Message('note_on', channel=4, note=59, velocity=0, time=80),\n",
      "    Message('note_on', channel=4, note=47, velocity=0, time=0),\n",
      "    Message('note_on', channel=4, note=47, velocity=79, time=40),\n",
      "    Message('note_on', channel=4, note=59, velocity=79, time=0),\n",
      "    Message('note_on', channel=4, note=59, velocity=0, time=80),\n",
      "    Message('note_on', channel=4, note=47, velocity=0, time=0),\n",
      "    Message('note_on', channel=4, note=47, velocity=79, time=40),\n",
      "    Message('note_on', channel=4, note=59, velocity=79, time=0),\n",
      "    Message('note_on', channel=4, note=59, velocity=0, time=80),\n",
      "    Message('note_on', channel=4, note=47, velocity=0, time=0),\n",
      "    Message('note_on', channel=4, note=47, velocity=79, time=40),\n",
      "    Message('note_on', channel=4, note=59, velocity=79, time=0),\n",
      "    Message('note_on', channel=4, note=59, velocity=0, time=80),\n",
      "    Message('note_on', channel=4, note=47, velocity=0, time=0),\n",
      "    Message('note_on', channel=4, note=57, velocity=79, time=760),\n",
      "    Message('note_on', channel=4, note=64, velocity=79, time=0),\n",
      "    Message('note_on', channel=4, note=64, velocity=0, time=80),\n",
      "    Message('note_on', channel=4, note=57, velocity=0, time=0),\n",
      "    Message('note_on', channel=4, note=57, velocity=79, time=40),\n",
      "    Message('note_on', channel=4, note=64, velocity=79, time=0),\n",
      "    Message('note_on', channel=4, note=64, velocity=0, time=80),\n",
      "    Message('note_on', channel=4, note=57, velocity=0, time=0),\n",
      "    Message('note_on', channel=4, note=57, velocity=79, time=40),\n",
      "    Message('note_on', channel=4, note=64, velocity=79, time=0),\n",
      "    Message('note_on', channel=4, note=64, velocity=0, time=80),\n",
      "    Message('note_on', channel=4, note=57, velocity=0, time=0),\n",
      "    Message('note_on', channel=4, note=57, velocity=79, time=40),\n",
      "    Message('note_on', channel=4, note=64, velocity=79, time=0),\n",
      "    Message('note_on', channel=4, note=64, velocity=0, time=80),\n",
      "    Message('note_on', channel=4, note=57, velocity=0, time=0),\n",
      "    Message('note_on', channel=4, note=57, velocity=79, time=40),\n",
      "    Message('note_on', channel=4, note=64, velocity=79, time=0),\n",
      "    Message('note_on', channel=4, note=64, velocity=0, time=80),\n",
      "    Message('note_on', channel=4, note=57, velocity=0, time=0),\n",
      "    Message('note_on', channel=4, note=57, velocity=79, time=40),\n",
      "    Message('note_on', channel=4, note=64, velocity=79, time=0),\n",
      "    Message('note_on', channel=4, note=64, velocity=0, time=80),\n",
      "    Message('note_on', channel=4, note=57, velocity=0, time=0),\n",
      "    Message('note_on', channel=4, note=57, velocity=79, time=40),\n",
      "    Message('note_on', channel=4, note=64, velocity=79, time=0),\n",
      "    Message('note_on', channel=4, note=64, velocity=0, time=80),\n",
      "    Message('note_on', channel=4, note=57, velocity=0, time=0),\n",
      "    Message('note_on', channel=4, note=57, velocity=79, time=40),\n",
      "    Message('note_on', channel=4, note=64, velocity=79, time=0),\n",
      "    Message('note_on', channel=4, note=64, velocity=0, time=80),\n",
      "    Message('note_on', channel=4, note=57, velocity=0, time=0),\n",
      "    Message('note_on', channel=4, note=56, velocity=79, time=40),\n",
      "    Message('note_on', channel=4, note=64, velocity=79, time=0),\n",
      "    Message('note_on', channel=4, note=64, velocity=0, time=80),\n",
      "    Message('note_on', channel=4, note=56, velocity=0, time=0),\n",
      "    Message('note_on', channel=4, note=56, velocity=79, time=40),\n",
      "    Message('note_on', channel=4, note=64, velocity=79, time=0),\n",
      "    Message('note_on', channel=4, note=64, velocity=0, time=80),\n",
      "    Message('note_on', channel=4, note=56, velocity=0, time=0),\n",
      "    Message('note_on', channel=4, note=56, velocity=79, time=40),\n",
      "    Message('note_on', channel=4, note=64, velocity=79, time=0),\n",
      "    Message('note_on', channel=4, note=64, velocity=0, time=80),\n",
      "    Message('note_on', channel=4, note=56, velocity=0, time=0),\n",
      "    Message('note_on', channel=4, note=56, velocity=79, time=40),\n",
      "    Message('note_on', channel=4, note=64, velocity=79, time=0),\n",
      "    Message('note_on', channel=4, note=64, velocity=0, time=80),\n",
      "    Message('note_on', channel=4, note=56, velocity=0, time=0),\n",
      "    Message('note_on', channel=4, note=56, velocity=79, time=40),\n",
      "    Message('note_on', channel=4, note=64, velocity=79, time=0),\n",
      "    Message('note_on', channel=4, note=64, velocity=0, time=80),\n",
      "    Message('note_on', channel=4, note=56, velocity=0, time=0),\n",
      "    Message('note_on', channel=4, note=56, velocity=79, time=40),\n",
      "    Message('note_on', channel=4, note=64, velocity=79, time=0),\n",
      "    Message('note_on', channel=4, note=64, velocity=0, time=80),\n",
      "    Message('note_on', channel=4, note=56, velocity=0, time=0),\n",
      "    Message('note_on', channel=4, note=56, velocity=79, time=40),\n",
      "    Message('note_on', channel=4, note=64, velocity=79, time=0),\n",
      "    Message('note_on', channel=4, note=64, velocity=0, time=80),\n",
      "    Message('note_on', channel=4, note=56, velocity=0, time=0),\n",
      "    Message('note_on', channel=4, note=56, velocity=79, time=40),\n",
      "    Message('note_on', channel=4, note=64, velocity=79, time=0),\n",
      "    Message('note_on', channel=4, note=64, velocity=0, time=80),\n",
      "    Message('note_on', channel=4, note=56, velocity=0, time=0),\n",
      "    Message('note_on', channel=4, note=54, velocity=79, time=40),\n",
      "    Message('note_on', channel=4, note=61, velocity=79, time=0),\n",
      "    Message('note_on', channel=4, note=61, velocity=0, time=80),\n",
      "    Message('note_on', channel=4, note=54, velocity=0, time=0),\n",
      "    Message('note_on', channel=4, note=54, velocity=79, time=40),\n",
      "    Message('note_on', channel=4, note=61, velocity=79, time=0),\n",
      "    Message('note_on', channel=4, note=61, velocity=0, time=80),\n",
      "    Message('note_on', channel=4, note=54, velocity=0, time=0),\n",
      "    Message('note_on', channel=4, note=54, velocity=79, time=40),\n",
      "    Message('note_on', channel=4, note=61, velocity=79, time=0),\n",
      "    Message('note_on', channel=4, note=61, velocity=0, time=80),\n",
      "    Message('note_on', channel=4, note=54, velocity=0, time=0),\n",
      "    Message('note_on', channel=4, note=54, velocity=79, time=40),\n",
      "    Message('note_on', channel=4, note=61, velocity=79, time=0),\n",
      "    Message('note_on', channel=4, note=61, velocity=0, time=80),\n",
      "    Message('note_on', channel=4, note=54, velocity=0, time=0),\n",
      "    Message('note_on', channel=4, note=54, velocity=79, time=40),\n",
      "    Message('note_on', channel=4, note=61, velocity=79, time=0),\n",
      "    Message('note_on', channel=4, note=61, velocity=0, time=80),\n",
      "    Message('note_on', channel=4, note=54, velocity=0, time=0),\n",
      "    Message('note_on', channel=4, note=54, velocity=79, time=40),\n",
      "    Message('note_on', channel=4, note=61, velocity=79, time=0),\n",
      "    Message('note_on', channel=4, note=61, velocity=0, time=80),\n",
      "    Message('note_on', channel=4, note=54, velocity=0, time=0),\n",
      "    Message('note_on', channel=4, note=54, velocity=79, time=40),\n",
      "    Message('note_on', channel=4, note=61, velocity=79, time=0),\n",
      "    Message('note_on', channel=4, note=61, velocity=0, time=80),\n",
      "    Message('note_on', channel=4, note=54, velocity=0, time=0),\n",
      "    Message('note_on', channel=4, note=54, velocity=79, time=40),\n",
      "    Message('note_on', channel=4, note=61, velocity=79, time=0),\n",
      "    Message('note_on', channel=4, note=61, velocity=0, time=80),\n",
      "    Message('note_on', channel=4, note=54, velocity=0, time=0),\n",
      "    Message('note_on', channel=4, note=61, velocity=79, time=40),\n",
      "    Message('note_on', channel=4, note=68, velocity=79, time=0),\n",
      "    Message('note_on', channel=4, note=68, velocity=0, time=80),\n",
      "    Message('note_on', channel=4, note=61, velocity=0, time=0),\n",
      "    Message('control_change', channel=4, control=7, value=108, time=40),\n",
      "    Message('note_on', channel=4, note=61, velocity=79, time=0),\n",
      "    Message('note_on', channel=4, note=68, velocity=79, time=0),\n",
      "    Message('note_on', channel=4, note=68, velocity=0, time=80),\n",
      "    Message('note_on', channel=4, note=61, velocity=0, time=0),\n",
      "    Message('control_change', channel=4, control=7, value=107, time=10),\n",
      "    Message('note_on', channel=4, note=61, velocity=79, time=30),\n",
      "    Message('note_on', channel=4, note=68, velocity=79, time=0),\n",
      "    Message('control_change', channel=4, control=7, value=106, time=60),\n",
      "    Message('note_on', channel=4, note=68, velocity=0, time=20),\n",
      "    Message('note_on', channel=4, note=61, velocity=0, time=0),\n",
      "    Message('note_on', channel=4, note=61, velocity=79, time=40),\n",
      "    Message('note_on', channel=4, note=68, velocity=79, time=0),\n",
      "    Message('control_change', channel=4, control=7, value=105, time=30),\n",
      "    Message('note_on', channel=4, note=68, velocity=0, time=50),\n",
      "    Message('note_on', channel=4, note=61, velocity=0, time=0),\n",
      "    Message('control_change', channel=4, control=7, value=104, time=40),\n",
      "    Message('note_on', channel=4, note=61, velocity=79, time=0),\n",
      "    Message('note_on', channel=4, note=68, velocity=79, time=0),\n",
      "    Message('note_on', channel=4, note=68, velocity=0, time=80),\n",
      "    Message('note_on', channel=4, note=61, velocity=0, time=0),\n",
      "    Message('control_change', channel=4, control=7, value=103, time=10),\n",
      "    Message('note_on', channel=4, note=52, velocity=79, time=30),\n",
      "    Message('note_on', channel=4, note=64, velocity=79, time=0),\n",
      "    Message('control_change', channel=4, control=7, value=102, time=60),\n",
      "    Message('note_on', channel=4, note=64, velocity=0, time=20),\n",
      "    Message('note_on', channel=4, note=52, velocity=0, time=0),\n",
      "    Message('note_on', channel=4, note=52, velocity=79, time=40),\n",
      "    Message('note_on', channel=4, note=64, velocity=79, time=0),\n",
      "    Message('control_change', channel=4, control=7, value=101, time=30),\n",
      "    Message('note_on', channel=4, note=64, velocity=0, time=50),\n",
      "    Message('note_on', channel=4, note=52, velocity=0, time=0),\n",
      "    Message('control_change', channel=4, control=7, value=100, time=40),\n",
      "    Message('note_on', channel=4, note=52, velocity=79, time=0),\n",
      "    Message('note_on', channel=4, note=64, velocity=79, time=0),\n",
      "    Message('note_on', channel=4, note=64, velocity=0, time=80),\n",
      "    Message('note_on', channel=4, note=52, velocity=0, time=0),\n",
      "    Message('control_change', channel=4, control=7, value=99, time=10),\n",
      "    Message('note_on', channel=4, note=57, velocity=79, time=30),\n",
      "    Message('note_on', channel=4, note=64, velocity=79, time=0),\n",
      "    Message('control_change', channel=4, control=7, value=98, time=60),\n",
      "    Message('note_on', channel=4, note=64, velocity=0, time=20),\n",
      "    Message('note_on', channel=4, note=57, velocity=0, time=0),\n",
      "    Message('note_on', channel=4, note=57, velocity=79, time=40),\n",
      "    Message('note_on', channel=4, note=64, velocity=79, time=0),\n",
      "    Message('control_change', channel=4, control=7, value=97, time=30),\n",
      "    Message('note_on', channel=4, note=64, velocity=0, time=50),\n",
      "    Message('note_on', channel=4, note=57, velocity=0, time=0),\n",
      "    Message('control_change', channel=4, control=7, value=96, time=40),\n",
      "    Message('note_on', channel=4, note=57, velocity=79, time=0),\n",
      "    Message('note_on', channel=4, note=64, velocity=79, time=0),\n",
      "    Message('note_on', channel=4, note=64, velocity=0, time=80),\n",
      "    Message('note_on', channel=4, note=57, velocity=0, time=0),\n",
      "    Message('control_change', channel=4, control=7, value=95, time=10),\n",
      "    Message('note_on', channel=4, note=57, velocity=79, time=30),\n",
      "    Message('note_on', channel=4, note=64, velocity=79, time=0),\n",
      "    Message('control_change', channel=4, control=7, value=94, time=60),\n",
      "    Message('note_on', channel=4, note=64, velocity=0, time=20),\n",
      "    Message('note_on', channel=4, note=57, velocity=0, time=0),\n",
      "    Message('note_on', channel=4, note=57, velocity=79, time=40),\n",
      "    Message('note_on', channel=4, note=64, velocity=79, time=0),\n",
      "    Message('control_change', channel=4, control=7, value=93, time=30),\n",
      "    Message('note_on', channel=4, note=64, velocity=0, time=50),\n",
      "    Message('note_on', channel=4, note=57, velocity=0, time=0),\n",
      "    Message('control_change', channel=4, control=7, value=92, time=40),\n",
      "    Message('note_on', channel=4, note=57, velocity=79, time=0),\n",
      "    Message('note_on', channel=4, note=64, velocity=79, time=0),\n",
      "    Message('note_on', channel=4, note=64, velocity=0, time=80),\n",
      "    Message('note_on', channel=4, note=57, velocity=0, time=0),\n",
      "    Message('control_change', channel=4, control=7, value=91, time=10),\n",
      "    Message('note_on', channel=4, note=57, velocity=79, time=30),\n",
      "    Message('note_on', channel=4, note=64, velocity=79, time=0),\n",
      "    Message('control_change', channel=4, control=7, value=90, time=60),\n",
      "    Message('note_on', channel=4, note=64, velocity=0, time=20),\n",
      "    Message('note_on', channel=4, note=57, velocity=0, time=0),\n",
      "    Message('note_on', channel=4, note=57, velocity=79, time=40),\n",
      "    Message('note_on', channel=4, note=64, velocity=79, time=0),\n",
      "    Message('control_change', channel=4, control=7, value=89, time=30),\n",
      "    Message('note_on', channel=4, note=64, velocity=0, time=50),\n",
      "    Message('note_on', channel=4, note=57, velocity=0, time=0),\n",
      "    Message('control_change', channel=4, control=7, value=88, time=40),\n",
      "    Message('note_on', channel=4, note=56, velocity=79, time=0),\n",
      "    Message('note_on', channel=4, note=64, velocity=79, time=0),\n",
      "    Message('note_on', channel=4, note=64, velocity=0, time=80),\n",
      "    Message('note_on', channel=4, note=56, velocity=0, time=0),\n",
      "    Message('control_change', channel=4, control=7, value=87, time=10),\n",
      "    Message('note_on', channel=4, note=56, velocity=79, time=30),\n",
      "    Message('note_on', channel=4, note=64, velocity=79, time=0),\n",
      "    Message('control_change', channel=4, control=7, value=86, time=60),\n",
      "    Message('note_on', channel=4, note=64, velocity=0, time=20),\n",
      "    Message('note_on', channel=4, note=56, velocity=0, time=0),\n",
      "    Message('note_on', channel=4, note=56, velocity=79, time=40),\n",
      "    Message('note_on', channel=4, note=64, velocity=79, time=0),\n",
      "    Message('control_change', channel=4, control=7, value=85, time=30),\n",
      "    Message('note_on', channel=4, note=64, velocity=0, time=50),\n",
      "    Message('note_on', channel=4, note=56, velocity=0, time=0),\n",
      "    Message('control_change', channel=4, control=7, value=84, time=40),\n",
      "    Message('note_on', channel=4, note=56, velocity=79, time=0),\n",
      "    Message('note_on', channel=4, note=64, velocity=79, time=0),\n",
      "    Message('note_on', channel=4, note=64, velocity=0, time=80),\n",
      "    Message('note_on', channel=4, note=56, velocity=0, time=0),\n",
      "    Message('control_change', channel=4, control=7, value=83, time=10),\n",
      "    Message('note_on', channel=4, note=56, velocity=79, time=30),\n",
      "    Message('note_on', channel=4, note=64, velocity=79, time=0),\n",
      "    Message('control_change', channel=4, control=7, value=82, time=60),\n",
      "    Message('note_on', channel=4, note=64, velocity=0, time=20),\n",
      "    Message('note_on', channel=4, note=56, velocity=0, time=0),\n",
      "    Message('control_change', channel=4, control=7, value=81, time=40),\n",
      "    Message('note_on', channel=4, note=56, velocity=79, time=0),\n",
      "    Message('note_on', channel=4, note=64, velocity=79, time=0),\n",
      "    Message('note_on', channel=4, note=64, velocity=0, time=80),\n",
      "    Message('note_on', channel=4, note=56, velocity=0, time=0),\n",
      "    Message('control_change', channel=4, control=7, value=80, time=10),\n",
      "    Message('note_on', channel=4, note=56, velocity=79, time=30),\n",
      "    Message('note_on', channel=4, note=64, velocity=79, time=0),\n",
      "    Message('control_change', channel=4, control=7, value=79, time=60),\n",
      "    Message('note_on', channel=4, note=64, velocity=0, time=20),\n",
      "    Message('note_on', channel=4, note=56, velocity=0, time=0),\n",
      "    Message('note_on', channel=4, note=56, velocity=79, time=40),\n",
      "    Message('note_on', channel=4, note=64, velocity=79, time=0),\n",
      "    Message('control_change', channel=4, control=7, value=78, time=30),\n",
      "    Message('note_on', channel=4, note=64, velocity=0, time=50),\n",
      "    Message('note_on', channel=4, note=56, velocity=0, time=0),\n",
      "    Message('control_change', channel=4, control=7, value=77, time=40),\n",
      "    Message('note_on', channel=4, note=54, velocity=79, time=0),\n",
      "    Message('note_on', channel=4, note=61, velocity=79, time=0),\n",
      "    Message('note_on', channel=4, note=61, velocity=0, time=80),\n",
      "    Message('note_on', channel=4, note=54, velocity=0, time=0),\n",
      "    Message('control_change', channel=4, control=7, value=76, time=10),\n",
      "    Message('note_on', channel=4, note=54, velocity=79, time=30),\n",
      "    Message('note_on', channel=4, note=61, velocity=79, time=0),\n",
      "    Message('control_change', channel=4, control=7, value=75, time=60),\n",
      "    Message('note_on', channel=4, note=61, velocity=0, time=20),\n",
      "    Message('note_on', channel=4, note=54, velocity=0, time=0),\n",
      "    Message('note_on', channel=4, note=54, velocity=79, time=40),\n",
      "    Message('note_on', channel=4, note=61, velocity=79, time=0),\n",
      "    Message('control_change', channel=4, control=7, value=74, time=30),\n",
      "    Message('note_on', channel=4, note=61, velocity=0, time=50),\n",
      "    Message('note_on', channel=4, note=54, velocity=0, time=0),\n",
      "    Message('control_change', channel=4, control=7, value=73, time=40),\n",
      "    Message('note_on', channel=4, note=54, velocity=79, time=0),\n",
      "    Message('note_on', channel=4, note=61, velocity=79, time=0),\n",
      "    Message('note_on', channel=4, note=61, velocity=0, time=80),\n",
      "    Message('note_on', channel=4, note=54, velocity=0, time=0),\n",
      "    Message('control_change', channel=4, control=7, value=72, time=10),\n",
      "    Message('note_on', channel=4, note=54, velocity=79, time=30),\n",
      "    Message('note_on', channel=4, note=61, velocity=79, time=0),\n",
      "    Message('control_change', channel=4, control=7, value=71, time=60),\n",
      "    Message('note_on', channel=4, note=61, velocity=0, time=20),\n",
      "    Message('note_on', channel=4, note=54, velocity=0, time=0),\n",
      "    Message('note_on', channel=4, note=54, velocity=79, time=40),\n",
      "    Message('note_on', channel=4, note=61, velocity=79, time=0),\n",
      "    Message('control_change', channel=4, control=7, value=70, time=30),\n",
      "    Message('note_on', channel=4, note=61, velocity=0, time=50),\n",
      "    Message('note_on', channel=4, note=54, velocity=0, time=0),\n",
      "    Message('control_change', channel=4, control=7, value=69, time=40),\n",
      "    Message('note_on', channel=4, note=54, velocity=79, time=0),\n",
      "    Message('note_on', channel=4, note=61, velocity=79, time=0),\n",
      "    Message('note_on', channel=4, note=61, velocity=0, time=80),\n",
      "    Message('note_on', channel=4, note=54, velocity=0, time=0),\n",
      "    Message('control_change', channel=4, control=7, value=68, time=10),\n",
      "    Message('note_on', channel=4, note=54, velocity=79, time=30),\n",
      "    Message('note_on', channel=4, note=61, velocity=79, time=0),\n",
      "    Message('control_change', channel=4, control=7, value=67, time=60),\n",
      "    Message('note_on', channel=4, note=61, velocity=0, time=20),\n",
      "    Message('note_on', channel=4, note=54, velocity=0, time=0),\n",
      "    Message('note_on', channel=4, note=61, velocity=79, time=40),\n",
      "    Message('control_change', channel=4, control=7, value=66, time=30),\n",
      "    Message('note_on', channel=4, note=61, velocity=0, time=50),\n",
      "    Message('control_change', channel=4, control=7, value=65, time=40),\n",
      "    Message('note_on', channel=4, note=61, velocity=79, time=0),\n",
      "    Message('note_on', channel=4, note=61, velocity=0, time=80),\n",
      "    Message('control_change', channel=4, control=7, value=64, time=10),\n",
      "    Message('note_on', channel=4, note=61, velocity=79, time=30),\n",
      "    Message('control_change', channel=4, control=7, value=63, time=60),\n",
      "    Message('note_on', channel=4, note=61, velocity=0, time=20),\n",
      "    Message('note_on', channel=4, note=61, velocity=79, time=40),\n",
      "    Message('control_change', channel=4, control=7, value=62, time=30),\n",
      "    Message('note_on', channel=4, note=61, velocity=0, time=50),\n",
      "    Message('control_change', channel=4, control=7, value=61, time=40),\n",
      "    Message('note_on', channel=4, note=61, velocity=79, time=0),\n",
      "    Message('note_on', channel=4, note=61, velocity=0, time=80),\n",
      "    Message('control_change', channel=4, control=7, value=60, time=10),\n",
      "    Message('note_on', channel=4, note=52, velocity=79, time=30),\n",
      "    Message('note_on', channel=4, note=64, velocity=79, time=0),\n",
      "    Message('control_change', channel=4, control=7, value=59, time=60),\n",
      "    Message('note_on', channel=4, note=64, velocity=0, time=20),\n",
      "    Message('note_on', channel=4, note=52, velocity=0, time=0),\n",
      "    Message('note_on', channel=4, note=52, velocity=79, time=40),\n",
      "    Message('note_on', channel=4, note=64, velocity=79, time=0),\n",
      "    Message('control_change', channel=4, control=7, value=58, time=30),\n",
      "    Message('note_on', channel=4, note=64, velocity=0, time=50),\n",
      "    Message('note_on', channel=4, note=52, velocity=0, time=0),\n",
      "    Message('control_change', channel=4, control=7, value=57, time=40),\n",
      "    Message('note_on', channel=4, note=52, velocity=79, time=0),\n",
      "    Message('note_on', channel=4, note=64, velocity=79, time=0),\n",
      "    Message('note_on', channel=4, note=64, velocity=0, time=80),\n",
      "    Message('note_on', channel=4, note=52, velocity=0, time=0),\n",
      "    Message('control_change', channel=4, control=7, value=56, time=10),\n",
      "    Message('note_on', channel=4, note=57, velocity=79, time=30),\n",
      "    Message('note_on', channel=4, note=64, velocity=79, time=0),\n",
      "    Message('control_change', channel=4, control=7, value=55, time=60),\n",
      "    Message('note_on', channel=4, note=64, velocity=0, time=20),\n",
      "    Message('note_on', channel=4, note=57, velocity=0, time=0),\n",
      "    Message('control_change', channel=4, control=7, value=54, time=40),\n",
      "    Message('note_on', channel=4, note=57, velocity=79, time=0),\n",
      "    Message('note_on', channel=4, note=64, velocity=79, time=0),\n",
      "    Message('note_on', channel=4, note=64, velocity=0, time=80),\n",
      "    Message('note_on', channel=4, note=57, velocity=0, time=0),\n",
      "    Message('control_change', channel=4, control=7, value=53, time=10),\n",
      "    Message('note_on', channel=4, note=57, velocity=79, time=30),\n",
      "    Message('note_on', channel=4, note=64, velocity=79, time=0),\n",
      "    Message('control_change', channel=4, control=7, value=52, time=60),\n",
      "    Message('note_on', channel=4, note=64, velocity=0, time=20),\n",
      "    Message('note_on', channel=4, note=57, velocity=0, time=0),\n",
      "    Message('note_on', channel=4, note=57, velocity=79, time=40),\n",
      "    Message('note_on', channel=4, note=64, velocity=79, time=0),\n",
      "    Message('control_change', channel=4, control=7, value=51, time=30),\n",
      "    Message('note_on', channel=4, note=64, velocity=0, time=50),\n",
      "    Message('note_on', channel=4, note=57, velocity=0, time=0),\n",
      "    Message('control_change', channel=4, control=7, value=50, time=40),\n",
      "    Message('note_on', channel=4, note=57, velocity=79, time=0),\n",
      "    Message('note_on', channel=4, note=64, velocity=79, time=0),\n",
      "    Message('note_on', channel=4, note=64, velocity=0, time=80),\n",
      "    Message('note_on', channel=4, note=57, velocity=0, time=0),\n",
      "    Message('control_change', channel=4, control=7, value=49, time=10),\n",
      "    Message('note_on', channel=4, note=57, velocity=79, time=30),\n",
      "    Message('note_on', channel=4, note=64, velocity=79, time=0),\n",
      "    Message('control_change', channel=4, control=7, value=48, time=60),\n",
      "    Message('note_on', channel=4, note=64, velocity=0, time=20),\n",
      "    Message('note_on', channel=4, note=57, velocity=0, time=0),\n",
      "    Message('note_on', channel=4, note=57, velocity=79, time=40),\n",
      "    Message('note_on', channel=4, note=64, velocity=79, time=0),\n",
      "    Message('control_change', channel=4, control=7, value=47, time=30),\n",
      "    Message('note_on', channel=4, note=64, velocity=0, time=50),\n",
      "    Message('note_on', channel=4, note=57, velocity=0, time=0),\n",
      "    Message('control_change', channel=4, control=7, value=46, time=40),\n",
      "    Message('note_on', channel=4, note=57, velocity=79, time=0),\n",
      "    Message('note_on', channel=4, note=64, velocity=79, time=0),\n",
      "    Message('note_on', channel=4, note=64, velocity=0, time=80),\n",
      "    Message('note_on', channel=4, note=57, velocity=0, time=0),\n",
      "    Message('control_change', channel=4, control=7, value=45, time=10),\n",
      "    Message('note_on', channel=4, note=56, velocity=79, time=30),\n",
      "    Message('note_on', channel=4, note=64, velocity=79, time=0),\n",
      "    Message('control_change', channel=4, control=7, value=44, time=60),\n",
      "    Message('note_on', channel=4, note=64, velocity=0, time=20),\n",
      "    Message('note_on', channel=4, note=56, velocity=0, time=0),\n",
      "    Message('note_on', channel=4, note=56, velocity=79, time=40),\n",
      "    Message('note_on', channel=4, note=64, velocity=79, time=0),\n",
      "    Message('control_change', channel=4, control=7, value=43, time=30),\n",
      "    Message('note_on', channel=4, note=64, velocity=0, time=50),\n",
      "    Message('note_on', channel=4, note=56, velocity=0, time=0),\n",
      "    Message('control_change', channel=4, control=7, value=42, time=40),\n",
      "    Message('note_on', channel=4, note=56, velocity=79, time=0),\n",
      "    Message('note_on', channel=4, note=64, velocity=79, time=0),\n",
      "    Message('note_on', channel=4, note=64, velocity=0, time=80),\n",
      "    Message('note_on', channel=4, note=56, velocity=0, time=0),\n",
      "    Message('control_change', channel=4, control=7, value=41, time=10),\n",
      "    Message('note_on', channel=4, note=56, velocity=79, time=30),\n",
      "    Message('note_on', channel=4, note=64, velocity=79, time=0),\n",
      "    Message('control_change', channel=4, control=7, value=40, time=60),\n",
      "    Message('note_on', channel=4, note=64, velocity=0, time=20),\n",
      "    Message('note_on', channel=4, note=56, velocity=0, time=0),\n",
      "    Message('note_on', channel=4, note=56, velocity=79, time=40),\n",
      "    Message('note_on', channel=4, note=64, velocity=79, time=0),\n",
      "    Message('control_change', channel=4, control=7, value=39, time=30),\n",
      "    Message('note_on', channel=4, note=64, velocity=0, time=50),\n",
      "    Message('note_on', channel=4, note=56, velocity=0, time=0),\n",
      "    Message('control_change', channel=4, control=7, value=38, time=40),\n",
      "    Message('note_on', channel=4, note=56, velocity=79, time=0),\n",
      "    Message('note_on', channel=4, note=64, velocity=79, time=0),\n",
      "    Message('note_on', channel=4, note=64, velocity=0, time=80),\n",
      "    Message('note_on', channel=4, note=56, velocity=0, time=0),\n",
      "    Message('control_change', channel=4, control=7, value=37, time=10),\n",
      "    Message('note_on', channel=4, note=56, velocity=79, time=30),\n",
      "    Message('note_on', channel=4, note=64, velocity=79, time=0),\n",
      "    Message('control_change', channel=4, control=7, value=36, time=60),\n",
      "    Message('note_on', channel=4, note=64, velocity=0, time=20),\n",
      "    Message('note_on', channel=4, note=56, velocity=0, time=0),\n",
      "    Message('note_on', channel=4, note=56, velocity=79, time=40),\n",
      "    Message('note_on', channel=4, note=64, velocity=79, time=0),\n",
      "    Message('control_change', channel=4, control=7, value=35, time=30),\n",
      "    Message('note_on', channel=4, note=64, velocity=0, time=50),\n",
      "    Message('note_on', channel=4, note=56, velocity=0, time=0),\n",
      "    Message('control_change', channel=4, control=7, value=34, time=40),\n",
      "    Message('note_on', channel=4, note=54, velocity=79, time=0),\n",
      "    Message('note_on', channel=4, note=61, velocity=79, time=0),\n",
      "    Message('note_on', channel=4, note=61, velocity=0, time=80),\n",
      "    Message('note_on', channel=4, note=54, velocity=0, time=0),\n",
      "    Message('control_change', channel=4, control=7, value=33, time=10),\n",
      "    Message('note_on', channel=4, note=54, velocity=79, time=30),\n",
      "    Message('note_on', channel=4, note=61, velocity=79, time=0),\n",
      "    Message('control_change', channel=4, control=7, value=32, time=60),\n",
      "    Message('note_on', channel=4, note=61, velocity=0, time=20),\n",
      "    Message('note_on', channel=4, note=54, velocity=0, time=0),\n",
      "    Message('note_on', channel=4, note=54, velocity=79, time=40),\n",
      "    Message('note_on', channel=4, note=61, velocity=79, time=0),\n",
      "    Message('control_change', channel=4, control=7, value=31, time=30),\n",
      "    Message('note_on', channel=4, note=61, velocity=0, time=50),\n",
      "    Message('note_on', channel=4, note=54, velocity=0, time=0),\n",
      "    Message('control_change', channel=4, control=7, value=30, time=40),\n",
      "    Message('note_on', channel=4, note=54, velocity=79, time=0),\n",
      "    Message('note_on', channel=4, note=61, velocity=79, time=0),\n",
      "    Message('note_on', channel=4, note=61, velocity=0, time=80),\n",
      "    Message('note_on', channel=4, note=54, velocity=0, time=0),\n",
      "    Message('control_change', channel=4, control=7, value=29, time=10),\n",
      "    Message('note_on', channel=4, note=57, velocity=79, time=30),\n",
      "    Message('control_change', channel=4, control=7, value=28, time=60),\n",
      "    Message('note_on', channel=4, note=57, velocity=0, time=20),\n",
      "    Message('control_change', channel=4, control=7, value=27, time=40),\n",
      "    Message('note_on', channel=4, note=56, velocity=79, time=0),\n",
      "    Message('note_on', channel=4, note=56, velocity=0, time=80),\n",
      "    Message('control_change', channel=4, control=7, value=26, time=10),\n",
      "    Message('note_on', channel=4, note=56, velocity=79, time=30),\n",
      "    Message('control_change', channel=4, control=7, value=25, time=60),\n",
      "    Message('note_on', channel=4, note=56, velocity=0, time=20),\n",
      "    Message('note_on', channel=4, note=56, velocity=79, time=40),\n",
      "    Message('control_change', channel=4, control=7, value=24, time=30),\n",
      "    Message('note_on', channel=4, note=56, velocity=0, time=50),\n",
      "    Message('control_change', channel=4, control=7, value=23, time=40),\n",
      "    Message('note_on', channel=4, note=57, velocity=79, time=0),\n",
      "    Message('note_on', channel=4, note=64, velocity=79, time=0),\n",
      "    Message('note_on', channel=4, note=64, velocity=0, time=80),\n",
      "    Message('note_on', channel=4, note=57, velocity=0, time=0),\n",
      "    Message('control_change', channel=4, control=7, value=22, time=10),\n",
      "    Message('note_on', channel=4, note=57, velocity=79, time=30),\n",
      "    Message('note_on', channel=4, note=64, velocity=79, time=0),\n",
      "    Message('control_change', channel=4, control=7, value=21, time=60),\n",
      "    Message('note_on', channel=4, note=64, velocity=0, time=20),\n",
      "    Message('note_on', channel=4, note=57, velocity=0, time=0),\n",
      "    Message('note_on', channel=4, note=57, velocity=79, time=40),\n",
      "    Message('note_on', channel=4, note=64, velocity=79, time=0),\n",
      "    Message('control_change', channel=4, control=7, value=20, time=30),\n",
      "    Message('note_on', channel=4, note=64, velocity=0, time=50),\n",
      "    Message('note_on', channel=4, note=57, velocity=0, time=0),\n",
      "    Message('control_change', channel=4, control=7, value=19, time=40),\n",
      "    Message('note_on', channel=4, note=57, velocity=79, time=0),\n",
      "    Message('note_on', channel=4, note=64, velocity=79, time=0),\n",
      "    Message('note_on', channel=4, note=64, velocity=0, time=80),\n",
      "    Message('note_on', channel=4, note=57, velocity=0, time=0),\n",
      "    Message('control_change', channel=4, control=7, value=18, time=10),\n",
      "    Message('note_on', channel=4, note=58, velocity=79, time=30),\n",
      "    Message('control_change', channel=4, control=7, value=17, time=60),\n",
      "    Message('note_on', channel=4, note=58, velocity=0, time=20),\n",
      "    Message('note_on', channel=4, note=58, velocity=79, time=40),\n",
      "    Message('control_change', channel=4, control=7, value=16, time=30),\n",
      "    Message('note_on', channel=4, note=58, velocity=0, time=50),\n",
      "    Message('control_change', channel=4, control=7, value=15, time=40),\n",
      "    Message('note_on', channel=4, note=58, velocity=79, time=0),\n",
      "    Message('note_on', channel=4, note=58, velocity=0, time=80),\n",
      "    Message('control_change', channel=4, control=7, value=14, time=10),\n",
      "    Message('note_on', channel=4, note=58, velocity=79, time=30),\n",
      "    Message('control_change', channel=4, control=7, value=13, time=60),\n",
      "    Message('note_on', channel=4, note=58, velocity=0, time=20),\n",
      "    Message('note_on', channel=4, note=47, velocity=79, time=40),\n",
      "    Message('note_on', channel=4, note=59, velocity=79, time=0),\n",
      "    Message('control_change', channel=4, control=7, value=12, time=30),\n",
      "    Message('note_on', channel=4, note=59, velocity=0, time=50),\n",
      "    Message('note_on', channel=4, note=47, velocity=0, time=0),\n",
      "    Message('control_change', channel=4, control=7, value=11, time=40),\n",
      "    Message('note_on', channel=4, note=47, velocity=79, time=0),\n",
      "    Message('note_on', channel=4, note=59, velocity=79, time=0),\n",
      "    Message('note_on', channel=4, note=59, velocity=0, time=80),\n",
      "    Message('note_on', channel=4, note=47, velocity=0, time=0),\n",
      "    Message('control_change', channel=4, control=7, value=10, time=10),\n",
      "    Message('note_on', channel=4, note=47, velocity=79, time=30),\n",
      "    Message('note_on', channel=4, note=59, velocity=79, time=0),\n",
      "    Message('control_change', channel=4, control=7, value=9, time=60),\n",
      "    Message('note_on', channel=4, note=59, velocity=0, time=20),\n",
      "    Message('note_on', channel=4, note=47, velocity=0, time=0),\n",
      "    Message('note_on', channel=4, note=47, velocity=79, time=40),\n",
      "    Message('note_on', channel=4, note=59, velocity=79, time=0),\n",
      "    Message('control_change', channel=4, control=7, value=8, time=30),\n",
      "    Message('note_on', channel=4, note=59, velocity=0, time=50),\n",
      "    Message('note_on', channel=4, note=47, velocity=0, time=0),\n",
      "    Message('control_change', channel=4, control=7, value=7, time=40),\n",
      "    Message('note_on', channel=4, note=47, velocity=79, time=0),\n",
      "    Message('note_on', channel=4, note=59, velocity=79, time=0),\n",
      "    Message('note_on', channel=4, note=59, velocity=0, time=80),\n",
      "    Message('note_on', channel=4, note=47, velocity=0, time=0),\n",
      "    Message('control_change', channel=4, control=7, value=6, time=10),\n",
      "    Message('note_on', channel=4, note=47, velocity=79, time=30),\n",
      "    Message('note_on', channel=4, note=59, velocity=79, time=0),\n",
      "    Message('control_change', channel=4, control=7, value=5, time=60),\n",
      "    Message('note_on', channel=4, note=59, velocity=0, time=20),\n",
      "    Message('note_on', channel=4, note=47, velocity=0, time=0),\n",
      "    Message('note_on', channel=4, note=47, velocity=79, time=40),\n",
      "    Message('note_on', channel=4, note=59, velocity=79, time=0),\n",
      "    Message('control_change', channel=4, control=7, value=4, time=30),\n",
      "    Message('note_on', channel=4, note=59, velocity=0, time=50),\n",
      "    Message('note_on', channel=4, note=47, velocity=0, time=0),\n",
      "    Message('control_change', channel=4, control=7, value=3, time=40),\n",
      "    Message('note_on', channel=4, note=47, velocity=79, time=0),\n",
      "    Message('note_on', channel=4, note=59, velocity=79, time=0),\n",
      "    Message('note_on', channel=4, note=59, velocity=0, time=80),\n",
      "    Message('note_on', channel=4, note=47, velocity=0, time=0),\n",
      "    Message('control_change', channel=4, control=7, value=2, time=10),\n",
      "    Message('note_on', channel=4, note=47, velocity=79, time=30),\n",
      "    Message('note_on', channel=4, note=59, velocity=79, time=0),\n",
      "    Message('control_change', channel=4, control=7, value=1, time=60),\n",
      "    Message('note_on', channel=4, note=59, velocity=0, time=20),\n",
      "    Message('note_on', channel=4, note=47, velocity=0, time=0),\n",
      "    Message('control_change', channel=4, control=7, value=0, time=10),\n",
      "    MetaMessage('end_of_track', time=0)]),\n",
      "  MidiTrack([\n",
      "    MetaMessage('midi_port', port=0, time=0),\n",
      "    MetaMessage('track_name', name='Rhythm&SE', time=0),\n",
      "    Message('program_change', channel=9, program=16, time=0),\n",
      "    Message('control_change', channel=9, control=7, value=90, time=0),\n",
      "    Message('control_change', channel=9, control=0, value=0, time=482),\n",
      "    Message('control_change', channel=9, control=32, value=0, time=5),\n",
      "    Message('control_change', channel=9, control=1, value=0, time=10),\n",
      "    Message('control_change', channel=9, control=10, value=64, time=10),\n",
      "    Message('control_change', channel=9, control=11, value=127, time=5),\n",
      "    Message('control_change', channel=9, control=64, value=0, time=5),\n",
      "    Message('control_change', channel=9, control=91, value=51, time=5),\n",
      "    Message('control_change', channel=9, control=93, value=0, time=5),\n",
      "    Message('pitchwheel', channel=9, pitch=0, time=5),\n",
      "    Message('note_on', channel=9, note=36, velocity=106, time=428),\n",
      "    Message('note_on', channel=9, note=42, velocity=106, time=0),\n",
      "    Message('note_on', channel=9, note=36, velocity=0, time=55),\n",
      "    Message('note_on', channel=9, note=42, velocity=0, time=25),\n",
      "    Message('control_change', channel=9, control=7, value=90, time=160),\n",
      "    Message('control_change', channel=9, control=91, value=51, time=0),\n",
      "    Message('note_on', channel=9, note=42, velocity=106, time=0),\n",
      "    Message('note_on', channel=9, note=42, velocity=0, time=80),\n",
      "    Message('note_on', channel=9, note=42, velocity=106, time=160),\n",
      "    Message('note_on', channel=9, note=42, velocity=0, time=80),\n",
      "    Message('note_on', channel=9, note=42, velocity=106, time=160),\n",
      "    Message('note_on', channel=9, note=42, velocity=0, time=80),\n",
      "    Message('note_on', channel=9, note=36, velocity=106, time=40),\n",
      "    Message('note_on', channel=9, note=36, velocity=0, time=35),\n",
      "    Message('note_on', channel=9, note=36, velocity=106, time=85),\n",
      "    Message('note_on', channel=9, note=42, velocity=106, time=0),\n",
      "    Message('note_on', channel=9, note=42, velocity=0, time=55),\n",
      "    Message('note_on', channel=9, note=36, velocity=0, time=0),\n",
      "    Message('note_on', channel=9, note=42, velocity=106, time=185),\n",
      "    Message('note_on', channel=9, note=42, velocity=0, time=55),\n",
      "    Message('note_on', channel=9, note=42, velocity=106, time=185),\n",
      "    Message('note_on', channel=9, note=42, velocity=0, time=55),\n",
      "    Message('note_on', channel=9, note=36, velocity=106, time=185),\n",
      "    Message('note_on', channel=9, note=42, velocity=106, time=0),\n",
      "    Message('note_on', channel=9, note=36, velocity=0, time=35),\n",
      "    Message('note_on', channel=9, note=42, velocity=0, time=20),\n",
      "    Message('note_on', channel=9, note=36, velocity=106, time=185),\n",
      "    Message('note_on', channel=9, note=42, velocity=106, time=0),\n",
      "    Message('note_on', channel=9, note=42, velocity=0, time=55),\n",
      "    Message('note_on', channel=9, note=36, velocity=0, time=0),\n",
      "    Message('note_on', channel=9, note=42, velocity=106, time=185),\n",
      "    Message('note_on', channel=9, note=42, velocity=0, time=55),\n",
      "    Message('note_on', channel=9, note=42, velocity=106, time=185),\n",
      "    Message('note_on', channel=9, note=42, velocity=0, time=55),\n",
      "    Message('note_on', channel=9, note=42, velocity=106, time=185),\n",
      "    Message('note_on', channel=9, note=42, velocity=0, time=55),\n",
      "    Message('note_on', channel=9, note=36, velocity=106, time=65),\n",
      "    Message('note_on', channel=9, note=36, velocity=0, time=35),\n",
      "    Message('note_on', channel=9, note=36, velocity=106, time=85),\n",
      "    Message('note_on', channel=9, note=42, velocity=106, time=0),\n",
      "    Message('note_on', channel=9, note=36, velocity=0, time=35),\n",
      "    Message('note_on', channel=9, note=42, velocity=0, time=20),\n",
      "    Message('note_on', channel=9, note=42, velocity=106, time=185),\n",
      "    Message('note_on', channel=9, note=42, velocity=0, time=55),\n",
      "    Message('note_on', channel=9, note=42, velocity=106, time=185),\n",
      "    Message('note_on', channel=9, note=38, velocity=106, time=120),\n",
      "    Message('note_on', channel=9, note=38, velocity=0, time=35),\n",
      "    Message('note_on', channel=9, note=42, velocity=0, time=85),\n",
      "    Message('note_on', channel=9, note=38, velocity=106, time=0),\n",
      "    Message('note_on', channel=9, note=42, velocity=106, time=0),\n",
      "    Message('note_on', channel=9, note=42, velocity=0, time=55),\n",
      "    Message('note_on', channel=9, note=38, velocity=0, time=185),\n",
      "    Message('note_on', channel=9, note=36, velocity=106, time=0),\n",
      "    Message('note_on', channel=9, note=42, velocity=106, time=0),\n",
      "    Message('note_on', channel=9, note=49, velocity=106, time=0),\n",
      "    Message('note_on', channel=9, note=42, velocity=0, time=55),\n",
      "    Message('note_on', channel=9, note=36, velocity=0, time=0),\n",
      "    Message('note_on', channel=9, note=42, velocity=106, time=65),\n",
      "    Message('note_on', channel=9, note=42, velocity=0, time=55),\n",
      "    Message('note_on', channel=9, note=49, velocity=0, time=65),\n",
      "    Message('note_on', channel=9, note=38, velocity=106, time=0),\n",
      "    Message('note_on', channel=9, note=42, velocity=106, time=0),\n",
      "    Message('note_on', channel=9, note=42, velocity=0, time=55),\n",
      "    Message('note_on', channel=9, note=38, velocity=0, time=0),\n",
      "    Message('note_on', channel=9, note=42, velocity=106, time=65),\n",
      "    Message('note_on', channel=9, note=42, velocity=0, time=55),\n",
      "    Message('note_on', channel=9, note=36, velocity=106, time=65),\n",
      "    Message('note_on', channel=9, note=42, velocity=106, time=0),\n",
      "    Message('note_on', channel=9, note=42, velocity=0, time=55),\n",
      "    Message('note_on', channel=9, note=36, velocity=0, time=0),\n",
      "    Message('note_on', channel=9, note=42, velocity=106, time=65),\n",
      "    Message('note_on', channel=9, note=42, velocity=0, time=55),\n",
      "    Message('note_on', channel=9, note=38, velocity=106, time=65),\n",
      "    Message('note_on', channel=9, note=42, velocity=106, time=0),\n",
      "    Message('note_on', channel=9, note=42, velocity=0, time=55),\n",
      "    Message('note_on', channel=9, note=38, velocity=0, time=0),\n",
      "    Message('note_on', channel=9, note=42, velocity=106, time=65),\n",
      "    Message('note_on', channel=9, note=42, velocity=0, time=55),\n",
      "    Message('note_on', channel=9, note=36, velocity=106, time=65),\n",
      "    Message('note_on', channel=9, note=42, velocity=106, time=0),\n",
      "    Message('note_on', channel=9, note=42, velocity=0, time=55),\n",
      "    Message('note_on', channel=9, note=36, velocity=0, time=0),\n",
      "    Message('note_on', channel=9, note=42, velocity=106, time=65),\n",
      "    Message('note_on', channel=9, note=42, velocity=0, time=55),\n",
      "    Message('note_on', channel=9, note=38, velocity=106, time=65),\n",
      "    Message('note_on', channel=9, note=42, velocity=106, time=0),\n",
      "    Message('note_on', channel=9, note=42, velocity=0, time=55),\n",
      "    Message('note_on', channel=9, note=38, velocity=0, time=0),\n",
      "    Message('note_on', channel=9, note=42, velocity=106, time=65),\n",
      "    Message('note_on', channel=9, note=42, velocity=0, time=55),\n",
      "    Message('note_on', channel=9, note=36, velocity=106, time=65),\n",
      "    Message('note_on', channel=9, note=42, velocity=106, time=0),\n",
      "    Message('note_on', channel=9, note=42, velocity=0, time=55),\n",
      "    Message('note_on', channel=9, note=36, velocity=0, time=0),\n",
      "    Message('note_on', channel=9, note=42, velocity=106, time=65),\n",
      "    Message('note_on', channel=9, note=42, velocity=0, time=55),\n",
      "    Message('note_on', channel=9, note=38, velocity=106, time=65),\n",
      "    Message('note_on', channel=9, note=42, velocity=106, time=0),\n",
      "    Message('note_on', channel=9, note=42, velocity=0, time=55),\n",
      "    Message('note_on', channel=9, note=38, velocity=0, time=0),\n",
      "    Message('note_on', channel=9, note=42, velocity=106, time=65),\n",
      "    Message('note_on', channel=9, note=42, velocity=0, time=55),\n",
      "    Message('note_on', channel=9, note=36, velocity=106, time=65),\n",
      "    Message('note_on', channel=9, note=42, velocity=106, time=0),\n",
      "    Message('note_on', channel=9, note=42, velocity=0, time=55),\n",
      "    Message('note_on', channel=9, note=36, velocity=0, time=0),\n",
      "    Message('note_on', channel=9, note=42, velocity=106, time=65),\n",
      "    Message('note_on', channel=9, note=42, velocity=0, time=55),\n",
      "    Message('note_on', channel=9, note=38, velocity=106, time=65),\n",
      "    Message('note_on', channel=9, note=42, velocity=106, time=0),\n",
      "    Message('note_on', channel=9, note=42, velocity=0, time=55),\n",
      "    Message('note_on', channel=9, note=38, velocity=0, time=0),\n",
      "    Message('note_on', channel=9, note=42, velocity=106, time=65),\n",
      "    Message('note_on', channel=9, note=42, velocity=0, time=55),\n",
      "    Message('note_on', channel=9, note=36, velocity=106, time=65),\n",
      "    Message('note_on', channel=9, note=42, velocity=106, time=0),\n",
      "    Message('note_on', channel=9, note=42, velocity=0, time=55),\n",
      "    Message('note_on', channel=9, note=36, velocity=0, time=0),\n",
      "    Message('note_on', channel=9, note=42, velocity=106, time=65),\n",
      "    Message('note_on', channel=9, note=42, velocity=0, time=55),\n",
      "    Message('note_on', channel=9, note=38, velocity=106, time=65),\n",
      "    Message('note_on', channel=9, note=42, velocity=106, time=0),\n",
      "    Message('note_on', channel=9, note=42, velocity=0, time=55),\n",
      "    Message('note_on', channel=9, note=38, velocity=0, time=0),\n",
      "    Message('note_on', channel=9, note=42, velocity=106, time=65),\n",
      "    Message('note_on', channel=9, note=42, velocity=0, time=55),\n",
      "    Message('note_on', channel=9, note=36, velocity=106, time=65),\n",
      "    Message('note_on', channel=9, note=42, velocity=106, time=0),\n",
      "    Message('note_on', channel=9, note=42, velocity=0, time=55),\n",
      "    Message('note_on', channel=9, note=36, velocity=0, time=0),\n",
      "    Message('note_on', channel=9, note=42, velocity=106, time=65),\n",
      "    Message('note_on', channel=9, note=42, velocity=0, time=55),\n",
      "    Message('note_on', channel=9, note=38, velocity=106, time=65),\n",
      "    Message('note_on', channel=9, note=42, velocity=106, time=0),\n",
      "    Message('note_on', channel=9, note=42, velocity=0, time=55),\n",
      "    Message('note_on', channel=9, note=38, velocity=0, time=0),\n",
      "    Message('note_on', channel=9, note=42, velocity=106, time=65),\n",
      "    Message('note_on', channel=9, note=42, velocity=0, time=55),\n",
      "    Message('note_on', channel=9, note=36, velocity=106, time=65),\n",
      "    Message('note_on', channel=9, note=42, velocity=106, time=0),\n",
      "    Message('note_on', channel=9, note=42, velocity=0, time=55),\n",
      "    Message('note_on', channel=9, note=36, velocity=0, time=0),\n",
      "    Message('note_on', channel=9, note=42, velocity=106, time=65),\n",
      "    Message('note_on', channel=9, note=42, velocity=0, time=55),\n",
      "    Message('note_on', channel=9, note=38, velocity=106, time=65),\n",
      "    Message('note_on', channel=9, note=42, velocity=106, time=0),\n",
      "    Message('note_on', channel=9, note=42, velocity=0, time=55),\n",
      "    Message('note_on', channel=9, note=38, velocity=0, time=0),\n",
      "    Message('note_on', channel=9, note=38, velocity=106, time=65),\n",
      "    Message('note_on', channel=9, note=42, velocity=106, time=0),\n",
      "    Message('note_on', channel=9, note=38, velocity=0, time=35),\n",
      "    Message('note_on', channel=9, note=42, velocity=0, time=20),\n",
      "    Message('note_on', channel=9, note=38, velocity=106, time=5),\n",
      "    Message('note_on', channel=9, note=38, velocity=0, time=35),\n",
      "    Message('note_on', channel=9, note=36, velocity=106, time=25),\n",
      "    Message('note_on', channel=9, note=42, velocity=106, time=0),\n",
      "    Message('note_on', channel=9, note=49, velocity=106, time=0),\n",
      "    Message('note_on', channel=9, note=42, velocity=0, time=55),\n",
      "    Message('note_on', channel=9, note=36, velocity=0, time=0),\n",
      "    Message('note_on', channel=9, note=49, velocity=0, time=25),\n",
      "    Message('note_on', channel=9, note=42, velocity=106, time=40),\n",
      "    Message('note_on', channel=9, note=42, velocity=0, time=55),\n",
      "    Message('note_on', channel=9, note=38, velocity=106, time=65),\n",
      "    Message('note_on', channel=9, note=42, velocity=106, time=0),\n",
      "    Message('note_on', channel=9, note=42, velocity=0, time=55),\n",
      "    Message('note_on', channel=9, note=38, velocity=0, time=0),\n",
      "    Message('note_on', channel=9, note=42, velocity=106, time=65),\n",
      "    Message('note_on', channel=9, note=42, velocity=0, time=55),\n",
      "    Message('note_on', channel=9, note=36, velocity=106, time=65),\n",
      "    Message('note_on', channel=9, note=42, velocity=106, time=0),\n",
      "    Message('note_on', channel=9, note=42, velocity=0, time=55),\n",
      "    Message('note_on', channel=9, note=36, velocity=0, time=0),\n",
      "    Message('note_on', channel=9, note=42, velocity=106, time=65),\n",
      "    Message('note_on', channel=9, note=42, velocity=0, time=55),\n",
      "    Message('note_on', channel=9, note=38, velocity=106, time=65),\n",
      "    Message('note_on', channel=9, note=42, velocity=106, time=0),\n",
      "    Message('note_on', channel=9, note=42, velocity=0, time=55),\n",
      "    Message('note_on', channel=9, note=38, velocity=0, time=0),\n",
      "    Message('note_on', channel=9, note=42, velocity=106, time=65),\n",
      "    Message('note_on', channel=9, note=42, velocity=0, time=55),\n",
      "    Message('note_on', channel=9, note=36, velocity=106, time=65),\n",
      "    Message('note_on', channel=9, note=42, velocity=106, time=0),\n",
      "    Message('note_on', channel=9, note=42, velocity=0, time=55),\n",
      "    Message('note_on', channel=9, note=36, velocity=0, time=0),\n",
      "    Message('note_on', channel=9, note=42, velocity=106, time=65),\n",
      "    Message('note_on', channel=9, note=42, velocity=0, time=55),\n",
      "    Message('note_on', channel=9, note=38, velocity=106, time=65),\n",
      "    Message('note_on', channel=9, note=42, velocity=106, time=0),\n",
      "    Message('note_on', channel=9, note=42, velocity=0, time=55),\n",
      "    Message('note_on', channel=9, note=38, velocity=0, time=0),\n",
      "    Message('note_on', channel=9, note=42, velocity=106, time=65),\n",
      "    Message('note_on', channel=9, note=42, velocity=0, time=55),\n",
      "    Message('note_on', channel=9, note=36, velocity=106, time=65),\n",
      "    Message('note_on', channel=9, note=42, velocity=106, time=0),\n",
      "    Message('note_on', channel=9, note=42, velocity=0, time=55),\n",
      "    Message('note_on', channel=9, note=36, velocity=0, time=0),\n",
      "    Message('note_on', channel=9, note=42, velocity=106, time=65),\n",
      "    Message('note_on', channel=9, note=42, velocity=0, time=55),\n",
      "    Message('note_on', channel=9, note=38, velocity=106, time=65),\n",
      "    Message('note_on', channel=9, note=42, velocity=106, time=0),\n",
      "    Message('note_on', channel=9, note=42, velocity=0, time=55),\n",
      "    Message('note_on', channel=9, note=38, velocity=0, time=0),\n",
      "    Message('note_on', channel=9, note=42, velocity=106, time=65),\n",
      "    Message('note_on', channel=9, note=42, velocity=0, time=55),\n",
      "    Message('note_on', channel=9, note=36, velocity=106, time=65),\n",
      "    Message('note_on', channel=9, note=42, velocity=106, time=0),\n",
      "    Message('note_on', channel=9, note=42, velocity=0, time=55),\n",
      "    Message('note_on', channel=9, note=36, velocity=0, time=0),\n",
      "    Message('note_on', channel=9, note=42, velocity=106, time=65),\n",
      "    Message('note_on', channel=9, note=42, velocity=0, time=55),\n",
      "    Message('note_on', channel=9, note=38, velocity=106, time=65),\n",
      "    Message('note_on', channel=9, note=42, velocity=106, time=0),\n",
      "    Message('note_on', channel=9, note=42, velocity=0, time=55),\n",
      "    Message('note_on', channel=9, note=38, velocity=0, time=0),\n",
      "    Message('note_on', channel=9, note=42, velocity=106, time=65),\n",
      "    Message('note_on', channel=9, note=42, velocity=0, time=55),\n",
      "    Message('note_on', channel=9, note=36, velocity=106, time=65),\n",
      "    Message('note_on', channel=9, note=42, velocity=106, time=0),\n",
      "    Message('note_on', channel=9, note=42, velocity=0, time=55),\n",
      "    Message('note_on', channel=9, note=36, velocity=0, time=0),\n",
      "    Message('note_on', channel=9, note=42, velocity=106, time=65),\n",
      "    Message('note_on', channel=9, note=42, velocity=0, time=55),\n",
      "    Message('note_on', channel=9, note=38, velocity=106, time=65),\n",
      "    Message('note_on', channel=9, note=42, velocity=106, time=0),\n",
      "    Message('note_on', channel=9, note=42, velocity=0, time=55),\n",
      "    Message('note_on', channel=9, note=38, velocity=0, time=0),\n",
      "    Message('note_on', channel=9, note=42, velocity=106, time=65),\n",
      "    Message('note_on', channel=9, note=42, velocity=0, time=55),\n",
      "    Message('note_on', channel=9, note=36, velocity=106, time=65),\n",
      "    Message('note_on', channel=9, note=42, velocity=106, time=0),\n",
      "    Message('note_on', channel=9, note=42, velocity=0, time=55),\n",
      "    Message('note_on', channel=9, note=36, velocity=0, time=0),\n",
      "    Message('note_on', channel=9, note=42, velocity=106, time=65),\n",
      "    Message('note_on', channel=9, note=42, velocity=0, time=55),\n",
      "    Message('note_on', channel=9, note=38, velocity=106, time=65),\n",
      "    Message('note_on', channel=9, note=42, velocity=106, time=0),\n",
      "    Message('note_on', channel=9, note=42, velocity=0, time=55),\n",
      "    Message('note_on', channel=9, note=38, velocity=0, time=0),\n",
      "    Message('note_on', channel=9, note=42, velocity=106, time=65),\n",
      "    Message('note_on', channel=9, note=42, velocity=0, time=55),\n",
      "    Message('note_on', channel=9, note=36, velocity=106, time=65),\n",
      "    Message('note_on', channel=9, note=42, velocity=106, time=0),\n",
      "    Message('note_on', channel=9, note=42, velocity=0, time=55),\n",
      "    Message('note_on', channel=9, note=36, velocity=0, time=0),\n",
      "    Message('note_on', channel=9, note=42, velocity=106, time=65),\n",
      "    Message('note_on', channel=9, note=42, velocity=0, time=55),\n",
      "    Message('note_on', channel=9, note=38, velocity=106, time=65),\n",
      "    Message('note_on', channel=9, note=42, velocity=106, time=0),\n",
      "    Message('note_on', channel=9, note=42, velocity=0, time=55),\n",
      "    Message('note_on', channel=9, note=38, velocity=0, time=0),\n",
      "    Message('note_on', channel=9, note=38, velocity=106, time=65),\n",
      "    Message('note_on', channel=9, note=42, velocity=106, time=0),\n",
      "    Message('note_on', channel=9, note=38, velocity=0, time=35),\n",
      "    Message('note_on', channel=9, note=42, velocity=0, time=20),\n",
      "    Message('note_on', channel=9, note=38, velocity=106, time=5),\n",
      "    Message('note_on', channel=9, note=38, velocity=0, time=35),\n",
      "    Message('note_on', channel=9, note=36, velocity=106, time=25),\n",
      "    Message('note_on', channel=9, note=42, velocity=106, time=0),\n",
      "    Message('note_on', channel=9, note=49, velocity=106, time=0),\n",
      "    Message('note_on', channel=9, note=49, velocity=0, time=55),\n",
      "    Message('note_on', channel=9, note=42, velocity=0, time=0),\n",
      "    Message('note_on', channel=9, note=36, velocity=0, time=0),\n",
      "    Message('note_on', channel=9, note=42, velocity=106, time=65),\n",
      "    Message('note_on', channel=9, note=42, velocity=0, time=55),\n",
      "    Message('note_on', channel=9, note=38, velocity=106, time=65),\n",
      "    Message('note_on', channel=9, note=42, velocity=106, time=0),\n",
      "    Message('note_on', channel=9, note=42, velocity=0, time=55),\n",
      "    Message('note_on', channel=9, note=38, velocity=0, time=0),\n",
      "    Message('note_on', channel=9, note=42, velocity=106, time=65),\n",
      "    Message('note_on', channel=9, note=42, velocity=0, time=55),\n",
      "    Message('note_on', channel=9, note=36, velocity=106, time=65),\n",
      "    Message('note_on', channel=9, note=42, velocity=106, time=0),\n",
      "    Message('note_on', channel=9, note=42, velocity=0, time=55),\n",
      "    Message('note_on', channel=9, note=36, velocity=0, time=0),\n",
      "    Message('note_on', channel=9, note=42, velocity=106, time=65),\n",
      "    Message('note_on', channel=9, note=42, velocity=0, time=55),\n",
      "    Message('note_on', channel=9, note=38, velocity=106, time=65),\n",
      "    Message('note_on', channel=9, note=42, velocity=106, time=0),\n",
      "    Message('note_on', channel=9, note=42, velocity=0, time=55),\n",
      "    Message('note_on', channel=9, note=38, velocity=0, time=0),\n",
      "    Message('note_on', channel=9, note=42, velocity=106, time=65),\n",
      "    Message('note_on', channel=9, note=42, velocity=0, time=55),\n",
      "    Message('note_on', channel=9, note=36, velocity=106, time=65),\n",
      "    Message('note_on', channel=9, note=42, velocity=106, time=0),\n",
      "    Message('note_on', channel=9, note=42, velocity=0, time=55),\n",
      "    Message('note_on', channel=9, note=36, velocity=0, time=0),\n",
      "    Message('note_on', channel=9, note=42, velocity=106, time=65),\n",
      "    Message('note_on', channel=9, note=42, velocity=0, time=55),\n",
      "    Message('note_on', channel=9, note=38, velocity=106, time=65),\n",
      "    Message('note_on', channel=9, note=42, velocity=106, time=0),\n",
      "    Message('note_on', channel=9, note=42, velocity=0, time=55),\n",
      "    Message('note_on', channel=9, note=38, velocity=0, time=0),\n",
      "    Message('note_on', channel=9, note=42, velocity=106, time=65),\n",
      "    Message('note_on', channel=9, note=42, velocity=0, time=55),\n",
      "    Message('note_on', channel=9, note=36, velocity=106, time=65),\n",
      "    Message('note_on', channel=9, note=42, velocity=106, time=0),\n",
      "    Message('note_on', channel=9, note=42, velocity=0, time=55),\n",
      "    Message('note_on', channel=9, note=36, velocity=0, time=0),\n",
      "    Message('note_on', channel=9, note=42, velocity=106, time=65),\n",
      "    Message('note_on', channel=9, note=42, velocity=0, time=55),\n",
      "    Message('note_on', channel=9, note=38, velocity=106, time=65),\n",
      "    Message('note_on', channel=9, note=42, velocity=106, time=0),\n",
      "    Message('note_on', channel=9, note=42, velocity=0, time=55),\n",
      "    Message('note_on', channel=9, note=38, velocity=0, time=0),\n",
      "    Message('note_on', channel=9, note=38, velocity=106, time=65),\n",
      "    Message('note_on', channel=9, note=38, velocity=0, time=60),\n",
      "    Message('note_on', channel=9, note=38, velocity=106, time=0),\n",
      "    Message('note_on', channel=9, note=38, velocity=0, time=35),\n",
      "    Message('note_on', channel=9, note=36, velocity=106, time=25),\n",
      "    Message('note_on', channel=9, note=42, velocity=106, time=0),\n",
      "    Message('note_on', channel=9, note=49, velocity=106, time=0),\n",
      "    Message('note_on', channel=9, note=42, velocity=0, time=55),\n",
      "    Message('note_on', channel=9, note=36, velocity=0, time=0),\n",
      "    Message('note_on', channel=9, note=49, velocity=0, time=25),\n",
      "    Message('note_on', channel=9, note=42, velocity=106, time=40),\n",
      "    Message('note_on', channel=9, note=42, velocity=0, time=55),\n",
      "    Message('note_on', channel=9, note=38, velocity=106, time=65),\n",
      "    Message('note_on', channel=9, note=42, velocity=106, time=0),\n",
      "    Message('note_on', channel=9, note=42, velocity=0, time=55),\n",
      "    Message('note_on', channel=9, note=38, velocity=0, time=0),\n",
      "    Message('note_on', channel=9, note=42, velocity=106, time=65),\n",
      "    Message('note_on', channel=9, note=42, velocity=0, time=55),\n",
      "    Message('note_on', channel=9, note=36, velocity=106, time=65),\n",
      "    Message('note_on', channel=9, note=42, velocity=106, time=0),\n",
      "    Message('note_on', channel=9, note=42, velocity=0, time=55),\n",
      "    Message('note_on', channel=9, note=36, velocity=0, time=0),\n",
      "    Message('note_on', channel=9, note=42, velocity=106, time=65),\n",
      "    Message('note_on', channel=9, note=42, velocity=0, time=55),\n",
      "    Message('note_on', channel=9, note=38, velocity=106, time=65),\n",
      "    Message('note_on', channel=9, note=42, velocity=106, time=0),\n",
      "    Message('note_on', channel=9, note=42, velocity=0, time=55),\n",
      "    Message('note_on', channel=9, note=38, velocity=0, time=0),\n",
      "    Message('note_on', channel=9, note=42, velocity=106, time=65),\n",
      "    Message('note_on', channel=9, note=42, velocity=0, time=55),\n",
      "    Message('note_on', channel=9, note=36, velocity=106, time=65),\n",
      "    Message('note_on', channel=9, note=42, velocity=106, time=0),\n",
      "    Message('note_on', channel=9, note=42, velocity=0, time=55),\n",
      "    Message('note_on', channel=9, note=36, velocity=0, time=0),\n",
      "    Message('note_on', channel=9, note=42, velocity=106, time=65),\n",
      "    Message('note_on', channel=9, note=42, velocity=0, time=55),\n",
      "    Message('note_on', channel=9, note=38, velocity=106, time=65),\n",
      "    Message('note_on', channel=9, note=42, velocity=106, time=0),\n",
      "    Message('note_on', channel=9, note=42, velocity=0, time=55),\n",
      "    Message('note_on', channel=9, note=38, velocity=0, time=0),\n",
      "    Message('note_on', channel=9, note=42, velocity=106, time=65),\n",
      "    Message('note_on', channel=9, note=42, velocity=0, time=55),\n",
      "    Message('note_on', channel=9, note=36, velocity=106, time=65),\n",
      "    Message('note_on', channel=9, note=42, velocity=106, time=0),\n",
      "    Message('note_on', channel=9, note=42, velocity=0, time=55),\n",
      "    Message('note_on', channel=9, note=36, velocity=0, time=0),\n",
      "    Message('note_on', channel=9, note=42, velocity=106, time=65),\n",
      "    Message('note_on', channel=9, note=42, velocity=0, time=55),\n",
      "    Message('note_on', channel=9, note=38, velocity=106, time=65),\n",
      "    Message('note_on', channel=9, note=42, velocity=106, time=0),\n",
      "    Message('note_on', channel=9, note=42, velocity=0, time=55),\n",
      "    Message('note_on', channel=9, note=38, velocity=0, time=0),\n",
      "    Message('note_on', channel=9, note=38, velocity=106, time=65),\n",
      "    Message('note_on', channel=9, note=42, velocity=106, time=0),\n",
      "    Message('note_on', channel=9, note=38, velocity=0, time=35),\n",
      "    Message('note_on', channel=9, note=42, velocity=0, time=20),\n",
      "    Message('note_on', channel=9, note=38, velocity=106, time=5),\n",
      "    Message('note_on', channel=9, note=38, velocity=0, time=25),\n",
      "    Message('note_on', channel=9, note=36, velocity=106, time=35),\n",
      "    Message('note_on', channel=9, note=42, velocity=106, time=0),\n",
      "    Message('note_on', channel=9, note=49, velocity=106, time=0),\n",
      "    Message('note_on', channel=9, note=49, velocity=0, time=35),\n",
      "    Message('note_on', channel=9, note=42, velocity=0, time=20),\n",
      "    Message('note_on', channel=9, note=36, velocity=0, time=0),\n",
      "    Message('note_on', channel=9, note=42, velocity=106, time=65),\n",
      "    Message('note_on', channel=9, note=42, velocity=0, time=55),\n",
      "    Message('note_on', channel=9, note=38, velocity=106, time=65),\n",
      "    Message('note_on', channel=9, note=42, velocity=106, time=0),\n",
      "    Message('note_on', channel=9, note=42, velocity=0, time=55),\n",
      "    Message('note_on', channel=9, note=38, velocity=0, time=0),\n",
      "    Message('note_on', channel=9, note=42, velocity=106, time=65),\n",
      "    Message('note_on', channel=9, note=42, velocity=0, time=55),\n",
      "    Message('note_on', channel=9, note=36, velocity=106, time=65),\n",
      "    Message('note_on', channel=9, note=42, velocity=106, time=0),\n",
      "    Message('note_on', channel=9, note=42, velocity=0, time=55),\n",
      "    Message('note_on', channel=9, note=36, velocity=0, time=0),\n",
      "    Message('note_on', channel=9, note=42, velocity=106, time=65),\n",
      "    Message('note_on', channel=9, note=42, velocity=0, time=55),\n",
      "    Message('note_on', channel=9, note=38, velocity=106, time=65),\n",
      "    Message('note_on', channel=9, note=42, velocity=106, time=0),\n",
      "    Message('note_on', channel=9, note=42, velocity=0, time=55),\n",
      "    Message('note_on', channel=9, note=38, velocity=0, time=0),\n",
      "    Message('note_on', channel=9, note=42, velocity=106, time=65),\n",
      "    Message('note_on', channel=9, note=42, velocity=0, time=70),\n",
      "    Message('note_on', channel=9, note=36, velocity=106, time=50),\n",
      "    Message('note_on', channel=9, note=42, velocity=106, time=0),\n",
      "    Message('note_on', channel=9, note=42, velocity=0, time=55),\n",
      "    Message('note_on', channel=9, note=36, velocity=0, time=0),\n",
      "    Message('note_on', channel=9, note=42, velocity=106, time=65),\n",
      "    Message('note_on', channel=9, note=42, velocity=0, time=55),\n",
      "    Message('note_on', channel=9, note=38, velocity=106, time=65),\n",
      "    Message('note_on', channel=9, note=42, velocity=106, time=0),\n",
      "    Message('note_on', channel=9, note=42, velocity=0, time=55),\n",
      "    Message('note_on', channel=9, note=38, velocity=0, time=0),\n",
      "    Message('note_on', channel=9, note=42, velocity=106, time=65),\n",
      "    Message('note_on', channel=9, note=42, velocity=0, time=55),\n",
      "    Message('note_on', channel=9, note=36, velocity=106, time=65),\n",
      "    Message('note_on', channel=9, note=42, velocity=106, time=0),\n",
      "    Message('note_on', channel=9, note=42, velocity=0, time=55),\n",
      "    Message('note_on', channel=9, note=36, velocity=0, time=0),\n",
      "    Message('note_on', channel=9, note=42, velocity=106, time=65),\n",
      "    Message('note_on', channel=9, note=42, velocity=0, time=55),\n",
      "    Message('note_on', channel=9, note=38, velocity=106, time=65),\n",
      "    Message('note_on', channel=9, note=42, velocity=106, time=0),\n",
      "    Message('note_on', channel=9, note=42, velocity=0, time=55),\n",
      "    Message('note_on', channel=9, note=38, velocity=0, time=0),\n",
      "    Message('note_on', channel=9, note=42, velocity=106, time=65),\n",
      "    Message('note_on', channel=9, note=42, velocity=0, time=70),\n",
      "    Message('note_on', channel=9, note=36, velocity=106, time=50),\n",
      "    Message('note_on', channel=9, note=42, velocity=106, time=0),\n",
      "    Message('note_on', channel=9, note=42, velocity=0, time=55),\n",
      "    Message('note_on', channel=9, note=36, velocity=0, time=0),\n",
      "    Message('note_on', channel=9, note=42, velocity=106, time=65),\n",
      "    Message('note_on', channel=9, note=42, velocity=0, time=55),\n",
      "    Message('note_on', channel=9, note=38, velocity=106, time=65),\n",
      "    Message('note_on', channel=9, note=42, velocity=106, time=0),\n",
      "    Message('note_on', channel=9, note=42, velocity=0, time=55),\n",
      "    Message('note_on', channel=9, note=38, velocity=0, time=0),\n",
      "    Message('note_on', channel=9, note=42, velocity=106, time=65),\n",
      "    Message('note_on', channel=9, note=42, velocity=0, time=120),\n",
      "    Message('note_on', channel=9, note=36, velocity=106, time=0),\n",
      "    Message('note_on', channel=9, note=42, velocity=106, time=0),\n",
      "    Message('note_on', channel=9, note=42, velocity=0, time=120),\n",
      "    Message('note_on', channel=9, note=42, velocity=106, time=0),\n",
      "    Message('note_on', channel=9, note=36, velocity=0, time=40),\n",
      "    Message('note_on', channel=9, note=42, velocity=0, time=80),\n",
      "    Message('note_on', channel=9, note=38, velocity=106, time=0),\n",
      "    Message('note_on', channel=9, note=42, velocity=106, time=0),\n",
      "    Message('note_on', channel=9, note=42, velocity=0, time=120),\n",
      "    Message('note_on', channel=9, note=38, velocity=0, time=0),\n",
      "    Message('note_on', channel=9, note=42, velocity=106, time=0),\n",
      "    Message('note_on', channel=9, note=38, velocity=106, time=0),\n",
      "    Message('note_on', channel=9, note=38, velocity=0, time=60),\n",
      "    Message('note_on', channel=9, note=38, velocity=106, time=0),\n",
      "    Message('note_on', channel=9, note=42, velocity=0, time=60),\n",
      "    Message('note_on', channel=9, note=42, velocity=106, time=0),\n",
      "    Message('note_on', channel=9, note=36, velocity=106, time=0),\n",
      "    Message('note_on', channel=9, note=49, velocity=106, time=0),\n",
      "    Message('note_on', channel=9, note=49, velocity=0, time=25),\n",
      "    Message('note_on', channel=9, note=36, velocity=0, time=0),\n",
      "    Message('note_on', channel=9, note=42, velocity=0, time=0),\n",
      "    Message('note_on', channel=9, note=38, velocity=0, time=75),\n",
      "    Message('note_on', channel=9, note=38, velocity=106, time=620),\n",
      "    Message('note_on', channel=9, note=38, velocity=0, time=35),\n",
      "    Message('note_on', channel=9, note=38, velocity=106, time=85),\n",
      "    Message('note_on', channel=9, note=38, velocity=0, time=35),\n",
      "    Message('note_on', channel=9, note=38, velocity=106, time=25),\n",
      "    Message('note_on', channel=9, note=38, velocity=0, time=25),\n",
      "    Message('note_on', channel=9, note=36, velocity=106, time=35),\n",
      "    Message('note_on', channel=9, note=42, velocity=106, time=0),\n",
      "    Message('note_on', channel=9, note=49, velocity=106, time=0),\n",
      "    Message('note_on', channel=9, note=49, velocity=0, time=35),\n",
      "    Message('note_on', channel=9, note=42, velocity=0, time=20),\n",
      "    Message('note_on', channel=9, note=36, velocity=0, time=0),\n",
      "    Message('note_on', channel=9, note=42, velocity=106, time=65),\n",
      "    Message('note_on', channel=9, note=42, velocity=0, time=55),\n",
      "    Message('note_on', channel=9, note=38, velocity=106, time=65),\n",
      "    Message('note_on', channel=9, note=42, velocity=106, time=0),\n",
      "    Message('note_on', channel=9, note=42, velocity=0, time=55),\n",
      "    Message('note_on', channel=9, note=38, velocity=0, time=0),\n",
      "    Message('note_on', channel=9, note=42, velocity=106, time=65),\n",
      "    Message('note_on', channel=9, note=42, velocity=0, time=55),\n",
      "    Message('note_on', channel=9, note=36, velocity=106, time=65),\n",
      "    Message('note_on', channel=9, note=42, velocity=106, time=0),\n",
      "    Message('note_on', channel=9, note=42, velocity=0, time=55),\n",
      "    Message('note_on', channel=9, note=36, velocity=0, time=0),\n",
      "    Message('note_on', channel=9, note=42, velocity=106, time=65),\n",
      "    Message('note_on', channel=9, note=42, velocity=0, time=55),\n",
      "    Message('note_on', channel=9, note=38, velocity=106, time=65),\n",
      "    Message('note_on', channel=9, note=42, velocity=106, time=0),\n",
      "    Message('note_on', channel=9, note=42, velocity=0, time=55),\n",
      "    Message('note_on', channel=9, note=38, velocity=0, time=0),\n",
      "    Message('note_on', channel=9, note=42, velocity=106, time=65),\n",
      "    Message('note_on', channel=9, note=42, velocity=0, time=55),\n",
      "    Message('note_on', channel=9, note=36, velocity=106, time=65),\n",
      "    Message('note_on', channel=9, note=42, velocity=106, time=0),\n",
      "    Message('note_on', channel=9, note=42, velocity=0, time=55),\n",
      "    Message('note_on', channel=9, note=36, velocity=0, time=0),\n",
      "    Message('note_on', channel=9, note=42, velocity=106, time=65),\n",
      "    Message('note_on', channel=9, note=42, velocity=0, time=55),\n",
      "    Message('note_on', channel=9, note=38, velocity=106, time=65),\n",
      "    Message('note_on', channel=9, note=42, velocity=106, time=0),\n",
      "    Message('note_on', channel=9, note=42, velocity=0, time=55),\n",
      "    Message('note_on', channel=9, note=38, velocity=0, time=0),\n",
      "    Message('note_on', channel=9, note=42, velocity=106, time=65),\n",
      "    Message('note_on', channel=9, note=42, velocity=0, time=55),\n",
      "    Message('note_on', channel=9, note=36, velocity=106, time=65),\n",
      "    Message('note_on', channel=9, note=42, velocity=106, time=0),\n",
      "    Message('note_on', channel=9, note=42, velocity=0, time=55),\n",
      "    Message('note_on', channel=9, note=36, velocity=0, time=0),\n",
      "    Message('note_on', channel=9, note=42, velocity=106, time=65),\n",
      "    Message('note_on', channel=9, note=42, velocity=0, time=55),\n",
      "    Message('note_on', channel=9, note=38, velocity=106, time=65),\n",
      "    Message('note_on', channel=9, note=42, velocity=106, time=0),\n",
      "    Message('note_on', channel=9, note=42, velocity=0, time=55),\n",
      "    Message('note_on', channel=9, note=38, velocity=0, time=0),\n",
      "    Message('note_on', channel=9, note=42, velocity=106, time=65),\n",
      "    Message('note_on', channel=9, note=42, velocity=0, time=55),\n",
      "    Message('note_on', channel=9, note=36, velocity=106, time=65),\n",
      "    Message('note_on', channel=9, note=42, velocity=106, time=0),\n",
      "    Message('note_on', channel=9, note=42, velocity=0, time=55),\n",
      "    Message('note_on', channel=9, note=36, velocity=0, time=0),\n",
      "    Message('note_on', channel=9, note=42, velocity=106, time=65),\n",
      "    Message('note_on', channel=9, note=42, velocity=0, time=55),\n",
      "    Message('note_on', channel=9, note=38, velocity=106, time=65),\n",
      "    Message('note_on', channel=9, note=42, velocity=106, time=0),\n",
      "    Message('note_on', channel=9, note=42, velocity=0, time=55),\n",
      "    Message('note_on', channel=9, note=38, velocity=0, time=0),\n",
      "    Message('note_on', channel=9, note=42, velocity=106, time=65),\n",
      "    Message('note_on', channel=9, note=42, velocity=0, time=55),\n",
      "    Message('note_on', channel=9, note=36, velocity=106, time=65),\n",
      "    Message('note_on', channel=9, note=42, velocity=106, time=0),\n",
      "    Message('note_on', channel=9, note=42, velocity=0, time=55),\n",
      "    Message('note_on', channel=9, note=36, velocity=0, time=0),\n",
      "    Message('note_on', channel=9, note=42, velocity=106, time=65),\n",
      "    Message('note_on', channel=9, note=42, velocity=0, time=55),\n",
      "    Message('note_on', channel=9, note=38, velocity=106, time=65),\n",
      "    Message('note_on', channel=9, note=42, velocity=106, time=0),\n",
      "    Message('note_on', channel=9, note=42, velocity=0, time=55),\n",
      "    Message('note_on', channel=9, note=38, velocity=0, time=0),\n",
      "    Message('note_on', channel=9, note=42, velocity=106, time=65),\n",
      "    Message('note_on', channel=9, note=42, velocity=0, time=55),\n",
      "    Message('note_on', channel=9, note=36, velocity=106, time=65),\n",
      "    Message('note_on', channel=9, note=42, velocity=106, time=0),\n",
      "    Message('note_on', channel=9, note=42, velocity=0, time=55),\n",
      "    Message('note_on', channel=9, note=36, velocity=0, time=0),\n",
      "    Message('note_on', channel=9, note=42, velocity=106, time=65),\n",
      "    Message('note_on', channel=9, note=42, velocity=0, time=55),\n",
      "    Message('note_on', channel=9, note=38, velocity=106, time=65),\n",
      "    Message('note_on', channel=9, note=42, velocity=106, time=0),\n",
      "    Message('note_on', channel=9, note=42, velocity=0, time=55),\n",
      "    Message('note_on', channel=9, note=38, velocity=0, time=0),\n",
      "    Message('note_on', channel=9, note=42, velocity=106, time=65),\n",
      "    Message('note_on', channel=9, note=42, velocity=0, time=55),\n",
      "    Message('note_on', channel=9, note=36, velocity=106, time=65),\n",
      "    Message('note_on', channel=9, note=42, velocity=106, time=0),\n",
      "    Message('note_on', channel=9, note=42, velocity=0, time=55),\n",
      "    Message('note_on', channel=9, note=36, velocity=0, time=0),\n",
      "    Message('note_on', channel=9, note=42, velocity=106, time=65),\n",
      "    Message('note_on', channel=9, note=42, velocity=0, time=55),\n",
      "    Message('note_on', channel=9, note=38, velocity=106, time=65),\n",
      "    Message('note_on', channel=9, note=42, velocity=106, time=0),\n",
      "    Message('note_on', channel=9, note=42, velocity=0, time=55),\n",
      "    Message('note_on', channel=9, note=38, velocity=0, time=0),\n",
      "    Message('note_on', channel=9, note=38, velocity=106, time=65),\n",
      "    Message('note_on', channel=9, note=42, velocity=106, time=0),\n",
      "    Message('note_on', channel=9, note=38, velocity=0, time=25),\n",
      "    Message('note_on', channel=9, note=42, velocity=0, time=30),\n",
      "    Message('note_on', channel=9, note=38, velocity=106, time=5),\n",
      "    Message('note_on', channel=9, note=38, velocity=0, time=25),\n",
      "    Message('note_on', channel=9, note=36, velocity=106, time=35),\n",
      "    Message('note_on', channel=9, note=42, velocity=106, time=0),\n",
      "    Message('note_on', channel=9, note=49, velocity=106, time=0),\n",
      "    Message('note_on', channel=9, note=49, velocity=0, time=25),\n",
      "    Message('note_on', channel=9, note=42, velocity=0, time=30),\n",
      "    Message('note_on', channel=9, note=36, velocity=0, time=0),\n",
      "    Message('note_on', channel=9, note=42, velocity=106, time=65),\n",
      "    Message('note_on', channel=9, note=42, velocity=0, time=55),\n",
      "    Message('note_on', channel=9, note=38, velocity=106, time=65),\n",
      "    Message('note_on', channel=9, note=42, velocity=106, time=0),\n",
      "    Message('note_on', channel=9, note=42, velocity=0, time=55),\n",
      "    Message('note_on', channel=9, note=38, velocity=0, time=0),\n",
      "    Message('note_on', channel=9, note=42, velocity=106, time=65),\n",
      "    Message('note_on', channel=9, note=42, velocity=0, time=55),\n",
      "    Message('note_on', channel=9, note=36, velocity=106, time=65),\n",
      "    Message('note_on', channel=9, note=42, velocity=106, time=0),\n",
      "    Message('note_on', channel=9, note=42, velocity=0, time=55),\n",
      "    Message('note_on', channel=9, note=36, velocity=0, time=0),\n",
      "    Message('note_on', channel=9, note=42, velocity=106, time=65),\n",
      "    Message('note_on', channel=9, note=42, velocity=0, time=55),\n",
      "    Message('note_on', channel=9, note=38, velocity=106, time=65),\n",
      "    Message('note_on', channel=9, note=42, velocity=106, time=0),\n",
      "    Message('note_on', channel=9, note=42, velocity=0, time=55),\n",
      "    Message('note_on', channel=9, note=38, velocity=0, time=0),\n",
      "    Message('note_on', channel=9, note=42, velocity=106, time=65),\n",
      "    Message('note_on', channel=9, note=42, velocity=0, time=55),\n",
      "    Message('note_on', channel=9, note=36, velocity=106, time=65),\n",
      "    Message('note_on', channel=9, note=42, velocity=106, time=0),\n",
      "    Message('note_on', channel=9, note=42, velocity=0, time=55),\n",
      "    Message('note_on', channel=9, note=36, velocity=0, time=0),\n",
      "    Message('note_on', channel=9, note=42, velocity=106, time=65),\n",
      "    Message('note_on', channel=9, note=42, velocity=0, time=55),\n",
      "    Message('note_on', channel=9, note=38, velocity=106, time=65),\n",
      "    Message('note_on', channel=9, note=42, velocity=106, time=0),\n",
      "    Message('note_on', channel=9, note=42, velocity=0, time=55),\n",
      "    Message('note_on', channel=9, note=38, velocity=0, time=0),\n",
      "    Message('note_on', channel=9, note=42, velocity=106, time=65),\n",
      "    Message('note_on', channel=9, note=42, velocity=0, time=55),\n",
      "    Message('note_on', channel=9, note=36, velocity=106, time=65),\n",
      "    Message('note_on', channel=9, note=42, velocity=106, time=0),\n",
      "    Message('note_on', channel=9, note=42, velocity=0, time=55),\n",
      "    Message('note_on', channel=9, note=36, velocity=0, time=0),\n",
      "    Message('note_on', channel=9, note=42, velocity=106, time=65),\n",
      "    Message('note_on', channel=9, note=42, velocity=0, time=55),\n",
      "    Message('note_on', channel=9, note=38, velocity=106, time=65),\n",
      "    Message('note_on', channel=9, note=42, velocity=106, time=0),\n",
      "    Message('note_on', channel=9, note=42, velocity=0, time=55),\n",
      "    Message('note_on', channel=9, note=38, velocity=0, time=0),\n",
      "    Message('note_on', channel=9, note=42, velocity=106, time=65),\n",
      "    Message('note_on', channel=9, note=42, velocity=0, time=55),\n",
      "    Message('note_on', channel=9, note=36, velocity=106, time=65),\n",
      "    Message('note_on', channel=9, note=42, velocity=106, time=0),\n",
      "    Message('note_on', channel=9, note=42, velocity=0, time=55),\n",
      "    Message('note_on', channel=9, note=36, velocity=0, time=0),\n",
      "    Message('note_on', channel=9, note=42, velocity=106, time=65),\n",
      "    Message('note_on', channel=9, note=42, velocity=0, time=55),\n",
      "    Message('note_on', channel=9, note=38, velocity=106, time=65),\n",
      "    Message('note_on', channel=9, note=42, velocity=106, time=0),\n",
      "    Message('note_on', channel=9, note=42, velocity=0, time=55),\n",
      "    Message('note_on', channel=9, note=38, velocity=0, time=0),\n",
      "    Message('note_on', channel=9, note=42, velocity=106, time=65),\n",
      "    Message('note_on', channel=9, note=42, velocity=0, time=55),\n",
      "    Message('note_on', channel=9, note=36, velocity=106, time=65),\n",
      "    Message('note_on', channel=9, note=42, velocity=106, time=0),\n",
      "    Message('note_on', channel=9, note=42, velocity=0, time=55),\n",
      "    Message('note_on', channel=9, note=36, velocity=0, time=0),\n",
      "    Message('note_on', channel=9, note=42, velocity=106, time=65),\n",
      "    Message('note_on', channel=9, note=42, velocity=0, time=55),\n",
      "    Message('note_on', channel=9, note=38, velocity=106, time=65),\n",
      "    Message('note_on', channel=9, note=42, velocity=106, time=0),\n",
      "    Message('note_on', channel=9, note=42, velocity=0, time=55),\n",
      "    Message('note_on', channel=9, note=38, velocity=0, time=0),\n",
      "    Message('note_on', channel=9, note=42, velocity=106, time=65),\n",
      "    Message('note_on', channel=9, note=42, velocity=0, time=55),\n",
      "    Message('note_on', channel=9, note=36, velocity=106, time=65),\n",
      "    Message('note_on', channel=9, note=42, velocity=106, time=0),\n",
      "    Message('note_on', channel=9, note=42, velocity=0, time=55),\n",
      "    Message('note_on', channel=9, note=36, velocity=0, time=0),\n",
      "    Message('note_on', channel=9, note=42, velocity=106, time=65),\n",
      "    Message('note_on', channel=9, note=42, velocity=0, time=55),\n",
      "    Message('note_on', channel=9, note=38, velocity=106, time=65),\n",
      "    Message('note_on', channel=9, note=42, velocity=106, time=0),\n",
      "    Message('note_on', channel=9, note=42, velocity=0, time=55),\n",
      "    Message('note_on', channel=9, note=38, velocity=0, time=0),\n",
      "    Message('note_on', channel=9, note=42, velocity=106, time=65),\n",
      "    Message('note_on', channel=9, note=42, velocity=0, time=55),\n",
      "    Message('note_on', channel=9, note=36, velocity=106, time=65),\n",
      "    Message('note_on', channel=9, note=42, velocity=106, time=0),\n",
      "    Message('note_on', channel=9, note=42, velocity=0, time=55),\n",
      "    Message('note_on', channel=9, note=36, velocity=0, time=0),\n",
      "    Message('note_on', channel=9, note=42, velocity=106, time=65),\n",
      "    Message('note_on', channel=9, note=42, velocity=0, time=55),\n",
      "    Message('note_on', channel=9, note=38, velocity=106, time=65),\n",
      "    Message('note_on', channel=9, note=42, velocity=106, time=0),\n",
      "    Message('note_on', channel=9, note=42, velocity=0, time=55),\n",
      "    Message('note_on', channel=9, note=38, velocity=0, time=0),\n",
      "    Message('note_on', channel=9, note=38, velocity=106, time=65),\n",
      "    Message('note_on', channel=9, note=42, velocity=106, time=0),\n",
      "    Message('note_on', channel=9, note=38, velocity=0, time=35),\n",
      "    Message('note_on', channel=9, note=42, velocity=0, time=20),\n",
      "    Message('note_on', channel=9, note=38, velocity=106, time=5),\n",
      "    Message('note_on', channel=9, note=38, velocity=0, time=25),\n",
      "    Message('note_on', channel=9, note=36, velocity=106, time=35),\n",
      "    Message('note_on', channel=9, note=42, velocity=106, time=0),\n",
      "    Message('note_on', channel=9, note=49, velocity=106, time=0),\n",
      "    Message('note_on', channel=9, note=49, velocity=0, time=35),\n",
      "    Message('note_on', channel=9, note=42, velocity=0, time=20),\n",
      "    Message('note_on', channel=9, note=36, velocity=0, time=0),\n",
      "    Message('note_on', channel=9, note=42, velocity=106, time=65),\n",
      "    Message('note_on', channel=9, note=42, velocity=0, time=55),\n",
      "    Message('note_on', channel=9, note=38, velocity=106, time=65),\n",
      "    Message('note_on', channel=9, note=42, velocity=106, time=0),\n",
      "    Message('note_on', channel=9, note=42, velocity=0, time=55),\n",
      "    Message('note_on', channel=9, note=38, velocity=0, time=0),\n",
      "    Message('note_on', channel=9, note=42, velocity=106, time=65),\n",
      "    Message('note_on', channel=9, note=42, velocity=0, time=55),\n",
      "    Message('note_on', channel=9, note=36, velocity=106, time=65),\n",
      "    Message('note_on', channel=9, note=42, velocity=106, time=0),\n",
      "    Message('note_on', channel=9, note=42, velocity=0, time=55),\n",
      "    Message('note_on', channel=9, note=36, velocity=0, time=0),\n",
      "    Message('note_on', channel=9, note=42, velocity=106, time=65),\n",
      "    Message('note_on', channel=9, note=42, velocity=0, time=55),\n",
      "    Message('note_on', channel=9, note=38, velocity=106, time=65),\n",
      "    Message('note_on', channel=9, note=42, velocity=106, time=0),\n",
      "    Message('note_on', channel=9, note=42, velocity=0, time=55),\n",
      "    Message('note_on', channel=9, note=38, velocity=0, time=0),\n",
      "    Message('note_on', channel=9, note=42, velocity=106, time=65),\n",
      "    Message('note_on', channel=9, note=42, velocity=0, time=55),\n",
      "    Message('note_on', channel=9, note=36, velocity=106, time=65),\n",
      "    Message('note_on', channel=9, note=42, velocity=106, time=0),\n",
      "    Message('note_on', channel=9, note=42, velocity=0, time=55),\n",
      "    Message('note_on', channel=9, note=36, velocity=0, time=0),\n",
      "    Message('note_on', channel=9, note=42, velocity=106, time=65),\n",
      "    Message('note_on', channel=9, note=42, velocity=0, time=55),\n",
      "    Message('note_on', channel=9, note=38, velocity=106, time=65),\n",
      "    Message('note_on', channel=9, note=42, velocity=106, time=0),\n",
      "    Message('note_on', channel=9, note=42, velocity=0, time=55),\n",
      "    Message('note_on', channel=9, note=38, velocity=0, time=0),\n",
      "    Message('note_on', channel=9, note=42, velocity=106, time=65),\n",
      "    Message('note_on', channel=9, note=42, velocity=0, time=55),\n",
      "    Message('note_on', channel=9, note=36, velocity=106, time=65),\n",
      "    Message('note_on', channel=9, note=42, velocity=106, time=0),\n",
      "    Message('note_on', channel=9, note=42, velocity=0, time=55),\n",
      "    Message('note_on', channel=9, note=36, velocity=0, time=0),\n",
      "    Message('note_on', channel=9, note=42, velocity=106, time=65),\n",
      "    Message('note_on', channel=9, note=42, velocity=0, time=55),\n",
      "    Message('note_on', channel=9, note=38, velocity=106, time=65),\n",
      "    Message('note_on', channel=9, note=42, velocity=106, time=0),\n",
      "    Message('note_on', channel=9, note=42, velocity=0, time=55),\n",
      "    Message('note_on', channel=9, note=38, velocity=0, time=0),\n",
      "    Message('note_on', channel=9, note=42, velocity=106, time=65),\n",
      "    Message('note_on', channel=9, note=42, velocity=0, time=55),\n",
      "    Message('note_on', channel=9, note=38, velocity=106, time=5),\n",
      "    Message('note_on', channel=9, note=38, velocity=0, time=25),\n",
      "    Message('note_on', channel=9, note=36, velocity=106, time=35),\n",
      "    Message('note_on', channel=9, note=42, velocity=106, time=0),\n",
      "    Message('note_on', channel=9, note=49, velocity=106, time=0),\n",
      "    Message('note_on', channel=9, note=49, velocity=0, time=35),\n",
      "    Message('note_on', channel=9, note=42, velocity=0, time=20),\n",
      "    Message('note_on', channel=9, note=36, velocity=0, time=0),\n",
      "    Message('note_on', channel=9, note=42, velocity=106, time=65),\n",
      "    Message('note_on', channel=9, note=42, velocity=0, time=55),\n",
      "    Message('note_on', channel=9, note=38, velocity=106, time=65),\n",
      "    Message('note_on', channel=9, note=42, velocity=106, time=0),\n",
      "    Message('note_on', channel=9, note=42, velocity=0, time=55),\n",
      "    Message('note_on', channel=9, note=38, velocity=0, time=0),\n",
      "    Message('note_on', channel=9, note=42, velocity=106, time=65),\n",
      "    Message('note_on', channel=9, note=42, velocity=0, time=55),\n",
      "    Message('note_on', channel=9, note=36, velocity=106, time=65),\n",
      "    Message('note_on', channel=9, note=42, velocity=106, time=0),\n",
      "    Message('note_on', channel=9, note=42, velocity=0, time=55),\n",
      "    Message('note_on', channel=9, note=36, velocity=0, time=0),\n",
      "    Message('note_on', channel=9, note=42, velocity=106, time=65),\n",
      "    Message('note_on', channel=9, note=42, velocity=0, time=55),\n",
      "    Message('note_on', channel=9, note=38, velocity=106, time=65),\n",
      "    Message('note_on', channel=9, note=42, velocity=106, time=0),\n",
      "    Message('note_on', channel=9, note=42, velocity=0, time=55),\n",
      "    Message('note_on', channel=9, note=38, velocity=0, time=0),\n",
      "    Message('note_on', channel=9, note=42, velocity=106, time=65),\n",
      "    Message('note_on', channel=9, note=42, velocity=0, time=55),\n",
      "    Message('note_on', channel=9, note=38, velocity=106, time=5),\n",
      "    Message('note_on', channel=9, note=38, velocity=0, time=25),\n",
      "    Message('note_on', channel=9, note=36, velocity=106, time=35),\n",
      "    Message('note_on', channel=9, note=42, velocity=106, time=0),\n",
      "    Message('note_on', channel=9, note=49, velocity=106, time=0),\n",
      "    Message('note_on', channel=9, note=49, velocity=0, time=35),\n",
      "    Message('note_on', channel=9, note=42, velocity=0, time=20),\n",
      "    Message('note_on', channel=9, note=36, velocity=0, time=0),\n",
      "    Message('note_on', channel=9, note=42, velocity=106, time=65),\n",
      "    Message('note_on', channel=9, note=42, velocity=0, time=55),\n",
      "    Message('note_on', channel=9, note=38, velocity=106, time=65),\n",
      "    Message('note_on', channel=9, note=42, velocity=106, time=0),\n",
      "    Message('note_on', channel=9, note=42, velocity=0, time=55),\n",
      "    Message('note_on', channel=9, note=38, velocity=0, time=0),\n",
      "    Message('note_on', channel=9, note=42, velocity=106, time=65),\n",
      "    Message('note_on', channel=9, note=42, velocity=0, time=55),\n",
      "    Message('note_on', channel=9, note=36, velocity=106, time=65),\n",
      "    Message('note_on', channel=9, note=42, velocity=106, time=0),\n",
      "    Message('note_on', channel=9, note=42, velocity=0, time=55),\n",
      "    Message('note_on', channel=9, note=36, velocity=0, time=0),\n",
      "    Message('note_on', channel=9, note=42, velocity=106, time=65),\n",
      "    Message('note_on', channel=9, note=42, velocity=0, time=55),\n",
      "    Message('note_on', channel=9, note=38, velocity=106, time=65),\n",
      "    Message('note_on', channel=9, note=42, velocity=106, time=0),\n",
      "    Message('note_on', channel=9, note=42, velocity=0, time=55),\n",
      "    Message('note_on', channel=9, note=38, velocity=0, time=0),\n",
      "    Message('note_on', channel=9, note=42, velocity=106, time=65),\n",
      "    Message('note_on', channel=9, note=42, velocity=0, time=55),\n",
      "    Message('note_on', channel=9, note=38, velocity=106, time=5),\n",
      "    Message('note_on', channel=9, note=36, velocity=106, time=60),\n",
      "    Message('note_on', channel=9, note=42, velocity=106, time=0),\n",
      "    Message('note_on', channel=9, note=49, velocity=106, time=0),\n",
      "    Message('note_on', channel=9, note=42, velocity=0, time=55),\n",
      "    Message('note_on', channel=9, note=36, velocity=0, time=0),\n",
      "    Message('note_on', channel=9, note=42, velocity=106, time=65),\n",
      "    Message('note_on', channel=9, note=38, velocity=0, time=30),\n",
      "    Message('note_on', channel=9, note=42, velocity=0, time=25),\n",
      "    Message('note_on', channel=9, note=49, velocity=0, time=35),\n",
      "    Message('note_on', channel=9, note=38, velocity=106, time=30),\n",
      "    Message('note_on', channel=9, note=42, velocity=106, time=0),\n",
      "    Message('note_on', channel=9, note=42, velocity=0, time=55),\n",
      "    Message('note_on', channel=9, note=38, velocity=0, time=0),\n",
      "    Message('note_on', channel=9, note=42, velocity=106, time=65),\n",
      "    Message('note_on', channel=9, note=42, velocity=0, time=55),\n",
      "    Message('note_on', channel=9, note=36, velocity=106, time=65),\n",
      "    Message('note_on', channel=9, note=42, velocity=106, time=0),\n",
      "    Message('note_on', channel=9, note=42, velocity=0, time=55),\n",
      "    Message('note_on', channel=9, note=36, velocity=0, time=0),\n",
      "    Message('note_on', channel=9, note=42, velocity=106, time=65),\n",
      "    Message('note_on', channel=9, note=42, velocity=0, time=55),\n",
      "    Message('note_on', channel=9, note=38, velocity=106, time=65),\n",
      "    Message('note_on', channel=9, note=42, velocity=106, time=0),\n",
      "    Message('note_on', channel=9, note=42, velocity=0, time=55),\n",
      "    Message('note_on', channel=9, note=38, velocity=0, time=0),\n",
      "    Message('note_on', channel=9, note=42, velocity=106, time=65),\n",
      "    Message('note_on', channel=9, note=42, velocity=0, time=55),\n",
      "    Message('note_on', channel=9, note=36, velocity=106, time=65),\n",
      "    Message('note_on', channel=9, note=42, velocity=106, time=0),\n",
      "    Message('note_on', channel=9, note=49, velocity=106, time=0),\n",
      "    Message('note_on', channel=9, note=42, velocity=0, time=55),\n",
      "    Message('note_on', channel=9, note=36, velocity=0, time=0),\n",
      "    Message('note_on', channel=9, note=49, velocity=0, time=25),\n",
      "    Message('note_on', channel=9, note=38, velocity=106, time=640),\n",
      "    Message('note_on', channel=9, note=38, velocity=0, time=25),\n",
      "    Message('note_on', channel=9, note=38, velocity=106, time=95),\n",
      "    Message('note_on', channel=9, note=38, velocity=0, time=25),\n",
      "    Message('note_on', channel=9, note=36, velocity=106, time=95),\n",
      "    Message('note_on', channel=9, note=42, velocity=106, time=0),\n",
      "    Message('note_on', channel=9, note=49, velocity=106, time=0),\n",
      "    Message('note_on', channel=9, note=42, velocity=0, time=55),\n",
      "    Message('note_on', channel=9, note=36, velocity=0, time=0),\n",
      "    Message('note_on', channel=9, note=42, velocity=106, time=65),\n",
      "    Message('note_on', channel=9, note=42, velocity=0, time=55),\n",
      "    Message('note_on', channel=9, note=49, velocity=0, time=65),\n",
      "    Message('note_on', channel=9, note=38, velocity=106, time=0),\n",
      "    Message('note_on', channel=9, note=42, velocity=106, time=0),\n",
      "    Message('note_on', channel=9, note=42, velocity=0, time=55),\n",
      "    Message('note_on', channel=9, note=38, velocity=0, time=0),\n",
      "    Message('note_on', channel=9, note=42, velocity=106, time=65),\n",
      "    Message('note_on', channel=9, note=42, velocity=0, time=55),\n",
      "    Message('note_on', channel=9, note=36, velocity=106, time=65),\n",
      "    Message('note_on', channel=9, note=42, velocity=106, time=0),\n",
      "    Message('note_on', channel=9, note=42, velocity=0, time=55),\n",
      "    Message('note_on', channel=9, note=36, velocity=0, time=0),\n",
      "    Message('note_on', channel=9, note=42, velocity=106, time=65),\n",
      "    Message('note_on', channel=9, note=42, velocity=0, time=55),\n",
      "    Message('note_on', channel=9, note=38, velocity=106, time=65),\n",
      "    Message('note_on', channel=9, note=42, velocity=106, time=0),\n",
      "    Message('note_on', channel=9, note=42, velocity=0, time=55),\n",
      "    Message('note_on', channel=9, note=38, velocity=0, time=0),\n",
      "    Message('note_on', channel=9, note=42, velocity=106, time=65),\n",
      "    Message('note_on', channel=9, note=42, velocity=0, time=55),\n",
      "    Message('note_on', channel=9, note=36, velocity=106, time=65),\n",
      "    Message('note_on', channel=9, note=42, velocity=106, time=0),\n",
      "    Message('note_on', channel=9, note=42, velocity=0, time=55),\n",
      "    Message('note_on', channel=9, note=36, velocity=0, time=0),\n",
      "    Message('note_on', channel=9, note=42, velocity=106, time=65),\n",
      "    Message('note_on', channel=9, note=42, velocity=0, time=55),\n",
      "    Message('note_on', channel=9, note=38, velocity=106, time=65),\n",
      "    Message('note_on', channel=9, note=42, velocity=106, time=0),\n",
      "    Message('note_on', channel=9, note=42, velocity=0, time=55),\n",
      "    Message('note_on', channel=9, note=38, velocity=0, time=0),\n",
      "    Message('note_on', channel=9, note=42, velocity=106, time=65),\n",
      "    Message('note_on', channel=9, note=42, velocity=0, time=55),\n",
      "    Message('note_on', channel=9, note=36, velocity=106, time=65),\n",
      "    Message('note_on', channel=9, note=42, velocity=106, time=0),\n",
      "    Message('note_on', channel=9, note=42, velocity=0, time=55),\n",
      "    Message('note_on', channel=9, note=36, velocity=0, time=0),\n",
      "    Message('note_on', channel=9, note=42, velocity=106, time=65),\n",
      "    Message('note_on', channel=9, note=42, velocity=0, time=55),\n",
      "    Message('note_on', channel=9, note=38, velocity=106, time=65),\n",
      "    Message('note_on', channel=9, note=42, velocity=106, time=0),\n",
      "    Message('note_on', channel=9, note=42, velocity=0, time=55),\n",
      "    Message('note_on', channel=9, note=38, velocity=0, time=0),\n",
      "    Message('note_on', channel=9, note=42, velocity=106, time=65),\n",
      "    Message('note_on', channel=9, note=42, velocity=0, time=55),\n",
      "    Message('note_on', channel=9, note=36, velocity=106, time=65),\n",
      "    Message('note_on', channel=9, note=42, velocity=106, time=0),\n",
      "    Message('note_on', channel=9, note=42, velocity=0, time=55),\n",
      "    Message('note_on', channel=9, note=36, velocity=0, time=0),\n",
      "    Message('note_on', channel=9, note=42, velocity=106, time=65),\n",
      "    Message('note_on', channel=9, note=42, velocity=0, time=55),\n",
      "    Message('note_on', channel=9, note=38, velocity=106, time=65),\n",
      "    Message('note_on', channel=9, note=42, velocity=106, time=0),\n",
      "    Message('note_on', channel=9, note=42, velocity=0, time=55),\n",
      "    Message('note_on', channel=9, note=38, velocity=0, time=0),\n",
      "    Message('note_on', channel=9, note=42, velocity=106, time=65),\n",
      "    Message('note_on', channel=9, note=42, velocity=0, time=55),\n",
      "    Message('note_on', channel=9, note=36, velocity=106, time=65),\n",
      "    Message('note_on', channel=9, note=42, velocity=106, time=0),\n",
      "    Message('note_on', channel=9, note=42, velocity=0, time=55),\n",
      "    Message('note_on', channel=9, note=36, velocity=0, time=0),\n",
      "    Message('note_on', channel=9, note=42, velocity=106, time=65),\n",
      "    Message('note_on', channel=9, note=42, velocity=0, time=55),\n",
      "    Message('note_on', channel=9, note=38, velocity=106, time=65),\n",
      "    Message('note_on', channel=9, note=42, velocity=106, time=0),\n",
      "    Message('note_on', channel=9, note=42, velocity=0, time=55),\n",
      "    Message('note_on', channel=9, note=38, velocity=0, time=0),\n",
      "    Message('note_on', channel=9, note=42, velocity=106, time=65),\n",
      "    Message('note_on', channel=9, note=42, velocity=0, time=55),\n",
      "    Message('note_on', channel=9, note=36, velocity=106, time=65),\n",
      "    Message('note_on', channel=9, note=42, velocity=106, time=0),\n",
      "    Message('note_on', channel=9, note=42, velocity=0, time=55),\n",
      "    Message('note_on', channel=9, note=36, velocity=0, time=0),\n",
      "    Message('note_on', channel=9, note=42, velocity=106, time=65),\n",
      "    Message('note_on', channel=9, note=42, velocity=0, time=55),\n",
      "    Message('note_on', channel=9, note=38, velocity=106, time=65),\n",
      "    Message('note_on', channel=9, note=42, velocity=106, time=0),\n",
      "    Message('note_on', channel=9, note=42, velocity=0, time=55),\n",
      "    Message('note_on', channel=9, note=38, velocity=0, time=0),\n",
      "    Message('note_on', channel=9, note=42, velocity=106, time=65),\n",
      "    Message('note_on', channel=9, note=42, velocity=0, time=55),\n",
      "    Message('note_on', channel=9, note=36, velocity=106, time=65),\n",
      "    Message('note_on', channel=9, note=42, velocity=106, time=0),\n",
      "    Message('note_on', channel=9, note=42, velocity=0, time=55),\n",
      "    Message('note_on', channel=9, note=36, velocity=0, time=0),\n",
      "    Message('note_on', channel=9, note=42, velocity=106, time=65),\n",
      "    Message('note_on', channel=9, note=42, velocity=0, time=55),\n",
      "    Message('note_on', channel=9, note=38, velocity=106, time=65),\n",
      "    Message('note_on', channel=9, note=42, velocity=106, time=0),\n",
      "    Message('note_on', channel=9, note=42, velocity=0, time=55),\n",
      "    Message('note_on', channel=9, note=38, velocity=0, time=0),\n",
      "    Message('note_on', channel=9, note=38, velocity=106, time=65),\n",
      "    Message('note_on', channel=9, note=42, velocity=106, time=0),\n",
      "    Message('note_on', channel=9, note=38, velocity=0, time=35),\n",
      "    Message('note_on', channel=9, note=42, velocity=0, time=20),\n",
      "    Message('note_on', channel=9, note=38, velocity=106, time=5),\n",
      "    Message('note_on', channel=9, note=38, velocity=0, time=25),\n",
      "    Message('note_on', channel=9, note=36, velocity=106, time=35),\n",
      "    Message('note_on', channel=9, note=42, velocity=106, time=0),\n",
      "    Message('note_on', channel=9, note=49, velocity=106, time=0),\n",
      "    Message('note_on', channel=9, note=42, velocity=0, time=55),\n",
      "    Message('note_on', channel=9, note=36, velocity=0, time=0),\n",
      "    Message('note_on', channel=9, note=49, velocity=0, time=25),\n",
      "    Message('note_on', channel=9, note=42, velocity=106, time=40),\n",
      "    Message('note_on', channel=9, note=42, velocity=0, time=55),\n",
      "    Message('note_on', channel=9, note=38, velocity=106, time=65),\n",
      "    Message('note_on', channel=9, note=42, velocity=106, time=0),\n",
      "    Message('note_on', channel=9, note=42, velocity=0, time=55),\n",
      "    Message('note_on', channel=9, note=38, velocity=0, time=0),\n",
      "    Message('note_on', channel=9, note=42, velocity=106, time=65),\n",
      "    Message('note_on', channel=9, note=42, velocity=0, time=55),\n",
      "    Message('note_on', channel=9, note=36, velocity=106, time=65),\n",
      "    Message('note_on', channel=9, note=42, velocity=106, time=0),\n",
      "    Message('note_on', channel=9, note=42, velocity=0, time=55),\n",
      "    Message('note_on', channel=9, note=36, velocity=0, time=0),\n",
      "    Message('note_on', channel=9, note=42, velocity=106, time=65),\n",
      "    Message('note_on', channel=9, note=42, velocity=0, time=55),\n",
      "    Message('note_on', channel=9, note=38, velocity=106, time=65),\n",
      "    Message('note_on', channel=9, note=42, velocity=106, time=0),\n",
      "    Message('note_on', channel=9, note=42, velocity=0, time=55),\n",
      "    Message('note_on', channel=9, note=38, velocity=0, time=0),\n",
      "    Message('note_on', channel=9, note=42, velocity=106, time=65),\n",
      "    Message('note_on', channel=9, note=42, velocity=0, time=55),\n",
      "    Message('note_on', channel=9, note=36, velocity=106, time=65),\n",
      "    Message('note_on', channel=9, note=42, velocity=106, time=0),\n",
      "    Message('note_on', channel=9, note=42, velocity=0, time=55),\n",
      "    Message('note_on', channel=9, note=36, velocity=0, time=0),\n",
      "    Message('note_on', channel=9, note=42, velocity=106, time=65),\n",
      "    Message('note_on', channel=9, note=42, velocity=0, time=55),\n",
      "    Message('note_on', channel=9, note=38, velocity=106, time=65),\n",
      "    Message('note_on', channel=9, note=42, velocity=106, time=0),\n",
      "    Message('note_on', channel=9, note=42, velocity=0, time=55),\n",
      "    Message('note_on', channel=9, note=38, velocity=0, time=0),\n",
      "    Message('note_on', channel=9, note=42, velocity=106, time=65),\n",
      "    Message('note_on', channel=9, note=42, velocity=0, time=55),\n",
      "    Message('note_on', channel=9, note=36, velocity=106, time=65),\n",
      "    Message('note_on', channel=9, note=42, velocity=106, time=0),\n",
      "    Message('note_on', channel=9, note=42, velocity=0, time=55),\n",
      "    Message('note_on', channel=9, note=36, velocity=0, time=0),\n",
      "    Message('note_on', channel=9, note=42, velocity=106, time=65),\n",
      "    Message('note_on', channel=9, note=42, velocity=0, time=55),\n",
      "    Message('note_on', channel=9, note=38, velocity=106, time=65),\n",
      "    Message('note_on', channel=9, note=42, velocity=106, time=0),\n",
      "    Message('note_on', channel=9, note=42, velocity=0, time=55),\n",
      "    Message('note_on', channel=9, note=38, velocity=0, time=0),\n",
      "    Message('note_on', channel=9, note=42, velocity=106, time=65),\n",
      "    Message('note_on', channel=9, note=42, velocity=0, time=55),\n",
      "    Message('note_on', channel=9, note=36, velocity=106, time=65),\n",
      "    Message('note_on', channel=9, note=42, velocity=106, time=0),\n",
      "    Message('note_on', channel=9, note=42, velocity=0, time=55),\n",
      "    Message('note_on', channel=9, note=36, velocity=0, time=0),\n",
      "    Message('note_on', channel=9, note=42, velocity=106, time=65),\n",
      "    Message('note_on', channel=9, note=42, velocity=0, time=55),\n",
      "    Message('note_on', channel=9, note=38, velocity=106, time=65),\n",
      "    Message('note_on', channel=9, note=42, velocity=106, time=0),\n",
      "    Message('note_on', channel=9, note=42, velocity=0, time=55),\n",
      "    Message('note_on', channel=9, note=38, velocity=0, time=0),\n",
      "    Message('note_on', channel=9, note=42, velocity=106, time=65),\n",
      "    Message('note_on', channel=9, note=42, velocity=0, time=55),\n",
      "    Message('note_on', channel=9, note=36, velocity=106, time=65),\n",
      "    Message('note_on', channel=9, note=42, velocity=106, time=0),\n",
      "    Message('note_on', channel=9, note=42, velocity=0, time=55),\n",
      "    Message('note_on', channel=9, note=36, velocity=0, time=0),\n",
      "    Message('note_on', channel=9, note=42, velocity=106, time=65),\n",
      "    Message('note_on', channel=9, note=42, velocity=0, time=55),\n",
      "    Message('note_on', channel=9, note=38, velocity=106, time=65),\n",
      "    Message('note_on', channel=9, note=42, velocity=106, time=0),\n",
      "    Message('note_on', channel=9, note=42, velocity=0, time=55),\n",
      "    Message('note_on', channel=9, note=38, velocity=0, time=0),\n",
      "    Message('note_on', channel=9, note=42, velocity=106, time=65),\n",
      "    Message('note_on', channel=9, note=42, velocity=0, time=55),\n",
      "    Message('note_on', channel=9, note=36, velocity=106, time=65),\n",
      "    Message('note_on', channel=9, note=42, velocity=106, time=0),\n",
      "    Message('note_on', channel=9, note=42, velocity=0, time=55),\n",
      "    Message('note_on', channel=9, note=36, velocity=0, time=0),\n",
      "    Message('note_on', channel=9, note=42, velocity=106, time=65),\n",
      "    Message('note_on', channel=9, note=42, velocity=0, time=55),\n",
      "    Message('note_on', channel=9, note=38, velocity=106, time=65),\n",
      "    Message('note_on', channel=9, note=42, velocity=106, time=0),\n",
      "    Message('note_on', channel=9, note=42, velocity=0, time=55),\n",
      "    Message('note_on', channel=9, note=38, velocity=0, time=0),\n",
      "    Message('note_on', channel=9, note=42, velocity=106, time=65),\n",
      "    Message('note_on', channel=9, note=42, velocity=0, time=55),\n",
      "    Message('note_on', channel=9, note=36, velocity=106, time=65),\n",
      "    Message('note_on', channel=9, note=42, velocity=106, time=0),\n",
      "    Message('note_on', channel=9, note=42, velocity=0, time=55),\n",
      "    Message('note_on', channel=9, note=36, velocity=0, time=0),\n",
      "    Message('note_on', channel=9, note=42, velocity=106, time=65),\n",
      "    Message('note_on', channel=9, note=42, velocity=0, time=55),\n",
      "    Message('note_on', channel=9, note=38, velocity=106, time=65),\n",
      "    Message('note_on', channel=9, note=42, velocity=106, time=0),\n",
      "    Message('note_on', channel=9, note=42, velocity=0, time=55),\n",
      "    Message('note_on', channel=9, note=38, velocity=0, time=0),\n",
      "    Message('note_on', channel=9, note=38, velocity=106, time=65),\n",
      "    Message('note_on', channel=9, note=42, velocity=106, time=0),\n",
      "    Message('note_on', channel=9, note=38, velocity=0, time=35),\n",
      "    Message('note_on', channel=9, note=42, velocity=0, time=20),\n",
      "    Message('note_on', channel=9, note=38, velocity=106, time=5),\n",
      "    Message('note_on', channel=9, note=38, velocity=0, time=25),\n",
      "    Message('note_on', channel=9, note=36, velocity=106, time=35),\n",
      "    Message('note_on', channel=9, note=42, velocity=106, time=0),\n",
      "    Message('note_on', channel=9, note=49, velocity=106, time=0),\n",
      "    Message('note_on', channel=9, note=49, velocity=0, time=55),\n",
      "    Message('note_on', channel=9, note=42, velocity=0, time=0),\n",
      "    Message('note_on', channel=9, note=36, velocity=0, time=0),\n",
      "    Message('note_on', channel=9, note=42, velocity=106, time=65),\n",
      "    Message('note_on', channel=9, note=42, velocity=0, time=55),\n",
      "    Message('note_on', channel=9, note=38, velocity=106, time=65),\n",
      "    Message('note_on', channel=9, note=42, velocity=106, time=0),\n",
      "    Message('note_on', channel=9, note=42, velocity=0, time=55),\n",
      "    Message('note_on', channel=9, note=38, velocity=0, time=0),\n",
      "    Message('note_on', channel=9, note=42, velocity=106, time=65),\n",
      "    Message('note_on', channel=9, note=42, velocity=0, time=55),\n",
      "    Message('note_on', channel=9, note=36, velocity=106, time=65),\n",
      "    Message('note_on', channel=9, note=42, velocity=106, time=0),\n",
      "    Message('note_on', channel=9, note=42, velocity=0, time=55),\n",
      "    Message('note_on', channel=9, note=36, velocity=0, time=0),\n",
      "    Message('note_on', channel=9, note=42, velocity=106, time=65),\n",
      "    Message('note_on', channel=9, note=42, velocity=0, time=55),\n",
      "    Message('note_on', channel=9, note=38, velocity=106, time=65),\n",
      "    Message('note_on', channel=9, note=42, velocity=106, time=0),\n",
      "    Message('note_on', channel=9, note=42, velocity=0, time=55),\n",
      "    Message('note_on', channel=9, note=38, velocity=0, time=0),\n",
      "    Message('note_on', channel=9, note=42, velocity=106, time=65),\n",
      "    Message('note_on', channel=9, note=42, velocity=0, time=55),\n",
      "    Message('note_on', channel=9, note=36, velocity=106, time=65),\n",
      "    Message('note_on', channel=9, note=42, velocity=106, time=0),\n",
      "    Message('note_on', channel=9, note=42, velocity=0, time=55),\n",
      "    Message('note_on', channel=9, note=36, velocity=0, time=0),\n",
      "    Message('note_on', channel=9, note=42, velocity=106, time=65),\n",
      "    Message('note_on', channel=9, note=42, velocity=0, time=55),\n",
      "    Message('note_on', channel=9, note=38, velocity=106, time=65),\n",
      "    Message('note_on', channel=9, note=42, velocity=106, time=0),\n",
      "    Message('note_on', channel=9, note=42, velocity=0, time=55),\n",
      "    Message('note_on', channel=9, note=38, velocity=0, time=0),\n",
      "    Message('note_on', channel=9, note=42, velocity=106, time=65),\n",
      "    Message('note_on', channel=9, note=42, velocity=0, time=55),\n",
      "    Message('note_on', channel=9, note=36, velocity=106, time=65),\n",
      "    Message('note_on', channel=9, note=42, velocity=106, time=0),\n",
      "    Message('note_on', channel=9, note=42, velocity=0, time=55),\n",
      "    Message('note_on', channel=9, note=36, velocity=0, time=0),\n",
      "    Message('note_on', channel=9, note=42, velocity=106, time=65),\n",
      "    Message('note_on', channel=9, note=42, velocity=0, time=55),\n",
      "    Message('note_on', channel=9, note=38, velocity=106, time=65),\n",
      "    Message('note_on', channel=9, note=42, velocity=106, time=0),\n",
      "    Message('note_on', channel=9, note=42, velocity=0, time=55),\n",
      "    Message('note_on', channel=9, note=38, velocity=0, time=0),\n",
      "    Message('note_on', channel=9, note=38, velocity=106, time=65),\n",
      "    Message('note_on', channel=9, note=42, velocity=106, time=0),\n",
      "    Message('note_on', channel=9, note=38, velocity=0, time=35),\n",
      "    Message('note_on', channel=9, note=42, velocity=0, time=20),\n",
      "    Message('note_on', channel=9, note=38, velocity=106, time=5),\n",
      "    Message('note_on', channel=9, note=38, velocity=0, time=25),\n",
      "    Message('note_on', channel=9, note=36, velocity=106, time=35),\n",
      "    Message('note_on', channel=9, note=42, velocity=106, time=0),\n",
      "    Message('note_on', channel=9, note=49, velocity=106, time=0),\n",
      "    Message('note_on', channel=9, note=42, velocity=0, time=55),\n",
      "    Message('note_on', channel=9, note=36, velocity=0, time=0),\n",
      "    Message('note_on', channel=9, note=49, velocity=0, time=25),\n",
      "    Message('note_on', channel=9, note=42, velocity=106, time=40),\n",
      "    Message('note_on', channel=9, note=42, velocity=0, time=55),\n",
      "    Message('note_on', channel=9, note=38, velocity=106, time=65),\n",
      "    Message('note_on', channel=9, note=42, velocity=106, time=0),\n",
      "    Message('note_on', channel=9, note=42, velocity=0, time=55),\n",
      "    Message('note_on', channel=9, note=38, velocity=0, time=0),\n",
      "    Message('note_on', channel=9, note=42, velocity=106, time=65),\n",
      "    Message('note_on', channel=9, note=42, velocity=0, time=55),\n",
      "    Message('note_on', channel=9, note=36, velocity=106, time=65),\n",
      "    Message('note_on', channel=9, note=42, velocity=106, time=0),\n",
      "    Message('note_on', channel=9, note=42, velocity=0, time=55),\n",
      "    Message('note_on', channel=9, note=36, velocity=0, time=0),\n",
      "    Message('note_on', channel=9, note=42, velocity=106, time=65),\n",
      "    Message('note_on', channel=9, note=42, velocity=0, time=55),\n",
      "    Message('note_on', channel=9, note=38, velocity=106, time=65),\n",
      "    Message('note_on', channel=9, note=42, velocity=106, time=0),\n",
      "    Message('note_on', channel=9, note=42, velocity=0, time=55),\n",
      "    Message('note_on', channel=9, note=38, velocity=0, time=0),\n",
      "    Message('note_on', channel=9, note=42, velocity=106, time=65),\n",
      "    Message('note_on', channel=9, note=42, velocity=0, time=35),\n",
      "    Message('note_on', channel=9, note=36, velocity=106, time=85),\n",
      "    Message('note_on', channel=9, note=42, velocity=106, time=0),\n",
      "    Message('note_on', channel=9, note=42, velocity=0, time=55),\n",
      "    Message('note_on', channel=9, note=36, velocity=0, time=0),\n",
      "    Message('note_on', channel=9, note=42, velocity=106, time=65),\n",
      "    Message('note_on', channel=9, note=42, velocity=0, time=55),\n",
      "    Message('note_on', channel=9, note=38, velocity=106, time=65),\n",
      "    Message('note_on', channel=9, note=42, velocity=106, time=0),\n",
      "    Message('note_on', channel=9, note=42, velocity=0, time=55),\n",
      "    Message('note_on', channel=9, note=38, velocity=0, time=0),\n",
      "    Message('note_on', channel=9, note=42, velocity=106, time=65),\n",
      "    Message('note_on', channel=9, note=42, velocity=0, time=55),\n",
      "    Message('note_on', channel=9, note=36, velocity=106, time=65),\n",
      "    Message('note_on', channel=9, note=42, velocity=106, time=0),\n",
      "    Message('note_on', channel=9, note=42, velocity=0, time=55),\n",
      "    Message('note_on', channel=9, note=36, velocity=0, time=0),\n",
      "    Message('note_on', channel=9, note=42, velocity=106, time=65),\n",
      "    Message('note_on', channel=9, note=42, velocity=0, time=55),\n",
      "    Message('note_on', channel=9, note=38, velocity=106, time=65),\n",
      "    Message('note_on', channel=9, note=42, velocity=106, time=0),\n",
      "    Message('note_on', channel=9, note=42, velocity=0, time=55),\n",
      "    Message('note_on', channel=9, note=38, velocity=0, time=0),\n",
      "    Message('note_on', channel=9, note=38, velocity=106, time=65),\n",
      "    Message('note_on', channel=9, note=42, velocity=106, time=0),\n",
      "    Message('note_on', channel=9, note=38, velocity=0, time=35),\n",
      "    Message('note_on', channel=9, note=42, velocity=0, time=20),\n",
      "    Message('note_on', channel=9, note=38, velocity=106, time=5),\n",
      "    Message('note_on', channel=9, note=38, velocity=0, time=35),\n",
      "    Message('note_on', channel=9, note=36, velocity=106, time=25),\n",
      "    Message('note_on', channel=9, note=42, velocity=106, time=0),\n",
      "    Message('note_on', channel=9, note=49, velocity=106, time=0),\n",
      "    Message('note_on', channel=9, note=49, velocity=0, time=35),\n",
      "    Message('note_on', channel=9, note=42, velocity=0, time=20),\n",
      "    Message('note_on', channel=9, note=36, velocity=0, time=0),\n",
      "    Message('note_on', channel=9, note=42, velocity=106, time=65),\n",
      "    Message('note_on', channel=9, note=42, velocity=0, time=55),\n",
      "    Message('note_on', channel=9, note=38, velocity=106, time=65),\n",
      "    Message('note_on', channel=9, note=42, velocity=106, time=0),\n",
      "    Message('note_on', channel=9, note=42, velocity=0, time=55),\n",
      "    Message('note_on', channel=9, note=38, velocity=0, time=0),\n",
      "    Message('note_on', channel=9, note=42, velocity=106, time=65),\n",
      "    Message('note_on', channel=9, note=42, velocity=0, time=55),\n",
      "    Message('note_on', channel=9, note=36, velocity=106, time=65),\n",
      "    Message('note_on', channel=9, note=42, velocity=106, time=0),\n",
      "    Message('note_on', channel=9, note=42, velocity=0, time=55),\n",
      "    Message('note_on', channel=9, note=36, velocity=0, time=0),\n",
      "    Message('note_on', channel=9, note=42, velocity=106, time=65),\n",
      "    Message('note_on', channel=9, note=42, velocity=0, time=55),\n",
      "    Message('note_on', channel=9, note=38, velocity=106, time=65),\n",
      "    Message('note_on', channel=9, note=42, velocity=106, time=0),\n",
      "    Message('note_on', channel=9, note=42, velocity=0, time=55),\n",
      "    Message('note_on', channel=9, note=38, velocity=0, time=0),\n",
      "    Message('note_on', channel=9, note=42, velocity=106, time=65),\n",
      "    Message('note_on', channel=9, note=42, velocity=0, time=55),\n",
      "    Message('note_on', channel=9, note=36, velocity=106, time=65),\n",
      "    Message('note_on', channel=9, note=42, velocity=106, time=0),\n",
      "    Message('note_on', channel=9, note=42, velocity=0, time=55),\n",
      "    Message('note_on', channel=9, note=36, velocity=0, time=0),\n",
      "    Message('note_on', channel=9, note=42, velocity=106, time=65),\n",
      "    Message('note_on', channel=9, note=42, velocity=0, time=55),\n",
      "    Message('note_on', channel=9, note=38, velocity=106, time=65),\n",
      "    Message('note_on', channel=9, note=42, velocity=106, time=0),\n",
      "    Message('note_on', channel=9, note=42, velocity=0, time=55),\n",
      "    Message('note_on', channel=9, note=38, velocity=0, time=0),\n",
      "    Message('note_on', channel=9, note=42, velocity=106, time=65),\n",
      "    Message('note_on', channel=9, note=42, velocity=0, time=55),\n",
      "    Message('note_on', channel=9, note=36, velocity=106, time=65),\n",
      "    Message('note_on', channel=9, note=42, velocity=106, time=0),\n",
      "    Message('note_on', channel=9, note=42, velocity=0, time=55),\n",
      "    Message('note_on', channel=9, note=36, velocity=0, time=0),\n",
      "    Message('note_on', channel=9, note=42, velocity=106, time=65),\n",
      "    Message('note_on', channel=9, note=42, velocity=0, time=55),\n",
      "    Message('note_on', channel=9, note=38, velocity=106, time=65),\n",
      "    Message('note_on', channel=9, note=42, velocity=106, time=0),\n",
      "    Message('note_on', channel=9, note=42, velocity=0, time=55),\n",
      "    Message('note_on', channel=9, note=38, velocity=0, time=0),\n",
      "    Message('note_on', channel=9, note=42, velocity=106, time=65),\n",
      "    Message('note_on', channel=9, note=42, velocity=0, time=30),\n",
      "    Message('note_on', channel=9, note=36, velocity=106, time=90),\n",
      "    Message('note_on', channel=9, note=42, velocity=106, time=0),\n",
      "    Message('note_on', channel=9, note=42, velocity=0, time=55),\n",
      "    Message('note_on', channel=9, note=36, velocity=0, time=0),\n",
      "    Message('note_on', channel=9, note=42, velocity=106, time=65),\n",
      "    Message('note_on', channel=9, note=42, velocity=0, time=30),\n",
      "    Message('note_on', channel=9, note=38, velocity=106, time=90),\n",
      "    Message('note_on', channel=9, note=42, velocity=106, time=0),\n",
      "    Message('note_on', channel=9, note=42, velocity=0, time=30),\n",
      "    Message('note_on', channel=9, note=38, velocity=0, time=0),\n",
      "    Message('note_on', channel=9, note=42, velocity=106, time=90),\n",
      "    Message('note_on', channel=9, note=42, velocity=0, time=30),\n",
      "    Message('note_on', channel=9, note=36, velocity=106, time=90),\n",
      "    Message('note_on', channel=9, note=42, velocity=106, time=0),\n",
      "    Message('note_on', channel=9, note=42, velocity=0, time=30),\n",
      "    Message('note_on', channel=9, note=36, velocity=0, time=0),\n",
      "    Message('note_on', channel=9, note=42, velocity=106, time=90),\n",
      "    Message('note_on', channel=9, note=42, velocity=0, time=30),\n",
      "    Message('note_on', channel=9, note=38, velocity=106, time=90),\n",
      "    Message('note_on', channel=9, note=42, velocity=106, time=0),\n",
      "    Message('note_on', channel=9, note=42, velocity=0, time=30),\n",
      "    Message('note_on', channel=9, note=38, velocity=0, time=0),\n",
      "    Message('note_on', channel=9, note=38, velocity=106, time=90),\n",
      "    Message('note_on', channel=9, note=38, velocity=0, time=30),\n",
      "    Message('note_on', channel=9, note=38, velocity=106, time=30),\n",
      "    Message('note_on', channel=9, note=38, velocity=0, time=30),\n",
      "    Message('note_on', channel=9, note=36, velocity=106, time=30),\n",
      "    Message('note_on', channel=9, note=42, velocity=106, time=0),\n",
      "    Message('note_on', channel=9, note=49, velocity=106, time=0),\n",
      "    Message('note_on', channel=9, note=49, velocity=0, time=35),\n",
      "    Message('note_on', channel=9, note=42, velocity=0, time=20),\n",
      "    Message('note_on', channel=9, note=36, velocity=0, time=0),\n",
      "    Message('note_on', channel=9, note=38, velocity=106, time=665),\n",
      "    Message('note_on', channel=9, note=38, velocity=0, time=35),\n",
      "    Message('note_on', channel=9, note=38, velocity=106, time=85),\n",
      "    Message('note_on', channel=9, note=38, velocity=0, time=35),\n",
      "    Message('note_on', channel=9, note=38, velocity=106, time=25),\n",
      "    Message('note_on', channel=9, note=38, velocity=0, time=35),\n",
      "    Message('note_on', channel=9, note=36, velocity=106, time=25),\n",
      "    Message('note_on', channel=9, note=42, velocity=106, time=0),\n",
      "    Message('note_on', channel=9, note=49, velocity=106, time=0),\n",
      "    Message('note_on', channel=9, note=49, velocity=0, time=35),\n",
      "    Message('note_on', channel=9, note=42, velocity=0, time=20),\n",
      "    Message('note_on', channel=9, note=36, velocity=0, time=0),\n",
      "    Message('note_on', channel=9, note=42, velocity=106, time=65),\n",
      "    Message('note_on', channel=9, note=42, velocity=0, time=55),\n",
      "    Message('note_on', channel=9, note=38, velocity=106, time=65),\n",
      "    Message('note_on', channel=9, note=42, velocity=106, time=0),\n",
      "    Message('note_on', channel=9, note=42, velocity=0, time=55),\n",
      "    Message('note_on', channel=9, note=38, velocity=0, time=0),\n",
      "    Message('note_on', channel=9, note=42, velocity=106, time=65),\n",
      "    Message('note_on', channel=9, note=42, velocity=0, time=55),\n",
      "    Message('note_on', channel=9, note=36, velocity=106, time=65),\n",
      "    Message('note_on', channel=9, note=42, velocity=106, time=0),\n",
      "    Message('note_on', channel=9, note=42, velocity=0, time=55),\n",
      "    Message('note_on', channel=9, note=36, velocity=0, time=0),\n",
      "    Message('note_on', channel=9, note=42, velocity=106, time=65),\n",
      "    Message('note_on', channel=9, note=42, velocity=0, time=55),\n",
      "    Message('note_on', channel=9, note=38, velocity=106, time=65),\n",
      "    Message('note_on', channel=9, note=42, velocity=106, time=0),\n",
      "    Message('note_on', channel=9, note=42, velocity=0, time=55),\n",
      "    Message('note_on', channel=9, note=38, velocity=0, time=0),\n",
      "    Message('note_on', channel=9, note=42, velocity=106, time=65),\n",
      "    Message('note_on', channel=9, note=42, velocity=0, time=55),\n",
      "    Message('note_on', channel=9, note=36, velocity=106, time=65),\n",
      "    Message('note_on', channel=9, note=42, velocity=106, time=0),\n",
      "    Message('note_on', channel=9, note=42, velocity=0, time=55),\n",
      "    Message('note_on', channel=9, note=36, velocity=0, time=0),\n",
      "    Message('note_on', channel=9, note=42, velocity=106, time=65),\n",
      "    Message('note_on', channel=9, note=42, velocity=0, time=55),\n",
      "    Message('note_on', channel=9, note=38, velocity=106, time=65),\n",
      "    Message('note_on', channel=9, note=42, velocity=106, time=0),\n",
      "    Message('note_on', channel=9, note=42, velocity=0, time=55),\n",
      "    Message('note_on', channel=9, note=38, velocity=0, time=0),\n",
      "    Message('note_on', channel=9, note=42, velocity=106, time=65),\n",
      "    Message('note_on', channel=9, note=42, velocity=0, time=55),\n",
      "    Message('note_on', channel=9, note=36, velocity=106, time=65),\n",
      "    Message('note_on', channel=9, note=42, velocity=106, time=0),\n",
      "    Message('note_on', channel=9, note=42, velocity=0, time=55),\n",
      "    Message('note_on', channel=9, note=36, velocity=0, time=0),\n",
      "    Message('note_on', channel=9, note=42, velocity=106, time=65),\n",
      "    Message('note_on', channel=9, note=42, velocity=0, time=55),\n",
      "    Message('note_on', channel=9, note=38, velocity=106, time=65),\n",
      "    Message('note_on', channel=9, note=42, velocity=106, time=0),\n",
      "    Message('note_on', channel=9, note=42, velocity=0, time=55),\n",
      "    Message('note_on', channel=9, note=38, velocity=0, time=0),\n",
      "    Message('note_on', channel=9, note=42, velocity=106, time=65),\n",
      "    Message('note_on', channel=9, note=42, velocity=0, time=55),\n",
      "    Message('note_on', channel=9, note=36, velocity=106, time=65),\n",
      "    Message('note_on', channel=9, note=42, velocity=106, time=0),\n",
      "    Message('note_on', channel=9, note=42, velocity=0, time=55),\n",
      "    Message('note_on', channel=9, note=36, velocity=0, time=0),\n",
      "    Message('note_on', channel=9, note=42, velocity=106, time=65),\n",
      "    Message('note_on', channel=9, note=42, velocity=0, time=55),\n",
      "    Message('note_on', channel=9, note=38, velocity=106, time=65),\n",
      "    Message('note_on', channel=9, note=42, velocity=106, time=0),\n",
      "    Message('note_on', channel=9, note=42, velocity=0, time=55),\n",
      "    Message('note_on', channel=9, note=38, velocity=0, time=0),\n",
      "    Message('note_on', channel=9, note=42, velocity=106, time=65),\n",
      "    Message('note_on', channel=9, note=42, velocity=0, time=55),\n",
      "    Message('note_on', channel=9, note=36, velocity=106, time=65),\n",
      "    Message('note_on', channel=9, note=42, velocity=106, time=0),\n",
      "    Message('note_on', channel=9, note=42, velocity=0, time=55),\n",
      "    Message('note_on', channel=9, note=36, velocity=0, time=0),\n",
      "    Message('note_on', channel=9, note=42, velocity=106, time=65),\n",
      "    Message('note_on', channel=9, note=42, velocity=0, time=55),\n",
      "    Message('note_on', channel=9, note=38, velocity=106, time=65),\n",
      "    Message('note_on', channel=9, note=42, velocity=106, time=0),\n",
      "    Message('note_on', channel=9, note=42, velocity=0, time=55),\n",
      "    Message('note_on', channel=9, note=38, velocity=0, time=0),\n",
      "    Message('note_on', channel=9, note=42, velocity=106, time=65),\n",
      "    Message('note_on', channel=9, note=42, velocity=0, time=55),\n",
      "    Message('note_on', channel=9, note=36, velocity=106, time=65),\n",
      "    Message('note_on', channel=9, note=42, velocity=106, time=0),\n",
      "    Message('note_on', channel=9, note=42, velocity=0, time=55),\n",
      "    Message('note_on', channel=9, note=36, velocity=0, time=0),\n",
      "    Message('note_on', channel=9, note=42, velocity=106, time=65),\n",
      "    Message('note_on', channel=9, note=42, velocity=0, time=55),\n",
      "    Message('note_on', channel=9, note=38, velocity=106, time=65),\n",
      "    Message('note_on', channel=9, note=42, velocity=106, time=0),\n",
      "    Message('note_on', channel=9, note=42, velocity=0, time=55),\n",
      "    Message('note_on', channel=9, note=38, velocity=0, time=0),\n",
      "    Message('note_on', channel=9, note=42, velocity=106, time=65),\n",
      "    Message('note_on', channel=9, note=42, velocity=0, time=55),\n",
      "    Message('note_on', channel=9, note=36, velocity=106, time=65),\n",
      "    Message('note_on', channel=9, note=42, velocity=106, time=0),\n",
      "    Message('note_on', channel=9, note=42, velocity=0, time=55),\n",
      "    Message('note_on', channel=9, note=36, velocity=0, time=0),\n",
      "    Message('note_on', channel=9, note=42, velocity=106, time=65),\n",
      "    Message('note_on', channel=9, note=42, velocity=0, time=55),\n",
      "    Message('note_on', channel=9, note=38, velocity=106, time=65),\n",
      "    Message('note_on', channel=9, note=42, velocity=106, time=0),\n",
      "    Message('note_on', channel=9, note=42, velocity=0, time=55),\n",
      "    Message('note_on', channel=9, note=38, velocity=0, time=0),\n",
      "    Message('note_on', channel=9, note=38, velocity=106, time=65),\n",
      "    Message('note_on', channel=9, note=42, velocity=106, time=0),\n",
      "    Message('note_on', channel=9, note=38, velocity=0, time=35),\n",
      "    Message('note_on', channel=9, note=42, velocity=0, time=20),\n",
      "    Message('note_on', channel=9, note=38, velocity=106, time=5),\n",
      "    Message('note_on', channel=9, note=38, velocity=0, time=35),\n",
      "    Message('note_on', channel=9, note=36, velocity=106, time=25),\n",
      "    Message('note_on', channel=9, note=42, velocity=106, time=0),\n",
      "    Message('note_on', channel=9, note=49, velocity=106, time=0),\n",
      "    Message('note_on', channel=9, note=49, velocity=0, time=35),\n",
      "    Message('note_on', channel=9, note=42, velocity=0, time=20),\n",
      "    Message('note_on', channel=9, note=36, velocity=0, time=0),\n",
      "    Message('note_on', channel=9, note=42, velocity=106, time=65),\n",
      "    Message('note_on', channel=9, note=42, velocity=0, time=55),\n",
      "    Message('note_on', channel=9, note=38, velocity=106, time=65),\n",
      "    Message('note_on', channel=9, note=42, velocity=106, time=0),\n",
      "    Message('note_on', channel=9, note=42, velocity=0, time=55),\n",
      "    Message('note_on', channel=9, note=38, velocity=0, time=0),\n",
      "    Message('note_on', channel=9, note=42, velocity=106, time=65),\n",
      "    Message('note_on', channel=9, note=42, velocity=0, time=55),\n",
      "    Message('note_on', channel=9, note=36, velocity=106, time=65),\n",
      "    Message('note_on', channel=9, note=42, velocity=106, time=0),\n",
      "    Message('note_on', channel=9, note=42, velocity=0, time=55),\n",
      "    Message('note_on', channel=9, note=36, velocity=0, time=0),\n",
      "    Message('note_on', channel=9, note=42, velocity=106, time=65),\n",
      "    Message('note_on', channel=9, note=42, velocity=0, time=55),\n",
      "    Message('note_on', channel=9, note=38, velocity=106, time=65),\n",
      "    Message('note_on', channel=9, note=42, velocity=106, time=0),\n",
      "    Message('note_on', channel=9, note=42, velocity=0, time=55),\n",
      "    Message('note_on', channel=9, note=38, velocity=0, time=0),\n",
      "    Message('note_on', channel=9, note=42, velocity=106, time=65),\n",
      "    Message('note_on', channel=9, note=42, velocity=0, time=55),\n",
      "    Message('note_on', channel=9, note=36, velocity=106, time=65),\n",
      "    Message('note_on', channel=9, note=42, velocity=106, time=0),\n",
      "    Message('note_on', channel=9, note=42, velocity=0, time=55),\n",
      "    Message('note_on', channel=9, note=36, velocity=0, time=0),\n",
      "    Message('note_on', channel=9, note=42, velocity=106, time=65),\n",
      "    Message('note_on', channel=9, note=42, velocity=0, time=55),\n",
      "    Message('note_on', channel=9, note=38, velocity=106, time=65),\n",
      "    Message('note_on', channel=9, note=42, velocity=106, time=0),\n",
      "    Message('note_on', channel=9, note=42, velocity=0, time=55),\n",
      "    Message('note_on', channel=9, note=38, velocity=0, time=0),\n",
      "    Message('note_on', channel=9, note=42, velocity=106, time=65),\n",
      "    Message('note_on', channel=9, note=42, velocity=0, time=55),\n",
      "    Message('note_on', channel=9, note=36, velocity=106, time=65),\n",
      "    Message('note_on', channel=9, note=42, velocity=106, time=0),\n",
      "    Message('note_on', channel=9, note=42, velocity=0, time=55),\n",
      "    Message('note_on', channel=9, note=36, velocity=0, time=0),\n",
      "    Message('note_on', channel=9, note=42, velocity=106, time=65),\n",
      "    Message('note_on', channel=9, note=42, velocity=0, time=55),\n",
      "    Message('note_on', channel=9, note=38, velocity=106, time=65),\n",
      "    Message('note_on', channel=9, note=42, velocity=106, time=0),\n",
      "    Message('note_on', channel=9, note=42, velocity=0, time=55),\n",
      "    Message('note_on', channel=9, note=38, velocity=0, time=0),\n",
      "    Message('note_on', channel=9, note=42, velocity=106, time=65),\n",
      "    Message('note_on', channel=9, note=42, velocity=0, time=55),\n",
      "    Message('note_on', channel=9, note=36, velocity=106, time=65),\n",
      "    Message('note_on', channel=9, note=42, velocity=106, time=0),\n",
      "    Message('note_on', channel=9, note=42, velocity=0, time=55),\n",
      "    Message('note_on', channel=9, note=36, velocity=0, time=0),\n",
      "    Message('note_on', channel=9, note=42, velocity=106, time=65),\n",
      "    Message('note_on', channel=9, note=42, velocity=0, time=55),\n",
      "    Message('note_on', channel=9, note=38, velocity=106, time=65),\n",
      "    Message('note_on', channel=9, note=42, velocity=106, time=0),\n",
      "    Message('note_on', channel=9, note=42, velocity=0, time=55),\n",
      "    Message('note_on', channel=9, note=38, velocity=0, time=0),\n",
      "    Message('note_on', channel=9, note=42, velocity=106, time=65),\n",
      "    Message('note_on', channel=9, note=42, velocity=0, time=55),\n",
      "    Message('note_on', channel=9, note=36, velocity=106, time=65),\n",
      "    Message('note_on', channel=9, note=42, velocity=106, time=0),\n",
      "    Message('note_on', channel=9, note=42, velocity=0, time=55),\n",
      "    Message('note_on', channel=9, note=36, velocity=0, time=0),\n",
      "    Message('note_on', channel=9, note=42, velocity=106, time=65),\n",
      "    Message('note_on', channel=9, note=42, velocity=0, time=55),\n",
      "    Message('note_on', channel=9, note=38, velocity=106, time=65),\n",
      "    Message('note_on', channel=9, note=42, velocity=106, time=0),\n",
      "    Message('note_on', channel=9, note=42, velocity=0, time=55),\n",
      "    Message('note_on', channel=9, note=38, velocity=0, time=0),\n",
      "    Message('note_on', channel=9, note=42, velocity=106, time=65),\n",
      "    Message('note_on', channel=9, note=42, velocity=0, time=55),\n",
      "    Message('note_on', channel=9, note=36, velocity=106, time=65),\n",
      "    Message('note_on', channel=9, note=42, velocity=106, time=0),\n",
      "    Message('note_on', channel=9, note=42, velocity=0, time=55),\n",
      "    Message('note_on', channel=9, note=36, velocity=0, time=0),\n",
      "    Message('note_on', channel=9, note=42, velocity=106, time=65),\n",
      "    Message('note_on', channel=9, note=42, velocity=0, time=55),\n",
      "    Message('note_on', channel=9, note=38, velocity=106, time=65),\n",
      "    Message('note_on', channel=9, note=42, velocity=106, time=0),\n",
      "    Message('note_on', channel=9, note=42, velocity=0, time=55),\n",
      "    Message('note_on', channel=9, note=38, velocity=0, time=0),\n",
      "    Message('note_on', channel=9, note=42, velocity=106, time=65),\n",
      "    Message('note_on', channel=9, note=42, velocity=0, time=55),\n",
      "    Message('note_on', channel=9, note=36, velocity=106, time=65),\n",
      "    Message('note_on', channel=9, note=42, velocity=106, time=0),\n",
      "    Message('note_on', channel=9, note=42, velocity=0, time=55),\n",
      "    Message('note_on', channel=9, note=36, velocity=0, time=0),\n",
      "    Message('note_on', channel=9, note=42, velocity=106, time=65),\n",
      "    Message('note_on', channel=9, note=42, velocity=0, time=55),\n",
      "    Message('note_on', channel=9, note=38, velocity=106, time=65),\n",
      "    Message('note_on', channel=9, note=42, velocity=106, time=0),\n",
      "    Message('note_on', channel=9, note=42, velocity=0, time=55),\n",
      "    Message('note_on', channel=9, note=38, velocity=0, time=0),\n",
      "    Message('note_on', channel=9, note=38, velocity=106, time=65),\n",
      "    Message('note_on', channel=9, note=42, velocity=106, time=0),\n",
      "    Message('note_on', channel=9, note=38, velocity=0, time=35),\n",
      "    Message('note_on', channel=9, note=42, velocity=0, time=20),\n",
      "    Message('note_on', channel=9, note=38, velocity=106, time=5),\n",
      "    Message('note_on', channel=9, note=38, velocity=0, time=35),\n",
      "    Message('note_on', channel=9, note=36, velocity=106, time=25),\n",
      "    Message('note_on', channel=9, note=42, velocity=106, time=0),\n",
      "    Message('note_on', channel=9, note=49, velocity=106, time=0),\n",
      "    Message('note_on', channel=9, note=49, velocity=0, time=35),\n",
      "    Message('note_on', channel=9, note=42, velocity=0, time=20),\n",
      "    Message('note_on', channel=9, note=36, velocity=0, time=0),\n",
      "    Message('note_on', channel=9, note=42, velocity=106, time=65),\n",
      "    Message('note_on', channel=9, note=42, velocity=0, time=55),\n",
      "    Message('note_on', channel=9, note=38, velocity=106, time=65),\n",
      "    Message('note_on', channel=9, note=42, velocity=106, time=0),\n",
      "    Message('note_on', channel=9, note=42, velocity=0, time=55),\n",
      "    Message('note_on', channel=9, note=38, velocity=0, time=0),\n",
      "    Message('note_on', channel=9, note=42, velocity=106, time=65),\n",
      "    Message('note_on', channel=9, note=42, velocity=0, time=55),\n",
      "    Message('note_on', channel=9, note=36, velocity=106, time=65),\n",
      "    Message('note_on', channel=9, note=42, velocity=106, time=0),\n",
      "    Message('note_on', channel=9, note=42, velocity=0, time=55),\n",
      "    Message('note_on', channel=9, note=36, velocity=0, time=0),\n",
      "    Message('note_on', channel=9, note=42, velocity=106, time=65),\n",
      "    Message('note_on', channel=9, note=42, velocity=0, time=55),\n",
      "    Message('note_on', channel=9, note=38, velocity=106, time=65),\n",
      "    Message('note_on', channel=9, note=42, velocity=106, time=0),\n",
      "    Message('note_on', channel=9, note=42, velocity=0, time=55),\n",
      "    Message('note_on', channel=9, note=38, velocity=0, time=0),\n",
      "    Message('note_on', channel=9, note=42, velocity=106, time=65),\n",
      "    Message('note_on', channel=9, note=42, velocity=0, time=55),\n",
      "    Message('note_on', channel=9, note=36, velocity=106, time=65),\n",
      "    Message('note_on', channel=9, note=42, velocity=106, time=0),\n",
      "    Message('note_on', channel=9, note=42, velocity=0, time=55),\n",
      "    Message('note_on', channel=9, note=36, velocity=0, time=0),\n",
      "    Message('note_on', channel=9, note=42, velocity=106, time=65),\n",
      "    Message('note_on', channel=9, note=42, velocity=0, time=55),\n",
      "    Message('note_on', channel=9, note=38, velocity=106, time=65),\n",
      "    Message('note_on', channel=9, note=42, velocity=106, time=0),\n",
      "    Message('note_on', channel=9, note=42, velocity=0, time=55),\n",
      "    Message('note_on', channel=9, note=38, velocity=0, time=0),\n",
      "    Message('note_on', channel=9, note=42, velocity=106, time=65),\n",
      "    Message('note_on', channel=9, note=42, velocity=0, time=55),\n",
      "    Message('note_on', channel=9, note=36, velocity=106, time=65),\n",
      "    Message('note_on', channel=9, note=42, velocity=106, time=0),\n",
      "    Message('note_on', channel=9, note=42, velocity=0, time=55),\n",
      "    Message('note_on', channel=9, note=36, velocity=0, time=0),\n",
      "    Message('note_on', channel=9, note=42, velocity=106, time=65),\n",
      "    Message('note_on', channel=9, note=42, velocity=0, time=55),\n",
      "    Message('note_on', channel=9, note=38, velocity=106, time=65),\n",
      "    Message('note_on', channel=9, note=42, velocity=106, time=0),\n",
      "    Message('note_on', channel=9, note=42, velocity=0, time=55),\n",
      "    Message('note_on', channel=9, note=38, velocity=0, time=0),\n",
      "    Message('note_on', channel=9, note=42, velocity=106, time=65),\n",
      "    Message('note_on', channel=9, note=42, velocity=0, time=55),\n",
      "    Message('note_on', channel=9, note=38, velocity=106, time=5),\n",
      "    Message('note_on', channel=9, note=38, velocity=0, time=35),\n",
      "    Message('note_on', channel=9, note=36, velocity=106, time=25),\n",
      "    Message('note_on', channel=9, note=42, velocity=106, time=0),\n",
      "    Message('note_on', channel=9, note=49, velocity=106, time=0),\n",
      "    Message('note_on', channel=9, note=49, velocity=0, time=35),\n",
      "    Message('note_on', channel=9, note=42, velocity=0, time=20),\n",
      "    Message('note_on', channel=9, note=36, velocity=0, time=0),\n",
      "    Message('note_on', channel=9, note=42, velocity=106, time=65),\n",
      "    Message('note_on', channel=9, note=42, velocity=0, time=55),\n",
      "    Message('note_on', channel=9, note=38, velocity=106, time=65),\n",
      "    Message('note_on', channel=9, note=42, velocity=106, time=0),\n",
      "    Message('note_on', channel=9, note=42, velocity=0, time=55),\n",
      "    Message('note_on', channel=9, note=38, velocity=0, time=0),\n",
      "    Message('note_on', channel=9, note=42, velocity=106, time=65),\n",
      "    Message('note_on', channel=9, note=42, velocity=0, time=55),\n",
      "    Message('note_on', channel=9, note=36, velocity=106, time=65),\n",
      "    Message('note_on', channel=9, note=42, velocity=106, time=0),\n",
      "    Message('note_on', channel=9, note=42, velocity=0, time=55),\n",
      "    Message('note_on', channel=9, note=36, velocity=0, time=0),\n",
      "    Message('note_on', channel=9, note=42, velocity=106, time=65),\n",
      "    Message('note_on', channel=9, note=42, velocity=0, time=55),\n",
      "    Message('note_on', channel=9, note=38, velocity=106, time=65),\n",
      "    Message('note_on', channel=9, note=42, velocity=106, time=0),\n",
      "    Message('note_on', channel=9, note=42, velocity=0, time=55),\n",
      "    Message('note_on', channel=9, note=38, velocity=0, time=0),\n",
      "    Message('note_on', channel=9, note=42, velocity=106, time=65),\n",
      "    Message('note_on', channel=9, note=42, velocity=0, time=55),\n",
      "    Message('note_on', channel=9, note=38, velocity=106, time=5),\n",
      "    Message('note_on', channel=9, note=38, velocity=0, time=35),\n",
      "    Message('note_on', channel=9, note=36, velocity=106, time=25),\n",
      "    Message('note_on', channel=9, note=42, velocity=106, time=0),\n",
      "    Message('note_on', channel=9, note=49, velocity=106, time=0),\n",
      "    Message('note_on', channel=9, note=49, velocity=0, time=35),\n",
      "    Message('note_on', channel=9, note=42, velocity=0, time=20),\n",
      "    Message('note_on', channel=9, note=36, velocity=0, time=0),\n",
      "    Message('note_on', channel=9, note=42, velocity=106, time=65),\n",
      "    Message('note_on', channel=9, note=42, velocity=0, time=55),\n",
      "    Message('note_on', channel=9, note=38, velocity=106, time=65),\n",
      "    Message('note_on', channel=9, note=42, velocity=106, time=0),\n",
      "    Message('note_on', channel=9, note=42, velocity=0, time=55),\n",
      "    Message('note_on', channel=9, note=38, velocity=0, time=0),\n",
      "    Message('note_on', channel=9, note=42, velocity=106, time=65),\n",
      "    Message('note_on', channel=9, note=42, velocity=0, time=55),\n",
      "    Message('note_on', channel=9, note=36, velocity=106, time=65),\n",
      "    Message('note_on', channel=9, note=42, velocity=106, time=0),\n",
      "    Message('note_on', channel=9, note=42, velocity=0, time=55),\n",
      "    Message('note_on', channel=9, note=36, velocity=0, time=0),\n",
      "    Message('note_on', channel=9, note=42, velocity=106, time=65),\n",
      "    Message('note_on', channel=9, note=42, velocity=0, time=55),\n",
      "    Message('note_on', channel=9, note=38, velocity=106, time=65),\n",
      "    Message('note_on', channel=9, note=42, velocity=106, time=0),\n",
      "    Message('note_on', channel=9, note=42, velocity=0, time=55),\n",
      "    Message('note_on', channel=9, note=38, velocity=0, time=0),\n",
      "    Message('note_on', channel=9, note=42, velocity=106, time=65),\n",
      "    Message('note_on', channel=9, note=42, velocity=0, time=55),\n",
      "    Message('note_on', channel=9, note=38, velocity=106, time=5),\n",
      "    Message('note_on', channel=9, note=38, velocity=0, time=35),\n",
      "    Message('note_on', channel=9, note=36, velocity=106, time=25),\n",
      "    Message('note_on', channel=9, note=42, velocity=106, time=0),\n",
      "    Message('note_on', channel=9, note=49, velocity=106, time=0),\n",
      "    Message('note_on', channel=9, note=49, velocity=0, time=35),\n",
      "    Message('note_on', channel=9, note=42, velocity=0, time=20),\n",
      "    Message('note_on', channel=9, note=36, velocity=0, time=0),\n",
      "    Message('note_on', channel=9, note=42, velocity=106, time=65),\n",
      "    Message('note_on', channel=9, note=42, velocity=0, time=55),\n",
      "    Message('note_on', channel=9, note=38, velocity=106, time=65),\n",
      "    Message('note_on', channel=9, note=42, velocity=106, time=0),\n",
      "    Message('note_on', channel=9, note=42, velocity=0, time=55),\n",
      "    Message('note_on', channel=9, note=38, velocity=0, time=0),\n",
      "    Message('note_on', channel=9, note=42, velocity=106, time=65),\n",
      "    Message('note_on', channel=9, note=42, velocity=0, time=55),\n",
      "    Message('note_on', channel=9, note=36, velocity=106, time=65),\n",
      "    Message('note_on', channel=9, note=42, velocity=106, time=0),\n",
      "    Message('note_on', channel=9, note=42, velocity=0, time=55),\n",
      "    Message('note_on', channel=9, note=36, velocity=0, time=0),\n",
      "    Message('note_on', channel=9, note=42, velocity=106, time=65),\n",
      "    Message('note_on', channel=9, note=42, velocity=0, time=55),\n",
      "    Message('note_on', channel=9, note=38, velocity=106, time=65),\n",
      "    Message('note_on', channel=9, note=42, velocity=106, time=0),\n",
      "    Message('note_on', channel=9, note=42, velocity=0, time=55),\n",
      "    Message('note_on', channel=9, note=38, velocity=0, time=0),\n",
      "    Message('note_on', channel=9, note=42, velocity=106, time=65),\n",
      "    Message('note_on', channel=9, note=42, velocity=0, time=55),\n",
      "    Message('note_on', channel=9, note=42, velocity=106, time=65),\n",
      "    Message('note_on', channel=9, note=36, velocity=106, time=0),\n",
      "    Message('note_on', channel=9, note=49, velocity=106, time=0),\n",
      "    Message('note_on', channel=9, note=49, velocity=0, time=35),\n",
      "    Message('note_on', channel=9, note=36, velocity=0, time=0),\n",
      "    Message('note_on', channel=9, note=42, velocity=0, time=0),\n",
      "    Message('note_on', channel=9, note=38, velocity=106, time=565),\n",
      "    Message('note_on', channel=9, note=38, velocity=0, time=120),\n",
      "    Message('note_on', channel=9, note=38, velocity=106, time=0),\n",
      "    Message('note_on', channel=9, note=38, velocity=0, time=120),\n",
      "    Message('note_on', channel=9, note=42, velocity=106, time=120),\n",
      "    Message('note_on', channel=9, note=36, velocity=106, time=0),\n",
      "    Message('note_on', channel=9, note=49, velocity=106, time=0),\n",
      "    Message('note_on', channel=9, note=36, velocity=0, time=80),\n",
      "    Message('note_on', channel=9, note=42, velocity=0, time=0),\n",
      "    Message('note_on', channel=9, note=42, velocity=106, time=40),\n",
      "    Message('note_on', channel=9, note=42, velocity=0, time=80),\n",
      "    Message('note_on', channel=9, note=38, velocity=106, time=40),\n",
      "    Message('note_on', channel=9, note=42, velocity=106, time=0),\n",
      "    Message('note_on', channel=9, note=42, velocity=0, time=80),\n",
      "    Message('note_on', channel=9, note=38, velocity=0, time=0),\n",
      "    Message('note_on', channel=9, note=36, velocity=106, time=40),\n",
      "    Message('note_on', channel=9, note=42, velocity=106, time=0),\n",
      "    Message('note_on', channel=9, note=49, velocity=0, time=60),\n",
      "    Message('note_on', channel=9, note=42, velocity=0, time=20),\n",
      "    Message('note_on', channel=9, note=36, velocity=0, time=40),\n",
      "    Message('note_on', channel=9, note=36, velocity=106, time=0),\n",
      "    Message('note_on', channel=9, note=42, velocity=106, time=0),\n",
      "    Message('note_on', channel=9, note=42, velocity=0, time=80),\n",
      "    Message('note_on', channel=9, note=36, velocity=0, time=0),\n",
      "    Message('note_on', channel=9, note=42, velocity=106, time=40),\n",
      "    Message('note_on', channel=9, note=42, velocity=0, time=80),\n",
      "    Message('note_on', channel=9, note=38, velocity=106, time=40),\n",
      "    Message('note_on', channel=9, note=42, velocity=106, time=0),\n",
      "    Message('note_on', channel=9, note=42, velocity=0, time=80),\n",
      "    Message('note_on', channel=9, note=38, velocity=0, time=0),\n",
      "    Message('note_on', channel=9, note=42, velocity=106, time=40),\n",
      "    Message('note_on', channel=9, note=42, velocity=0, time=80),\n",
      "    Message('note_on', channel=9, note=42, velocity=106, time=40),\n",
      "    Message('note_on', channel=9, note=36, velocity=106, time=0),\n",
      "    Message('note_on', channel=9, note=36, velocity=0, time=80),\n",
      "    Message('note_on', channel=9, note=42, velocity=0, time=0),\n",
      "    Message('note_on', channel=9, note=42, velocity=106, time=40),\n",
      "    Message('note_on', channel=9, note=42, velocity=0, time=80),\n",
      "    Message('note_on', channel=9, note=38, velocity=106, time=40),\n",
      "    Message('note_on', channel=9, note=42, velocity=106, time=0),\n",
      "    Message('note_on', channel=9, note=42, velocity=0, time=80),\n",
      "    Message('note_on', channel=9, note=38, velocity=0, time=0),\n",
      "    Message('note_on', channel=9, note=36, velocity=106, time=40),\n",
      "    Message('note_on', channel=9, note=42, velocity=106, time=0),\n",
      "    Message('note_on', channel=9, note=42, velocity=0, time=80),\n",
      "    Message('note_on', channel=9, note=36, velocity=0, time=40),\n",
      "    Message('note_on', channel=9, note=36, velocity=106, time=0),\n",
      "    Message('note_on', channel=9, note=42, velocity=106, time=0),\n",
      "    Message('note_on', channel=9, note=42, velocity=0, time=80),\n",
      "    Message('note_on', channel=9, note=36, velocity=0, time=0),\n",
      "    Message('note_on', channel=9, note=42, velocity=106, time=40),\n",
      "    Message('note_on', channel=9, note=42, velocity=0, time=80),\n",
      "    Message('note_on', channel=9, note=38, velocity=106, time=40),\n",
      "    Message('note_on', channel=9, note=42, velocity=106, time=0),\n",
      "    Message('note_on', channel=9, note=42, velocity=0, time=80),\n",
      "    Message('note_on', channel=9, note=38, velocity=0, time=0),\n",
      "    Message('note_on', channel=9, note=42, velocity=106, time=40),\n",
      "    Message('note_on', channel=9, note=42, velocity=0, time=80),\n",
      "    Message('note_on', channel=9, note=42, velocity=106, time=40),\n",
      "    Message('note_on', channel=9, note=36, velocity=106, time=0),\n",
      "    Message('note_on', channel=9, note=36, velocity=0, time=80),\n",
      "    Message('note_on', channel=9, note=42, velocity=0, time=0),\n",
      "    Message('note_on', channel=9, note=42, velocity=106, time=40),\n",
      "    Message('note_on', channel=9, note=42, velocity=0, time=80),\n",
      "    Message('note_on', channel=9, note=38, velocity=106, time=40),\n",
      "    Message('note_on', channel=9, note=42, velocity=106, time=0),\n",
      "    Message('note_on', channel=9, note=42, velocity=0, time=80),\n",
      "    Message('note_on', channel=9, note=38, velocity=0, time=0),\n",
      "    Message('note_on', channel=9, note=36, velocity=106, time=40),\n",
      "    Message('note_on', channel=9, note=42, velocity=106, time=0),\n",
      "    Message('note_on', channel=9, note=42, velocity=0, time=80),\n",
      "    Message('note_on', channel=9, note=36, velocity=0, time=40),\n",
      "    Message('note_on', channel=9, note=36, velocity=106, time=0),\n",
      "    Message('note_on', channel=9, note=42, velocity=106, time=0),\n",
      "    Message('note_on', channel=9, note=42, velocity=0, time=80),\n",
      "    Message('note_on', channel=9, note=36, velocity=0, time=0),\n",
      "    Message('note_on', channel=9, note=42, velocity=106, time=40),\n",
      "    Message('note_on', channel=9, note=42, velocity=0, time=80),\n",
      "    Message('note_on', channel=9, note=38, velocity=106, time=40),\n",
      "    Message('note_on', channel=9, note=42, velocity=106, time=0),\n",
      "    Message('note_on', channel=9, note=42, velocity=0, time=80),\n",
      "    Message('note_on', channel=9, note=38, velocity=0, time=0),\n",
      "    Message('note_on', channel=9, note=42, velocity=106, time=40),\n",
      "    Message('note_on', channel=9, note=42, velocity=0, time=80),\n",
      "    Message('note_on', channel=9, note=42, velocity=106, time=40),\n",
      "    Message('note_on', channel=9, note=36, velocity=106, time=0),\n",
      "    Message('note_on', channel=9, note=36, velocity=0, time=80),\n",
      "    Message('note_on', channel=9, note=42, velocity=0, time=0),\n",
      "    Message('note_on', channel=9, note=42, velocity=106, time=40),\n",
      "    Message('note_on', channel=9, note=42, velocity=0, time=80),\n",
      "    Message('note_on', channel=9, note=38, velocity=106, time=40),\n",
      "    Message('note_on', channel=9, note=42, velocity=106, time=0),\n",
      "    Message('note_on', channel=9, note=42, velocity=0, time=80),\n",
      "    Message('note_on', channel=9, note=38, velocity=0, time=0),\n",
      "    Message('note_on', channel=9, note=36, velocity=106, time=40),\n",
      "    Message('note_on', channel=9, note=42, velocity=106, time=0),\n",
      "    Message('note_on', channel=9, note=42, velocity=0, time=80),\n",
      "    Message('note_on', channel=9, note=36, velocity=0, time=40),\n",
      "    Message('note_on', channel=9, note=36, velocity=106, time=0),\n",
      "    Message('note_on', channel=9, note=42, velocity=106, time=0),\n",
      "    Message('note_on', channel=9, note=42, velocity=0, time=80),\n",
      "    Message('note_on', channel=9, note=36, velocity=0, time=0),\n",
      "    Message('note_on', channel=9, note=42, velocity=106, time=40),\n",
      "    Message('note_on', channel=9, note=42, velocity=0, time=80),\n",
      "    Message('note_on', channel=9, note=38, velocity=106, time=40),\n",
      "    Message('note_on', channel=9, note=42, velocity=106, time=0),\n",
      "    Message('note_on', channel=9, note=42, velocity=0, time=80),\n",
      "    Message('note_on', channel=9, note=38, velocity=0, time=0),\n",
      "    Message('note_on', channel=9, note=42, velocity=106, time=40),\n",
      "    Message('note_on', channel=9, note=42, velocity=0, time=80),\n",
      "    Message('note_on', channel=9, note=42, velocity=106, time=40),\n",
      "    Message('note_on', channel=9, note=36, velocity=106, time=0),\n",
      "    Message('note_on', channel=9, note=36, velocity=0, time=80),\n",
      "    Message('note_on', channel=9, note=42, velocity=0, time=0),\n",
      "    Message('note_on', channel=9, note=42, velocity=106, time=40),\n",
      "    Message('note_on', channel=9, note=42, velocity=0, time=80),\n",
      "    Message('note_on', channel=9, note=38, velocity=106, time=40),\n",
      "    Message('note_on', channel=9, note=42, velocity=106, time=0),\n",
      "    Message('note_on', channel=9, note=42, velocity=0, time=80),\n",
      "    Message('note_on', channel=9, note=38, velocity=0, time=0),\n",
      "    Message('note_on', channel=9, note=36, velocity=106, time=40),\n",
      "    Message('note_on', channel=9, note=42, velocity=106, time=0),\n",
      "    Message('note_on', channel=9, note=42, velocity=0, time=80),\n",
      "    Message('note_on', channel=9, note=36, velocity=0, time=40),\n",
      "    Message('note_on', channel=9, note=36, velocity=106, time=0),\n",
      "    Message('note_on', channel=9, note=42, velocity=106, time=0),\n",
      "    Message('note_on', channel=9, note=42, velocity=0, time=80),\n",
      "    Message('note_on', channel=9, note=36, velocity=0, time=0),\n",
      "    Message('note_on', channel=9, note=42, velocity=106, time=40),\n",
      "    Message('note_on', channel=9, note=42, velocity=0, time=80),\n",
      "    Message('note_on', channel=9, note=38, velocity=106, time=40),\n",
      "    Message('note_on', channel=9, note=42, velocity=106, time=0),\n",
      "    Message('note_on', channel=9, note=42, velocity=0, time=80),\n",
      "    Message('note_on', channel=9, note=38, velocity=0, time=0),\n",
      "    Message('note_on', channel=9, note=42, velocity=106, time=40),\n",
      "    Message('note_on', channel=9, note=42, velocity=0, time=80),\n",
      "    Message('note_on', channel=9, note=42, velocity=106, time=40),\n",
      "    Message('note_on', channel=9, note=36, velocity=106, time=0),\n",
      "    Message('note_on', channel=9, note=36, velocity=0, time=80),\n",
      "    Message('note_on', channel=9, note=42, velocity=0, time=0),\n",
      "    Message('note_on', channel=9, note=42, velocity=106, time=40),\n",
      "    Message('note_on', channel=9, note=42, velocity=0, time=80),\n",
      "    Message('note_on', channel=9, note=38, velocity=106, time=40),\n",
      "    Message('note_on', channel=9, note=42, velocity=106, time=0),\n",
      "    Message('note_on', channel=9, note=42, velocity=0, time=80),\n",
      "    Message('note_on', channel=9, note=38, velocity=0, time=0),\n",
      "    Message('note_on', channel=9, note=36, velocity=106, time=40),\n",
      "    Message('note_on', channel=9, note=42, velocity=106, time=0),\n",
      "    Message('note_on', channel=9, note=42, velocity=0, time=80),\n",
      "    Message('note_on', channel=9, note=36, velocity=0, time=40),\n",
      "    Message('note_on', channel=9, note=36, velocity=106, time=0),\n",
      "    Message('note_on', channel=9, note=42, velocity=106, time=0),\n",
      "    Message('note_on', channel=9, note=42, velocity=0, time=80),\n",
      "    Message('note_on', channel=9, note=36, velocity=0, time=0),\n",
      "    Message('note_on', channel=9, note=42, velocity=106, time=40),\n",
      "    Message('note_on', channel=9, note=42, velocity=0, time=80),\n",
      "    Message('note_on', channel=9, note=38, velocity=106, time=40),\n",
      "    Message('note_on', channel=9, note=42, velocity=106, time=0),\n",
      "    Message('note_on', channel=9, note=42, velocity=0, time=80),\n",
      "    Message('note_on', channel=9, note=38, velocity=0, time=0),\n",
      "    Message('note_on', channel=9, note=42, velocity=106, time=40),\n",
      "    Message('note_on', channel=9, note=42, velocity=0, time=80),\n",
      "    Message('note_on', channel=9, note=42, velocity=106, time=40),\n",
      "    Message('note_on', channel=9, note=36, velocity=106, time=0),\n",
      "    Message('note_on', channel=9, note=36, velocity=0, time=80),\n",
      "    Message('note_on', channel=9, note=42, velocity=0, time=0),\n",
      "    Message('note_on', channel=9, note=42, velocity=106, time=40),\n",
      "    Message('note_on', channel=9, note=42, velocity=0, time=80),\n",
      "    Message('note_on', channel=9, note=38, velocity=106, time=40),\n",
      "    Message('note_on', channel=9, note=42, velocity=106, time=0),\n",
      "    Message('note_on', channel=9, note=42, velocity=0, time=80),\n",
      "    Message('note_on', channel=9, note=38, velocity=0, time=0),\n",
      "    Message('note_on', channel=9, note=36, velocity=106, time=40),\n",
      "    Message('note_on', channel=9, note=42, velocity=106, time=0),\n",
      "    Message('note_on', channel=9, note=42, velocity=0, time=80),\n",
      "    Message('note_on', channel=9, note=36, velocity=0, time=40),\n",
      "    Message('note_on', channel=9, note=36, velocity=106, time=0),\n",
      "    Message('note_on', channel=9, note=42, velocity=106, time=0),\n",
      "    Message('note_on', channel=9, note=42, velocity=0, time=80),\n",
      "    Message('note_on', channel=9, note=36, velocity=0, time=0),\n",
      "    Message('note_on', channel=9, note=42, velocity=106, time=40),\n",
      "    Message('note_on', channel=9, note=42, velocity=0, time=80),\n",
      "    Message('note_on', channel=9, note=38, velocity=106, time=40),\n",
      "    Message('note_on', channel=9, note=42, velocity=106, time=0),\n",
      "    Message('note_on', channel=9, note=42, velocity=0, time=80),\n",
      "    Message('note_on', channel=9, note=38, velocity=0, time=0),\n",
      "    Message('note_on', channel=9, note=42, velocity=106, time=40),\n",
      "    Message('note_on', channel=9, note=42, velocity=0, time=80),\n",
      "    Message('note_on', channel=9, note=42, velocity=106, time=40),\n",
      "    Message('note_on', channel=9, note=36, velocity=106, time=0),\n",
      "    Message('note_on', channel=9, note=36, velocity=0, time=80),\n",
      "    Message('note_on', channel=9, note=42, velocity=0, time=0),\n",
      "    Message('note_on', channel=9, note=42, velocity=106, time=40),\n",
      "    Message('note_on', channel=9, note=42, velocity=0, time=80),\n",
      "    Message('note_on', channel=9, note=38, velocity=106, time=40),\n",
      "    Message('note_on', channel=9, note=42, velocity=106, time=0),\n",
      "    Message('note_on', channel=9, note=42, velocity=0, time=80),\n",
      "    Message('note_on', channel=9, note=38, velocity=0, time=0),\n",
      "    Message('note_on', channel=9, note=36, velocity=106, time=40),\n",
      "    Message('note_on', channel=9, note=42, velocity=106, time=0),\n",
      "    Message('note_on', channel=9, note=42, velocity=0, time=80),\n",
      "    Message('note_on', channel=9, note=36, velocity=0, time=40),\n",
      "    Message('note_on', channel=9, note=36, velocity=106, time=0),\n",
      "    Message('note_on', channel=9, note=42, velocity=106, time=0),\n",
      "    Message('note_on', channel=9, note=42, velocity=0, time=80),\n",
      "    Message('note_on', channel=9, note=36, velocity=0, time=0),\n",
      "    Message('note_on', channel=9, note=42, velocity=106, time=40),\n",
      "    Message('note_on', channel=9, note=42, velocity=0, time=80),\n",
      "    Message('note_on', channel=9, note=38, velocity=106, time=40),\n",
      "    Message('note_on', channel=9, note=42, velocity=106, time=0),\n",
      "    Message('note_on', channel=9, note=42, velocity=0, time=80),\n",
      "    Message('note_on', channel=9, note=38, velocity=0, time=0),\n",
      "    Message('note_on', channel=9, note=42, velocity=106, time=40),\n",
      "    Message('note_on', channel=9, note=38, velocity=106, time=60),\n",
      "    Message('note_on', channel=9, note=42, velocity=0, time=20),\n",
      "    Message('note_on', channel=9, note=42, velocity=106, time=40),\n",
      "    Message('note_on', channel=9, note=36, velocity=106, time=0),\n",
      "    Message('note_on', channel=9, note=49, velocity=106, time=0),\n",
      "    Message('note_on', channel=9, note=36, velocity=0, time=80),\n",
      "    Message('note_on', channel=9, note=42, velocity=0, time=0),\n",
      "    Message('note_on', channel=9, note=42, velocity=106, time=40),\n",
      "    Message('note_on', channel=9, note=38, velocity=0, time=60),\n",
      "    Message('note_on', channel=9, note=42, velocity=0, time=20),\n",
      "    Message('note_on', channel=9, note=49, velocity=0, time=40),\n",
      "    Message('note_on', channel=9, note=38, velocity=106, time=0),\n",
      "    Message('note_on', channel=9, note=42, velocity=106, time=0),\n",
      "    Message('note_on', channel=9, note=42, velocity=0, time=80),\n",
      "    Message('note_on', channel=9, note=38, velocity=0, time=0),\n",
      "    Message('note_on', channel=9, note=36, velocity=106, time=40),\n",
      "    Message('note_on', channel=9, note=42, velocity=106, time=0),\n",
      "    Message('note_on', channel=9, note=42, velocity=0, time=80),\n",
      "    Message('note_on', channel=9, note=36, velocity=0, time=40),\n",
      "    Message('note_on', channel=9, note=36, velocity=106, time=0),\n",
      "    Message('note_on', channel=9, note=42, velocity=106, time=0),\n",
      "    Message('note_on', channel=9, note=42, velocity=0, time=80),\n",
      "    Message('note_on', channel=9, note=36, velocity=0, time=0),\n",
      "    Message('note_on', channel=9, note=42, velocity=106, time=40),\n",
      "    Message('note_on', channel=9, note=42, velocity=0, time=80),\n",
      "    Message('note_on', channel=9, note=38, velocity=106, time=40),\n",
      "    Message('note_on', channel=9, note=42, velocity=106, time=0),\n",
      "    Message('note_on', channel=9, note=42, velocity=0, time=80),\n",
      "    Message('note_on', channel=9, note=38, velocity=0, time=0),\n",
      "    Message('note_on', channel=9, note=42, velocity=106, time=40),\n",
      "    Message('note_on', channel=9, note=42, velocity=0, time=80),\n",
      "    Message('note_on', channel=9, note=42, velocity=106, time=40),\n",
      "    Message('note_on', channel=9, note=36, velocity=106, time=0),\n",
      "    Message('note_on', channel=9, note=36, velocity=0, time=80),\n",
      "    Message('note_on', channel=9, note=42, velocity=0, time=0),\n",
      "    Message('note_on', channel=9, note=42, velocity=106, time=40),\n",
      "    Message('note_on', channel=9, note=42, velocity=0, time=80),\n",
      "    Message('note_on', channel=9, note=38, velocity=106, time=40),\n",
      "    Message('note_on', channel=9, note=42, velocity=106, time=0),\n",
      "    Message('note_on', channel=9, note=42, velocity=0, time=80),\n",
      "    Message('note_on', channel=9, note=38, velocity=0, time=0),\n",
      "    Message('note_on', channel=9, note=36, velocity=106, time=40),\n",
      "    Message('note_on', channel=9, note=42, velocity=106, time=0),\n",
      "    Message('note_on', channel=9, note=42, velocity=0, time=80),\n",
      "    Message('note_on', channel=9, note=36, velocity=0, time=40),\n",
      "    Message('note_on', channel=9, note=36, velocity=106, time=0),\n",
      "    Message('note_on', channel=9, note=42, velocity=106, time=0),\n",
      "    Message('note_on', channel=9, note=42, velocity=0, time=80),\n",
      "    Message('note_on', channel=9, note=36, velocity=0, time=0),\n",
      "    Message('note_on', channel=9, note=42, velocity=106, time=40),\n",
      "    Message('note_on', channel=9, note=42, velocity=0, time=80),\n",
      "    Message('note_on', channel=9, note=38, velocity=106, time=40),\n",
      "    Message('note_on', channel=9, note=42, velocity=106, time=0),\n",
      "    Message('note_on', channel=9, note=42, velocity=0, time=80),\n",
      "    Message('note_on', channel=9, note=38, velocity=0, time=0),\n",
      "    Message('note_on', channel=9, note=42, velocity=106, time=40),\n",
      "    Message('note_on', channel=9, note=42, velocity=0, time=80),\n",
      "    Message('note_on', channel=9, note=42, velocity=106, time=40),\n",
      "    Message('note_on', channel=9, note=36, velocity=106, time=0),\n",
      "    Message('note_on', channel=9, note=36, velocity=0, time=80),\n",
      "    Message('note_on', channel=9, note=42, velocity=0, time=0),\n",
      "    Message('note_on', channel=9, note=42, velocity=106, time=40),\n",
      "    Message('note_on', channel=9, note=42, velocity=0, time=80),\n",
      "    Message('note_on', channel=9, note=38, velocity=106, time=40),\n",
      "    Message('note_on', channel=9, note=42, velocity=106, time=0),\n",
      "    Message('note_on', channel=9, note=42, velocity=0, time=80),\n",
      "    Message('note_on', channel=9, note=38, velocity=0, time=0),\n",
      "    Message('note_on', channel=9, note=36, velocity=106, time=40),\n",
      "    Message('note_on', channel=9, note=42, velocity=106, time=0),\n",
      "    Message('note_on', channel=9, note=42, velocity=0, time=80),\n",
      "    Message('note_on', channel=9, note=36, velocity=0, time=40),\n",
      "    Message('note_on', channel=9, note=36, velocity=106, time=0),\n",
      "    Message('note_on', channel=9, note=42, velocity=106, time=0),\n",
      "    Message('note_on', channel=9, note=42, velocity=0, time=80),\n",
      "    Message('note_on', channel=9, note=36, velocity=0, time=0),\n",
      "    Message('note_on', channel=9, note=42, velocity=106, time=40),\n",
      "    Message('note_on', channel=9, note=42, velocity=0, time=80),\n",
      "    Message('note_on', channel=9, note=38, velocity=106, time=40),\n",
      "    Message('note_on', channel=9, note=42, velocity=106, time=0),\n",
      "    Message('note_on', channel=9, note=42, velocity=0, time=80),\n",
      "    Message('note_on', channel=9, note=38, velocity=0, time=0),\n",
      "    Message('note_on', channel=9, note=42, velocity=106, time=40),\n",
      "    Message('note_on', channel=9, note=42, velocity=0, time=80),\n",
      "    Message('note_on', channel=9, note=42, velocity=106, time=40),\n",
      "    Message('note_on', channel=9, note=36, velocity=106, time=0),\n",
      "    Message('note_on', channel=9, note=36, velocity=0, time=80),\n",
      "    Message('note_on', channel=9, note=42, velocity=0, time=0),\n",
      "    Message('note_on', channel=9, note=42, velocity=106, time=40),\n",
      "    Message('note_on', channel=9, note=42, velocity=0, time=80),\n",
      "    Message('note_on', channel=9, note=38, velocity=106, time=40),\n",
      "    Message('note_on', channel=9, note=42, velocity=106, time=0),\n",
      "    Message('note_on', channel=9, note=42, velocity=0, time=80),\n",
      "    Message('note_on', channel=9, note=38, velocity=0, time=0),\n",
      "    Message('note_on', channel=9, note=36, velocity=106, time=40),\n",
      "    Message('note_on', channel=9, note=42, velocity=106, time=0),\n",
      "    Message('note_on', channel=9, note=42, velocity=0, time=80),\n",
      "    Message('note_on', channel=9, note=36, velocity=0, time=40),\n",
      "    Message('note_on', channel=9, note=36, velocity=106, time=0),\n",
      "    Message('note_on', channel=9, note=42, velocity=106, time=0),\n",
      "    Message('note_on', channel=9, note=42, velocity=0, time=80),\n",
      "    Message('note_on', channel=9, note=36, velocity=0, time=0),\n",
      "    Message('note_on', channel=9, note=42, velocity=106, time=40),\n",
      "    Message('note_on', channel=9, note=42, velocity=0, time=80),\n",
      "    Message('note_on', channel=9, note=38, velocity=106, time=40),\n",
      "    Message('note_on', channel=9, note=42, velocity=106, time=0),\n",
      "    Message('note_on', channel=9, note=42, velocity=0, time=80),\n",
      "    Message('note_on', channel=9, note=38, velocity=0, time=0),\n",
      "    Message('note_on', channel=9, note=42, velocity=106, time=40),\n",
      "    Message('note_on', channel=9, note=42, velocity=0, time=80),\n",
      "    Message('note_on', channel=9, note=42, velocity=106, time=40),\n",
      "    Message('note_on', channel=9, note=36, velocity=106, time=0),\n",
      "    Message('note_on', channel=9, note=36, velocity=0, time=80),\n",
      "    Message('note_on', channel=9, note=42, velocity=0, time=0),\n",
      "    Message('note_on', channel=9, note=42, velocity=106, time=40),\n",
      "    Message('note_on', channel=9, note=42, velocity=0, time=80),\n",
      "    Message('note_on', channel=9, note=38, velocity=106, time=40),\n",
      "    Message('note_on', channel=9, note=42, velocity=106, time=0),\n",
      "    Message('note_on', channel=9, note=42, velocity=0, time=80),\n",
      "    Message('note_on', channel=9, note=38, velocity=0, time=0),\n",
      "    Message('note_on', channel=9, note=36, velocity=106, time=40),\n",
      "    Message('note_on', channel=9, note=42, velocity=106, time=0),\n",
      "    Message('note_on', channel=9, note=42, velocity=0, time=80),\n",
      "    Message('note_on', channel=9, note=36, velocity=0, time=40),\n",
      "    Message('note_on', channel=9, note=36, velocity=106, time=0),\n",
      "    Message('note_on', channel=9, note=42, velocity=106, time=0),\n",
      "    Message('note_on', channel=9, note=42, velocity=0, time=80),\n",
      "    Message('note_on', channel=9, note=36, velocity=0, time=0),\n",
      "    Message('note_on', channel=9, note=42, velocity=106, time=40),\n",
      "    Message('note_on', channel=9, note=42, velocity=0, time=80),\n",
      "    Message('note_on', channel=9, note=38, velocity=106, time=40),\n",
      "    Message('note_on', channel=9, note=42, velocity=106, time=0),\n",
      "    Message('note_on', channel=9, note=42, velocity=0, time=80),\n",
      "    Message('note_on', channel=9, note=38, velocity=0, time=0),\n",
      "    Message('note_on', channel=9, note=42, velocity=106, time=40),\n",
      "    Message('note_on', channel=9, note=42, velocity=0, time=80),\n",
      "    Message('note_on', channel=9, note=42, velocity=106, time=40),\n",
      "    Message('note_on', channel=9, note=36, velocity=106, time=0),\n",
      "    Message('note_on', channel=9, note=36, velocity=0, time=80),\n",
      "    Message('note_on', channel=9, note=42, velocity=0, time=0),\n",
      "    Message('note_on', channel=9, note=42, velocity=106, time=40),\n",
      "    Message('note_on', channel=9, note=42, velocity=0, time=80),\n",
      "    Message('note_on', channel=9, note=38, velocity=106, time=40),\n",
      "    Message('note_on', channel=9, note=42, velocity=106, time=0),\n",
      "    Message('note_on', channel=9, note=42, velocity=0, time=80),\n",
      "    Message('note_on', channel=9, note=38, velocity=0, time=0),\n",
      "    Message('note_on', channel=9, note=36, velocity=106, time=40),\n",
      "    Message('note_on', channel=9, note=42, velocity=106, time=0),\n",
      "    Message('note_on', channel=9, note=42, velocity=0, time=80),\n",
      "    Message('note_on', channel=9, note=36, velocity=0, time=40),\n",
      "    Message('note_on', channel=9, note=36, velocity=106, time=0),\n",
      "    Message('note_on', channel=9, note=42, velocity=106, time=0),\n",
      "    Message('note_on', channel=9, note=42, velocity=0, time=80),\n",
      "    Message('note_on', channel=9, note=36, velocity=0, time=0),\n",
      "    Message('note_on', channel=9, note=42, velocity=106, time=40),\n",
      "    Message('note_on', channel=9, note=42, velocity=0, time=80),\n",
      "    Message('note_on', channel=9, note=38, velocity=106, time=40),\n",
      "    Message('note_on', channel=9, note=42, velocity=106, time=0),\n",
      "    Message('note_on', channel=9, note=42, velocity=0, time=80),\n",
      "    Message('note_on', channel=9, note=38, velocity=0, time=0),\n",
      "    Message('note_on', channel=9, note=42, velocity=106, time=40),\n",
      "    Message('note_on', channel=9, note=42, velocity=0, time=80),\n",
      "    Message('note_on', channel=9, note=42, velocity=106, time=40),\n",
      "    Message('note_on', channel=9, note=36, velocity=106, time=0),\n",
      "    Message('note_on', channel=9, note=36, velocity=0, time=80),\n",
      "    Message('note_on', channel=9, note=42, velocity=0, time=0),\n",
      "    Message('note_on', channel=9, note=42, velocity=106, time=40),\n",
      "    Message('note_on', channel=9, note=42, velocity=0, time=80),\n",
      "    Message('note_on', channel=9, note=38, velocity=106, time=40),\n",
      "    Message('note_on', channel=9, note=42, velocity=106, time=0),\n",
      "    Message('note_on', channel=9, note=42, velocity=0, time=80),\n",
      "    Message('note_on', channel=9, note=38, velocity=0, time=0),\n",
      "    Message('note_on', channel=9, note=36, velocity=106, time=40),\n",
      "    Message('note_on', channel=9, note=42, velocity=106, time=0),\n",
      "    Message('note_on', channel=9, note=42, velocity=0, time=80),\n",
      "    Message('note_on', channel=9, note=36, velocity=0, time=40),\n",
      "    Message('note_on', channel=9, note=36, velocity=106, time=0),\n",
      "    Message('note_on', channel=9, note=42, velocity=106, time=0),\n",
      "    Message('note_on', channel=9, note=42, velocity=0, time=80),\n",
      "    Message('note_on', channel=9, note=36, velocity=0, time=0),\n",
      "    Message('note_on', channel=9, note=42, velocity=106, time=40),\n",
      "    Message('note_on', channel=9, note=42, velocity=0, time=80),\n",
      "    Message('note_on', channel=9, note=38, velocity=106, time=40),\n",
      "    Message('note_on', channel=9, note=42, velocity=106, time=0),\n",
      "    Message('note_on', channel=9, note=42, velocity=0, time=80),\n",
      "    Message('note_on', channel=9, note=38, velocity=0, time=0),\n",
      "    Message('note_on', channel=9, note=42, velocity=106, time=40),\n",
      "    Message('note_on', channel=9, note=42, velocity=0, time=80),\n",
      "    Message('note_on', channel=9, note=42, velocity=106, time=40),\n",
      "    Message('note_on', channel=9, note=36, velocity=106, time=0),\n",
      "    Message('note_on', channel=9, note=36, velocity=0, time=80),\n",
      "    Message('note_on', channel=9, note=42, velocity=0, time=0),\n",
      "    Message('note_on', channel=9, note=42, velocity=106, time=40),\n",
      "    Message('note_on', channel=9, note=42, velocity=0, time=80),\n",
      "    Message('note_on', channel=9, note=38, velocity=106, time=40),\n",
      "    Message('note_on', channel=9, note=42, velocity=106, time=0),\n",
      "    Message('note_on', channel=9, note=42, velocity=0, time=80),\n",
      "    Message('note_on', channel=9, note=38, velocity=0, time=0),\n",
      "    Message('note_on', channel=9, note=42, velocity=106, time=40),\n",
      "    Message('note_on', channel=9, note=42, velocity=0, time=80),\n",
      "    Message('note_on', channel=9, note=36, velocity=106, time=40),\n",
      "    Message('note_on', channel=9, note=42, velocity=106, time=0),\n",
      "    Message('note_on', channel=9, note=42, velocity=0, time=80),\n",
      "    Message('note_on', channel=9, note=36, velocity=0, time=0),\n",
      "    Message('note_on', channel=9, note=42, velocity=106, time=40),\n",
      "    Message('note_on', channel=9, note=42, velocity=0, time=80),\n",
      "    Message('note_on', channel=9, note=38, velocity=106, time=40),\n",
      "    Message('note_on', channel=9, note=42, velocity=106, time=0),\n",
      "    Message('note_on', channel=9, note=42, velocity=0, time=80),\n",
      "    Message('note_on', channel=9, note=38, velocity=0, time=0),\n",
      "    Message('note_on', channel=9, note=38, velocity=106, time=40),\n",
      "    Message('note_on', channel=9, note=42, velocity=106, time=0),\n",
      "    Message('note_on', channel=9, note=38, velocity=0, time=60),\n",
      "    Message('note_on', channel=9, note=38, velocity=106, time=0),\n",
      "    Message('note_on', channel=9, note=42, velocity=0, time=20),\n",
      "    Message('note_on', channel=9, note=36, velocity=106, time=40),\n",
      "    Message('note_on', channel=9, note=42, velocity=106, time=0),\n",
      "    Message('note_on', channel=9, note=49, velocity=106, time=0),\n",
      "    Message('note_on', channel=9, note=49, velocity=0, time=35),\n",
      "    Message('note_on', channel=9, note=42, velocity=0, time=20),\n",
      "    Message('note_on', channel=9, note=36, velocity=0, time=0),\n",
      "    Message('note_on', channel=9, note=42, velocity=106, time=65),\n",
      "    Message('note_on', channel=9, note=42, velocity=0, time=55),\n",
      "    Message('note_on', channel=9, note=38, velocity=0, time=5),\n",
      "    Message('note_on', channel=9, note=38, velocity=106, time=60),\n",
      "    Message('note_on', channel=9, note=42, velocity=106, time=0),\n",
      "    Message('note_on', channel=9, note=42, velocity=0, time=55),\n",
      "    Message('note_on', channel=9, note=38, velocity=0, time=0),\n",
      "    Message('note_on', channel=9, note=42, velocity=106, time=65),\n",
      "    Message('note_on', channel=9, note=42, velocity=0, time=55),\n",
      "    Message('note_on', channel=9, note=36, velocity=106, time=65),\n",
      "    Message('note_on', channel=9, note=42, velocity=106, time=0),\n",
      "    Message('note_on', channel=9, note=42, velocity=0, time=55),\n",
      "    Message('note_on', channel=9, note=36, velocity=0, time=0),\n",
      "    Message('note_on', channel=9, note=42, velocity=106, time=65),\n",
      "    Message('note_on', channel=9, note=42, velocity=0, time=55),\n",
      "    Message('note_on', channel=9, note=38, velocity=106, time=65),\n",
      "    Message('note_on', channel=9, note=42, velocity=106, time=0),\n",
      "    Message('note_on', channel=9, note=42, velocity=0, time=55),\n",
      "    Message('note_on', channel=9, note=38, velocity=0, time=0),\n",
      "    Message('note_on', channel=9, note=42, velocity=106, time=65),\n",
      "    Message('note_on', channel=9, note=42, velocity=0, time=55),\n",
      "    Message('note_on', channel=9, note=36, velocity=106, time=65),\n",
      "    Message('note_on', channel=9, note=42, velocity=106, time=0),\n",
      "    Message('note_on', channel=9, note=42, velocity=0, time=55),\n",
      "    Message('note_on', channel=9, note=36, velocity=0, time=0),\n",
      "    Message('note_on', channel=9, note=42, velocity=106, time=65),\n",
      "    Message('note_on', channel=9, note=42, velocity=0, time=55),\n",
      "    Message('note_on', channel=9, note=38, velocity=106, time=65),\n",
      "    Message('note_on', channel=9, note=42, velocity=106, time=0),\n",
      "    Message('note_on', channel=9, note=42, velocity=0, time=55),\n",
      "    Message('note_on', channel=9, note=38, velocity=0, time=0),\n",
      "    Message('note_on', channel=9, note=42, velocity=106, time=65),\n",
      "    Message('note_on', channel=9, note=42, velocity=0, time=55),\n",
      "    Message('note_on', channel=9, note=36, velocity=106, time=65),\n",
      "    Message('note_on', channel=9, note=42, velocity=106, time=0),\n",
      "    Message('note_on', channel=9, note=42, velocity=0, time=55),\n",
      "    Message('note_on', channel=9, note=36, velocity=0, time=0),\n",
      "    Message('note_on', channel=9, note=42, velocity=106, time=65),\n",
      "    Message('note_on', channel=9, note=42, velocity=0, time=55),\n",
      "    Message('note_on', channel=9, note=38, velocity=106, time=65),\n",
      "    Message('note_on', channel=9, note=42, velocity=106, time=0),\n",
      "    Message('note_on', channel=9, note=42, velocity=0, time=55),\n",
      "    Message('note_on', channel=9, note=38, velocity=0, time=0),\n",
      "    Message('note_on', channel=9, note=42, velocity=106, time=65),\n",
      "    Message('note_on', channel=9, note=42, velocity=0, time=55),\n",
      "    Message('note_on', channel=9, note=36, velocity=106, time=65),\n",
      "    Message('note_on', channel=9, note=42, velocity=106, time=0),\n",
      "    Message('note_on', channel=9, note=42, velocity=0, time=55),\n",
      "    Message('note_on', channel=9, note=36, velocity=0, time=0),\n",
      "    Message('note_on', channel=9, note=42, velocity=106, time=65),\n",
      "    Message('note_on', channel=9, note=42, velocity=0, time=55),\n",
      "    Message('note_on', channel=9, note=38, velocity=106, time=65),\n",
      "    Message('note_on', channel=9, note=42, velocity=106, time=0),\n",
      "    Message('note_on', channel=9, note=42, velocity=0, time=55),\n",
      "    Message('note_on', channel=9, note=38, velocity=0, time=0),\n",
      "    Message('control_change', channel=9, control=7, value=90, time=65),\n",
      "    Message('note_on', channel=9, note=42, velocity=106, time=0),\n",
      "    Message('note_on', channel=9, note=42, velocity=0, time=55),\n",
      "    Message('control_change', channel=9, control=7, value=89, time=65),\n",
      "    Message('note_on', channel=9, note=36, velocity=106, time=0),\n",
      "    Message('note_on', channel=9, note=42, velocity=106, time=0),\n",
      "    Message('note_on', channel=9, note=42, velocity=0, time=55),\n",
      "    Message('note_on', channel=9, note=36, velocity=0, time=0),\n",
      "    Message('control_change', channel=9, control=7, value=88, time=65),\n",
      "    Message('note_on', channel=9, note=42, velocity=106, time=0),\n",
      "    Message('note_on', channel=9, note=42, velocity=0, time=55),\n",
      "    Message('control_change', channel=9, control=7, value=87, time=35),\n",
      "    Message('note_on', channel=9, note=38, velocity=106, time=30),\n",
      "    Message('note_on', channel=9, note=42, velocity=106, time=0),\n",
      "    Message('note_on', channel=9, note=42, velocity=0, time=55),\n",
      "    Message('note_on', channel=9, note=38, velocity=0, time=0),\n",
      "    Message('control_change', channel=9, control=7, value=86, time=35),\n",
      "    Message('note_on', channel=9, note=42, velocity=106, time=30),\n",
      "    Message('note_on', channel=9, note=42, velocity=0, time=55),\n",
      "    Message('control_change', channel=9, control=7, value=85, time=5),\n",
      "    Message('note_on', channel=9, note=36, velocity=106, time=60),\n",
      "    Message('note_on', channel=9, note=42, velocity=106, time=0),\n",
      "    Message('note_on', channel=9, note=42, velocity=0, time=55),\n",
      "    Message('note_on', channel=9, note=36, velocity=0, time=0),\n",
      "    Message('control_change', channel=9, control=7, value=84, time=5),\n",
      "    Message('note_on', channel=9, note=42, velocity=106, time=60),\n",
      "    Message('control_change', channel=9, control=7, value=83, time=30),\n",
      "    Message('note_on', channel=9, note=42, velocity=0, time=25),\n",
      "    Message('note_on', channel=9, note=38, velocity=106, time=65),\n",
      "    Message('note_on', channel=9, note=42, velocity=106, time=0),\n",
      "    Message('control_change', channel=9, control=7, value=82, time=30),\n",
      "    Message('note_on', channel=9, note=42, velocity=0, time=25),\n",
      "    Message('note_on', channel=9, note=38, velocity=0, time=0),\n",
      "    Message('control_change', channel=9, control=7, value=81, time=65),\n",
      "    Message('note_on', channel=9, note=42, velocity=106, time=0),\n",
      "    Message('note_on', channel=9, note=42, velocity=0, time=55),\n",
      "    Message('control_change', channel=9, control=7, value=80, time=65),\n",
      "    Message('note_on', channel=9, note=36, velocity=106, time=0),\n",
      "    Message('note_on', channel=9, note=42, velocity=106, time=0),\n",
      "    Message('note_on', channel=9, note=42, velocity=0, time=55),\n",
      "    Message('note_on', channel=9, note=36, velocity=0, time=0),\n",
      "    Message('control_change', channel=9, control=7, value=79, time=65),\n",
      "    Message('note_on', channel=9, note=42, velocity=106, time=0),\n",
      "    Message('note_on', channel=9, note=42, velocity=0, time=55),\n",
      "    Message('control_change', channel=9, control=7, value=78, time=35),\n",
      "    Message('note_on', channel=9, note=38, velocity=106, time=30),\n",
      "    Message('note_on', channel=9, note=42, velocity=106, time=0),\n",
      "    Message('note_on', channel=9, note=42, velocity=0, time=55),\n",
      "    Message('note_on', channel=9, note=38, velocity=0, time=0),\n",
      "    Message('control_change', channel=9, control=7, value=77, time=35),\n",
      "    Message('note_on', channel=9, note=38, velocity=106, time=30),\n",
      "    Message('note_on', channel=9, note=42, velocity=106, time=0),\n",
      "    Message('note_on', channel=9, note=38, velocity=0, time=35),\n",
      "    Message('note_on', channel=9, note=42, velocity=0, time=20),\n",
      "    Message('control_change', channel=9, control=7, value=76, time=5),\n",
      "    Message('note_on', channel=9, note=38, velocity=106, time=0),\n",
      "    Message('note_on', channel=9, note=38, velocity=0, time=35),\n",
      "    Message('note_on', channel=9, note=36, velocity=106, time=25),\n",
      "    Message('note_on', channel=9, note=42, velocity=106, time=0),\n",
      "    Message('note_on', channel=9, note=49, velocity=106, time=0),\n",
      "    Message('note_on', channel=9, note=49, velocity=0, time=35),\n",
      "    Message('note_on', channel=9, note=42, velocity=0, time=20),\n",
      "    Message('note_on', channel=9, note=36, velocity=0, time=0),\n",
      "    Message('control_change', channel=9, control=7, value=75, time=5),\n",
      "    Message('note_on', channel=9, note=42, velocity=106, time=60),\n",
      "    Message('control_change', channel=9, control=7, value=74, time=30),\n",
      "    Message('note_on', channel=9, note=42, velocity=0, time=25),\n",
      "    Message('note_on', channel=9, note=38, velocity=106, time=65),\n",
      "    Message('note_on', channel=9, note=42, velocity=106, time=0),\n",
      "    Message('control_change', channel=9, control=7, value=73, time=30),\n",
      "    Message('note_on', channel=9, note=42, velocity=0, time=25),\n",
      "    Message('note_on', channel=9, note=38, velocity=0, time=0),\n",
      "    Message('control_change', channel=9, control=7, value=72, time=65),\n",
      "    Message('note_on', channel=9, note=42, velocity=106, time=0),\n",
      "    Message('note_on', channel=9, note=42, velocity=0, time=55),\n",
      "    Message('control_change', channel=9, control=7, value=71, time=65),\n",
      "    Message('note_on', channel=9, note=36, velocity=106, time=0),\n",
      "    Message('note_on', channel=9, note=42, velocity=106, time=0),\n",
      "    Message('note_on', channel=9, note=42, velocity=0, time=55),\n",
      "    Message('note_on', channel=9, note=36, velocity=0, time=0),\n",
      "    Message('control_change', channel=9, control=7, value=70, time=65),\n",
      "    Message('note_on', channel=9, note=42, velocity=106, time=0),\n",
      "    Message('note_on', channel=9, note=42, velocity=0, time=55),\n",
      "    Message('control_change', channel=9, control=7, value=69, time=35),\n",
      "    Message('note_on', channel=9, note=38, velocity=106, time=30),\n",
      "    Message('note_on', channel=9, note=42, velocity=106, time=0),\n",
      "    Message('note_on', channel=9, note=42, velocity=0, time=55),\n",
      "    Message('note_on', channel=9, note=38, velocity=0, time=0),\n",
      "    Message('control_change', channel=9, control=7, value=68, time=35),\n",
      "    Message('note_on', channel=9, note=42, velocity=106, time=30),\n",
      "    Message('note_on', channel=9, note=42, velocity=0, time=55),\n",
      "    Message('control_change', channel=9, control=7, value=67, time=5),\n",
      "    Message('note_on', channel=9, note=36, velocity=106, time=60),\n",
      "    Message('note_on', channel=9, note=42, velocity=106, time=0),\n",
      "    Message('note_on', channel=9, note=42, velocity=0, time=55),\n",
      "    Message('note_on', channel=9, note=36, velocity=0, time=0),\n",
      "    Message('control_change', channel=9, control=7, value=66, time=5),\n",
      "    Message('note_on', channel=9, note=42, velocity=106, time=60),\n",
      "    Message('control_change', channel=9, control=7, value=65, time=30),\n",
      "    Message('note_on', channel=9, note=42, velocity=0, time=25),\n",
      "    Message('note_on', channel=9, note=38, velocity=106, time=65),\n",
      "    Message('note_on', channel=9, note=42, velocity=106, time=0),\n",
      "    Message('control_change', channel=9, control=7, value=64, time=30),\n",
      "    Message('note_on', channel=9, note=42, velocity=0, time=25),\n",
      "    Message('note_on', channel=9, note=38, velocity=0, time=0),\n",
      "    Message('control_change', channel=9, control=7, value=63, time=65),\n",
      "    Message('note_on', channel=9, note=42, velocity=106, time=0),\n",
      "    Message('note_on', channel=9, note=42, velocity=0, time=55),\n",
      "    Message('control_change', channel=9, control=7, value=62, time=65),\n",
      "    Message('note_on', channel=9, note=36, velocity=106, time=0),\n",
      "    Message('note_on', channel=9, note=42, velocity=106, time=0),\n",
      "    Message('note_on', channel=9, note=42, velocity=0, time=55),\n",
      "    Message('note_on', channel=9, note=36, velocity=0, time=0),\n",
      "    Message('control_change', channel=9, control=7, value=61, time=65),\n",
      "    Message('note_on', channel=9, note=42, velocity=106, time=0),\n",
      "    Message('note_on', channel=9, note=42, velocity=0, time=55),\n",
      "    Message('control_change', channel=9, control=7, value=60, time=35),\n",
      "    Message('note_on', channel=9, note=38, velocity=106, time=30),\n",
      "    Message('note_on', channel=9, note=42, velocity=106, time=0),\n",
      "    Message('note_on', channel=9, note=42, velocity=0, time=55),\n",
      "    Message('note_on', channel=9, note=38, velocity=0, time=0),\n",
      "    Message('control_change', channel=9, control=7, value=59, time=35),\n",
      "    Message('note_on', channel=9, note=42, velocity=106, time=30),\n",
      "    Message('note_on', channel=9, note=42, velocity=0, time=55),\n",
      "    Message('control_change', channel=9, control=7, value=58, time=5),\n",
      "    Message('note_on', channel=9, note=36, velocity=106, time=60),\n",
      "    Message('note_on', channel=9, note=42, velocity=106, time=0),\n",
      "    Message('note_on', channel=9, note=42, velocity=0, time=55),\n",
      "    Message('note_on', channel=9, note=36, velocity=0, time=0),\n",
      "    Message('control_change', channel=9, control=7, value=57, time=5),\n",
      "    Message('note_on', channel=9, note=42, velocity=106, time=60),\n",
      "    Message('control_change', channel=9, control=7, value=56, time=30),\n",
      "    Message('note_on', channel=9, note=42, velocity=0, time=25),\n",
      "    Message('note_on', channel=9, note=38, velocity=106, time=65),\n",
      "    Message('note_on', channel=9, note=42, velocity=106, time=0),\n",
      "    Message('control_change', channel=9, control=7, value=55, time=30),\n",
      "    Message('note_on', channel=9, note=42, velocity=0, time=25),\n",
      "    Message('note_on', channel=9, note=38, velocity=0, time=0),\n",
      "    Message('control_change', channel=9, control=7, value=54, time=65),\n",
      "    Message('note_on', channel=9, note=42, velocity=106, time=0),\n",
      "    Message('note_on', channel=9, note=42, velocity=0, time=55),\n",
      "    Message('control_change', channel=9, control=7, value=53, time=65),\n",
      "    Message('note_on', channel=9, note=36, velocity=106, time=0),\n",
      "    Message('note_on', channel=9, note=42, velocity=106, time=0),\n",
      "    Message('note_on', channel=9, note=42, velocity=0, time=55),\n",
      "    Message('note_on', channel=9, note=36, velocity=0, time=0),\n",
      "    Message('control_change', channel=9, control=7, value=52, time=65),\n",
      "    Message('note_on', channel=9, note=42, velocity=106, time=0),\n",
      "    Message('note_on', channel=9, note=42, velocity=0, time=55),\n",
      "    Message('control_change', channel=9, control=7, value=51, time=35),\n",
      "    Message('note_on', channel=9, note=38, velocity=106, time=30),\n",
      "    Message('note_on', channel=9, note=42, velocity=106, time=0),\n",
      "    Message('note_on', channel=9, note=42, velocity=0, time=55),\n",
      "    Message('note_on', channel=9, note=38, velocity=0, time=0),\n",
      "    Message('control_change', channel=9, control=7, value=50, time=35),\n",
      "    Message('note_on', channel=9, note=42, velocity=106, time=30),\n",
      "    Message('note_on', channel=9, note=42, velocity=0, time=55),\n",
      "    Message('control_change', channel=9, control=7, value=49, time=5),\n",
      "    Message('note_on', channel=9, note=36, velocity=106, time=60),\n",
      "    Message('note_on', channel=9, note=42, velocity=106, time=0),\n",
      "    Message('note_on', channel=9, note=42, velocity=0, time=55),\n",
      "    Message('note_on', channel=9, note=36, velocity=0, time=0),\n",
      "    Message('control_change', channel=9, control=7, value=48, time=5),\n",
      "    Message('note_on', channel=9, note=42, velocity=106, time=60),\n",
      "    Message('control_change', channel=9, control=7, value=47, time=30),\n",
      "    Message('note_on', channel=9, note=42, velocity=0, time=25),\n",
      "    Message('note_on', channel=9, note=38, velocity=106, time=65),\n",
      "    Message('note_on', channel=9, note=42, velocity=106, time=0),\n",
      "    Message('control_change', channel=9, control=7, value=46, time=30),\n",
      "    Message('note_on', channel=9, note=42, velocity=0, time=25),\n",
      "    Message('note_on', channel=9, note=38, velocity=0, time=0),\n",
      "    Message('control_change', channel=9, control=7, value=45, time=65),\n",
      "    Message('note_on', channel=9, note=42, velocity=106, time=0),\n",
      "    Message('note_on', channel=9, note=42, velocity=0, time=55),\n",
      "    Message('control_change', channel=9, control=7, value=44, time=65),\n",
      "    Message('note_on', channel=9, note=36, velocity=106, time=0),\n",
      "    Message('note_on', channel=9, note=42, velocity=106, time=0),\n",
      "    Message('note_on', channel=9, note=42, velocity=0, time=55),\n",
      "    Message('note_on', channel=9, note=36, velocity=0, time=0),\n",
      "    Message('control_change', channel=9, control=7, value=43, time=65),\n",
      "    Message('note_on', channel=9, note=42, velocity=106, time=0),\n",
      "    Message('note_on', channel=9, note=42, velocity=0, time=55),\n",
      "    Message('control_change', channel=9, control=7, value=42, time=35),\n",
      "    Message('note_on', channel=9, note=38, velocity=106, time=30),\n",
      "    Message('note_on', channel=9, note=42, velocity=106, time=0),\n",
      "    Message('note_on', channel=9, note=42, velocity=0, time=55),\n",
      "    Message('note_on', channel=9, note=38, velocity=0, time=0),\n",
      "    Message('control_change', channel=9, control=7, value=41, time=35),\n",
      "    Message('note_on', channel=9, note=38, velocity=106, time=30),\n",
      "    Message('note_on', channel=9, note=42, velocity=106, time=0),\n",
      "    Message('note_on', channel=9, note=38, velocity=0, time=35),\n",
      "    Message('note_on', channel=9, note=42, velocity=0, time=20),\n",
      "    Message('control_change', channel=9, control=7, value=40, time=5),\n",
      "    Message('note_on', channel=9, note=38, velocity=106, time=0),\n",
      "    Message('note_on', channel=9, note=38, velocity=0, time=35),\n",
      "    Message('note_on', channel=9, note=36, velocity=106, time=25),\n",
      "    Message('note_on', channel=9, note=42, velocity=106, time=0),\n",
      "    Message('note_on', channel=9, note=49, velocity=106, time=0),\n",
      "    Message('note_on', channel=9, note=49, velocity=0, time=35),\n",
      "    Message('note_on', channel=9, note=42, velocity=0, time=20),\n",
      "    Message('note_on', channel=9, note=36, velocity=0, time=0),\n",
      "    Message('control_change', channel=9, control=7, value=39, time=5),\n",
      "    Message('note_on', channel=9, note=42, velocity=106, time=60),\n",
      "    Message('control_change', channel=9, control=7, value=38, time=30),\n",
      "    Message('note_on', channel=9, note=42, velocity=0, time=25),\n",
      "    Message('note_on', channel=9, note=38, velocity=106, time=65),\n",
      "    Message('note_on', channel=9, note=42, velocity=106, time=0),\n",
      "    Message('control_change', channel=9, control=7, value=37, time=30),\n",
      "    Message('note_on', channel=9, note=42, velocity=0, time=25),\n",
      "    Message('note_on', channel=9, note=38, velocity=0, time=0),\n",
      "    Message('control_change', channel=9, control=7, value=36, time=65),\n",
      "    Message('note_on', channel=9, note=42, velocity=106, time=0),\n",
      "    Message('note_on', channel=9, note=42, velocity=0, time=55),\n",
      "    Message('control_change', channel=9, control=7, value=35, time=65),\n",
      "    Message('note_on', channel=9, note=36, velocity=106, time=0),\n",
      "    Message('note_on', channel=9, note=42, velocity=106, time=0),\n",
      "    Message('note_on', channel=9, note=42, velocity=0, time=55),\n",
      "    Message('note_on', channel=9, note=36, velocity=0, time=0),\n",
      "    Message('control_change', channel=9, control=7, value=34, time=65),\n",
      "    Message('note_on', channel=9, note=42, velocity=106, time=0),\n",
      "    Message('note_on', channel=9, note=42, velocity=0, time=55),\n",
      "    Message('control_change', channel=9, control=7, value=33, time=35),\n",
      "    Message('note_on', channel=9, note=38, velocity=106, time=30),\n",
      "    Message('note_on', channel=9, note=42, velocity=106, time=0),\n",
      "    Message('note_on', channel=9, note=42, velocity=0, time=55),\n",
      "    Message('note_on', channel=9, note=38, velocity=0, time=0),\n",
      "    Message('control_change', channel=9, control=7, value=32, time=35),\n",
      "    Message('note_on', channel=9, note=42, velocity=106, time=30),\n",
      "    Message('note_on', channel=9, note=42, velocity=0, time=55),\n",
      "    Message('control_change', channel=9, control=7, value=31, time=5),\n",
      "    Message('note_on', channel=9, note=36, velocity=106, time=60),\n",
      "    Message('note_on', channel=9, note=42, velocity=106, time=0),\n",
      "    Message('note_on', channel=9, note=42, velocity=0, time=55),\n",
      "    Message('note_on', channel=9, note=36, velocity=0, time=0),\n",
      "    Message('control_change', channel=9, control=7, value=30, time=5),\n",
      "    Message('note_on', channel=9, note=42, velocity=106, time=60),\n",
      "    Message('control_change', channel=9, control=7, value=29, time=30),\n",
      "    Message('note_on', channel=9, note=42, velocity=0, time=25),\n",
      "    Message('note_on', channel=9, note=38, velocity=106, time=65),\n",
      "    Message('note_on', channel=9, note=42, velocity=106, time=0),\n",
      "    Message('control_change', channel=9, control=7, value=28, time=30),\n",
      "    Message('note_on', channel=9, note=42, velocity=0, time=25),\n",
      "    Message('note_on', channel=9, note=38, velocity=0, time=0),\n",
      "    Message('control_change', channel=9, control=7, value=27, time=65),\n",
      "    Message('note_on', channel=9, note=42, velocity=106, time=0),\n",
      "    Message('note_on', channel=9, note=42, velocity=0, time=55),\n",
      "    Message('control_change', channel=9, control=7, value=26, time=65),\n",
      "    Message('note_on', channel=9, note=36, velocity=106, time=0),\n",
      "    Message('note_on', channel=9, note=42, velocity=106, time=0),\n",
      "    Message('note_on', channel=9, note=42, velocity=0, time=55),\n",
      "    Message('note_on', channel=9, note=36, velocity=0, time=0),\n",
      "    Message('control_change', channel=9, control=7, value=25, time=65),\n",
      "    Message('note_on', channel=9, note=42, velocity=106, time=0),\n",
      "    Message('note_on', channel=9, note=42, velocity=0, time=55),\n",
      "    Message('control_change', channel=9, control=7, value=24, time=35),\n",
      "    Message('note_on', channel=9, note=38, velocity=106, time=30),\n",
      "    Message('note_on', channel=9, note=42, velocity=106, time=0),\n",
      "    Message('note_on', channel=9, note=42, velocity=0, time=55),\n",
      "    Message('note_on', channel=9, note=38, velocity=0, time=0),\n",
      "    Message('control_change', channel=9, control=7, value=23, time=35),\n",
      "    Message('note_on', channel=9, note=42, velocity=106, time=30),\n",
      "    Message('note_on', channel=9, note=42, velocity=0, time=55),\n",
      "    Message('control_change', channel=9, control=7, value=22, time=5),\n",
      "    Message('note_on', channel=9, note=38, velocity=106, time=0),\n",
      "    Message('note_on', channel=9, note=38, velocity=0, time=35),\n",
      "    Message('note_on', channel=9, note=36, velocity=106, time=25),\n",
      "    Message('note_on', channel=9, note=42, velocity=106, time=0),\n",
      "    Message('note_on', channel=9, note=49, velocity=106, time=0),\n",
      "    Message('note_on', channel=9, note=49, velocity=0, time=35),\n",
      "    Message('note_on', channel=9, note=42, velocity=0, time=20),\n",
      "    Message('note_on', channel=9, note=36, velocity=0, time=0),\n",
      "    Message('control_change', channel=9, control=7, value=21, time=5),\n",
      "    Message('note_on', channel=9, note=42, velocity=106, time=60),\n",
      "    Message('control_change', channel=9, control=7, value=20, time=30),\n",
      "    Message('note_on', channel=9, note=42, velocity=0, time=25),\n",
      "    Message('note_on', channel=9, note=38, velocity=106, time=65),\n",
      "    Message('note_on', channel=9, note=42, velocity=106, time=0),\n",
      "    Message('control_change', channel=9, control=7, value=19, time=30),\n",
      "    Message('note_on', channel=9, note=42, velocity=0, time=25),\n",
      "    Message('note_on', channel=9, note=38, velocity=0, time=0),\n",
      "    Message('control_change', channel=9, control=7, value=18, time=65),\n",
      "    Message('note_on', channel=9, note=42, velocity=106, time=0),\n",
      "    Message('note_on', channel=9, note=42, velocity=0, time=55),\n",
      "    Message('control_change', channel=9, control=7, value=17, time=65),\n",
      "    Message('note_on', channel=9, note=36, velocity=106, time=0),\n",
      "    Message('note_on', channel=9, note=42, velocity=106, time=0),\n",
      "    Message('note_on', channel=9, note=42, velocity=0, time=55),\n",
      "    Message('note_on', channel=9, note=36, velocity=0, time=0),\n",
      "    Message('control_change', channel=9, control=7, value=16, time=65),\n",
      "    Message('note_on', channel=9, note=42, velocity=106, time=0),\n",
      "    Message('note_on', channel=9, note=42, velocity=0, time=55),\n",
      "    Message('control_change', channel=9, control=7, value=15, time=35),\n",
      "    Message('note_on', channel=9, note=38, velocity=106, time=30),\n",
      "    Message('note_on', channel=9, note=42, velocity=106, time=0),\n",
      "    Message('note_on', channel=9, note=42, velocity=0, time=55),\n",
      "    Message('note_on', channel=9, note=38, velocity=0, time=0),\n",
      "    Message('control_change', channel=9, control=7, value=14, time=35),\n",
      "    Message('note_on', channel=9, note=42, velocity=106, time=30),\n",
      "    Message('note_on', channel=9, note=42, velocity=0, time=55),\n",
      "    Message('control_change', channel=9, control=7, value=13, time=5),\n",
      "    Message('note_on', channel=9, note=38, velocity=106, time=0),\n",
      "    Message('note_on', channel=9, note=38, velocity=0, time=35),\n",
      "    Message('note_on', channel=9, note=36, velocity=106, time=25),\n",
      "    Message('note_on', channel=9, note=42, velocity=106, time=0),\n",
      "    Message('note_on', channel=9, note=49, velocity=106, time=0),\n",
      "    Message('note_on', channel=9, note=49, velocity=0, time=35),\n",
      "    Message('note_on', channel=9, note=42, velocity=0, time=20),\n",
      "    Message('note_on', channel=9, note=36, velocity=0, time=0),\n",
      "    Message('control_change', channel=9, control=7, value=12, time=5),\n",
      "    Message('note_on', channel=9, note=42, velocity=106, time=60),\n",
      "    Message('control_change', channel=9, control=7, value=11, time=30),\n",
      "    Message('note_on', channel=9, note=42, velocity=0, time=25),\n",
      "    Message('note_on', channel=9, note=38, velocity=106, time=65),\n",
      "    Message('note_on', channel=9, note=42, velocity=106, time=0),\n",
      "    Message('control_change', channel=9, control=7, value=10, time=30),\n",
      "    Message('note_on', channel=9, note=42, velocity=0, time=25),\n",
      "    Message('note_on', channel=9, note=38, velocity=0, time=0),\n",
      "    Message('control_change', channel=9, control=7, value=9, time=65),\n",
      "    Message('note_on', channel=9, note=42, velocity=106, time=0),\n",
      "    Message('note_on', channel=9, note=42, velocity=0, time=55),\n",
      "    Message('control_change', channel=9, control=7, value=8, time=65),\n",
      "    Message('note_on', channel=9, note=36, velocity=106, time=0),\n",
      "    Message('note_on', channel=9, note=42, velocity=106, time=0),\n",
      "    Message('note_on', channel=9, note=42, velocity=0, time=55),\n",
      "    Message('note_on', channel=9, note=36, velocity=0, time=0),\n",
      "    Message('control_change', channel=9, control=7, value=7, time=65),\n",
      "    Message('note_on', channel=9, note=42, velocity=106, time=0),\n",
      "    Message('note_on', channel=9, note=42, velocity=0, time=55),\n",
      "    Message('control_change', channel=9, control=7, value=6, time=35),\n",
      "    Message('note_on', channel=9, note=38, velocity=106, time=30),\n",
      "    Message('note_on', channel=9, note=42, velocity=106, time=0),\n",
      "    Message('note_on', channel=9, note=42, velocity=0, time=55),\n",
      "    Message('note_on', channel=9, note=38, velocity=0, time=0),\n",
      "    Message('control_change', channel=9, control=7, value=5, time=35),\n",
      "    Message('note_on', channel=9, note=42, velocity=106, time=30),\n",
      "    Message('note_on', channel=9, note=42, velocity=0, time=55),\n",
      "    Message('control_change', channel=9, control=7, value=4, time=5),\n",
      "    Message('note_on', channel=9, note=38, velocity=106, time=0),\n",
      "    Message('note_on', channel=9, note=38, velocity=0, time=35),\n",
      "    Message('note_on', channel=9, note=36, velocity=106, time=25),\n",
      "    Message('note_on', channel=9, note=42, velocity=106, time=0),\n",
      "    Message('note_on', channel=9, note=49, velocity=106, time=0),\n",
      "    Message('note_on', channel=9, note=49, velocity=0, time=35),\n",
      "    Message('note_on', channel=9, note=42, velocity=0, time=20),\n",
      "    Message('note_on', channel=9, note=36, velocity=0, time=0),\n",
      "    Message('control_change', channel=9, control=7, value=3, time=5),\n",
      "    Message('note_on', channel=9, note=42, velocity=106, time=60),\n",
      "    Message('control_change', channel=9, control=7, value=2, time=30),\n",
      "    Message('note_on', channel=9, note=42, velocity=0, time=25),\n",
      "    Message('note_on', channel=9, note=38, velocity=106, time=65),\n",
      "    Message('note_on', channel=9, note=42, velocity=106, time=0),\n",
      "    Message('control_change', channel=9, control=7, value=1, time=30),\n",
      "    Message('note_on', channel=9, note=42, velocity=0, time=25),\n",
      "    Message('note_on', channel=9, note=38, velocity=0, time=0),\n",
      "    Message('control_change', channel=9, control=7, value=0, time=5),\n",
      "    Message('note_on', channel=9, note=42, velocity=106, time=60),\n",
      "    Message('note_on', channel=9, note=42, velocity=0, time=55),\n",
      "    Message('note_on', channel=9, note=36, velocity=106, time=65),\n",
      "    Message('note_on', channel=9, note=42, velocity=106, time=0),\n",
      "    Message('note_on', channel=9, note=42, velocity=0, time=55),\n",
      "    Message('note_on', channel=9, note=36, velocity=0, time=0),\n",
      "    Message('note_on', channel=9, note=42, velocity=106, time=65),\n",
      "    Message('note_on', channel=9, note=42, velocity=0, time=55),\n",
      "    Message('note_on', channel=9, note=38, velocity=106, time=65),\n",
      "    Message('note_on', channel=9, note=42, velocity=106, time=0),\n",
      "    Message('note_on', channel=9, note=42, velocity=0, time=55),\n",
      "    Message('note_on', channel=9, note=38, velocity=0, time=0),\n",
      "    Message('note_on', channel=9, note=42, velocity=106, time=65),\n",
      "    Message('note_on', channel=9, note=42, velocity=0, time=55),\n",
      "    MetaMessage('end_of_track', time=0)]),\n",
      "  MidiTrack([\n",
      "    MetaMessage('midi_port', port=0, time=0),\n",
      "    MetaMessage('track_name', name='   \"Caught Up In You\"', time=0),\n",
      "    MetaMessage('end_of_track', time=0)]),\n",
      "  MidiTrack([\n",
      "    MetaMessage('midi_port', port=0, time=0),\n",
      "    MetaMessage('track_name', name='      By .38 Special', time=0),\n",
      "    MetaMessage('end_of_track', time=0)]),\n",
      "  MidiTrack([\n",
      "    MetaMessage('midi_port', port=0, time=0),\n",
      "    MetaMessage('track_name', name='Seq. By Norma Williams', time=0),\n",
      "    MetaMessage('end_of_track', time=0)])\n",
      "])\n"
     ]
    }
   ],
   "source": [
    "# Sample MIDI file content\n",
    "file_path = \"Data\\\\Archive\\\\.38 Special\\\\Caught Up In You.mid\"\n",
    "\n",
    "# Load the MIDI file\n",
    "midi_file = md.MidiFile(file_path)\n",
    "\n",
    "# Print the MIDI file content\n",
    "print(midi_file)"
   ]
  }
 ],
 "metadata": {
  "kernelspec": {
   "display_name": "Python 3",
   "language": "python",
   "name": "python3"
  },
  "language_info": {
   "codemirror_mode": {
    "name": "ipython",
    "version": 3
   },
   "file_extension": ".py",
   "mimetype": "text/x-python",
   "name": "python",
   "nbconvert_exporter": "python",
   "pygments_lexer": "ipython3",
   "version": "3.12.2"
  }
 },
 "nbformat": 4,
 "nbformat_minor": 2
}
